<?xml version="1.0" encoding="UTF-8"?>
<!DOCTYPE svg PUBLIC "-//W3C//DTD SVG 1.1//EN" "http://www.w3.org/Graphics/SVG/1.1/DTD/svg11.dtd">
<svg xmlns="http://www.w3.org/2000/svg" version="1.1" width="1000px" height="991px" style="shape-rendering:geometricPrecision; text-rendering:geometricPrecision; image-rendering:optimizeQuality; fill-rule:evenodd; clip-rule:evenodd" xmlns:xlink="http://www.w3.org/1999/xlink">
<g><path style="opacity:0.031" fill="#f6e9dd" d="M 495.5,3.5 C 495.66,5.19919 495.494,6.86586 495,8.5C 484.974,37.7433 475.474,67.0767 466.5,96.5C 462.458,110.627 457.791,124.627 452.5,138.5C 444.717,160.803 437.383,183.47 430.5,206.5C 426.923,214.789 424.256,223.456 422.5,232.5C 418.136,242.423 414.636,252.757 412,263.5C 411.617,264.056 411.117,264.389 410.5,264.5C 437.862,177.083 466.195,90.0833 495.5,3.5 Z"/></g>
<g><path style="opacity:0.031" fill="#cdc9c8" d="M 500.5,1.5 C 501.458,1.9528 502.292,2.61947 503,3.5C 506.143,12.4267 508.976,21.4267 511.5,30.5C 511.5,31.5 511.5,32.5 511.5,33.5C 507.651,23.2901 503.984,12.9568 500.5,2.5C 500.5,2.16667 500.5,1.83333 500.5,1.5 Z"/></g>
<g><path style="opacity:0.941" fill="#cb8656" d="M 500.5,2.5 C 503.984,12.9568 507.651,23.2901 511.5,33.5C 518.731,55.1895 525.731,76.8562 532.5,98.5C 532.883,102.319 533.883,105.986 535.5,109.5C 535.192,110.308 534.692,110.975 534,111.5C 532.266,110.751 530.433,110.251 528.5,110C 518.499,109.447 508.499,108.947 498.5,108.5C 498.5,86.8333 498.5,65.1667 498.5,43.5C 498.333,30.1625 498.5,16.8292 499,3.5C 499.383,2.94404 499.883,2.61071 500.5,2.5 Z"/></g>
<g><path style="opacity:0.957" fill="#cd7b46" d="M 500.5,1.5 C 500.5,1.83333 500.5,2.16667 500.5,2.5C 499.883,2.61071 499.383,2.94404 499,3.5C 498.5,16.8292 498.333,30.1625 498.5,43.5C 497.503,64.9936 497.169,86.6602 497.5,108.5C 486.787,108.835 476.12,109.502 465.5,110.5C 462.833,109.5 462.833,108.5 465.5,107.5C 464.025,104.755 464.691,102.588 467.5,101C 466.62,99.6439 466.286,98.1439 466.5,96.5C 475.474,67.0767 484.974,37.7433 495,8.5C 495.494,6.86586 495.66,5.19919 495.5,3.5C 496.785,1.34115 498.452,0.67448 500.5,1.5 Z"/></g>
<g><path style="opacity:0.969" fill="#cf814e" d="M 498.5,43.5 C 498.5,65.1667 498.5,86.8333 498.5,108.5C 497.936,122.827 497.603,137.16 497.5,151.5C 482.129,151.562 466.796,152.062 451.5,153C 450.892,151.769 450.559,150.436 450.5,149C 451.276,145.511 451.942,142.011 452.5,138.5C 457.791,124.627 462.458,110.627 466.5,96.5C 466.286,98.1439 466.62,99.6439 467.5,101C 464.691,102.588 464.025,104.755 465.5,107.5C 462.833,108.5 462.833,109.5 465.5,110.5C 476.12,109.502 486.787,108.835 497.5,108.5C 497.169,86.6602 497.503,64.9936 498.5,43.5 Z"/></g>
<g><path style="opacity:0.965" fill="#cf8d60" d="M 532.5,98.5 C 539.923,119.108 546.589,140.108 552.5,161.5C 552.423,162.75 551.756,163.583 550.5,164C 553.06,166.336 552.394,167.503 548.5,167.5C 531.904,165.282 515.237,163.948 498.5,163.5C 498.829,176.344 498.495,189.011 497.5,201.5C 497.5,184.833 497.5,168.167 497.5,151.5C 497.603,137.16 497.936,122.827 498.5,108.5C 508.499,108.947 518.499,109.447 528.5,110C 530.433,110.251 532.266,110.751 534,111.5C 534.692,110.975 535.192,110.308 535.5,109.5C 533.883,105.986 532.883,102.319 532.5,98.5 Z"/></g>
<g><path style="opacity:0.007" fill="#e5e4e3" d="M 511.5,30.5 C 541.739,120.551 571.405,210.884 600.5,301.5C 600.167,301.5 599.833,301.5 599.5,301.5C 589.078,268.901 578.078,236.567 566.5,204.5C 562.224,190.007 557.558,175.674 552.5,161.5C 546.589,140.108 539.923,119.108 532.5,98.5C 525.731,76.8562 518.731,55.1895 511.5,33.5C 511.5,32.5 511.5,31.5 511.5,30.5 Z"/></g>
<g><path style="opacity:0.979" fill="#d29366" d="M 552.5,161.5 C 557.558,175.674 562.224,190.007 566.5,204.5C 565.265,206.773 565.598,208.606 567.5,210C 566.845,211.487 565.845,212.653 564.5,213.5C 542.808,208.414 520.808,206.081 498.5,206.5C 498.825,214.352 498.492,222.018 497.5,229.5C 497.5,226.5 497.5,223.5 497.5,220.5C 497.5,214.167 497.5,207.833 497.5,201.5C 498.495,189.011 498.829,176.344 498.5,163.5C 515.237,163.948 531.904,165.282 548.5,167.5C 552.394,167.503 553.06,166.336 550.5,164C 551.756,163.583 552.423,162.75 552.5,161.5 Z"/></g>
<g><path style="opacity:0.98" fill="#d38959" d="M 452.5,138.5 C 451.942,142.011 451.276,145.511 450.5,149C 450.559,150.436 450.892,151.769 451.5,153C 466.796,152.062 482.129,151.562 497.5,151.5C 497.5,168.167 497.5,184.833 497.5,201.5C 497.5,207.833 497.5,214.167 497.5,220.5C 473.83,220.881 450.497,223.881 427.5,229.5C 426.756,228.009 426.09,226.509 425.5,225C 427.468,218.926 429.135,212.76 430.5,206.5C 437.383,183.47 444.717,160.803 452.5,138.5 Z"/></g>
<g><path style="opacity:0.991" fill="#d48d5f" d="M 430.5,206.5 C 429.135,212.76 427.468,218.926 425.5,225C 426.09,226.509 426.756,228.009 427.5,229.5C 450.497,223.881 473.83,220.881 497.5,220.5C 497.5,223.5 497.5,226.5 497.5,229.5C 497.5,235.167 497.5,240.833 497.5,246.5C 471.127,246.387 445.293,250.053 420,257.5C 418.668,259.936 417.501,259.936 416.5,257.5C 417.736,255.689 417.736,253.856 416.5,252C 419.212,245.698 421.212,239.198 422.5,232.5C 424.256,223.456 426.923,214.789 430.5,206.5 Z"/></g>
<g><path style="opacity:0.985" fill="#d49a71" d="M 566.5,204.5 C 578.078,236.567 589.078,268.901 599.5,301.5C 595.603,305.46 591.269,308.96 586.5,312C 580.973,311.866 575.64,311.032 570.5,309.5C 566.117,307.77 561.45,306.77 556.5,306.5C 531.276,303.27 505.942,301.937 480.5,302.5C 485.975,301.511 491.642,301.178 497.5,301.5C 497.5,283.167 497.5,264.833 497.5,246.5C 497.5,240.833 497.5,235.167 497.5,229.5C 498.492,222.018 498.825,214.352 498.5,206.5C 520.808,206.081 542.808,208.414 564.5,213.5C 565.845,212.653 566.845,211.487 567.5,210C 565.598,208.606 565.265,206.773 566.5,204.5 Z"/></g>
<g><path style="opacity:0.985" fill="#d69266" d="M 422.5,232.5 C 421.212,239.198 419.212,245.698 416.5,252C 417.736,253.856 417.736,255.689 416.5,257.5C 417.501,259.936 418.668,259.936 420,257.5C 445.293,250.053 471.127,246.387 497.5,246.5C 497.5,264.833 497.5,283.167 497.5,301.5C 491.642,301.178 485.975,301.511 480.5,302.5C 452.221,302.968 424.555,306.968 397.5,314.5C 396.478,314.145 395.811,313.478 395.5,312.5C 399.931,298.54 404.598,284.54 409.5,270.5C 409.818,269.353 410.484,268.519 411.5,268C 410.663,266.989 410.33,265.822 410.5,264.5C 411.117,264.389 411.617,264.056 412,263.5C 414.636,252.757 418.136,242.423 422.5,232.5 Z"/></g>
<g><path style="opacity:0.995" fill="#201f1f" d="M 394.5,311.5 C 394.5,312.167 394.833,312.5 395.5,312.5C 395.811,313.478 396.478,314.145 397.5,314.5C 424.555,306.968 452.221,302.968 480.5,302.5C 505.942,301.937 531.276,303.27 556.5,306.5C 556.918,307.222 557.584,307.722 558.5,308C 562.51,308.501 566.51,309.001 570.5,309.5C 575.64,311.032 580.973,311.866 586.5,312C 591.269,308.96 595.603,305.46 599.5,301.5C 599.833,301.5 600.167,301.5 600.5,301.5C 617.618,291.107 635.618,282.607 654.5,276C 666.313,272.818 678.313,271.818 690.5,273C 702.325,301.44 705.658,330.94 700.5,361.5C 700.5,361.833 700.5,362.167 700.5,362.5C 698.206,364.763 696.872,367.596 696.5,371C 718.242,392.645 732.576,418.478 739.5,448.5C 741.923,461.024 742.923,473.691 742.5,486.5C 742.438,509.587 741.105,532.587 738.5,555.5C 738.5,555.833 738.5,556.167 738.5,556.5C 737.191,561.074 736.191,565.74 735.5,570.5C 796.769,567.214 857.436,571.214 917.5,582.5C 917.5,584.167 917.5,585.833 917.5,587.5C 903.673,585.836 890.007,583.669 876.5,581C 828.963,576.041 781.297,574.208 733.5,575.5C 732.167,579.833 730.833,584.167 729.5,588.5C 792.246,590.217 853.913,599.051 914.5,615C 917.125,617.276 916.792,619.109 913.5,620.5C 894.994,615.299 876.327,610.799 857.5,607C 839.403,604.323 821.403,601.657 803.5,599C 777.906,596.063 752.239,594.73 726.5,595C 721.209,606.425 714.542,616.925 706.5,626.5C 706.167,626.5 705.833,626.5 705.5,626.5C 690.361,641.241 673.028,652.741 653.5,661C 638.445,666.004 623.445,670.504 608.5,674.5C 607.833,674.5 607.167,674.5 606.5,674.5C 594.892,675.877 583.559,677.877 572.5,680.5C 569.941,680.198 567.607,680.532 565.5,681.5C 519.754,681.398 474.087,681.398 428.5,681.5C 415.813,678.611 402.813,676.278 389.5,674.5C 366.194,669.564 343.861,661.731 322.5,651C 312.345,644.337 302.345,637.503 292.5,630.5C 292.5,629.833 292.167,629.5 291.5,629.5C 289.167,626.5 286.5,623.833 283.5,621.5C 281.883,618.216 279.55,615.549 276.5,613.5C 273.22,607.559 269.553,601.892 265.5,596.5C 262.062,595.177 258.229,594.51 254,594.5C 194.487,596.833 135.987,605.5 78.5,620.5C 78.2606,618.533 78.5939,616.699 79.5,615C 88.3335,613.038 97.0001,610.704 105.5,608C 157.012,597.388 209.012,590.721 261.5,588C 259.704,584.24 258.038,580.407 256.5,576.5C 210.041,574.237 163.707,575.737 117.5,581C 103.993,583.669 90.3266,585.836 76.5,587.5C 76.2865,585.856 76.6198,584.356 77.5,583C 81.6621,582.474 85.6621,581.474 89.5,580C 111.147,576.965 132.813,574.299 154.5,572C 187.507,569.56 220.507,569.06 253.5,570.5C 253.833,570.167 254.167,569.833 254.5,569.5C 251.226,562.383 248.893,555.05 247.5,547.5C 247.5,545.5 247.5,543.5 247.5,541.5C 243.821,516.3 242.654,490.966 244,465.5C 244.596,458.362 245.762,451.362 247.5,444.5C 254.078,420.015 265.911,398.348 283,379.5C 282.028,374.929 281.028,370.263 280,365.5C 279.623,364.058 278.79,363.058 277.5,362.5C 277.5,362.167 277.5,361.833 277.5,361.5C 272.342,330.942 275.675,301.442 287.5,273C 300.395,271.717 313.062,272.884 325.5,276.5C 332.706,279.625 340.039,282.458 347.5,285C 363.513,293.337 379.18,302.17 394.5,311.5 Z"/></g>
<g><path style="opacity:0.007" fill="#f8f1e5" d="M 410.5,264.5 C 410.33,265.822 410.663,266.989 411.5,268C 410.484,268.519 409.818,269.353 409.5,270.5C 404.598,284.54 399.931,298.54 395.5,312.5C 394.833,312.5 394.5,312.167 394.5,311.5C 399.457,295.626 404.791,279.959 410.5,264.5 Z"/></g>
<g><path style="opacity:1" fill="#705745" d="M 556.5,306.5 C 561.45,306.77 566.117,307.77 570.5,309.5C 566.51,309.001 562.51,308.501 558.5,308C 557.584,307.722 556.918,307.222 556.5,306.5 Z"/></g>
<g><path style="opacity:0.008" fill="#fff9f8" d="M 277.5,361.5 C 277.5,361.833 277.5,362.167 277.5,362.5C 227.5,362.5 177.5,362.5 127.5,362.5C 85.5,362.5 43.5,362.5 1.5,362.5C 1.91753,361.778 2.5842,361.278 3.5,361C 17.8333,360.833 32.1667,360.667 46.5,360.5C 123.498,361.348 200.498,361.681 277.5,361.5 Z"/></g>
<g><path style="opacity:0.007" fill="#fffef8" d="M 998.5,362.5 C 939.5,362.5 880.5,362.5 821.5,362.5C 781.167,362.5 740.833,362.5 700.5,362.5C 700.5,362.167 700.5,361.833 700.5,361.5C 785.169,361.697 869.836,361.364 954.5,360.5C 968.833,360.667 983.167,360.833 997.5,361C 998.056,361.383 998.389,361.883 998.5,362.5 Z"/></g>
<g><path style="opacity:0.944" fill="#f5c7a5" d="M 821.5,363.5 C 821.5,363.167 821.5,362.833 821.5,362.5C 880.5,362.5 939.5,362.5 998.5,362.5C 998.833,362.5 999.167,362.5 999.5,362.5C 999.5,363.167 999.5,363.833 999.5,364.5C 965.755,375.304 932.089,386.304 898.5,397.5C 895.69,386.877 892.024,376.544 887.5,366.5C 884.215,365.676 880.882,365.176 877.5,365C 887.833,364.667 898.167,364.333 908.5,364C 879.502,363.5 850.502,363.333 821.5,363.5 Z"/></g>
<g><path style="opacity:0.95" fill="#f0bd95" d="M 1.5,362.5 C 43.5,362.5 85.5,362.5 127.5,362.5C 149.037,363.172 170.704,364.339 192.5,366C 185.809,366.169 179.142,366.669 172.5,367.5C 164.915,382.594 158.915,398.261 154.5,414.5C 144.869,411.343 135.202,408.343 125.5,405.5C 110.027,399.898 94.3602,394.898 78.5,390.5C 52.7845,381.261 26.7845,372.595 0.5,364.5C 0.32842,363.508 0.661754,362.842 1.5,362.5 Z"/></g>
<g><path style="opacity:0.972" fill="#f1c49f" d="M 127.5,362.5 C 177.5,362.5 227.5,362.5 277.5,362.5C 278.79,363.058 279.623,364.058 280,365.5C 281.028,370.263 282.028,374.929 283,379.5C 265.911,398.348 254.078,420.015 247.5,444.5C 231.419,439.812 215.419,434.812 199.5,429.5C 189.552,425.962 179.552,422.628 169.5,419.5C 164.421,418.029 159.421,416.363 154.5,414.5C 158.915,398.261 164.915,382.594 172.5,367.5C 179.142,366.669 185.809,366.169 192.5,366C 170.704,364.339 149.037,363.172 127.5,362.5 Z"/></g>
<g><path style="opacity:0.976" fill="#f6d0b2" d="M 700.5,362.5 C 740.833,362.5 781.167,362.5 821.5,362.5C 821.5,362.833 821.5,363.167 821.5,363.5C 806.005,364.331 790.339,364.831 774.5,365C 781.856,365.169 789.189,365.669 796.5,366.5C 806.388,384.272 814.054,402.939 819.5,422.5C 807.102,426.633 794.769,430.966 782.5,435.5C 768.107,439.631 753.773,443.964 739.5,448.5C 732.576,418.478 718.242,392.645 696.5,371C 696.872,367.596 698.206,364.763 700.5,362.5 Z"/></g>
<g><path style="opacity:0.951" fill="#f5cbac" d="M 821.5,363.5 C 850.502,363.333 879.502,363.5 908.5,364C 898.167,364.333 887.833,364.667 877.5,365C 880.882,365.176 884.215,365.676 887.5,366.5C 892.024,376.544 895.69,386.877 898.5,397.5C 896.167,398.167 893.833,398.833 891.5,399.5C 871.14,406.176 850.807,412.842 830.5,419.5C 826.89,420.703 823.223,421.703 819.5,422.5C 814.054,402.939 806.388,384.272 796.5,366.5C 789.189,365.669 781.856,365.169 774.5,365C 790.339,364.831 806.005,364.331 821.5,363.5 Z"/></g>
<g><path style="opacity:0.006" fill="#ddcec4" d="M 0.5,366.5 C 3.08917,367.419 5.08917,369.086 6.5,371.5C 3.91083,370.581 1.91083,368.914 0.5,366.5 Z"/></g>
<g><path style="opacity:0.016" fill="#edcbca" d="M 6.5,371.5 C 8.40435,371.738 9.73769,372.738 10.5,374.5C 8.59565,374.262 7.26231,373.262 6.5,371.5 Z"/></g>
<g><path style="opacity:0.006" fill="#f5f5f5" d="M 992.5,372.5 C 992.027,373.906 991.027,374.573 989.5,374.5C 989.973,373.094 990.973,372.427 992.5,372.5 Z"/></g>
<g><path style="opacity:0.006" fill="#f0f0f0" d="M 10.5,374.5 C 12.0269,374.427 13.0269,375.094 13.5,376.5C 11.9731,376.573 10.9731,375.906 10.5,374.5 Z"/></g>
<g><path style="opacity:0.006" fill="#f5f5f5" d="M 988.5,375.5 C 988.027,376.906 987.027,377.573 985.5,377.5C 985.973,376.094 986.973,375.427 988.5,375.5 Z"/></g>
<g><path style="opacity:0.012" fill="#d8cccc" d="M 13.5,376.5 C 15.4044,376.738 16.7377,377.738 17.5,379.5C 15.5956,379.262 14.2623,378.262 13.5,376.5 Z"/></g>
<g><path style="opacity:0.016" fill="#eddeca" d="M 17.5,379.5 C 19.4044,379.738 20.7377,380.738 21.5,382.5C 19.5956,382.262 18.2623,381.262 17.5,379.5 Z"/></g>
<g><path style="opacity:0.917" fill="#6d2e03" d="M 0.5,364.5 C 26.7845,372.595 52.7845,381.261 78.5,390.5C 76.2372,398.792 74.0706,407.125 72,415.5C 71.6924,414.692 71.1924,414.025 70.5,413.5C 69.3044,413.846 69.3044,414.346 70.5,415C 69.9056,415.464 69.2389,415.631 68.5,415.5C 67.609,414.89 66.609,414.557 65.5,414.5C 64.7377,412.738 63.4044,411.738 61.5,411.5C 60.7377,409.738 59.4044,408.738 57.5,408.5C 57.0269,407.094 56.0269,406.427 54.5,406.5C 53.7377,404.738 52.4044,403.738 50.5,403.5C 49.7377,401.738 48.4044,400.738 46.5,400.5C 46.0269,399.094 45.0269,398.427 43.5,398.5C 42.7377,396.738 41.4044,395.738 39.5,395.5C 38.7377,393.738 37.4044,392.738 35.5,392.5C 35.0269,391.094 34.0269,390.427 32.5,390.5C 31.7377,388.738 30.4044,387.738 28.5,387.5C 27.7377,385.738 26.4044,384.738 24.5,384.5C 24.0269,383.094 23.0269,382.427 21.5,382.5C 20.7377,380.738 19.4044,379.738 17.5,379.5C 16.7377,377.738 15.4044,376.738 13.5,376.5C 13.0269,375.094 12.0269,374.427 10.5,374.5C 9.73769,372.738 8.40435,371.738 6.5,371.5C 5.08917,369.086 3.08917,367.419 0.5,366.5C 0.5,365.833 0.5,365.167 0.5,364.5 Z"/></g>
<g><path style="opacity:0.006" fill="#f5f5f5" d="M 981.5,380.5 C 981.027,381.906 980.027,382.573 978.5,382.5C 978.973,381.094 979.973,380.427 981.5,380.5 Z"/></g>
<g><path style="opacity:0.006" fill="#f0f0f0" d="M 21.5,382.5 C 23.0269,382.427 24.0269,383.094 24.5,384.5C 22.9731,384.573 21.9731,383.906 21.5,382.5 Z"/></g>
<g><path style="opacity:0.006" fill="#fff5f5" d="M 977.5,383.5 C 977.027,384.906 976.027,385.573 974.5,385.5C 974.973,384.094 975.973,383.427 977.5,383.5 Z"/></g>
<g><path style="opacity:0.012" fill="#d8cccc" d="M 24.5,384.5 C 26.4044,384.738 27.7377,385.738 28.5,387.5C 26.5956,387.262 25.2623,386.262 24.5,384.5 Z"/></g>
<g><path style="opacity:0.006" fill="#f8f7f0" d="M 974.5,385.5 C 974.027,386.906 973.027,387.573 971.5,387.5C 971.973,386.094 972.973,385.427 974.5,385.5 Z"/></g>
<g><path style="opacity:0.016" fill="#eddeca" d="M 28.5,387.5 C 30.4044,387.738 31.7377,388.738 32.5,390.5C 30.5956,390.262 29.2623,389.262 28.5,387.5 Z"/></g>
<g><path style="opacity:0.006" fill="#f5f5f5" d="M 970.5,388.5 C 970.027,389.906 969.027,390.573 967.5,390.5C 967.973,389.094 968.973,388.427 970.5,388.5 Z"/></g>
<g><path style="opacity:0.006" fill="#f0f0f0" d="M 32.5,390.5 C 34.0269,390.427 35.0269,391.094 35.5,392.5C 33.9731,392.573 32.9731,391.906 32.5,390.5 Z"/></g>
<g><path style="opacity:0.016" fill="#edcbca" d="M 35.5,392.5 C 37.4044,392.738 38.7377,393.738 39.5,395.5C 37.5956,395.262 36.2623,394.262 35.5,392.5 Z"/></g>
<g><path style="opacity:0.955" fill="#73360b" d="M 78.5,390.5 C 94.3602,394.898 110.027,399.898 125.5,405.5C 120.919,419.338 117.252,433.172 114.5,447C 113.906,447.464 113.239,447.631 112.5,447.5C 111.609,446.89 110.609,446.557 109.5,446.5C 108.826,444.976 107.826,443.642 106.5,442.5C 108.02,439.845 107.52,439.178 105,440.5C 103.775,440.138 102.609,439.638 101.5,439C 101.833,438.667 102.167,438.333 102.5,438C 99.7206,437.439 97.054,436.606 94.5,435.5C 94.0269,434.094 93.0269,433.427 91.5,433.5C 90.7377,431.738 89.4044,430.738 87.5,430.5C 86.7377,428.738 85.4044,427.738 83.5,427.5C 83.0269,426.094 82.0269,425.427 80.5,425.5C 79.7377,423.738 78.4044,422.738 76.5,422.5C 75.7377,420.738 74.4044,419.738 72.5,419.5C 72.0269,418.094 71.0269,417.427 69.5,417.5C 69.1667,416.833 68.8333,416.167 68.5,415.5C 69.2389,415.631 69.9056,415.464 70.5,415C 69.3044,414.346 69.3044,413.846 70.5,413.5C 71.1924,414.025 71.6924,414.692 72,415.5C 74.0706,407.125 76.2372,398.792 78.5,390.5 Z"/></g>
<g><path style="opacity:0.958" fill="#8c3915" d="M 999.5,364.5 C 999.5,365.5 999.5,366.5 999.5,367.5C 997.469,369.522 995.135,371.189 992.5,372.5C 990.973,372.427 989.973,373.094 989.5,374.5C 989.5,375.167 989.167,375.5 988.5,375.5C 986.973,375.427 985.973,376.094 985.5,377.5C 984.564,378.974 983.23,379.974 981.5,380.5C 979.973,380.427 978.973,381.094 978.5,382.5C 978.5,383.167 978.167,383.5 977.5,383.5C 975.973,383.427 974.973,384.094 974.5,385.5C 972.973,385.427 971.973,386.094 971.5,387.5C 971.5,388.167 971.167,388.5 970.5,388.5C 968.973,388.427 967.973,389.094 967.5,390.5C 966.564,391.974 965.23,392.974 963.5,393.5C 961.973,393.427 960.973,394.094 960.5,395.5C 960.5,396.167 960.167,396.5 959.5,396.5C 957.973,396.427 956.973,397.094 956.5,398.5C 954.973,398.427 953.973,399.094 953.5,400.5C 953.5,401.167 953.167,401.5 952.5,401.5C 950.973,401.427 949.973,402.094 949.5,403.5C 949.5,404.167 949.167,404.5 948.5,404.5C 946.973,404.427 945.973,405.094 945.5,406.5C 943.973,406.427 942.973,407.094 942.5,408.5C 942.5,409.167 942.167,409.5 941.5,409.5C 939.973,409.427 938.973,410.094 938.5,411.5C 938.5,412.167 938.167,412.5 937.5,412.5C 935.973,412.427 934.973,413.094 934.5,414.5C 932.973,414.427 931.973,415.094 931.5,416.5C 931.5,417.167 931.167,417.5 930.5,417.5C 928.973,417.427 927.973,418.094 927.5,419.5C 926.564,420.974 925.23,421.974 923.5,422.5C 921.973,422.427 920.973,423.094 920.5,424.5C 920.5,425.167 920.167,425.5 919.5,425.5C 917.973,425.427 916.973,426.094 916.5,427.5C 914.973,427.427 913.973,428.094 913.5,429.5C 913.5,430.167 913.167,430.5 912.5,430.5C 910.973,430.427 909.973,431.094 909.5,432.5C 907.99,431.272 906.49,431.272 905,432.5C 904.667,431.833 904.333,431.167 904,430.5C 903.51,431.793 903.343,433.127 903.5,434.5C 902.178,434.67 901.011,434.337 900,433.5C 897.16,422.141 894.327,410.808 891.5,399.5C 893.833,398.833 896.167,398.167 898.5,397.5C 932.089,386.304 965.755,375.304 999.5,364.5 Z"/></g>
<g><path style="opacity:0.006" fill="#f5f5f5" d="M 963.5,393.5 C 963.027,394.906 962.027,395.573 960.5,395.5C 960.973,394.094 961.973,393.427 963.5,393.5 Z"/></g>
<g><path style="opacity:0.016" fill="#eddeca" d="M 39.5,395.5 C 41.4044,395.738 42.7377,396.738 43.5,398.5C 41.5956,398.262 40.2623,397.262 39.5,395.5 Z"/></g>
<g><path style="opacity:0.006" fill="#f5f5f5" d="M 959.5,396.5 C 959.027,397.906 958.027,398.573 956.5,398.5C 956.973,397.094 957.973,396.427 959.5,396.5 Z"/></g>
<g><path style="opacity:0.006" fill="#f0f0f0" d="M 43.5,398.5 C 45.0269,398.427 46.0269,399.094 46.5,400.5C 44.9731,400.573 43.9731,399.906 43.5,398.5 Z"/></g>
<g><path style="opacity:0.006" fill="#f8f7f0" d="M 956.5,398.5 C 956.027,399.906 955.027,400.573 953.5,400.5C 953.973,399.094 954.973,398.427 956.5,398.5 Z"/></g>
<g><path style="opacity:0.016" fill="#edcbca" d="M 46.5,400.5 C 48.4044,400.738 49.7377,401.738 50.5,403.5C 48.5956,403.262 47.2623,402.262 46.5,400.5 Z"/></g>
<g><path style="opacity:0.006" fill="#f5f5f5" d="M 952.5,401.5 C 952.027,402.906 951.027,403.573 949.5,403.5C 949.973,402.094 950.973,401.427 952.5,401.5 Z"/></g>
<g><path style="opacity:0.016" fill="#eddeca" d="M 50.5,403.5 C 52.4044,403.738 53.7377,404.738 54.5,406.5C 52.5956,406.262 51.2623,405.262 50.5,403.5 Z"/></g>
<g><path style="opacity:0.006" fill="#fff5f5" d="M 948.5,404.5 C 948.027,405.906 947.027,406.573 945.5,406.5C 945.973,405.094 946.973,404.427 948.5,404.5 Z"/></g>
<g><path style="opacity:0.006" fill="#f1f0e1" d="M 54.5,406.5 C 56.0269,406.427 57.0269,407.094 57.5,408.5C 55.9731,408.573 54.9731,407.906 54.5,406.5 Z"/></g>
<g><path style="opacity:0.006" fill="#f8f7f0" d="M 945.5,406.5 C 945.027,407.906 944.027,408.573 942.5,408.5C 942.973,407.094 943.973,406.427 945.5,406.5 Z"/></g>
<g><path style="opacity:0.016" fill="#edcbca" d="M 57.5,408.5 C 59.4044,408.738 60.7377,409.738 61.5,411.5C 59.5956,411.262 58.2623,410.262 57.5,408.5 Z"/></g>
<g><path style="opacity:0.006" fill="#f5f5f5" d="M 941.5,409.5 C 941.027,410.906 940.027,411.573 938.5,411.5C 938.973,410.094 939.973,409.427 941.5,409.5 Z"/></g>
<g><path style="opacity:0.016" fill="#eddeca" d="M 61.5,411.5 C 63.4044,411.738 64.7377,412.738 65.5,414.5C 63.5956,414.262 62.2623,413.262 61.5,411.5 Z"/></g>
<g><path style="opacity:0.974" fill="#7a4017" d="M 125.5,405.5 C 135.202,408.343 144.869,411.343 154.5,414.5C 159.421,416.363 164.421,418.029 169.5,419.5C 164.067,437.566 159.733,455.9 156.5,474.5C 156.863,475.183 157.196,475.85 157.5,476.5C 154.756,477.491 152.089,477.157 149.5,475.5C 149.027,474.094 148.027,473.427 146.5,473.5C 145.852,471.914 145.352,470.247 145,468.5C 144.586,468.957 144.086,469.291 143.5,469.5C 141.925,468.544 140.258,467.877 138.5,467.5C 136.704,465.1 134.37,463.433 131.5,462.5C 129.596,462.262 128.262,461.262 127.5,459.5C 125.704,457.1 123.37,455.433 120.5,454.5C 118.596,454.262 117.262,453.262 116.5,451.5C 116.027,450.094 115.027,449.427 113.5,449.5C 113.167,448.833 112.833,448.167 112.5,447.5C 113.239,447.631 113.906,447.464 114.5,447C 117.252,433.172 120.919,419.338 125.5,405.5 Z"/></g>
<g><path style="opacity:0.972" fill="#934522" d="M 891.5,399.5 C 894.327,410.808 897.16,422.141 900,433.5C 901.011,434.337 902.178,434.67 903.5,434.5C 903.343,433.127 903.51,431.793 904,430.5C 904.333,431.167 904.667,431.833 905,432.5C 906.49,431.272 907.99,431.272 909.5,432.5C 909.5,433.167 909.167,433.5 908.5,433.5C 906.973,433.427 905.973,434.094 905.5,435.5C 903.973,435.427 902.973,436.094 902.5,437.5C 902.5,438.167 902.167,438.5 901.5,438.5C 899.973,438.427 898.973,439.094 898.5,440.5C 898.5,441.167 898.167,441.5 897.5,441.5C 895.973,441.427 894.973,442.094 894.5,443.5C 892.973,443.427 891.973,444.094 891.5,445.5C 891.5,446.167 891.167,446.5 890.5,446.5C 888.973,446.427 887.973,447.094 887.5,448.5C 887.5,449.167 887.167,449.5 886.5,449.5C 884.973,449.427 883.973,450.094 883.5,451.5C 881.973,451.427 880.973,452.094 880.5,453.5C 880.5,454.167 880.167,454.5 879.5,454.5C 877.973,454.427 876.973,455.094 876.5,456.5C 875.564,457.974 874.23,458.974 872.5,459.5C 870.973,459.427 869.973,460.094 869.5,461.5C 869.5,462.167 869.167,462.5 868.5,462.5C 866.973,462.427 865.973,463.094 865.5,464.5C 863.973,464.427 862.973,465.094 862.5,466.5C 862.5,467.167 862.167,467.5 861.5,467.5C 859.973,467.427 858.973,468.094 858.5,469.5C 858.5,470.167 858.167,470.5 857.5,470.5C 855.973,470.427 854.973,471.094 854.5,472.5C 852.973,472.427 851.973,473.094 851.5,474.5C 851.5,475.167 851.167,475.5 850.5,475.5C 849.833,475.5 849.167,475.5 848.5,475.5C 845.762,476.035 843.928,475.035 843,472.5C 840.244,454.476 836.077,436.81 830.5,419.5C 850.807,412.842 871.14,406.176 891.5,399.5 Z"/></g>
<g><path style="opacity:0.006" fill="#fff5f5" d="M 937.5,412.5 C 937.027,413.906 936.027,414.573 934.5,414.5C 934.973,413.094 935.973,412.427 937.5,412.5 Z"/></g>
<g><path style="opacity:0.006" fill="#f8f7f0" d="M 934.5,414.5 C 934.027,415.906 933.027,416.573 931.5,416.5C 931.973,415.094 932.973,414.427 934.5,414.5 Z"/></g>
<g><path style="opacity:0.006" fill="#f4f4e6" d="M 65.5,414.5 C 66.609,414.557 67.609,414.89 68.5,415.5C 68.8333,416.167 69.1667,416.833 69.5,417.5C 67.5956,417.262 66.2623,416.262 65.5,414.5 Z"/></g>
<g><path style="opacity:0.006" fill="#f0f0f0" d="M 69.5,417.5 C 71.0269,417.427 72.0269,418.094 72.5,419.5C 70.9731,419.573 69.9731,418.906 69.5,417.5 Z"/></g>
<g><path style="opacity:0.006" fill="#f5f5f5" d="M 930.5,417.5 C 930.027,418.906 929.027,419.573 927.5,419.5C 927.973,418.094 928.973,417.427 930.5,417.5 Z"/></g>
<g><path style="opacity:0.016" fill="#eddeca" d="M 72.5,419.5 C 74.4044,419.738 75.7377,420.738 76.5,422.5C 74.5956,422.262 73.2623,421.262 72.5,419.5 Z"/></g>
<g><path style="opacity:0.006" fill="#f5f5f5" d="M 923.5,422.5 C 923.027,423.906 922.027,424.573 920.5,424.5C 920.973,423.094 921.973,422.427 923.5,422.5 Z"/></g>
<g><path style="opacity:0.006" fill="#f4f4e6" d="M 76.5,422.5 C 78.4044,422.738 79.7377,423.738 80.5,425.5C 78.5956,425.262 77.2623,424.262 76.5,422.5 Z"/></g>
<g><path style="opacity:0.977" fill="#804921" d="M 169.5,419.5 C 179.552,422.628 189.552,425.962 199.5,429.5C 192.599,451.671 188.266,474.338 186.5,497.5C 184.901,497.232 183.568,497.566 182.5,498.5C 181.609,497.89 180.609,497.557 179.5,497.5C 178.738,495.738 177.404,494.738 175.5,494.5C 173.596,494.262 172.262,493.262 171.5,491.5C 171.027,490.094 170.027,489.427 168.5,489.5C 167.738,487.738 166.404,486.738 164.5,486.5C 162.596,486.262 161.262,485.262 160.5,483.5C 159.011,481.355 158.011,479.022 157.5,476.5C 157.196,475.85 156.863,475.183 156.5,474.5C 159.733,455.9 164.067,437.566 169.5,419.5 Z"/></g>
<g><path style="opacity:0.006" fill="#f0f0f0" d="M 80.5,425.5 C 82.0269,425.427 83.0269,426.094 83.5,427.5C 81.9731,427.573 80.9731,426.906 80.5,425.5 Z"/></g>
<g><path style="opacity:0.006" fill="#f5f5f5" d="M 919.5,425.5 C 919.027,426.906 918.027,427.573 916.5,427.5C 916.973,426.094 917.973,425.427 919.5,425.5 Z"/></g>
<g><path style="opacity:0.016" fill="#eddeca" d="M 83.5,427.5 C 85.4044,427.738 86.7377,428.738 87.5,430.5C 85.5956,430.262 84.2623,429.262 83.5,427.5 Z"/></g>
<g><path style="opacity:0.972" fill="#994f2d" d="M 830.5,419.5 C 836.077,436.81 840.244,454.476 843,472.5C 843.928,475.035 845.762,476.035 848.5,475.5C 848.167,476.167 847.833,476.833 847.5,477.5C 847.5,478.167 847.167,478.5 846.5,478.5C 844.973,478.427 843.973,479.094 843.5,480.5C 841.973,480.427 840.973,481.094 840.5,482.5C 840.5,483.167 840.167,483.5 839.5,483.5C 837.973,483.427 836.973,484.094 836.5,485.5C 835.564,486.974 834.23,487.974 832.5,488.5C 830.973,488.427 829.973,489.094 829.5,490.5C 829.5,491.167 829.167,491.5 828.5,491.5C 826.973,491.427 825.973,492.094 825.5,493.5C 823.973,493.427 822.973,494.094 822.5,495.5C 822.5,496.167 822.167,496.5 821.5,496.5C 819.973,496.427 818.973,497.094 818.5,498.5C 818.5,499.167 818.167,499.5 817.5,499.5C 815.973,499.427 814.973,500.094 814.5,501.5C 812.973,501.427 811.973,502.094 811.5,503.5C 811.5,504.167 811.167,504.5 810.5,504.5C 808.973,504.427 807.973,505.094 807.5,506.5C 805.596,506.738 804.262,507.738 803.5,509.5C 801.973,509.427 800.973,510.094 800.5,511.5C 800.5,512.167 800.167,512.5 799.5,512.5C 798.391,512.557 797.391,512.89 796.5,513.5C 794.822,487.097 790.155,461.097 782.5,435.5C 794.769,430.966 807.102,426.633 819.5,422.5C 823.223,421.703 826.89,420.703 830.5,419.5 Z"/></g>
<g><path style="opacity:0.006" fill="#f8f7f0" d="M 916.5,427.5 C 916.027,428.906 915.027,429.573 913.5,429.5C 913.973,428.094 914.973,427.427 916.5,427.5 Z"/></g>
<g><path style="opacity:0.006" fill="#f5f5f5" d="M 912.5,430.5 C 912.027,431.906 911.027,432.573 909.5,432.5C 909.973,431.094 910.973,430.427 912.5,430.5 Z"/></g>
<g><path style="opacity:0.006" fill="#f4f4e6" d="M 87.5,430.5 C 89.4044,430.738 90.7377,431.738 91.5,433.5C 89.5956,433.262 88.2623,432.262 87.5,430.5 Z"/></g>
<g><path style="opacity:0.006" fill="#f0f0f0" d="M 91.5,433.5 C 93.0269,433.427 94.0269,434.094 94.5,435.5C 92.9731,435.573 91.9731,434.906 91.5,433.5 Z"/></g>
<g><path style="opacity:0.006" fill="#fff5f5" d="M 908.5,433.5 C 908.027,434.906 907.027,435.573 905.5,435.5C 905.973,434.094 906.973,433.427 908.5,433.5 Z"/></g>
<g><path style="opacity:0.981" fill="#86512a" d="M 199.5,429.5 C 215.419,434.812 231.419,439.812 247.5,444.5C 245.762,451.362 244.596,458.362 244,465.5C 242.654,490.966 243.821,516.3 247.5,541.5C 246.883,541.611 246.383,541.944 246,542.5C 243.14,541.577 240.307,540.577 237.5,539.5C 233.268,537.6 229.601,534.933 226.5,531.5C 226.027,530.094 225.027,529.427 223.5,529.5C 221.919,527.858 221.253,525.858 221.5,523.5C 217.391,521.627 213.058,519.96 208.5,518.5C 206.596,518.262 205.262,517.262 204.5,515.5C 204.027,514.094 203.027,513.427 201.5,513.5C 198.467,511.984 195.8,509.984 193.5,507.5C 193.027,506.094 192.027,505.427 190.5,505.5C 187.467,503.984 184.8,501.984 182.5,499.5C 182.5,499.167 182.5,498.833 182.5,498.5C 183.568,497.566 184.901,497.232 186.5,497.5C 188.266,474.338 192.599,451.671 199.5,429.5 Z"/></g>
<g><path style="opacity:0.006" fill="#f8f7f0" d="M 905.5,435.5 C 905.027,436.906 904.027,437.573 902.5,437.5C 902.973,436.094 903.973,435.427 905.5,435.5 Z"/></g>
<g><path style="opacity:0.985" fill="#9e5837" d="M 782.5,435.5 C 790.155,461.097 794.822,487.097 796.5,513.5C 796.5,513.833 796.5,514.167 796.5,514.5C 795.738,516.262 794.404,517.262 792.5,517.5C 790.973,517.427 789.973,518.094 789.5,519.5C 788.738,521.262 787.404,522.262 785.5,522.5C 783.973,522.427 782.973,523.094 782.5,524.5C 782.5,525.167 782.167,525.5 781.5,525.5C 779.973,525.427 778.973,526.094 778.5,527.5C 777.738,529.262 776.404,530.262 774.5,530.5C 772.973,530.427 771.973,531.094 771.5,532.5C 771.5,533.167 771.167,533.5 770.5,533.5C 768.973,533.427 767.973,534.094 767.5,535.5C 766.738,537.262 765.404,538.262 763.5,538.5C 761.973,538.427 760.973,539.094 760.5,540.5C 758.2,542.984 755.533,544.984 752.5,546.5C 750.973,546.427 749.973,547.094 749.5,548.5C 748.738,550.262 747.404,551.262 745.5,551.5C 743.973,551.427 742.973,552.094 742.5,553.5C 742.5,554.167 742.167,554.5 741.5,554.5C 740.391,554.557 739.391,554.89 738.5,555.5C 741.105,532.587 742.438,509.587 742.5,486.5C 742.923,473.691 741.923,461.024 739.5,448.5C 753.773,443.964 768.107,439.631 782.5,435.5 Z"/></g>
<g><path style="opacity:0.292" fill="#a47454" d="M 94.5,435.5 C 97.054,436.606 99.7206,437.439 102.5,438C 102.167,438.333 101.833,438.667 101.5,439C 102.609,439.638 103.775,440.138 105,440.5C 107.52,439.178 108.02,439.845 106.5,442.5C 107.826,443.642 108.826,444.976 109.5,446.5C 107.596,446.262 106.262,445.262 105.5,443.5C 105.027,442.094 104.027,441.427 102.5,441.5C 99.4669,439.984 96.8003,437.984 94.5,435.5 Z"/></g>
<g><path style="opacity:0.006" fill="#f5f5f5" d="M 901.5,438.5 C 901.027,439.906 900.027,440.573 898.5,440.5C 898.973,439.094 899.973,438.427 901.5,438.5 Z"/></g>
<g><path style="opacity:0.006" fill="#f0f0f0" d="M 102.5,441.5 C 104.027,441.427 105.027,442.094 105.5,443.5C 103.973,443.573 102.973,442.906 102.5,441.5 Z"/></g>
<g><path style="opacity:0.006" fill="#fff5f5" d="M 897.5,441.5 C 897.027,442.906 896.027,443.573 894.5,443.5C 894.973,442.094 895.973,441.427 897.5,441.5 Z"/></g>
<g><path style="opacity:0.006" fill="#f8f7f0" d="M 894.5,443.5 C 894.027,444.906 893.027,445.573 891.5,445.5C 891.973,444.094 892.973,443.427 894.5,443.5 Z"/></g>
<g><path style="opacity:0.006" fill="#f5f5f5" d="M 890.5,446.5 C 890.027,447.906 889.027,448.573 887.5,448.5C 887.973,447.094 888.973,446.427 890.5,446.5 Z"/></g>
<g><path style="opacity:0.006" fill="#f4f4e6" d="M 109.5,446.5 C 110.609,446.557 111.609,446.89 112.5,447.5C 112.833,448.167 113.167,448.833 113.5,449.5C 111.596,449.262 110.262,448.262 109.5,446.5 Z"/></g>
<g><path style="opacity:0.006" fill="#f0f0f0" d="M 113.5,449.5 C 115.027,449.427 116.027,450.094 116.5,451.5C 114.973,451.573 113.973,450.906 113.5,449.5 Z"/></g>
<g><path style="opacity:0.006" fill="#fff5f5" d="M 886.5,449.5 C 886.027,450.906 885.027,451.573 883.5,451.5C 883.973,450.094 884.973,449.427 886.5,449.5 Z"/></g>
<g><path style="opacity:0.006" fill="#f7f7f7" d="M 883.5,451.5 C 883.027,452.906 882.027,453.573 880.5,453.5C 880.973,452.094 881.973,451.427 883.5,451.5 Z"/></g>
<g><path style="opacity:0.006" fill="#f5f5f5" d="M 879.5,454.5 C 879.027,455.906 878.027,456.573 876.5,456.5C 876.973,455.094 877.973,454.427 879.5,454.5 Z"/></g>
<g><path style="opacity:0.006" fill="#f2efe6" d="M 120.5,454.5 C 123.37,455.433 125.704,457.1 127.5,459.5C 124.63,458.567 122.296,456.9 120.5,454.5 Z"/></g>
<g><path style="opacity:0.006" fill="#f5f5f5" d="M 872.5,459.5 C 872.027,460.906 871.027,461.573 869.5,461.5C 869.973,460.094 870.973,459.427 872.5,459.5 Z"/></g>
<g><path style="opacity:0.006" fill="#f5f5f5" d="M 868.5,462.5 C 868.027,463.906 867.027,464.573 865.5,464.5C 865.973,463.094 866.973,462.427 868.5,462.5 Z"/></g>
<g><path style="opacity:0.006" fill="#f2efe6" d="M 131.5,462.5 C 134.37,463.433 136.704,465.1 138.5,467.5C 135.63,466.567 133.296,464.9 131.5,462.5 Z"/></g>
<g><path style="opacity:1" fill="#c19985" d="M 678.5,585.5 C 689.227,543.175 677.227,509.008 642.5,483C 626.169,473.606 608.502,469.772 589.5,471.5C 566.429,471.965 543.429,473.465 520.5,476C 500.5,476.667 480.5,476.667 460.5,476C 433.276,472.45 405.942,471.117 378.5,472C 366.911,473.085 356.244,476.752 346.5,483C 327.737,497.573 314.737,516.073 307.5,538.5C 312.811,510.36 327.478,488.527 351.5,473C 361.817,468.588 372.484,465.755 383.5,464.5C 409.192,464.334 434.859,465.001 460.5,466.5C 482.493,467.822 504.493,467.822 526.5,466.5C 536.694,466.487 546.694,465.82 556.5,464.5C 576.024,463.115 595.691,463.282 615.5,465C 628.149,467.659 639.482,472.992 649.5,481C 680.823,509.823 690.49,544.657 678.5,585.5 Z"/></g>
<g><path style="opacity:1" fill="#897062" d="M 383.5,464.5 C 409.214,462.975 434.881,463.642 460.5,466.5C 434.859,465.001 409.192,464.334 383.5,464.5 Z"/></g>
<g><path style="opacity:1" fill="#735f54" d="M 556.5,464.5 C 546.694,465.82 536.694,466.487 526.5,466.5C 536.301,465.095 546.301,464.428 556.5,464.5 Z"/></g>
<g><path style="opacity:0.006" fill="#f8f7f0" d="M 865.5,464.5 C 865.027,465.906 864.027,466.573 862.5,466.5C 862.973,465.094 863.973,464.427 865.5,464.5 Z"/></g>
<g><path style="opacity:0.006" fill="#f5f5f5" d="M 861.5,467.5 C 861.027,468.906 860.027,469.573 858.5,469.5C 858.973,468.094 859.973,467.427 861.5,467.5 Z"/></g>
<g><path style="opacity:0.118" fill="#bb9478" d="M 138.5,467.5 C 140.258,467.877 141.925,468.544 143.5,469.5C 144.086,469.291 144.586,468.957 145,468.5C 145.352,470.247 145.852,471.914 146.5,473.5C 143.467,471.984 140.8,469.984 138.5,467.5 Z"/></g>
<g><path style="opacity:0.006" fill="#fff5f5" d="M 857.5,470.5 C 857.027,471.906 856.027,472.573 854.5,472.5C 854.973,471.094 855.973,470.427 857.5,470.5 Z"/></g>
<g><path style="opacity:1" fill="#f3c9b0" d="M 678.5,585.5 C 670.935,618.571 650.935,640.404 618.5,651C 606.076,654.988 593.41,657.821 580.5,659.5C 575.25,659.302 570.25,659.969 565.5,661.5C 530.856,663.343 496.19,663.843 461.5,663C 451.432,662.778 441.432,661.944 431.5,660.5C 427.433,658.946 423.1,658.28 418.5,658.5C 393.61,656.481 370.61,648.981 349.5,636C 323.617,618.083 309.783,593.249 308,561.5C 307.5,553.841 307.334,546.174 307.5,538.5C 314.737,516.073 327.737,497.573 346.5,483C 356.244,476.752 366.911,473.085 378.5,472C 405.942,471.117 433.276,472.45 460.5,476C 480.5,476.667 500.5,476.667 520.5,476C 543.429,473.465 566.429,471.965 589.5,471.5C 608.502,469.772 626.169,473.606 642.5,483C 677.227,509.008 689.227,543.175 678.5,585.5 Z"/></g>
<g><path style="opacity:0.006" fill="#f8f7f0" d="M 854.5,472.5 C 854.027,473.906 853.027,474.573 851.5,474.5C 851.973,473.094 852.973,472.427 854.5,472.5 Z"/></g>
<g><path style="opacity:0.006" fill="#f0f0f0" d="M 146.5,473.5 C 148.027,473.427 149.027,474.094 149.5,475.5C 147.973,475.573 146.973,474.906 146.5,473.5 Z"/></g>
<g><path style="opacity:0.331" fill="#b99278" d="M 149.5,475.5 C 152.089,477.157 154.756,477.491 157.5,476.5C 158.011,479.022 159.011,481.355 160.5,483.5C 156.268,481.6 152.601,478.933 149.5,475.5 Z"/></g>
<g><path style="opacity:0.006" fill="#f5f5f5" d="M 848.5,475.5 C 849.167,475.5 849.833,475.5 850.5,475.5C 850.027,476.906 849.027,477.573 847.5,477.5C 847.833,476.833 848.167,476.167 848.5,475.5 Z"/></g>
<g><path style="opacity:0.006" fill="#fff5f5" d="M 846.5,478.5 C 846.027,479.906 845.027,480.573 843.5,480.5C 843.973,479.094 844.973,478.427 846.5,478.5 Z"/></g>
<g><path style="opacity:0.006" fill="#f8f7f0" d="M 843.5,480.5 C 843.027,481.906 842.027,482.573 840.5,482.5C 840.973,481.094 841.973,480.427 843.5,480.5 Z"/></g>
<g><path style="opacity:0.006" fill="#f5f5f5" d="M 839.5,483.5 C 839.027,484.906 838.027,485.573 836.5,485.5C 836.973,484.094 837.973,483.427 839.5,483.5 Z"/></g>
<g><path style="opacity:0.006" fill="#f4f4e6" d="M 164.5,486.5 C 166.404,486.738 167.738,487.738 168.5,489.5C 166.596,489.262 165.262,488.262 164.5,486.5 Z"/></g>
<g><path style="opacity:0.006" fill="#f5f5f5" d="M 832.5,488.5 C 832.027,489.906 831.027,490.573 829.5,490.5C 829.973,489.094 830.973,488.427 832.5,488.5 Z"/></g>
<g><path style="opacity:0.006" fill="#f0f0f0" d="M 168.5,489.5 C 170.027,489.427 171.027,490.094 171.5,491.5C 169.973,491.573 168.973,490.906 168.5,489.5 Z"/></g>
<g><path style="opacity:0.006" fill="#f5f5f5" d="M 828.5,491.5 C 828.027,492.906 827.027,493.573 825.5,493.5C 825.973,492.094 826.973,491.427 828.5,491.5 Z"/></g>
<g><path style="opacity:0.006" fill="#f8f7f0" d="M 825.5,493.5 C 825.027,494.906 824.027,495.573 822.5,495.5C 822.973,494.094 823.973,493.427 825.5,493.5 Z"/></g>
<g><path style="opacity:0.006" fill="#f4f4e6" d="M 175.5,494.5 C 177.404,494.738 178.738,495.738 179.5,497.5C 177.596,497.262 176.262,496.262 175.5,494.5 Z"/></g>
<g><path style="opacity:1" fill="#fdfbfb" d="M 388.5,496.5 C 407.202,497.022 420.035,506.022 427,523.5C 437.713,551.355 433.88,576.855 415.5,600C 396.833,614.364 380.333,612.197 366,593.5C 354.242,573.906 351.242,552.906 357,530.5C 360.771,519.074 367.271,509.574 376.5,502C 380.284,499.471 384.284,497.638 388.5,496.5 Z"/></g>
<g><path style="opacity:1" fill="#fdfcfb" d="M 597.5,496.5 C 610.398,495.852 620.898,500.519 629,510.5C 637.433,522.651 641.6,536.151 641.5,551C 642.273,567.849 637.773,583.015 628,596.5C 610.623,614.134 593.623,613.801 577,595.5C 567.797,582.384 563.297,567.717 563.5,551.5C 563.211,531.507 570.544,515.007 585.5,502C 589.481,499.838 593.481,498.005 597.5,496.5 Z"/></g>
<g><path style="opacity:0.006" fill="#f5f5f5" d="M 821.5,496.5 C 821.027,497.906 820.027,498.573 818.5,498.5C 818.973,497.094 819.973,496.427 821.5,496.5 Z"/></g>
<g><path style="opacity:0.006" fill="#f0f0f0" d="M 179.5,497.5 C 180.609,497.557 181.609,497.89 182.5,498.5C 182.5,498.833 182.5,499.167 182.5,499.5C 180.973,499.573 179.973,498.906 179.5,497.5 Z"/></g>
<g><path style="opacity:0.006" fill="#fff5f5" d="M 817.5,499.5 C 817.027,500.906 816.027,501.573 814.5,501.5C 814.973,500.094 815.973,499.427 817.5,499.5 Z"/></g>
<g><path style="opacity:0.006" fill="#f7f7f7" d="M 814.5,501.5 C 814.027,502.906 813.027,503.573 811.5,503.5C 811.973,502.094 812.973,501.427 814.5,501.5 Z"/></g>
<g><path style="opacity:0.006" fill="#f5f5f5" d="M 810.5,504.5 C 810.027,505.906 809.027,506.573 807.5,506.5C 807.973,505.094 808.973,504.427 810.5,504.5 Z"/></g>
<g><path style="opacity:0.006" fill="#f0f0f0" d="M 190.5,505.5 C 192.027,505.427 193.027,506.094 193.5,507.5C 191.973,507.573 190.973,506.906 190.5,505.5 Z"/></g>
<g><path style="opacity:0.004" fill="#fbebe5" d="M 807.5,506.5 C 806.738,508.262 805.404,509.262 803.5,509.5C 804.262,507.738 805.596,506.738 807.5,506.5 Z"/></g>
<g><path style="opacity:0.006" fill="#f7f7f7" d="M 803.5,509.5 C 803.027,510.906 802.027,511.573 800.5,511.5C 800.973,510.094 801.973,509.427 803.5,509.5 Z"/></g>
<g><path style="opacity:0.006" fill="#f5f5f5" d="M 799.5,512.5 C 799.027,513.906 798.027,514.573 796.5,514.5C 796.5,514.167 796.5,513.833 796.5,513.5C 797.391,512.89 798.391,512.557 799.5,512.5 Z"/></g>
<g><path style="opacity:0.006" fill="#f0f0f0" d="M 201.5,513.5 C 203.027,513.427 204.027,514.094 204.5,515.5C 202.973,515.573 201.973,514.906 201.5,513.5 Z"/></g>
<g><path style="opacity:1" fill="#ac5d52" d="M 390.5,516.5 C 404.357,514.857 413.857,520.523 419,533.5C 424.39,549.254 423.39,564.588 416,579.5C 405.652,593.67 393.985,595.003 381,583.5C 372.352,571.565 369.352,558.232 372,543.5C 374.208,531.739 380.375,522.739 390.5,516.5 Z"/></g>
<g><path style="opacity:1" fill="#ac5d52" d="M 592.5,516.5 C 603.194,515.097 611.694,518.764 618,527.5C 626.24,544.005 626.573,560.672 619,577.5C 603.591,596.967 589.591,595.967 577,574.5C 573.182,562.358 572.515,550.025 575,537.5C 576.729,531.703 579.729,526.703 584,522.5C 586.637,520.109 589.47,518.109 592.5,516.5 Z"/></g>
<g><path style="opacity:0.006" fill="#f7f7f7" d="M 792.5,517.5 C 792.027,518.906 791.027,519.573 789.5,519.5C 789.973,518.094 790.973,517.427 792.5,517.5 Z"/></g>
<g><path style="opacity:0.132" fill="#ba937a" d="M 208.5,518.5 C 213.058,519.96 217.391,521.627 221.5,523.5C 221.253,525.858 221.919,527.858 223.5,529.5C 218.214,526.212 213.214,522.546 208.5,518.5 Z"/></g>
<g><path style="opacity:0.006" fill="#f8f7f0" d="M 785.5,522.5 C 785.027,523.906 784.027,524.573 782.5,524.5C 782.973,523.094 783.973,522.427 785.5,522.5 Z"/></g>
<g><path style="opacity:0.006" fill="#f5f5f5" d="M 781.5,525.5 C 781.027,526.906 780.027,527.573 778.5,527.5C 778.973,526.094 779.973,525.427 781.5,525.5 Z"/></g>
<g><path style="opacity:0.006" fill="#f0f0f0" d="M 223.5,529.5 C 225.027,529.427 226.027,530.094 226.5,531.5C 224.973,531.573 223.973,530.906 223.5,529.5 Z"/></g>
<g><path style="opacity:1" fill="#faf5f4" d="M 382.5,529.5 C 388.755,528.261 392.422,530.761 393.5,537C 391.127,544.875 386.627,546.375 380,541.5C 377.511,536.757 378.345,532.757 382.5,529.5 Z"/></g>
<g><path style="opacity:1" fill="#f9f3f3" d="M 588.5,529.5 C 598.286,531.083 599.952,535.583 593.5,543C 586.167,543.997 583.334,540.83 585,533.5C 586.032,531.973 587.199,530.64 588.5,529.5 Z"/></g>
<g><path style="opacity:0.006" fill="#f7f7f7" d="M 774.5,530.5 C 774.027,531.906 773.027,532.573 771.5,532.5C 771.973,531.094 772.973,530.427 774.5,530.5 Z"/></g>
<g><path style="opacity:0.006" fill="#f5f5f5" d="M 770.5,533.5 C 770.027,534.906 769.027,535.573 767.5,535.5C 767.973,534.094 768.973,533.427 770.5,533.5 Z"/></g>
<g><path style="opacity:0.006" fill="#f7f7f7" d="M 763.5,538.5 C 763.027,539.906 762.027,540.573 760.5,540.5C 760.973,539.094 761.973,538.427 763.5,538.5 Z"/></g>
<g><path style="opacity:0.261" fill="#b0896e" d="M 237.5,539.5 C 240.307,540.577 243.14,541.577 246,542.5C 246.383,541.944 246.883,541.611 247.5,541.5C 247.5,543.5 247.5,545.5 247.5,547.5C 243.854,545.183 240.52,542.516 237.5,539.5 Z"/></g>
<g><path style="opacity:0.006" fill="#f7f7f7" d="M 752.5,546.5 C 752.027,547.906 751.027,548.573 749.5,548.5C 749.973,547.094 750.973,546.427 752.5,546.5 Z"/></g>
<g><path style="opacity:0.006" fill="#f8f7f0" d="M 745.5,551.5 C 745.027,552.906 744.027,553.573 742.5,553.5C 742.973,552.094 743.973,551.427 745.5,551.5 Z"/></g>
<g><path style="opacity:0.006" fill="#f5f5f5" d="M 741.5,554.5 C 741.027,555.906 740.027,556.573 738.5,556.5C 738.5,556.167 738.5,555.833 738.5,555.5C 739.391,554.89 740.391,554.557 741.5,554.5 Z"/></g>
<g><path style="opacity:1" fill="#ae5f53" d="M 490.5,593.5 C 500.491,592.325 504.991,596.659 504,606.5C 501.081,612.025 496.581,613.858 490.5,612C 483.86,605.76 483.86,599.593 490.5,593.5 Z"/></g>
<g><path style="opacity:0.004" fill="#000000" d="M 265.5,596.5 C 264.833,597.167 264.833,597.167 265.5,596.5 Z"/></g>
<g><path style="opacity:0.004" fill="#000000" d="M 276.5,613.5 C 275.833,614.167 275.833,614.167 276.5,613.5 Z"/></g>
<g><path style="opacity:0.004" fill="#000000" d="M 283.5,621.5 C 282.833,622.167 282.833,622.167 283.5,621.5 Z"/></g>
<g><path style="opacity:1" fill="#b06256" d="M 473.5,623.5 C 474.873,623.343 476.207,623.51 477.5,624C 483.036,636.27 492.036,639.937 504.5,635C 508.444,631.553 511.777,627.72 514.5,623.5C 516.609,623.775 517.942,624.942 518.5,627C 512.148,640.01 501.814,645.343 487.5,643C 479.87,639.871 474.87,634.371 472.5,626.5C 472.685,625.416 473.018,624.416 473.5,623.5 Z"/></g>
<g><path style="opacity:0.007" fill="#fefffe" d="M 705.5,626.5 C 705.833,626.5 706.167,626.5 706.5,626.5C 709.943,634.498 712.609,642.831 714.5,651.5C 711.325,643.313 708.325,634.979 705.5,626.5 Z"/></g>
<g><path style="opacity:0.986" fill="#f2c9a6" d="M 705.5,626.5 C 708.325,634.979 711.325,643.313 714.5,651.5C 716.739,656.216 718.405,661.216 719.5,666.5C 721.391,675.169 724.057,683.502 727.5,691.5C 729.405,695.216 730.739,699.216 731.5,703.5C 734.057,714.17 737.391,724.503 741.5,734.5C 743.072,737.215 744.072,740.215 744.5,743.5C 742.115,740.255 739.115,737.422 735.5,735C 736.576,733.274 736.743,731.441 736,729.5C 733.634,720.725 730.3,712.391 726,704.5C 709.796,725.038 691.296,743.205 670.5,759C 671.252,759.671 671.586,760.504 671.5,761.5C 661.59,748.678 651.923,735.678 642.5,722.5C 630.778,706.778 619.445,690.778 608.5,674.5C 623.445,670.504 638.445,666.004 653.5,661C 673.028,652.741 690.361,641.241 705.5,626.5 Z"/></g>
<g><path style="opacity:0.007" fill="#fffcfb" d="M 291.5,629.5 C 292.167,629.5 292.5,629.833 292.5,630.5C 287.493,646.52 282.493,662.52 277.5,678.5C 276.833,678.5 276.5,678.167 276.5,677.5C 281.5,661.499 286.5,645.499 291.5,629.5 Z"/></g>
<g><path style="opacity:0.983" fill="#eeba88" d="M 292.5,630.5 C 302.345,637.503 312.345,644.337 322.5,651C 343.861,661.731 366.194,669.564 389.5,674.5C 374.881,695.784 359.881,716.784 344.5,737.5C 331.757,734.962 320.424,729.462 310.5,721C 301.988,712.142 294.822,702.308 289,691.5C 284.587,687.592 280.753,683.259 277.5,678.5C 282.493,662.52 287.493,646.52 292.5,630.5 Z"/></g>
<g><path style="opacity:1" fill="#967f70" d="M 418.5,658.5 C 423.1,658.28 427.433,658.946 431.5,660.5C 426.9,660.72 422.567,660.054 418.5,658.5 Z"/></g>
<g><path style="opacity:1" fill="#6b5c53" d="M 580.5,659.5 C 575.731,660.889 570.731,661.556 565.5,661.5C 570.25,659.969 575.25,659.302 580.5,659.5 Z"/></g>
<g><path style="opacity:0.994" fill="#212020" d="M 276.5,677.5 C 276.5,678.167 276.833,678.5 277.5,678.5C 280.753,683.259 284.587,687.592 289,691.5C 294.822,702.308 301.988,712.142 310.5,721C 320.424,729.462 331.757,734.962 344.5,737.5C 362.98,740.031 380.647,737.031 397.5,728.5C 396.109,732.47 395.109,736.47 394.5,740.5C 394.5,739.167 394.5,737.833 394.5,736.5C 390.729,735.774 388.063,737.107 386.5,740.5C 387.444,744.11 389.777,745.777 393.5,745.5C 393.5,755.167 393.5,764.833 393.5,774.5C 373.208,779.498 352.875,779.664 332.5,775C 327.456,773.973 322.79,772.139 318.5,769.5C 303.381,761.887 291.215,750.887 282,736.5C 278.118,727.495 272.951,719.495 266.5,712.5C 266.672,711.508 266.338,710.842 265.5,710.5C 262.514,706.183 259.18,702.183 255.5,698.5C 249.032,691.759 241.366,686.759 232.5,683.5C 232.5,682.833 232.167,682.5 231.5,682.5C 226.576,680.075 223.243,676.241 221.5,671C 222.94,666.751 225.94,664.084 230.5,663C 247.704,661.967 263.038,666.8 276.5,677.5 Z"/></g>
<g><path style="opacity:0.007" fill="#fefffe" d="M 719.5,666.5 C 722.943,674.498 725.609,682.831 727.5,691.5C 724.057,683.502 721.391,675.169 719.5,666.5 Z"/></g>
<g><path style="opacity:1" fill="#92cbdf" d="M 254.5,673.5 C 259.993,672.178 262.493,674.178 262,679.5C 257.932,681.416 255.099,680.249 253.5,676C 253.743,675.098 254.077,674.265 254.5,673.5 Z"/></g>
<g><path style="opacity:1" fill="#7e593d" d="M 606.5,674.5 C 606.389,675.117 606.056,675.617 605.5,676C 594.51,677.642 583.51,679.142 572.5,680.5C 583.559,677.877 594.892,675.877 606.5,674.5 Z"/></g>
<g><path style="opacity:1" fill="#030302" d="M 565.5,681.5 C 581.225,692.565 590.892,707.565 594.5,726.5C 594.649,727.552 594.483,728.552 594,729.5C 584.111,707.617 567.278,694.784 543.5,691C 509.554,686.678 475.554,686.345 441.5,690C 432.727,690.821 424.227,692.654 416,695.5C 415.536,694.906 415.369,694.239 415.5,693.5C 419.207,688.792 423.54,684.792 428.5,681.5C 474.087,681.398 519.754,681.398 565.5,681.5 Z"/></g>
<g><path style="opacity:0.997" fill="#201f1f" d="M 594.5,726.5 C 595.785,729.589 596.451,732.922 596.5,736.5C 597.065,756.659 597.732,776.659 598.5,796.5C 598.5,798.5 598.5,800.5 598.5,802.5C 598.5,812.167 598.5,821.833 598.5,831.5C 593.915,850.587 598.248,867.42 611.5,882C 615.221,884.527 619.221,886.527 623.5,888C 629.517,892.443 629.85,896.943 624.5,901.5C 610.579,903.878 597.246,902.212 584.5,896.5C 568.589,889.75 559.755,877.75 558,860.5C 557.5,848.838 557.333,837.171 557.5,825.5C 557.667,808.163 557.5,790.83 557,773.5C 556.487,772.473 555.987,771.473 555.5,770.5C 557.81,758.419 554.81,747.752 546.5,738.5C 545.502,746.807 545.169,755.14 545.5,763.5C 545.5,784.167 545.5,804.833 545.5,825.5C 545.333,847.503 545.5,869.503 546,891.5C 546.263,902.717 551.096,911.05 560.5,916.5C 564.945,922.164 564.279,927.164 558.5,931.5C 555.873,932.092 553.206,932.425 550.5,932.5C 544.285,931.93 538.285,930.43 532.5,928C 527.445,925.143 522.445,922.309 517.5,919.5C 510.81,912.639 505.977,904.639 503,895.5C 502.832,871.33 502.332,847.33 501.5,823.5C 500.508,792.573 500.175,761.573 500.5,730.5C 500.315,728.11 498.982,727.11 496.5,727.5C 494.645,727.34 493.312,728.007 492.5,729.5C 491.861,730.097 491.528,730.93 491.5,732C 492.14,753.651 492.807,775.151 493.5,796.5C 493.804,805.584 493.471,814.584 492.5,823.5C 491.92,848.358 491.086,873.358 490,898.5C 487.087,906.003 482.92,912.67 477.5,918.5C 471.692,922.241 465.692,925.741 459.5,929C 451.727,931.945 443.727,932.945 435.5,932C 429.685,927.937 429.018,923.104 433.5,917.5C 438.511,914.321 442.677,910.321 446,905.5C 446.794,902.529 447.461,899.529 448,896.5C 448.5,872.836 448.667,849.169 448.5,825.5C 448.5,805.833 448.5,786.167 448.5,766.5C 448.5,765.833 448.5,765.167 448.5,764.5C 448.832,755.475 448.498,746.475 447.5,737.5C 443.659,741.478 440.826,746.145 439,751.5C 437.012,758.361 436.178,765.361 436.5,772.5C 436.328,773.492 436.662,774.158 437.5,774.5C 437.819,791.91 437.485,809.244 436.5,826.5C 436.667,837.838 436.5,849.172 436,860.5C 434.278,877.723 425.445,889.723 409.5,896.5C 402.768,898.276 396.102,900.11 389.5,902C 383.175,902.5 376.842,902.666 370.5,902.5C 364.631,900.696 363.131,897.029 366,891.5C 370.713,887.922 375.879,885.088 381.5,883C 389.458,877.601 394.291,870.101 396,860.5C 396.824,850.991 396.658,841.657 395.5,832.5C 395.5,823.5 395.5,814.5 395.5,805.5C 395.5,804.833 395.5,804.167 395.5,803.5C 396.421,793.873 396.755,784.206 396.5,774.5C 397.362,759.234 398.028,743.901 398.5,728.5C 401.673,716.817 406.506,705.817 413,695.5C 413.708,694.619 414.542,693.953 415.5,693.5C 415.369,694.239 415.536,694.906 416,695.5C 424.227,692.654 432.727,690.821 441.5,690C 475.554,686.345 509.554,686.678 543.5,691C 567.278,694.784 584.111,707.617 594,729.5C 594.483,728.552 594.649,727.552 594.5,726.5 Z M 500.5,730.5 C 500.175,761.573 500.508,792.573 501.5,823.5C 498.5,823.5 495.5,823.5 492.5,823.5C 493.471,814.584 493.804,805.584 493.5,796.5C 493.5,775.5 493.5,754.5 493.5,733.5C 495.645,732.011 497.978,731.011 500.5,730.5 Z M 545.5,763.5 C 548.833,765.833 552.167,768.167 555.5,770.5C 555.987,771.473 556.487,772.473 557,773.5C 557.5,790.83 557.667,808.163 557.5,825.5C 553.289,825.324 549.289,825.324 545.5,825.5C 545.5,804.833 545.5,784.167 545.5,763.5 Z M 448.5,766.5 C 448.5,786.167 448.5,805.833 448.5,825.5C 444.452,825.395 440.452,825.728 436.5,826.5C 437.485,809.244 437.819,791.91 437.5,774.5C 441.167,771.833 444.833,769.167 448.5,766.5 Z"/></g>
<g><path style="opacity:1" fill="#95cfe4" d="M 268.5,682.5 C 274.707,682.373 277.373,685.373 276.5,691.5C 269.444,692.121 266.777,689.121 268.5,682.5 Z"/></g>
<g><path style="opacity:0.984" fill="#9ddbf1" d="M 231.5,682.5 C 232.167,682.5 232.5,682.833 232.5,683.5C 234.962,690.667 237.128,698 239,705.5C 239.543,708.868 239.376,712.201 238.5,715.5C 237.833,715.5 237.5,715.833 237.5,716.5C 229.668,719.827 224.668,717.327 222.5,709C 225.687,700.761 228.187,692.261 230,683.5C 230.383,682.944 230.883,682.611 231.5,682.5 Z"/></g>
<g><path style="opacity:0.004" fill="#000000" d="M 255.5,698.5 C 254.833,699.167 254.833,699.167 255.5,698.5 Z"/></g>
<g><path style="opacity:1" fill="#95d0e5" d="M 281.5,698.5 C 288.847,698.172 291.847,701.505 290.5,708.5C 284.852,710.165 281.519,707.999 280.5,702C 280.989,700.862 281.322,699.695 281.5,698.5 Z"/></g>
<g><path style="opacity:1" fill="#c8834f" d="M 606.5,674.5 C 607.167,674.5 607.833,674.5 608.5,674.5C 619.445,690.778 630.778,706.778 642.5,722.5C 632.889,728.311 623.222,734.144 613.5,740C 608.701,742.735 603.701,744.902 598.5,746.5C 598.247,742.96 597.581,739.627 596.5,736.5C 596.451,732.922 595.785,729.589 594.5,726.5C 590.892,707.565 581.225,692.565 565.5,681.5C 567.607,680.532 569.941,680.198 572.5,680.5C 583.51,679.142 594.51,677.642 605.5,676C 606.056,675.617 606.389,675.117 606.5,674.5 Z"/></g>
<g><path style="opacity:0.007" fill="#fefffe" d="M 731.5,703.5 C 735.609,713.497 738.943,723.83 741.5,734.5C 737.391,724.503 734.057,714.17 731.5,703.5 Z"/></g>
<g><path style="opacity:0.987" fill="#f2c59f" d="M 744.5,743.5 C 745.404,744.209 745.737,745.209 745.5,746.5C 746.627,751.882 747.961,757.216 749.5,762.5C 735.662,776.388 719.996,789.888 702.5,803C 703.252,803.671 703.586,804.504 703.5,805.5C 695.833,795.5 688.167,785.5 680.5,775.5C 677.526,770.851 674.526,766.184 671.5,761.5C 671.586,760.504 671.252,759.671 670.5,759C 691.296,743.205 709.796,725.038 726,704.5C 730.3,712.391 733.634,720.725 736,729.5C 736.743,731.441 736.576,733.274 735.5,735C 739.115,737.422 742.115,740.255 744.5,743.5 Z"/></g>
<g><path style="opacity:1" fill="#e4a46f" d="M 389.5,674.5 C 402.813,676.278 415.813,678.611 428.5,681.5C 423.54,684.792 419.207,688.792 415.5,693.5C 414.542,693.953 413.708,694.619 413,695.5C 406.506,705.817 401.673,716.817 398.5,728.5C 398.167,728.5 397.833,728.5 397.5,728.5C 380.647,737.031 362.98,740.031 344.5,737.5C 359.881,716.784 374.881,695.784 389.5,674.5 Z"/></g>
<g><path style="opacity:0.007" fill="#fefffe" d="M 265.5,710.5 C 266.338,710.842 266.672,711.508 266.5,712.5C 262.5,723.5 258.5,734.5 254.5,745.5C 257.564,733.641 261.231,721.975 265.5,710.5 Z"/></g>
<g><path style="opacity:0.004" fill="#fefffe" d="M 238.5,715.5 C 239.833,716.167 239.833,716.167 238.5,715.5 Z"/></g>
<g><path style="opacity:0.004" fill="#fefffe" d="M 237.5,716.5 C 237.833,716.5 238.167,716.5 238.5,716.5C 238.315,717.17 237.981,717.17 237.5,716.5 Z"/></g>
<g><path style="opacity:1" fill="#94cee2" d="M 297.5,716.5 C 302.899,716.564 306.232,719.23 307.5,724.5C 305.361,729.03 302.194,729.697 298,726.5C 295.138,723.147 294.971,719.813 297.5,716.5 Z"/></g>
<g><path style="opacity:0.051" fill="#e0c4b0" d="M 500.5,730.5 C 497.978,731.011 495.645,732.011 493.5,733.5C 493.167,732.167 492.833,730.833 492.5,729.5C 493.312,728.007 494.645,727.34 496.5,727.5C 498.982,727.11 500.315,728.11 500.5,730.5 Z"/></g>
<g><path style="opacity:1" fill="#070707" d="M 397.5,728.5 C 397.833,728.5 398.167,728.5 398.5,728.5C 398.028,743.901 397.362,759.234 396.5,774.5C 395.5,774.5 394.5,774.5 393.5,774.5C 393.5,764.833 393.5,755.167 393.5,745.5C 394.451,744.081 394.784,742.415 394.5,740.5C 395.109,736.47 396.109,732.47 397.5,728.5 Z"/></g>
<g><path style="opacity:0.016" fill="#424140" d="M 492.5,729.5 C 492.833,730.833 493.167,732.167 493.5,733.5C 493.5,754.5 493.5,775.5 493.5,796.5C 492.807,775.151 492.14,753.651 491.5,732C 491.528,730.93 491.861,730.097 492.5,729.5 Z"/></g>
<g><path style="opacity:1" fill="#93cde2" d="M 314.5,734.5 C 319.126,733.7 322.96,735.034 326,738.5C 327,742.337 325.5,744.337 321.5,744.5C 316.964,744.297 314.297,741.964 313.5,737.5C 313.685,736.416 314.018,735.416 314.5,734.5 Z"/></g>
<g><path style="opacity:0.989" fill="#c28050" d="M 555.5,770.5 C 552.167,768.167 548.833,765.833 545.5,763.5C 545.169,755.14 545.502,746.807 546.5,738.5C 554.81,747.752 557.81,758.419 555.5,770.5 Z"/></g>
<g><path style="opacity:0.915" fill="#dfa06c" d="M 448.5,764.5 C 444.754,767.585 440.754,770.251 436.5,772.5C 436.178,765.361 437.012,758.361 439,751.5C 440.826,746.145 443.659,741.478 447.5,737.5C 448.498,746.475 448.832,755.475 448.5,764.5 Z"/></g>
<g><path style="opacity:1" fill="#8dc5d9" d="M 394.5,740.5 C 394.784,742.415 394.451,744.081 393.5,745.5C 389.777,745.777 387.444,744.11 386.5,740.5C 388.063,737.107 390.729,735.774 394.5,736.5C 394.5,737.833 394.5,739.167 394.5,740.5 Z"/></g>
<g><path style="opacity:1" fill="#97d2e7" d="M 338.5,741.5 C 342.603,740.769 346.103,741.769 349,744.5C 349.798,746.259 349.631,747.926 348.5,749.5C 345.177,750.757 341.844,750.757 338.5,749.5C 335.848,746.799 335.848,744.132 338.5,741.5 Z"/></g>
<g><path style="opacity:1" fill="#94cde2" d="M 365.5,741.5 C 369.139,741.11 372.305,742.11 375,744.5C 376.042,747.804 374.875,749.971 371.5,751C 362.192,752.183 360.192,749.016 365.5,741.5 Z"/></g>
<g><path style="opacity:0.007" fill="#fefffe" d="M 745.5,746.5 C 749.276,755.497 752.276,764.831 754.5,774.5C 752.833,770.5 751.167,766.5 749.5,762.5C 747.961,757.216 746.627,751.882 745.5,746.5 Z"/></g>
<g><path style="opacity:0.984" fill="#c57b44" d="M 642.5,722.5 C 651.923,735.678 661.59,748.678 671.5,761.5C 674.526,766.184 677.526,770.851 680.5,775.5C 660.773,789.668 639.439,801.168 616.5,810C 615.829,810.986 615.829,812.153 616.5,813.5C 616.167,813.5 615.833,813.5 615.5,813.5C 610.004,809.584 604.337,805.918 598.5,802.5C 598.5,800.5 598.5,798.5 598.5,796.5C 598.5,779.833 598.5,763.167 598.5,746.5C 603.701,744.902 608.701,742.735 613.5,740C 623.222,734.144 632.889,728.311 642.5,722.5 Z"/></g>
<g><path style="opacity:1" fill="#98633c" d="M 596.5,736.5 C 597.581,739.627 598.247,742.96 598.5,746.5C 598.5,763.167 598.5,779.833 598.5,796.5C 597.732,776.659 597.065,756.659 596.5,736.5 Z"/></g>
<g><path style="opacity:0.975" fill="#edb47d" d="M 266.5,712.5 C 272.951,719.495 278.118,727.495 282,736.5C 291.215,750.887 303.381,761.887 318.5,769.5C 319.412,770.738 319.579,772.072 319,773.5C 310.949,784.045 303.116,794.711 295.5,805.5C 292.305,810.569 288.638,815.235 284.5,819.5C 284.489,817.983 283.823,816.816 282.5,816C 269.394,806.228 256.894,795.728 245,784.5C 243.238,784.944 243.405,785.444 245.5,786C 244.672,786.915 243.672,787.581 242.5,788C 243.167,788.333 243.833,788.667 244.5,789C 243.307,790.095 241.973,790.928 240.5,791.5C 243.297,780.942 246.797,770.608 251,760.5C 252.642,755.598 253.809,750.598 254.5,745.5C 258.5,734.5 262.5,723.5 266.5,712.5 Z"/></g>
<g><path style="opacity:0.954" fill="#f1c19a" d="M 749.5,762.5 C 751.167,766.5 752.833,770.5 754.5,774.5C 756.739,779.216 758.405,784.216 759.5,789.5C 761.745,799.229 764.745,808.562 768.5,817.5C 770.021,825.732 772.355,833.732 775.5,841.5C 772.974,840.532 772.308,841.366 773.5,844C 772.551,844.617 771.718,844.451 771,843.5C 763.121,850.38 754.955,856.88 746.5,863C 747.582,864.33 748.249,865.83 748.5,867.5C 743.833,861.5 739.167,855.5 734.5,849.5C 724.888,835.222 714.888,821.222 704.5,807.5C 704.167,806.833 703.833,806.167 703.5,805.5C 703.586,804.504 703.252,803.671 702.5,803C 719.996,789.888 735.662,776.388 749.5,762.5 Z"/></g>
<g><path style="opacity:0.007" fill="#fffaf3" d="M 254.5,745.5 C 253.809,750.598 252.642,755.598 251,760.5C 246.797,770.608 243.297,780.942 240.5,791.5C 237.5,799.5 234.5,807.5 231.5,815.5C 238.391,791.828 246.058,768.495 254.5,745.5 Z"/></g>
<g><path style="opacity:0.007" fill="#e4e3e0" d="M 448.5,764.5 C 448.5,765.167 448.5,765.833 448.5,766.5C 444.833,769.167 441.167,771.833 437.5,774.5C 436.662,774.158 436.328,773.492 436.5,772.5C 440.754,770.251 444.754,767.585 448.5,764.5 Z"/></g>
<g><path style="opacity:0.978" fill="#c2753c" d="M 680.5,775.5 C 688.167,785.5 695.833,795.5 703.5,805.5C 703.833,806.167 704.167,806.833 704.5,807.5C 689.192,818.161 673.192,827.827 656.5,836.5C 655.289,837.274 655.289,838.107 656.5,839C 655.5,839.333 654.5,839.667 653.5,840C 654.381,840.708 655.047,841.542 655.5,842.5C 650.214,839.212 645.214,835.546 640.5,831.5C 640.027,830.094 639.027,829.427 637.5,829.5C 634.467,827.984 631.8,825.984 629.5,823.5C 629.027,822.094 628.027,821.427 626.5,821.5C 623.467,819.984 620.8,817.984 618.5,815.5C 618.167,814.5 617.5,813.833 616.5,813.5C 615.829,812.153 615.829,810.986 616.5,810C 639.439,801.168 660.773,789.668 680.5,775.5 Z"/></g>
<g><path style="opacity:0.975" fill="#e39c61" d="M 318.5,769.5 C 322.79,772.139 327.456,773.973 332.5,775C 352.875,779.664 373.208,779.498 393.5,774.5C 394.5,774.5 395.5,774.5 396.5,774.5C 396.755,784.206 396.421,793.873 395.5,803.5C 379.5,814.833 363.5,826.167 347.5,837.5C 347.631,836.624 347.298,835.957 346.5,835.5C 328.622,826.737 311.622,816.737 295.5,805.5C 303.116,794.711 310.949,784.045 319,773.5C 319.579,772.072 319.412,770.738 318.5,769.5 Z"/></g>
<g><path style="opacity:0.007" fill="#fffaf9" d="M 759.5,789.5 C 763.274,798.491 766.274,807.825 768.5,817.5C 764.745,808.562 761.745,799.229 759.5,789.5 Z"/></g>
<g><path style="opacity:0.975" fill="#ecb075" d="M 284.5,819.5 C 274.899,834.372 264.566,848.705 253.5,862.5C 253.489,860.983 252.823,859.816 251.5,859C 243,852.5 234.5,846 226,839.5C 225.617,840.056 225.117,840.389 224.5,840.5C 227.848,832.456 230.181,824.122 231.5,815.5C 234.5,807.5 237.5,799.5 240.5,791.5C 241.973,790.928 243.307,790.095 244.5,789C 243.833,788.667 243.167,788.333 242.5,788C 243.672,787.581 244.672,786.915 245.5,786C 243.405,785.444 243.238,784.944 245,784.5C 256.894,795.728 269.394,806.228 282.5,816C 283.823,816.816 284.489,817.983 284.5,819.5 Z"/></g>
<g><path style="opacity:0.977" fill="#e29659" d="M 295.5,805.5 C 311.622,816.737 328.622,826.737 346.5,835.5C 347.298,835.957 347.631,836.624 347.5,837.5C 344.833,839.833 342.167,842.167 339.5,844.5C 325.984,850.177 312.651,856.343 299.5,863C 290.768,868.234 282.768,874.401 275.5,881.5C 268.045,875.933 260.379,870.599 252.5,865.5C 253.11,864.609 253.443,863.609 253.5,862.5C 264.566,848.705 274.899,834.372 284.5,819.5C 288.638,815.235 292.305,810.569 295.5,805.5 Z"/></g>
<g><path style="opacity:0.006" fill="#e6e4e3" d="M 395.5,803.5 C 395.5,804.167 395.5,804.833 395.5,805.5C 377.529,818.146 359.862,831.146 342.5,844.5C 341.202,845.116 340.202,845.116 339.5,844.5C 342.167,842.167 344.833,839.833 347.5,837.5C 363.5,826.167 379.5,814.833 395.5,803.5 Z"/></g>
<g><path style="opacity:0.006" fill="#f0f0f0" d="M 615.5,813.5 C 615.833,813.5 616.167,813.5 616.5,813.5C 617.5,813.833 618.167,814.5 618.5,815.5C 616.973,815.573 615.973,814.906 615.5,813.5 Z"/></g>
<g><path style="opacity:0.998" fill="#be6d31" d="M 704.5,807.5 C 714.888,821.222 724.888,835.222 734.5,849.5C 733.448,849.351 732.448,849.517 731.5,850C 723.844,855.83 715.844,861.163 707.5,866C 708.056,866.383 708.389,866.883 708.5,867.5C 690.923,858.877 673.257,850.544 655.5,842.5C 655.047,841.542 654.381,840.708 653.5,840C 654.5,839.667 655.5,839.333 656.5,839C 655.289,838.107 655.289,837.274 656.5,836.5C 673.192,827.827 689.192,818.161 704.5,807.5 Z"/></g>
<g><path style="opacity:0.006" fill="#fff0f0" d="M 626.5,821.5 C 628.027,821.427 629.027,822.094 629.5,823.5C 627.973,823.573 626.973,822.906 626.5,821.5 Z"/></g>
<g><path style="opacity:0.998" fill="#99d6eb" d="M 492.5,823.5 C 495.5,823.5 498.5,823.5 501.5,823.5C 502.332,847.33 502.832,871.33 503,895.5C 505.977,904.639 510.81,912.639 517.5,919.5C 513.924,923.639 511.091,928.306 509,933.5C 507.797,939.314 506.13,944.981 504,950.5C 503.5,963.829 503.333,977.163 503.5,990.5C 499.5,990.5 495.5,990.5 491.5,990.5C 491.842,976.463 491.342,962.463 490,948.5C 487.683,937.71 483.516,927.71 477.5,918.5C 482.92,912.67 487.087,906.003 490,898.5C 491.086,873.358 491.92,848.358 492.5,823.5 Z"/></g>
<g><path style="opacity:0.998" fill="#9bd9ef" d="M 557.5,825.5 C 557.333,837.171 557.5,848.838 558,860.5C 559.755,877.75 568.589,889.75 584.5,896.5C 584.631,897.376 584.298,898.043 583.5,898.5C 574.867,902.293 567.867,908.127 562.5,916C 561.906,916.464 561.239,916.631 560.5,916.5C 551.096,911.05 546.263,902.717 546,891.5C 545.5,869.503 545.333,847.503 545.5,825.5C 549.289,825.324 553.289,825.324 557.5,825.5 Z"/></g>
<g><path style="opacity:0.999" fill="#9bd9ef" d="M 448.5,825.5 C 448.667,849.169 448.5,872.836 448,896.5C 447.461,899.529 446.794,902.529 446,905.5C 442.677,910.321 438.511,914.321 433.5,917.5C 430.749,913.243 427.416,909.41 423.5,906C 418.594,903.058 413.928,899.891 409.5,896.5C 425.445,889.723 434.278,877.723 436,860.5C 436.5,849.172 436.667,837.838 436.5,826.5C 440.452,825.728 444.452,825.395 448.5,825.5 Z"/></g>
<g><path style="opacity:0.007" fill="#fff7ee" d="M 768.5,817.5 C 774.94,834.489 780.607,851.822 785.5,869.5C 784.883,869.389 784.383,869.056 784,868.5C 781.661,859.318 778.828,850.318 775.5,841.5C 772.355,833.732 770.021,825.732 768.5,817.5 Z"/></g>
<g><path style="opacity:0.006" fill="#fff0f0" d="M 637.5,829.5 C 639.027,829.427 640.027,830.094 640.5,831.5C 638.973,831.573 637.973,830.906 637.5,829.5 Z"/></g>
<g><path style="opacity:0.999" fill="#9bd9ef" d="M 598.5,831.5 C 617.447,833.522 635.947,837.522 654,843.5C 654.765,843.43 655.265,843.097 655.5,842.5C 673.257,850.544 690.923,858.877 708.5,867.5C 714.875,872.461 721.042,877.794 727,883.5C 730.845,889.861 734.678,896.194 738.5,902.5C 737.607,913.634 733.44,923.634 726,932.5C 713.337,944.336 699.004,953.669 683,960.5C 663.417,968.44 643.25,974.606 622.5,979C 606.921,981.868 591.255,984.035 575.5,985.5C 582.439,982.709 589.773,981.376 597.5,981.5C 597.333,965.497 597.5,949.497 598,933.5C 601.536,919.303 610.036,909.469 623.5,904C 624.252,903.329 624.586,902.496 624.5,901.5C 629.85,896.943 629.517,892.443 623.5,888C 619.221,886.527 615.221,884.527 611.5,882C 598.248,867.42 593.915,850.587 598.5,831.5 Z"/></g>
<g><path style="opacity:0.998" fill="#9cd9ef" d="M 395.5,832.5 C 396.658,841.657 396.824,850.991 396,860.5C 394.291,870.101 389.458,877.601 381.5,883C 375.879,885.088 370.713,887.922 366,891.5C 363.131,897.029 364.631,900.696 370.5,902.5C 376.692,906.17 382.526,910.504 388,915.5C 391.306,920.446 393.806,925.779 395.5,931.5C 396.827,948.329 396.827,964.995 395.5,981.5C 361.356,977.048 329.023,966.881 298.5,951C 287.461,943.966 277.628,935.466 269,925.5C 265.219,917.622 263.552,909.288 264,900.5C 261.6,902.415 259.1,904.081 256.5,905.5C 259.239,902.616 262.239,899.949 265.5,897.5C 268.331,891.835 271.664,886.502 275.5,881.5C 282.768,874.401 290.768,868.234 299.5,863C 312.651,856.343 325.984,850.177 339.5,844.5C 340.202,845.116 341.202,845.116 342.5,844.5C 359.69,838.727 377.357,834.727 395.5,832.5 Z"/></g>
<g><path style="opacity:0.007" fill="#fffaf4" d="M 231.5,815.5 C 230.181,824.122 227.848,832.456 224.5,840.5C 218.833,856.5 213.167,872.5 207.5,888.5C 214.724,863.828 222.724,839.495 231.5,815.5 Z"/></g>
<g><path style="opacity:0.927" fill="#eebb91" d="M 775.5,841.5 C 778.828,850.318 781.661,859.318 784,868.5C 784.383,869.056 784.883,869.389 785.5,869.5C 788.745,882.23 792.745,894.563 797.5,906.5C 800.805,918.921 804.639,931.254 809,943.5C 809.494,945.134 809.66,946.801 809.5,948.5C 806.402,951.955 803.402,951.622 800.5,947.5C 802.017,947.511 803.184,948.177 804,949.5C 804.75,948.874 805.584,948.374 806.5,948C 786.948,921.288 767.615,894.455 748.5,867.5C 748.249,865.83 747.582,864.33 746.5,863C 754.955,856.88 763.121,850.38 771,843.5C 771.718,844.451 772.551,844.617 773.5,844C 772.308,841.366 772.974,840.532 775.5,841.5 Z"/></g>
<g><path style="opacity:0.944" fill="#ebab6f" d="M 253.5,862.5 C 253.443,863.609 253.11,864.609 252.5,865.5C 231.833,893.5 211.167,921.5 190.5,949.5C 189.833,949.5 189.5,949.167 189.5,948.5C 193.887,931.171 199.387,914.171 206,897.5C 206.696,894.522 207.196,891.522 207.5,888.5C 213.167,872.5 218.833,856.5 224.5,840.5C 225.117,840.389 225.617,840.056 226,839.5C 234.5,846 243,852.5 251.5,859C 252.823,859.816 253.489,860.983 253.5,862.5 Z"/></g>
<g><path style="opacity:1" fill="#b96324" d="M 734.5,849.5 C 739.167,855.5 743.833,861.5 748.5,867.5C 767.615,894.455 786.948,921.288 806.5,948C 805.584,948.374 804.75,948.874 804,949.5C 803.184,948.177 802.017,947.511 800.5,947.5C 800.027,946.094 799.027,945.427 797.5,945.5C 796.738,943.738 795.404,942.738 793.5,942.5C 792.738,940.738 791.404,939.738 789.5,939.5C 789.027,938.094 788.027,937.427 786.5,937.5C 785.738,935.738 784.404,934.738 782.5,934.5C 782.027,933.094 781.027,932.427 779.5,932.5C 778.738,930.738 777.404,929.738 775.5,929.5C 774.738,927.738 773.404,926.738 771.5,926.5C 771.047,925.542 770.381,924.708 769.5,924C 769.833,923.667 770.167,923.333 770.5,923C 768.482,922.495 766.482,921.995 764.5,921.5C 763.738,919.738 762.404,918.738 760.5,918.5C 760.027,917.094 759.027,916.427 757.5,916.5C 756.71,915.206 755.71,914.039 754.5,913C 754.833,912.667 755.167,912.333 755.5,912C 753.482,911.495 751.482,910.995 749.5,910.5C 749.027,909.094 748.027,908.427 746.5,908.5C 745.738,906.738 744.404,905.738 742.5,905.5C 741.738,903.738 740.404,902.738 738.5,902.5C 734.678,896.194 730.845,889.861 727,883.5C 721.042,877.794 714.875,872.461 708.5,867.5C 708.389,866.883 708.056,866.383 707.5,866C 715.844,861.163 723.844,855.83 731.5,850C 732.448,849.517 733.448,849.351 734.5,849.5 Z"/></g>
<g><path style="opacity:0.007" fill="#fffbfa" d="M 785.5,869.5 C 790.274,881.49 794.274,893.823 797.5,906.5C 792.745,894.563 788.745,882.23 785.5,869.5 Z"/></g>
<g><path style="opacity:0.964" fill="#df8e4c" d="M 252.5,865.5 C 260.379,870.599 268.045,875.933 275.5,881.5C 271.664,886.502 268.331,891.835 265.5,897.5C 262.239,899.949 259.239,902.616 256.5,905.5C 254.973,905.427 253.973,906.094 253.5,907.5C 249.268,909.4 245.601,912.067 242.5,915.5C 240.596,915.738 239.262,916.738 238.5,918.5C 233.12,920.855 228.454,924.188 224.5,928.5C 222.596,928.738 221.262,929.738 220.5,931.5C 217.63,932.433 215.296,934.1 213.5,936.5C 209.268,938.4 205.601,941.067 202.5,944.5C 198.975,945.759 195.975,947.759 193.5,950.5C 193.565,950.938 193.399,951.272 193,951.5C 192.005,950.934 191.172,950.267 190.5,949.5C 211.167,921.5 231.833,893.5 252.5,865.5 Z"/></g>
<g><path style="opacity:1" fill="#7cbae5" d="M 584.5,896.5 C 597.246,902.212 610.579,903.878 624.5,901.5C 624.586,902.496 624.252,903.329 623.5,904C 610.036,909.469 601.536,919.303 598,933.5C 597.5,949.497 597.333,965.497 597.5,981.5C 589.773,981.376 582.439,982.709 575.5,985.5C 571.773,987.252 567.773,987.919 563.5,987.5C 562.081,986.549 560.415,986.216 558.5,986.5C 558.5,968.167 558.5,949.833 558.5,931.5C 564.279,927.164 564.945,922.164 560.5,916.5C 561.239,916.631 561.906,916.464 562.5,916C 567.867,908.127 574.867,902.293 583.5,898.5C 584.298,898.043 584.631,897.376 584.5,896.5 Z"/></g>
<g><path style="opacity:0.016" fill="#e2d7cf" d="M 738.5,902.5 C 740.404,902.738 741.738,903.738 742.5,905.5C 740.596,905.262 739.262,904.262 738.5,902.5 Z"/></g>
<g><path style="opacity:0.016" fill="#eddeca" d="M 742.5,905.5 C 744.404,905.738 745.738,906.738 746.5,908.5C 744.596,908.262 743.262,907.262 742.5,905.5 Z"/></g>
<g><path style="opacity:0.006" fill="#f7f7f7" d="M 256.5,905.5 C 256.027,906.906 255.027,907.573 253.5,907.5C 253.973,906.094 254.973,905.427 256.5,905.5 Z"/></g>
<g><path style="opacity:0.007" fill="#fff8f0" d="M 207.5,888.5 C 207.196,891.522 206.696,894.522 206,897.5C 199.387,914.171 193.887,931.171 189.5,948.5C 188.378,946.712 188.211,944.712 189,942.5C 194.902,924.29 201.069,906.29 207.5,888.5 Z"/></g>
<g><path style="opacity:0.006" fill="#f1f0e1" d="M 746.5,908.5 C 748.027,908.427 749.027,909.094 749.5,910.5C 747.973,910.573 746.973,909.906 746.5,908.5 Z"/></g>
<g><path style="opacity:0.007" fill="#f1edec" d="M 253.5,907.5 C 250.399,910.933 246.732,913.6 242.5,915.5C 245.601,912.067 249.268,909.4 253.5,907.5 Z"/></g>
<g><path style="opacity:0.118" fill="#dda383" d="M 749.5,910.5 C 751.482,910.995 753.482,911.495 755.5,912C 755.167,912.333 754.833,912.667 754.5,913C 755.71,914.039 756.71,915.206 757.5,916.5C 754.467,914.984 751.8,912.984 749.5,910.5 Z"/></g>
<g><path style="opacity:0.006" fill="#fff9f5" d="M 797.5,906.5 C 801.931,918.29 806.098,930.29 810,942.5C 810.789,944.712 810.622,946.712 809.5,948.5C 809.66,946.801 809.494,945.134 809,943.5C 804.639,931.254 800.805,918.921 797.5,906.5 Z"/></g>
<g><path style="opacity:0.004" fill="#eaeaea" d="M 242.5,915.5 C 241.738,917.262 240.404,918.262 238.5,918.5C 239.262,916.738 240.596,915.738 242.5,915.5 Z"/></g>
<g><path style="opacity:0.006" fill="#f0f0f0" d="M 757.5,916.5 C 759.027,916.427 760.027,917.094 760.5,918.5C 758.973,918.573 757.973,917.906 757.5,916.5 Z"/></g>
<g><path style="opacity:0.016" fill="#edcbca" d="M 760.5,918.5 C 762.404,918.738 763.738,919.738 764.5,921.5C 762.596,921.262 761.262,920.262 760.5,918.5 Z"/></g>
<g><path style="opacity:1" fill="#7cbae5" d="M 409.5,896.5 C 413.928,899.891 418.594,903.058 423.5,906C 427.416,909.41 430.749,913.243 433.5,917.5C 429.018,923.104 429.685,927.937 435.5,932C 443.727,932.945 451.727,931.945 459.5,929C 465.692,925.741 471.692,922.241 477.5,918.5C 483.516,927.71 487.683,937.71 490,948.5C 491.342,962.463 491.842,976.463 491.5,990.5C 484.167,990.5 476.833,990.5 469.5,990.5C 462.632,989.765 455.632,989.098 448.5,988.5C 448.667,975.829 448.5,963.162 448,950.5C 447.15,944.748 445.983,939.081 444.5,933.5C 441.833,933.5 439.167,933.5 436.5,933.5C 436.819,951.577 436.486,969.577 435.5,987.5C 422.085,985.824 408.752,983.824 395.5,981.5C 396.827,964.995 396.827,948.329 395.5,931.5C 393.806,925.779 391.306,920.446 388,915.5C 382.526,910.504 376.692,906.17 370.5,902.5C 376.842,902.666 383.175,902.5 389.5,902C 396.102,900.11 402.768,898.276 409.5,896.5 Z"/></g>
<g><path style="opacity:0.999" fill="#7cbae5" d="M 517.5,919.5 C 522.445,922.309 527.445,925.143 532.5,928C 538.285,930.43 544.285,931.93 550.5,932.5C 548.401,939.348 546.901,946.348 546,953.5C 545.5,965.495 545.333,977.495 545.5,989.5C 540.968,989.182 536.634,989.515 532.5,990.5C 522.833,990.5 513.167,990.5 503.5,990.5C 503.333,977.163 503.5,963.829 504,950.5C 506.13,944.981 507.797,939.314 509,933.5C 511.091,928.306 513.924,923.639 517.5,919.5 Z"/></g>
<g><path style="opacity:0.104" fill="#dcb087" d="M 764.5,921.5 C 766.482,921.995 768.482,922.495 770.5,923C 770.167,923.333 769.833,923.667 769.5,924C 770.381,924.708 771.047,925.542 771.5,926.5C 768.63,925.567 766.296,923.9 764.5,921.5 Z"/></g>
<g><path style="opacity:0.004" fill="#edebe8" d="M 238.5,918.5 C 234.194,922.321 229.527,925.655 224.5,928.5C 228.454,924.188 233.12,920.855 238.5,918.5 Z"/></g>
<g><path style="opacity:0.016" fill="#edcbca" d="M 771.5,926.5 C 773.404,926.738 774.738,927.738 775.5,929.5C 773.596,929.262 772.262,928.262 771.5,926.5 Z"/></g>
<g><path style="opacity:0.004" fill="#f0ebeb" d="M 224.5,928.5 C 223.738,930.262 222.404,931.262 220.5,931.5C 221.262,929.738 222.596,928.738 224.5,928.5 Z"/></g>
<g><path style="opacity:0.016" fill="#ecebcb" d="M 775.5,929.5 C 777.404,929.738 778.738,930.738 779.5,932.5C 777.596,932.262 776.262,931.262 775.5,929.5 Z"/></g>
<g><path style="opacity:0.998" fill="#9ad7ef" d="M 558.5,931.5 C 558.5,949.833 558.5,968.167 558.5,986.5C 560.415,986.216 562.081,986.549 563.5,987.5C 557.549,988.26 551.549,988.927 545.5,989.5C 545.333,977.495 545.5,965.495 546,953.5C 546.901,946.348 548.401,939.348 550.5,932.5C 553.206,932.425 555.873,932.092 558.5,931.5 Z"/></g>
<g><path style="opacity:0.006" fill="#f0f0f0" d="M 779.5,932.5 C 781.027,932.427 782.027,933.094 782.5,934.5C 780.973,934.573 779.973,933.906 779.5,932.5 Z"/></g>
<g><path style="opacity:0.004" fill="#ebebe9" d="M 220.5,931.5 C 218.704,933.9 216.37,935.567 213.5,936.5C 215.296,934.1 217.63,932.433 220.5,931.5 Z"/></g>
<g><path style="opacity:0.998" fill="#9bd9ef" d="M 448.5,988.5 C 444.119,988.628 439.785,988.295 435.5,987.5C 436.486,969.577 436.819,951.577 436.5,933.5C 439.167,933.5 441.833,933.5 444.5,933.5C 445.983,939.081 447.15,944.748 448,950.5C 448.5,963.162 448.667,975.829 448.5,988.5 Z"/></g>
<g><path style="opacity:0.016" fill="#eddeca" d="M 782.5,934.5 C 784.404,934.738 785.738,935.738 786.5,937.5C 784.596,937.262 783.262,936.262 782.5,934.5 Z"/></g>
<g><path style="opacity:0.006" fill="#f1f0e1" d="M 786.5,937.5 C 788.027,937.427 789.027,938.094 789.5,939.5C 787.973,939.573 786.973,938.906 786.5,937.5 Z"/></g>
<g><path style="opacity:0.004" fill="#ebe9e6" d="M 213.5,936.5 C 210.399,939.933 206.732,942.6 202.5,944.5C 205.601,941.067 209.268,938.4 213.5,936.5 Z"/></g>
<g><path style="opacity:0.016" fill="#edcbca" d="M 789.5,939.5 C 791.404,939.738 792.738,940.738 793.5,942.5C 791.596,942.262 790.262,941.262 789.5,939.5 Z"/></g>
<g><path style="opacity:0.016" fill="#eddeca" d="M 793.5,942.5 C 795.404,942.738 796.738,943.738 797.5,945.5C 795.596,945.262 794.262,944.262 793.5,942.5 Z"/></g>
<g><path style="opacity:0.004" fill="#e1dfd9" d="M 202.5,944.5 C 200.763,946.55 198.763,948.383 196.5,950C 195.552,950.483 194.552,950.649 193.5,950.5C 195.975,947.759 198.975,945.759 202.5,944.5 Z"/></g>
<g><path style="opacity:0.006" fill="#f1f0e1" d="M 797.5,945.5 C 799.027,945.427 800.027,946.094 800.5,947.5C 798.973,947.573 797.973,946.906 797.5,945.5 Z"/></g>
</svg>
