<?xml version="1.0" encoding="UTF-8"?>
<!DOCTYPE svg PUBLIC "-//W3C//DTD SVG 1.1//EN" "http://www.w3.org/Graphics/SVG/1.1/DTD/svg11.dtd">
<svg xmlns="http://www.w3.org/2000/svg" version="1.1" width="897px" height="793px" style="shape-rendering:geometricPrecision; text-rendering:geometricPrecision; image-rendering:optimizeQuality; fill-rule:evenodd; clip-rule:evenodd" xmlns:xlink="http://www.w3.org/1999/xlink">
<g><path style="opacity:0.993" fill="#1a1f6b" d="M 251.5,2.5 C 236.298,13.2384 229.465,27.905 231,46.5C 235.452,60.3395 244.952,68.5062 259.5,71C 272.059,73.2357 283.226,70.4024 293,62.5C 298.602,54.1608 299.936,45.1608 297,35.5C 291.85,30.1233 285.517,27.79 278,28.5C 268.016,27.1697 264.683,31.1697 268,40.5C 268.903,41.7014 270.069,42.5348 271.5,43C 275.486,43.4988 279.486,43.6655 283.5,43.5C 281.858,51.9718 276.691,56.3051 268,56.5C 260.771,55.9461 255.771,52.2794 253,45.5C 250.443,36.8421 251.11,28.5087 255,20.5C 260.004,13.9767 266.504,11.81 274.5,14C 280.01,16.8503 285.51,19.6837 291,22.5C 293.54,21.7935 294.707,20.1268 294.5,17.5C 311.511,25.4204 327.677,34.7537 343,45.5C 413.333,26.8333 483.667,26.8333 554,45.5C 570.797,33.5135 588.63,23.1802 607.5,14.5C 608.017,18.2217 608.85,21.8883 610,25.5C 610.333,35.8333 610.667,46.1667 611,56.5C 611.557,58.6147 612.391,60.6147 613.5,62.5C 614.723,63.6139 616.056,63.7805 617.5,63C 625.616,55.6265 627.949,46.7932 624.5,36.5C 633.5,36.5 642.5,36.5 651.5,36.5C 651.898,39.4825 652.232,42.4825 652.5,45.5C 651.525,50.5531 650.692,55.5531 650,60.5C 651.831,63.8394 654.665,65.8394 658.5,66.5C 661.104,65.731 662.938,64.0643 664,61.5C 668.434,48.4614 668.434,35.4614 664,22.5C 662.333,18.1667 660.667,13.8333 659,9.5C 657.884,6.24438 656.051,3.57771 653.5,1.5C 658.858,0.214407 664.358,0.214407 670,1.5C 672.773,5.3849 674.773,9.71823 676,14.5C 686.929,47.4798 687.096,80.4798 676.5,113.5C 713.349,157.534 727.182,208.201 718,265.5C 716.402,283.988 712.569,301.988 706.5,319.5C 770.294,317.97 833.627,322.637 896.5,333.5C 896.5,335.167 896.5,336.833 896.5,338.5C 833.386,326.681 769.719,322.181 705.5,325C 702.881,329.686 700.548,334.52 698.5,339.5C 765.199,342.362 830.866,352.028 895.5,368.5C 895.509,370.308 895.009,371.975 894,373.5C 829.003,355.715 762.836,346.381 695.5,345.5C 680.642,370.524 660.642,390.358 635.5,405C 599.973,423.3 562.306,434.634 522.5,439C 543.323,456.145 554.489,478.311 556,505.5C 556.5,544.165 556.667,582.832 556.5,621.5C 555.258,623.611 555.258,625.611 556.5,627.5C 560.192,645.032 570.525,656.865 587.5,663C 592.26,668.802 591.26,673.136 584.5,676C 563.476,678.328 544.476,673.328 527.5,661C 516.299,648.726 511.632,634.226 513.5,617.5C 513.167,616.833 512.833,616.167 512.5,615.5C 512.667,586.165 512.5,556.831 512,527.5C 511.237,517.529 507.571,508.862 501,501.5C 500.5,539.165 500.333,576.832 500.5,614.5C 500.167,615.167 499.833,615.833 499.5,616.5C 499.175,624.352 499.508,632.018 500.5,639.5C 500.584,650.197 503.584,659.864 509.5,668.5C 513.424,674.271 517.591,679.937 522,685.5C 523.056,690.124 521.223,692.957 516.5,694C 497.781,694.817 482.114,688.317 469.5,674.5C 466.772,671.101 464.439,667.434 462.5,663.5C 459.095,656.888 456.761,649.888 455.5,642.5C 455.827,632.985 455.494,623.652 454.5,614.5C 454.5,614.167 454.5,613.833 454.5,613.5C 453.778,573.838 453.444,534.171 453.5,494.5C 450.167,494.5 446.833,494.5 443.5,494.5C 442.619,534.159 442.286,573.826 442.5,613.5C 441.833,613.5 441.5,613.833 441.5,614.5C 443.411,631.882 440.911,648.549 434,664.5C 421.61,684.946 403.443,694.779 379.5,694C 373.002,691.846 371.835,688.012 376,682.5C 390.689,668.823 397.189,652.157 395.5,632.5C 396.344,628.901 396.677,625.234 396.5,621.5C 396.5,619.167 396.5,616.833 396.5,614.5C 396.667,576.499 396.5,538.499 396,500.5C 388.283,509.308 384.283,519.641 384,531.5C 383.5,559.498 383.333,587.498 383.5,615.5C 383.5,616.167 383.5,616.833 383.5,617.5C 384.515,628.274 382.848,638.608 378.5,648.5C 378.624,649.107 378.957,649.44 379.5,649.5C 375.425,654.078 371.092,658.578 366.5,663C 361.369,666.899 355.702,669.732 349.5,671.5C 346.167,672.5 342.833,673.5 339.5,674.5C 329.919,676.362 320.253,676.862 310.5,676C 304.697,672.684 304.031,668.517 308.5,663.5C 316.23,660.553 323.064,656.22 329,650.5C 335.586,642.663 339.419,633.663 340.5,623.5C 340.5,622.833 340.5,622.167 340.5,621.5C 340.5,597.5 340.5,573.5 340.5,549.5C 313.805,555.792 287.472,554.626 261.5,546C 245.716,539.215 232.549,529.048 222,515.5C 215.279,504.724 209.612,493.391 205,481.5C 198.407,469.232 189.907,458.399 179.5,449C 171.124,444.621 163.957,438.787 158,431.5C 156.542,427.219 157.708,424.053 161.5,422C 179.696,418.399 196.029,422.399 210.5,434C 213.369,437.204 216.535,440.037 220,442.5C 228.07,452.306 235.404,462.64 242,473.5C 264.691,498.281 292.191,505.781 324.5,496C 330.736,494.255 336.736,491.922 342.5,489C 346.212,474.41 352.712,461.243 362,449.5C 365.581,445.248 369.748,441.748 374.5,439C 334.694,434.634 297.027,423.3 261.5,405C 236.358,390.358 216.358,370.524 201.5,345.5C 134.164,346.381 67.9972,355.715 3,373.5C 1.99136,371.975 1.49136,370.308 1.5,368.5C 66.1344,352.028 131.801,342.362 198.5,339.5C 196.452,334.52 194.119,329.686 191.5,325C 127.61,322.137 64.277,326.637 1.5,338.5C 0.548109,336.955 0.214775,335.288 0.5,333.5C 63.3731,322.637 126.706,317.97 190.5,319.5C 181.134,290.937 176.8,261.604 177.5,231.5C 176.448,198.039 184.615,167.039 202,138.5C 207.691,129.77 213.858,121.437 220.5,113.5C 209.045,75.9433 210.712,38.9433 225.5,2.5C 234.127,0.0503624 242.794,0.0503624 251.5,2.5 Z M 454.5,613.5 C 450.5,612.167 446.5,612.167 442.5,613.5C 442.286,573.826 442.619,534.159 443.5,494.5C 446.833,494.5 450.167,494.5 453.5,494.5C 453.444,534.171 453.778,573.838 454.5,613.5 Z M 396.5,614.5 C 392.232,615.373 387.898,615.706 383.5,615.5C 383.333,587.498 383.5,559.498 384,531.5C 384.283,519.641 388.283,509.308 396,500.5C 396.5,538.499 396.667,576.499 396.5,614.5 Z M 512.5,615.5 C 508.434,615.693 504.434,615.36 500.5,614.5C 500.333,576.832 500.5,539.165 501,501.5C 507.571,508.862 511.237,517.529 512,527.5C 512.5,556.831 512.667,586.165 512.5,615.5 Z"/></g>
<g><path style="opacity:1" fill="#f9f9fb" d="M 653.5,1.5 C 656.051,3.57771 657.884,6.24438 659,9.5C 660.667,13.8333 662.333,18.1667 664,22.5C 668.434,35.4614 668.434,48.4614 664,61.5C 662.938,64.0643 661.104,65.731 658.5,66.5C 654.665,65.8394 651.831,63.8394 650,60.5C 650.692,55.5531 651.525,50.5531 652.5,45.5C 652.232,42.4825 651.898,39.4825 651.5,36.5C 642.5,36.5 633.5,36.5 624.5,36.5C 627.949,46.7932 625.616,55.6265 617.5,63C 616.056,63.7805 614.723,63.6139 613.5,62.5C 612.391,60.6147 611.557,58.6147 611,56.5C 610.667,46.1667 610.333,35.8333 610,25.5C 608.85,21.8883 608.017,18.2217 607.5,14.5C 612.027,12.4356 616.693,10.769 621.5,9.5C 622.36,13.4338 622.693,17.4338 622.5,21.5C 631.652,22.4936 640.985,22.8269 650.5,22.5C 650.81,19.2869 650.477,16.2869 649.5,13.5C 648.377,9.37128 646.377,5.70461 643.5,2.5C 646.786,1.79287 650.119,1.45954 653.5,1.5 Z"/></g>
<g><path style="opacity:0.993" fill="#1b1f6b" d="M 643.5,2.5 C 646.377,5.70461 648.377,9.37128 649.5,13.5C 649.5,16.1667 649.5,18.8333 649.5,21.5C 640.5,21.5 631.5,21.5 622.5,21.5C 622.693,17.4338 622.36,13.4338 621.5,9.5C 628.492,6.39296 635.825,4.05963 643.5,2.5 Z"/></g>
<g><path style="opacity:1" fill="#f8f9fb" d="M 251.5,2.5 C 266.684,5.33792 281.018,10.3379 294.5,17.5C 294.707,20.1268 293.54,21.7935 291,22.5C 285.51,19.6837 280.01,16.8503 274.5,14C 266.504,11.81 260.004,13.9767 255,20.5C 251.11,28.5087 250.443,36.8421 253,45.5C 255.771,52.2794 260.771,55.9461 268,56.5C 276.691,56.3051 281.858,51.9718 283.5,43.5C 279.486,43.6655 275.486,43.4988 271.5,43C 270.069,42.5348 268.903,41.7014 268,40.5C 264.683,31.1697 268.016,27.1697 278,28.5C 285.517,27.79 291.85,30.1233 297,35.5C 299.936,45.1608 298.602,54.1608 293,62.5C 283.226,70.4024 272.059,73.2357 259.5,71C 244.952,68.5062 235.452,60.3395 231,46.5C 229.465,27.905 236.298,13.2384 251.5,2.5 Z"/></g>
<g><path style="opacity:1" fill="#6c6fa0" d="M 649.5,13.5 C 650.477,16.2869 650.81,19.2869 650.5,22.5C 640.985,22.8269 631.652,22.4936 622.5,21.5C 631.5,21.5 640.5,21.5 649.5,21.5C 649.5,18.8333 649.5,16.1667 649.5,13.5 Z"/></g>
<g><path style="opacity:1" fill="#f1c7af" d="M 426.5,56.5 C 478.576,54.2955 528.91,62.4622 577.5,81C 669.792,122.76 703.959,193.26 680,292.5C 667.098,343.067 636.264,377.567 587.5,396C 539.776,412.86 490.61,419.36 440,415.5C 394.83,417.834 350.996,411.334 308.5,396C 260.439,377.942 229.939,344.109 217,294.5C 209.352,259.59 208.685,224.59 215,189.5C 227.314,148.526 252.147,117.693 289.5,97C 331.953,72.234 377.62,58.734 426.5,56.5 Z"/></g>
<g><path style="opacity:1" fill="#161413" d="M 445.5,71.5 C 447.262,74.5035 448.428,77.8368 449,81.5C 449.333,81.8333 449.667,82.1667 450,82.5C 450.862,80.913 451.529,79.2464 452,77.5C 452.988,80.4245 453.654,83.4245 454,86.5C 454.419,85.3279 455.085,84.3279 456,83.5C 457.203,90.804 457.537,98.1374 457,105.5C 453.269,118.047 444.769,124.38 431.5,124.5C 431.192,125.308 430.692,125.975 430,126.5C 429.667,125.167 429.333,123.833 429,122.5C 414.675,113.193 412.008,101.193 421,86.5C 427.571,78.7588 435.738,76.4255 445.5,79.5C 445.5,76.8333 445.5,74.1667 445.5,71.5 Z"/></g>
<g><path style="opacity:1" fill="#100e0e" d="M 509.5,78.5 C 540.591,77.4245 556.091,92.4245 556,123.5C 550.228,146.591 535.395,157.424 511.5,156C 494.659,152.846 484.159,143.013 480,126.5C 479.968,114.788 479.968,103.122 480,91.5C 481.333,93.5 482.667,95.5 484,97.5C 484.208,93.0823 484.874,88.749 486,84.5C 487,86.5 488,88.5 489,90.5C 494.789,84.5288 501.622,80.5288 509.5,78.5 Z"/></g>
<g><path style="opacity:1" fill="#b142b5" d="M 380.5,81.5 C 381.492,81.3284 382.158,81.6618 382.5,82.5C 386.434,87.2818 386.434,91.9484 382.5,96.5C 382.5,95.1667 382.5,93.8333 382.5,92.5C 378.727,92.6573 377.727,94.324 379.5,97.5C 379.5,97.8333 379.5,98.1667 379.5,98.5C 375.352,98.426 372.019,96.7594 369.5,93.5C 369.198,90.9407 369.532,88.6074 370.5,86.5C 370.384,89.9103 372.05,91.2436 375.5,90.5C 377.202,93.0256 378.868,92.8589 380.5,90C 380.361,88.699 379.695,87.8656 378.5,87.5C 378.616,84.0897 376.95,82.7564 373.5,83.5C 373.611,82.8826 373.944,82.3826 374.5,82C 376.473,81.5045 378.473,81.3379 380.5,81.5 Z"/></g>
<g><path style="opacity:1" fill="#392a2e" d="M 382.5,82.5 C 387.989,86.1229 388.823,90.7896 385,96.5C 383.416,97.8613 381.582,98.528 379.5,98.5C 379.5,98.1667 379.5,97.8333 379.5,97.5C 380.609,97.4431 381.609,97.1098 382.5,96.5C 386.434,91.9484 386.434,87.2818 382.5,82.5 Z"/></g>
<g><path style="opacity:1" fill="#fbf5fb" d="M 373.5,83.5 C 376.95,82.7564 378.616,84.0897 378.5,87.5C 377.833,88.8333 376.833,89.8333 375.5,90.5C 372.05,91.2436 370.384,89.9103 370.5,86.5C 371.167,85.1667 372.167,84.1667 373.5,83.5 Z"/></g>
<g><path style="opacity:1" fill="#faf9f9" d="M 429.5,84.5 C 440.82,82.2437 448.986,86.2437 454,96.5C 455.161,115.008 446.661,122.508 428.5,119C 419.898,113.875 416.731,106.375 419,96.5C 420.963,91.0437 424.463,87.0437 429.5,84.5 Z"/></g>
<g><path style="opacity:1" fill="#f8f7f6" d="M 511.5,85.5 C 532.14,84.3842 545.973,93.3842 553,112.5C 554.924,133.474 545.758,146.974 525.5,153C 503.816,155.749 489.316,146.916 482,126.5C 480.83,104.846 490.663,91.1798 511.5,85.5 Z"/></g>
<g><path style="opacity:1" fill="#20141d" d="M 380.5,81.5 C 378.473,81.3379 376.473,81.5045 374.5,82C 373.944,82.3826 373.611,82.8826 373.5,83.5C 372.167,84.1667 371.167,85.1667 370.5,86.5C 369.532,88.6074 369.198,90.9407 369.5,93.5C 367.348,88.3589 368.682,84.1922 373.5,81C 376.039,80.2042 378.372,80.3709 380.5,81.5 Z"/></g>
<g><path style="opacity:1" fill="#356c2e" d="M 378.5,87.5 C 379.695,87.8656 380.361,88.699 380.5,90C 378.868,92.8589 377.202,93.0256 375.5,90.5C 376.833,89.8333 377.833,88.8333 378.5,87.5 Z"/></g>
<g><path style="opacity:1" fill="#f9eff9" d="M 382.5,96.5 C 381.609,97.1098 380.609,97.4431 379.5,97.5C 377.727,94.324 378.727,92.6573 382.5,92.5C 382.5,93.8333 382.5,95.1667 382.5,96.5 Z"/></g>
<g><path style="opacity:1" fill="#fe6f0a" d="M 510.5,93.5 C 527.194,91.5866 538.694,98.2532 545,113.5C 546.954,128.756 540.788,139.256 526.5,145C 508.354,148.68 496.187,141.846 490,124.5C 489.073,108.943 495.907,98.61 510.5,93.5 Z"/></g>
<g><path style="opacity:1" fill="#241620" d="M 369.5,93.5 C 372.019,96.7594 375.352,98.426 379.5,98.5C 374.705,100.103 371.372,98.4368 369.5,93.5 Z"/></g>
<g><path style="opacity:1" fill="#1a1817" d="M 305.5,97.5 C 325.129,97.6214 333.296,107.288 330,126.5C 324.947,132.552 320.281,138.885 316,145.5C 315.654,143.782 315.154,142.115 314.5,140.5C 296.359,139.882 288.193,130.549 290,112.5C 293.106,105.225 298.272,100.225 305.5,97.5 Z"/></g>
<g><path style="opacity:1" fill="#f7f8fa" d="M 304.5,100.5 C 323.751,99.6586 331.251,108.659 327,127.5C 319.725,137.61 310.558,139.777 299.5,134C 289.392,124.271 289.058,114.271 298.5,104C 300.432,102.541 302.432,101.375 304.5,100.5 Z"/></g>
<g><path style="opacity:1" fill="#3f7738" d="M 434.5,96.5 C 439.863,96.6881 442.03,99.3548 441,104.5C 438.339,107.966 435.339,108.299 432,105.5C 431.333,103.5 431.333,101.5 432,99.5C 433.162,101.838 434.996,103.172 437.5,103.5C 437.75,100.495 436.417,98.6622 433.5,98C 434.056,97.6174 434.389,97.1174 434.5,96.5 Z"/></g>
<g><path style="opacity:1" fill="#fffbf8" d="M 505.5,100.5 C 512.033,99.427 516.366,101.927 518.5,108C 515.329,117.507 508.996,120.507 499.5,117C 496.277,113.888 495.777,110.388 498,106.5C 500.114,103.879 502.614,101.879 505.5,100.5 Z"/></g>
<g><path style="opacity:1" fill="#1f80fa" d="M 306.5,111.5 C 315.525,109.352 319.358,113.019 318,122.5C 314.014,128.098 309.347,128.765 304,124.5C 301.367,121.332 301.033,117.998 303,114.5C 303.494,116.134 303.66,117.801 303.5,119.5C 308.835,119.995 311.335,117.662 311,112.5C 309.644,111.62 308.144,111.286 306.5,111.5 Z"/></g>
<g><path style="opacity:1" fill="#11100f" d="M 359.5,108.5 C 360.953,112.291 362.119,116.291 363,120.5C 364.046,122.09 365.213,123.59 366.5,125C 400.731,117.871 421.897,131.371 430,165.5C 432.86,186.723 428.194,206.056 416,223.5C 396.736,245.948 374.236,250.115 348.5,236C 331.32,220.132 324.82,200.632 329,177.5C 331.573,165.357 336.573,154.357 344,144.5C 344.143,136.771 344.81,129.105 346,121.5C 346.72,125.716 348.053,129.716 350,133.5C 350.078,126.726 350.745,120.059 352,113.5C 352.876,119.252 354.876,124.585 358,129.5C 358.279,122.467 358.779,115.467 359.5,108.5 Z"/></g>
<g><path style="opacity:1" fill="#341fec" d="M 515.5,115.5 C 522.004,115.138 523.671,117.638 520.5,123C 513.798,123.802 512.132,121.302 515.5,115.5 Z"/></g>
<g><path style="opacity:1" fill="#dbc444" d="M 311.5,118.5 C 315.161,118.35 316.161,119.85 314.5,123C 310.707,123.487 309.707,121.987 311.5,118.5 Z"/></g>
<g><path style="opacity:1" fill="#0d0c0b" d="M 613.5,115.5 C 617.691,121.214 620.857,127.548 623,134.5C 649.262,155.881 655.929,182.215 643,213.5C 642,214.5 641,215.5 640,216.5C 639.667,220.5 639.333,224.5 639,228.5C 637.647,227.315 636.48,225.981 635.5,224.5C 634.271,229.479 633.104,234.479 632,239.5C 631.191,235.24 629.691,231.24 627.5,227.5C 607.32,228.162 592.153,219.829 582,202.5C 571.285,183.721 569.952,164.387 578,144.5C 587.072,129.63 599.738,125.297 616,131.5C 616.454,125.979 615.621,120.646 613.5,115.5 Z"/></g>
<g><path style="opacity:1" fill="#fffaf7" d="M 526.5,126.5 C 535.993,125.14 538.66,128.64 534.5,137C 530.387,139.997 526.22,140.164 522,137.5C 520.813,135.956 520.48,134.289 521,132.5C 522.36,129.977 524.193,127.977 526.5,126.5 Z"/></g>
<g><path style="opacity:1" fill="#f7f8f8" d="M 373.5,131.5 C 397.625,129.31 414.458,139.31 424,161.5C 430.986,184.632 426.986,205.632 412,224.5C 394.396,242.945 374.229,246.445 351.5,235C 336.985,223.631 329.985,208.631 330.5,190C 331.74,160.628 346.074,141.128 373.5,131.5 Z"/></g>
<g><path style="opacity:1" fill="#45ac9e" d="M 376.5,138.5 C 396.381,137.553 410.214,146.219 418,164.5C 425.601,190.364 418.767,211.531 397.5,228C 370.196,240.764 350.696,233.264 339,205.5C 332.702,180.384 339.869,160.218 360.5,145C 365.607,141.935 370.94,139.769 376.5,138.5 Z"/></g>
<g><path style="opacity:1" fill="#fcfcfc" d="M 602.5,139.5 C 618.474,139.903 630.641,146.903 639,160.5C 648.975,178.576 648.975,196.576 639,214.5C 625.393,227.308 611.226,227.808 596.5,216C 577.85,197.09 574.017,175.59 585,151.5C 589.505,145.348 595.338,141.348 602.5,139.5 Z"/></g>
<g><path style="opacity:1" fill="#110f0e" d="M 261.5,143.5 C 262.043,143.56 262.376,143.893 262.5,144.5C 260.816,147.612 260.15,150.946 260.5,154.5C 291.22,148.379 306.387,161.046 306,192.5C 304.274,208.795 296.774,221.629 283.5,231C 263.595,241.466 247.762,237.3 236,218.5C 228.415,195.653 233.748,176.32 252,160.5C 254.16,154.197 257.327,148.531 261.5,143.5 Z"/></g>
<g><path style="opacity:1" fill="#fcfdfd" d="M 383.5,177.5 C 379.927,179.121 376.261,180.454 372.5,181.5C 359.201,181.369 353.034,174.702 354,161.5C 358.5,151.166 366.333,146.999 377.5,149C 387.356,151.872 391.189,158.372 389,168.5C 387.657,171.862 385.824,174.862 383.5,177.5 Z"/></g>
<g><path style="opacity:1" fill="#211a14" d="M 455.5,139.5 C 456.404,140.209 456.737,141.209 456.5,142.5C 467.382,144.097 470.049,149.597 464.5,159C 458.376,163.043 453.542,161.876 450,155.5C 449.333,151.833 449.333,148.167 450,144.5C 450.414,144.957 450.914,145.291 451.5,145.5C 452.458,143.216 453.792,141.216 455.5,139.5 Z"/></g>
<g><path style="opacity:1" fill="#f0ece8" d="M 460.5,153.5 C 461.833,153.5 463.167,153.5 464.5,153.5C 464.5,154.5 464.5,155.5 464.5,156.5C 463.5,157.167 462.5,157.833 461.5,158.5C 460.5,158.5 459.5,158.5 458.5,158.5C 458.5,157.167 458.5,155.833 458.5,154.5C 459.167,154.167 459.833,153.833 460.5,153.5 Z"/></g>
<g><path style="opacity:1" fill="#634119" d="M 464.5,156.5 C 464.5,155.5 464.5,154.5 464.5,153.5C 463.167,153.5 461.833,153.5 460.5,153.5C 460.771,151.62 460.104,150.287 458.5,149.5C 458.5,148.5 458.5,147.5 458.5,146.5C 454.862,145.737 453.362,147.07 454,150.5C 454.671,151.252 455.504,151.586 456.5,151.5C 456.285,153.179 456.952,154.179 458.5,154.5C 458.5,155.833 458.5,157.167 458.5,158.5C 459.5,158.5 460.5,158.5 461.5,158.5C 453.522,160.365 450.022,157.031 451,148.5C 455.3,143.554 459.967,143.221 465,147.5C 465.805,150.696 465.638,153.696 464.5,156.5 Z"/></g>
<g><path style="opacity:1" fill="#ea20e3" d="M 458.5,149.5 C 460.104,150.287 460.771,151.62 460.5,153.5C 459.833,153.833 459.167,154.167 458.5,154.5C 456.952,154.179 456.285,153.179 456.5,151.5C 456.833,150.5 457.5,149.833 458.5,149.5 Z"/></g>
<g><path style="opacity:1" fill="#ece5e2" d="M 458.5,149.5 C 457.5,149.833 456.833,150.5 456.5,151.5C 455.504,151.586 454.671,151.252 454,150.5C 453.362,147.07 454.862,145.737 458.5,146.5C 458.5,147.5 458.5,148.5 458.5,149.5 Z"/></g>
<g><path style="opacity:1" fill="#fcfbfb" d="M 265.5,159.5 C 288.141,158.645 300.141,169.478 301.5,192C 300.654,216.51 288.154,230.677 264,234.5C 244.983,231.48 235.15,220.314 234.5,201C 235.994,180.366 246.327,166.532 265.5,159.5 Z"/></g>
<g><path style="opacity:1" fill="#110f0f" d="M 501.5,164.5 C 503.155,169.212 503.988,174.212 504,179.5C 516.173,192.019 521.173,207.019 519,224.5C 515.755,251.004 500.921,263.838 474.5,263C 458.492,258.324 448.658,247.824 445,231.5C 439.965,209.445 445.799,190.945 462.5,176C 473.213,169.632 484.38,168.799 496,173.5C 499.232,171.418 501.066,168.418 501.5,164.5 Z"/></g>
<g><path style="opacity:1" fill="#e990e7" d="M 607.5,169.5 C 616.657,168.489 620.49,172.489 619,181.5C 613.208,188.408 607.874,188.074 603,180.5C 601.776,175.626 603.276,171.959 607.5,169.5 Z"/></g>
<g><path style="opacity:1" fill="#fefcfe" d="M 613.5,176.5 C 613.443,177.609 613.11,178.609 612.5,179.5C 607.099,181.881 604.599,180.215 605,174.5C 606.808,172.604 608.975,172.104 611.5,173C 612.823,173.816 613.489,174.983 613.5,176.5 Z"/></g>
<g><path style="opacity:1" fill="#2bd93c" d="M 538.5,174.5 C 548.659,173.158 552.826,177.491 551,187.5C 549.336,191.084 546.503,192.751 542.5,192.5C 539.376,192.6 536.71,191.6 534.5,189.5C 533.676,186.236 533.342,182.902 533.5,179.5C 535.5,178.167 537.167,176.5 538.5,174.5 Z"/></g>
<g><path style="opacity:1" fill="#132a11" d="M 538.5,174.5 C 537.167,176.5 535.5,178.167 533.5,179.5C 534.167,176.833 535.833,175.167 538.5,174.5 Z"/></g>
<g><path style="opacity:1" fill="#f6110a" d="M 383.5,177.5 C 386.303,180.204 387.137,183.537 386,187.5C 378.147,192.892 373.647,190.892 372.5,181.5C 376.261,180.454 379.927,179.121 383.5,177.5 Z"/></g>
<g><path style="opacity:1" fill="#f0f9ee" d="M 542.5,181.5 C 542.167,182.5 541.5,183.167 540.5,183.5C 534.061,182.164 533.894,179.83 540,176.5C 543.001,177.286 543.834,178.953 542.5,181.5 Z"/></g>
<g><path style="opacity:1" fill="#fe1c1b" d="M 613.5,176.5 C 616.063,177.998 616.063,179.665 613.5,181.5C 612.702,181.043 612.369,180.376 612.5,179.5C 613.11,178.609 613.443,177.609 613.5,176.5 Z"/></g>
<g><path style="opacity:1" fill="#fed322" d="M 265.5,179.5 C 276.591,178.539 282.924,183.539 284.5,194.5C 282.871,209.324 274.871,215.491 260.5,213C 252.848,207.243 250.681,199.743 254,190.5C 256.495,185.353 260.329,181.686 265.5,179.5 Z"/></g>
<g><path style="opacity:1" fill="#fbfafc" d="M 473.5,180.5 C 495.86,178.772 510.026,188.772 516,210.5C 518.921,227.672 514.088,242.172 501.5,254C 479.448,266.559 462.281,261.725 450,239.5C 442.097,219.271 445.93,201.771 461.5,187C 465.434,184.536 469.434,182.369 473.5,180.5 Z"/></g>
<g><path style="opacity:1" fill="#140100" d="M 378.5,181.5 C 379.5,181.5 380.5,181.5 381.5,181.5C 381.5,182.833 381.5,184.167 381.5,185.5C 378.046,185.733 377.046,184.4 378.5,181.5 Z"/></g>
<g><path style="opacity:1" fill="#ea2405" d="M 542.5,181.5 C 545.14,182.794 545.14,184.127 542.5,185.5C 541.478,185.145 540.811,184.478 540.5,183.5C 541.5,183.167 542.167,182.5 542.5,181.5 Z"/></g>
<g><path style="opacity:1" fill="#fffdf5" d="M 267.5,193.5 C 267.167,193.5 266.833,193.5 266.5,193.5C 260.005,192.013 259.005,188.846 263.5,184C 269.343,182.641 271.843,184.808 271,190.5C 269.855,191.636 268.688,192.636 267.5,193.5 Z"/></g>
<g><path style="opacity:1" fill="#eafcec" d="M 546.5,186.5 C 549.041,187.623 549.041,188.956 546.5,190.5C 545.374,189.192 545.374,187.858 546.5,186.5 Z"/></g>
<g><path style="opacity:1" fill="#262c1d" d="M 534.5,189.5 C 536.71,191.6 539.376,192.6 542.5,192.5C 546.503,192.751 549.336,191.084 551,187.5C 552.826,177.491 548.659,173.158 538.5,174.5C 540.698,173.835 543.031,173.168 545.5,172.5C 544.674,171.549 544.508,170.549 545,169.5C 546.574,170.984 547.907,172.651 549,174.5C 549.333,173.5 549.667,172.5 550,171.5C 552.267,176.287 553.267,181.287 553,186.5C 549.128,194.518 543.294,196.351 535.5,192C 534.748,191.329 534.414,190.496 534.5,189.5 Z"/></g>
<g><path style="opacity:1" fill="#3a2b90" d="M 266.5,193.5 C 266.833,193.5 267.167,193.5 267.5,193.5C 271.264,194.385 272.264,196.552 270.5,200C 264.339,200.878 263.006,198.711 266.5,193.5 Z"/></g>
<g><path style="opacity:1" fill="#a521e4" d="M 475.5,194.5 C 490.223,193.064 499.723,199.397 504,213.5C 505.764,223.867 503.264,233.034 496.5,241C 487.057,247.88 477.391,248.214 467.5,242C 458.26,231.903 456.093,220.403 461,207.5C 464.367,201.42 469.2,197.087 475.5,194.5 Z"/></g>
<g><path style="opacity:1" fill="#f8fcfb" d="M 390.5,198.5 C 398.498,198 402.331,201.667 402,209.5C 399.081,215.025 394.581,216.858 388.5,215C 384.139,212.774 382.639,209.274 384,204.5C 385.494,201.686 387.66,199.686 390.5,198.5 Z"/></g>
<g><path style="opacity:1" fill="#fcf8fe" d="M 471.5,200.5 C 479.885,199.716 483.051,203.383 481,211.5C 476.531,216.999 471.531,217.666 466,213.5C 465.333,210.833 465.333,208.167 466,205.5C 467.73,203.598 469.563,201.931 471.5,200.5 Z"/></g>
<g><path style="opacity:1" fill="#fff9e4" d="M 267.5,202.5 C 272.041,202.815 273.041,204.649 270.5,208C 266.537,208.118 265.537,206.284 267.5,202.5 Z"/></g>
<g><path style="opacity:1" fill="#141211" d="M 554.5,210.5 C 574.848,211.694 583.015,222.361 579,242.5C 571.503,256.998 560.67,260.165 546.5,252C 535.322,238.742 535.989,226.076 548.5,214C 550.727,213.059 552.727,211.892 554.5,210.5 Z"/></g>
<g><path style="opacity:1" fill="#eedf33" d="M 479.5,215.5 C 486.821,216.319 488.154,219.486 483.5,225C 478.333,225.833 476.167,223.667 477,218.5C 478.045,217.627 478.878,216.627 479.5,215.5 Z"/></g>
<g><path style="opacity:1" fill="#f3f4f5" d="M 555.5,217.5 C 571.66,217.502 578.826,225.502 577,241.5C 571.023,253.561 561.857,256.727 549.5,251C 540.122,242.556 539.122,233.223 546.5,223C 549.263,220.626 552.263,218.792 555.5,217.5 Z"/></g>
<g><path style="opacity:1" fill="#191803" d="M 480.5,219.5 C 482.337,219.639 482.67,220.306 481.5,221.5C 480.702,221.043 480.369,220.376 480.5,219.5 Z"/></g>
<g><path style="opacity:1" fill="#faf3fd" d="M 487.5,230.5 C 493.158,229.679 494.825,231.846 492.5,237C 489.216,239.348 486.882,238.681 485.5,235C 485.519,233.167 486.185,231.667 487.5,230.5 Z"/></g>
<g><path style="opacity:1" fill="#2ab2ef" d="M 556.5,222.5 C 570.92,223.667 575.42,231 570,244.5C 560.846,252.03 553.179,250.696 547,240.5C 545.292,231.755 548.458,225.755 556.5,222.5 Z"/></g>
<g><path style="opacity:1" fill="#fafcfe" d="M 559.5,232.5 C 558.853,234.141 557.853,235.474 556.5,236.5C 550.633,236.64 548.633,233.974 550.5,228.5C 555.55,225.192 558.55,226.525 559.5,232.5 Z"/></g>
<g><path style="opacity:1" fill="#c02dcc" d="M 559.5,232.5 C 562.084,233.048 563.084,234.715 562.5,237.5C 562.167,238.167 561.833,238.833 561.5,239.5C 558.966,239.741 557.3,238.741 556.5,236.5C 557.853,235.474 558.853,234.141 559.5,232.5 Z"/></g>
<g><path style="opacity:1" fill="#110c0a" d="M 307.5,231.5 C 308.736,233.611 310.236,235.611 312,237.5C 323.141,234.891 328.141,239.224 327,250.5C 321.528,258.948 315.194,259.614 308,252.5C 306.709,248.384 305.542,244.218 304.5,240C 304.833,239.5 305.167,239 305.5,238.5C 306.809,240.891 307.809,240.891 308.5,238.5C 307.777,236.218 307.443,233.884 307.5,231.5 Z"/></g>
<g><path style="opacity:1" fill="#f3fafe" d="M 562.5,237.5 C 567.494,237.329 569.328,239.662 568,244.5C 562.846,246.825 560.679,245.158 561.5,239.5C 561.833,238.833 562.167,238.167 562.5,237.5 Z"/></g>
<g><path style="opacity:1" fill="#f3f0f0" d="M 312.5,240.5 C 315.076,240.722 315.91,242.055 315,244.5C 312.499,246.056 310.999,245.389 310.5,242.5C 310.833,241.5 311.5,240.833 312.5,240.5 Z"/></g>
<g><path style="opacity:1" fill="#2f0707" d="M 310.5,242.5 C 310.999,245.389 312.499,246.056 315,244.5C 315.91,242.055 315.076,240.722 312.5,240.5C 316.708,237.831 320.541,238.498 324,242.5C 325.846,253.16 321.68,256.66 311.5,253C 309.378,249.553 309.045,246.053 310.5,242.5 Z"/></g>
<g><path style="opacity:1" fill="#171514" d="M 408.5,242.5 C 409.309,244.292 409.809,246.292 410,248.5C 416.125,244.607 422.292,244.774 428.5,249C 435.326,257.251 434.993,265.251 427.5,273C 419.341,277.264 412.174,276.098 406,269.5C 402.469,260.141 403.302,251.141 408.5,242.5 Z"/></g>
<g><path style="opacity:1" fill="#1f1615" d="M 649.5,245.5 C 662.339,244.342 670.505,250.009 674,262.5C 675.535,272.913 674.202,282.913 670,292.5C 652.603,325.231 627.77,350.731 595.5,369C 540.566,398.654 481.9,410.654 419.5,405C 364.042,401.079 314.375,382.412 270.5,349C 252.538,334.711 238.705,317.211 229,296.5C 225.911,289.478 224.078,282.145 223.5,274.5C 224.149,263.37 229.149,254.87 238.5,249C 241.833,248.333 245.167,248.333 248.5,249C 310.007,273.835 374.007,287.169 440.5,289C 488.222,290.662 535.222,285.662 581.5,274C 605.541,267.471 628.208,257.971 649.5,245.5 Z"/></g>
<g><path style="opacity:1" fill="#d7cdcd" d="M 318.5,248.5 C 319.5,248.5 320.5,248.5 321.5,248.5C 321.426,252.541 320.093,253.208 317.5,250.5C 317.863,249.817 318.196,249.15 318.5,248.5 Z"/></g>
<g><path style="opacity:1" fill="#f5f3f5" d="M 415.5,247.5 C 429.84,249.188 434.007,256.521 428,269.5C 418.169,276.293 410.836,274.293 406,263.5C 405.348,260.406 405.682,257.406 407,254.5C 409.441,251.546 412.275,249.213 415.5,247.5 Z"/></g>
<g><path style="opacity:1" fill="#f5f5f5" d="M 659.5,252.5 C 658.069,253.78 657.402,255.447 657.5,257.5C 655.707,259.426 654.707,261.759 654.5,264.5C 652.707,266.426 651.707,268.759 651.5,271.5C 649.774,273.942 648.274,276.609 647,279.5C 646.295,275.335 645.461,271.335 644.5,267.5C 644.5,267.167 644.5,266.833 644.5,266.5C 644.239,261.399 644.239,256.399 644.5,251.5C 649.179,248.979 654.179,247.979 659.5,248.5C 659.5,249.833 659.5,251.167 659.5,252.5 Z"/></g>
<g><path style="opacity:1" fill="#a50100" d="M 664.5,294.5 C 663.641,291.548 661.641,289.715 658.5,289C 655.558,287.876 652.558,287.542 649.5,288C 650.899,291.561 652.232,295.061 653.5,298.5C 654.819,303.432 655.319,308.432 655,313.5C 652.659,316.671 650.159,319.671 647.5,322.5C 645.62,317.304 642.62,312.971 638.5,309.5C 637.167,308.833 636.167,307.833 635.5,306.5C 634.738,304.738 633.404,303.738 631.5,303.5C 631.44,302.957 631.107,302.624 630.5,302.5C 629.504,308.463 629.171,314.463 629.5,320.5C 629.5,320.833 629.5,321.167 629.5,321.5C 628.057,328.617 627.224,335.951 627,343.5C 624.323,345.514 621.656,347.514 619,349.5C 610.678,341.846 602.345,334.179 594,326.5C 594.711,336.108 594.545,345.774 593.5,355.5C 592.732,356.263 592.232,357.263 592,358.5C 591.34,356.676 590.173,355.343 588.5,354.5C 581.333,340.077 578.667,341.744 580.5,359.5C 579.698,360.952 579.198,362.618 579,364.5C 577.961,363.29 576.794,362.29 575.5,361.5C 569.738,355.404 564.738,348.738 560.5,341.5C 559.567,338.63 557.9,336.296 555.5,334.5C 554.928,332.745 554.094,331.078 553,329.5C 552.5,340.161 552.333,350.828 552.5,361.5C 544.414,361.801 536.414,361.467 528.5,360.5C 526.75,359.341 525.75,357.674 525.5,355.5C 523.945,352.06 522.112,348.727 520,345.5C 519.501,351.157 519.334,356.824 519.5,362.5C 511.482,363.354 503.482,364.354 495.5,365.5C 497.426,352.909 497.926,340.242 497,327.5C 496.5,326.5 496,325.5 495.5,324.5C 497.771,319.686 499.438,314.686 500.5,309.5C 502.934,304.387 505.1,299.054 507,293.5C 510.305,311.894 510.305,330.228 507,348.5C 509.81,345.536 511.976,342.202 513.5,338.5C 513.427,336.973 514.094,335.973 515.5,335.5C 518.502,332.839 520.502,329.505 521.5,325.5C 525.509,320.823 528.509,315.489 530.5,309.5C 534.839,303.489 538.172,296.823 540.5,289.5C 541.167,289.167 541.833,288.833 542.5,288.5C 543.631,294.465 544.631,300.465 545.5,306.5C 546.919,305.995 547.585,304.995 547.5,303.5C 551.134,299.589 554.301,295.256 557,290.5C 557.383,291.056 557.883,291.389 558.5,291.5C 558.646,295.387 559.313,299.054 560.5,302.5C 560.588,308.93 561.421,315.264 563,321.5C 563.568,327.244 563.568,332.911 563,338.5C 566.812,333.866 569.979,328.866 572.5,323.5C 574,319.827 576,316.494 578.5,313.5C 580.924,310.992 582.59,307.992 583.5,304.5C 583.328,303.508 583.662,302.842 584.5,302.5C 587.54,299.086 589.54,295.086 590.5,290.5C 590.328,289.508 590.662,288.842 591.5,288.5C 594.237,285.017 595.903,281.017 596.5,276.5C 597.391,274.709 598.391,272.876 599.5,271C 601.871,270.265 604.205,269.432 606.5,268.5C 606.833,268.833 607.167,269.167 607.5,269.5C 608.706,277.646 610.04,285.646 611.5,293.5C 612.052,302.492 612.552,311.492 613,320.5C 620.381,305.526 625.881,289.859 629.5,273.5C 631.285,268.373 632.785,263.04 634,257.5C 636.498,255.583 639.165,253.916 642,252.5C 642.803,257.315 643.637,261.981 644.5,266.5C 644.5,266.833 644.5,267.167 644.5,267.5C 644.334,274.175 644.5,280.842 645,287.5C 647.462,282.248 649.629,276.915 651.5,271.5C 653.293,269.574 654.293,267.241 654.5,264.5C 656.293,262.574 657.293,260.241 657.5,257.5C 657.402,255.447 658.069,253.78 659.5,252.5C 660.315,251.571 661.148,250.571 662,249.5C 670.835,256.826 674.168,266.16 672,277.5C 670.822,281.88 669.488,286.213 668,290.5C 667.502,292.544 666.335,293.878 664.5,294.5 Z"/></g>
<g><path style="opacity:1" fill="#a30100" d="M 250.5,282.5 C 254.082,275.675 258.415,269.342 263.5,263.5C 264.293,267.016 265.293,270.35 266.5,273.5C 267.451,274.919 267.784,276.585 267.5,278.5C 267.528,281.916 268.528,284.916 270.5,287.5C 271.338,287.842 271.672,288.508 271.5,289.5C 272.833,294.833 274.167,294.833 275.5,289.5C 275.75,287.326 276.75,285.659 278.5,284.5C 280.448,282.211 282.448,279.878 284.5,277.5C 285.168,280.306 285.834,282.972 286.5,285.5C 286.5,285.833 286.5,286.167 286.5,286.5C 286.855,291.849 287.022,297.182 287,302.5C 283.971,306.562 281.471,310.895 279.5,315.5C 279.25,317.674 278.25,319.341 276.5,320.5C 274.442,322.927 272.609,325.593 271,328.5C 270.77,322.425 270.603,316.425 270.5,310.5C 265.482,314.685 260.982,319.351 257,324.5C 256.333,315.167 256.333,305.833 257,296.5C 257.273,294.899 257.773,293.399 258.5,292C 253.186,293.802 249.186,297.302 246.5,302.5C 244.178,303.802 242.845,305.802 242.5,308.5C 241.685,309.429 240.852,310.429 240,311.5C 234.803,305.43 233.136,298.43 235,290.5C 235.515,285.775 236.348,281.108 237.5,276.5C 237.167,275.5 236.833,274.5 236.5,273.5C 233.52,275.473 231.52,278.14 230.5,281.5C 230.573,283.027 229.906,284.027 228.5,284.5C 223.854,272.256 226.521,261.756 236.5,253C 239.206,251.092 242.206,250.259 245.5,250.5C 245.231,263.532 245.731,276.532 247,289.5C 247.333,289.833 247.667,290.167 248,290.5C 249.136,287.904 249.969,285.237 250.5,282.5 Z"/></g>
<g><path style="opacity:1" fill="#f5f5f5" d="M 250.5,282.5 C 249.442,283.6 248.608,284.934 248,286.5C 246.365,274.853 246.198,263.187 247.5,251.5C 253.615,253.724 259.615,256.224 265.5,259C 258.629,265.691 253.629,273.525 250.5,282.5 Z"/></g>
<g><path style="opacity:1" fill="#fafafa" d="M 629.5,273.5 C 624.863,287.904 619.696,302.237 614,316.5C 613.925,308.6 613.092,300.934 611.5,293.5C 611.492,286.111 610.826,278.777 609.5,271.5C 609.833,270.167 610.167,268.833 610.5,267.5C 617.292,264.403 624.125,261.403 631,258.5C 631.5,258.833 632,259.167 632.5,259.5C 630.866,264.037 629.866,268.704 629.5,273.5 Z"/></g>
<g><path style="opacity:1" fill="#eb93f0" d="M 416.5,261.5 C 419.407,262.904 420.407,262.237 419.5,259.5C 419.78,256.612 418.447,255.112 415.5,255C 424.028,254.362 426.362,257.862 422.5,265.5C 414.552,268.381 411.385,265.715 413,257.5C 413.057,259.91 414.224,261.244 416.5,261.5 Z"/></g>
<g><path style="opacity:1" fill="#367231" d="M 419.5,259.5 C 420.407,262.237 419.407,262.904 416.5,261.5C 417.29,260.599 418.29,259.932 419.5,259.5 Z"/></g>
<g><path style="opacity:1" fill="#f8f8f8" d="M 278.5,284.5 C 276.75,285.659 275.75,287.326 275.5,289.5C 274.167,290.833 272.833,290.833 271.5,289.5C 271.672,288.508 271.338,287.842 270.5,287.5C 270.253,284.146 269.253,281.146 267.5,278.5C 267.784,276.585 267.451,274.919 266.5,273.5C 265.856,268.914 265.856,264.414 266.5,260C 271.785,261.426 277.118,263.092 282.5,265C 283.907,268.371 284.407,271.871 284,275.5C 281.517,278.139 279.684,281.139 278.5,284.5 Z"/></g>
<g><path style="opacity:1" fill="#211514" d="M 657.5,257.5 C 657.293,260.241 656.293,262.574 654.5,264.5C 654.707,261.759 655.707,259.426 657.5,257.5 Z"/></g>
<g><path style="opacity:1" fill="#fbfbfb" d="M 321.5,277.5 C 318.833,278.167 317.167,279.833 316.5,282.5C 311.871,286.432 308.204,291.099 305.5,296.5C 302.723,298.951 300.723,301.951 299.5,305.5C 296.361,309.09 293.694,313.09 291.5,317.5C 290.23,306.965 288.563,296.632 286.5,286.5C 286.5,286.167 286.5,285.833 286.5,285.5C 286.233,279.162 285.9,272.829 285.5,266.5C 296.895,269.182 308.228,272.182 319.5,275.5C 320.713,275.747 321.38,276.414 321.5,277.5 Z"/></g>
<g><path style="opacity:1" fill="#1f1514" d="M 654.5,264.5 C 654.293,267.241 653.293,269.574 651.5,271.5C 651.707,268.759 652.707,266.426 654.5,264.5 Z"/></g>
<g><path style="opacity:1" fill="#fafafa" d="M 596.5,276.5 C 594.315,280.213 592.648,284.213 591.5,288.5C 590.662,288.842 590.328,289.508 590.5,290.5C 587.992,294.182 585.992,298.182 584.5,302.5C 583.662,302.842 583.328,303.508 583.5,304.5C 581.076,307.008 579.41,310.008 578.5,313.5C 576,316.494 574,319.827 572.5,323.5C 569.777,326.586 567.277,329.92 565,333.5C 564.647,322.863 563.147,312.529 560.5,302.5C 560.749,298.542 560.082,294.876 558.5,291.5C 558.223,288.552 558.556,285.719 559.5,283C 571.739,279.357 584.073,276.19 596.5,273.5C 596.5,274.5 596.5,275.5 596.5,276.5 Z"/></g>
<g><path style="opacity:1" fill="#a70000" d="M 340.5,323.5 C 342.742,320.918 344.076,317.918 344.5,314.5C 344.66,312.847 345.326,311.514 346.5,310.5C 349.226,307.394 351.226,303.727 352.5,299.5C 354.223,297.747 355.723,295.747 357,293.5C 358.189,295.233 359.356,296.9 360.5,298.5C 362.793,305.752 366.126,312.419 370.5,318.5C 372.25,319.659 373.25,321.326 373.5,323.5C 374.391,325.609 375.558,327.609 377,329.5C 377.499,325.179 377.666,320.846 377.5,316.5C 379.204,312.383 380.537,308.049 381.5,303.5C 383.977,298.558 386.977,293.892 390.5,289.5C 392.743,288.526 395.076,288.192 397.5,288.5C 399.469,298.087 402.802,307.087 407.5,315.5C 398.019,324.466 394.852,335.466 398,348.5C 398.434,354.24 399.267,359.906 400.5,365.5C 393.873,364.241 387.207,363.241 380.5,362.5C 380.41,358.786 379.41,355.452 377.5,352.5C 377.5,352.167 377.5,351.833 377.5,351.5C 376.906,345.183 376.406,338.849 376,332.5C 371.514,337.806 368.347,343.806 366.5,350.5C 364.733,352.792 363.733,355.458 363.5,358.5C 357.758,360.716 351.758,361.049 345.5,359.5C 344.48,356.395 343.313,353.395 342,350.5C 340.812,351.563 340.312,352.897 340.5,354.5C 338.733,356.792 337.733,359.458 337.5,362.5C 335.173,362.665 333.007,363.331 331,364.5C 327.068,349.372 322.734,334.372 318,319.5C 316.961,320.244 316.461,321.244 316.5,322.5C 313.871,327.872 311.704,333.539 310,339.5C 307.496,348.849 304.996,358.183 302.5,367.5C 301.914,367.291 301.414,366.957 301,366.5C 300.116,361.632 298.95,356.966 297.5,352.5C 297.5,352.167 297.5,351.833 297.5,351.5C 296.689,341.487 295.689,331.487 294.5,321.5C 294.667,319.167 294.833,316.833 295,314.5C 296.761,311.589 298.261,308.589 299.5,305.5C 302.241,303.025 304.241,300.025 305.5,296.5C 309.647,292.205 313.313,287.538 316.5,282.5C 318.5,281.167 320.167,279.5 321.5,277.5C 324.421,276.628 327.421,276.628 330.5,277.5C 331.305,295.735 332.971,313.901 335.5,332C 335.833,332.833 336.167,333.667 336.5,334.5C 338.235,330.961 339.568,327.294 340.5,323.5 Z"/></g>
<g><path style="opacity:1" fill="#f1f1f1" d="M 228.5,284.5 C 229.906,284.027 230.573,283.027 230.5,281.5C 232.55,279.763 234.383,277.763 236,275.5C 234.731,283.395 233.731,291.395 233,299.5C 230.787,294.696 229.287,289.696 228.5,284.5 Z"/></g>
<g><path style="opacity:1" fill="#f9f9f9" d="M 360.5,287.5 C 356.844,290.803 354.178,294.803 352.5,299.5C 349.742,302.678 347.742,306.345 346.5,310.5C 345.326,311.514 344.66,312.847 344.5,314.5C 342.375,317.088 341.042,320.088 340.5,323.5C 338.837,325.493 337.67,327.826 337,330.5C 333.582,313.314 332.416,295.981 333.5,278.5C 342.832,280.733 352.165,282.899 361.5,285C 360.748,285.671 360.414,286.504 360.5,287.5 Z"/></g>
<g><path style="opacity:1" fill="#29201f" d="M 596.5,276.5 C 595.903,281.017 594.237,285.017 591.5,288.5C 592.648,284.213 594.315,280.213 596.5,276.5 Z"/></g>
<g><path style="opacity:1" fill="#252323" d="M 321.5,277.5 C 320.167,279.5 318.5,281.167 316.5,282.5C 317.167,279.833 318.833,278.167 321.5,277.5 Z"/></g>
<g><path style="opacity:1" fill="#3f2625" d="M 644.5,267.5 C 645.461,271.335 646.295,275.335 647,279.5C 648.274,276.609 649.774,273.942 651.5,271.5C 649.629,276.915 647.462,282.248 645,287.5C 644.5,280.842 644.334,274.175 644.5,267.5 Z"/></g>
<g><path style="opacity:1" fill="#292121" d="M 267.5,278.5 C 269.253,281.146 270.253,284.146 270.5,287.5C 268.528,284.916 267.528,281.916 267.5,278.5 Z"/></g>
<g><path style="opacity:1" fill="#f7f7f7" d="M 547.5,303.5 C 546.883,303.611 546.383,303.944 546,304.5C 545.953,298.794 544.786,293.461 542.5,288.5C 542.33,287.178 542.663,286.011 543.5,285C 547.813,284.265 552.147,283.765 556.5,283.5C 556.662,285.527 556.495,287.527 556,289.5C 552.893,294.056 550.06,298.723 547.5,303.5 Z"/></g>
<g><path style="opacity:1" fill="#f7f7f7" d="M 381.5,303.5 C 378.987,307.378 377.654,311.711 377.5,316.5C 376.681,319.305 376.181,322.305 376,325.5C 375.292,324.619 374.458,323.953 373.5,323.5C 373.25,321.326 372.25,319.659 370.5,318.5C 367.675,311.516 364.341,304.849 360.5,298.5C 360.276,296.213 359.609,294.047 358.5,292C 359.414,290.594 360.08,289.094 360.5,287.5C 361.857,286.315 363.357,285.315 365,284.5C 373.044,286.568 381.211,287.901 389.5,288.5C 385.515,292.803 382.849,297.803 381.5,303.5 Z"/></g>
<g><path style="opacity:1" fill="#f7f7f7" d="M 540.5,289.5 C 536.659,295.849 533.325,302.516 530.5,309.5C 526.997,314.502 523.997,319.835 521.5,325.5C 519,328.494 517,331.827 515.5,335.5C 514.094,335.973 513.427,336.973 513.5,338.5C 512.115,339.574 510.949,340.907 510,342.5C 511.041,325.132 510.541,307.798 508.5,290.5C 518.891,289.242 529.225,287.576 539.5,285.5C 540.167,285.833 540.833,286.167 541.5,286.5C 540.873,287.417 540.539,288.417 540.5,289.5 Z"/></g>
<g><path style="opacity:1" fill="#2f1f1e" d="M 664.5,294.5 C 661.209,291.19 657.209,289.523 652.5,289.5C 652.704,292.518 653.037,295.518 653.5,298.5C 652.232,295.061 650.899,291.561 649.5,288C 652.558,287.542 655.558,287.876 658.5,289C 661.641,289.715 663.641,291.548 664.5,294.5 Z"/></g>
<g><path style="opacity:1" fill="#fafafa" d="M 433.5,316.5 C 429.922,327.623 427.089,338.956 425,350.5C 418.593,339.02 412.76,327.354 407.5,315.5C 404.708,307.126 401.708,298.792 398.5,290.5C 400,290.167 401.5,289.833 403,289.5C 416.488,290.659 429.988,291.659 443.5,292.5C 439.575,300.281 436.242,308.281 433.5,316.5 Z"/></g>
<g><path style="opacity:1" fill="#f4f4f4" d="M 664.5,294.5 C 663.606,300.287 661.106,305.287 657,309.5C 656.276,305.573 655.109,301.906 653.5,298.5C 653.037,295.518 652.704,292.518 652.5,289.5C 657.209,289.523 661.209,291.19 664.5,294.5 Z"/></g>
<g><path style="opacity:1" fill="#322221" d="M 271.5,289.5 C 272.833,290.833 274.167,290.833 275.5,289.5C 274.167,294.833 272.833,294.833 271.5,289.5 Z"/></g>
<g><path style="opacity:1" fill="#fbfbfb" d="M 500.5,309.5 C 494.302,326.565 486.468,342.898 477,358.5C 474.584,343.094 470.084,328.427 463.5,314.5C 463.598,312.447 462.931,310.78 461.5,309.5C 461.293,306.759 460.293,304.426 458.5,302.5C 457.873,298.58 456.207,295.247 453.5,292.5C 470.995,291.268 488.662,290.768 506.5,291C 503.999,297.003 501.999,303.169 500.5,309.5 Z"/></g>
<g><path style="opacity:1" fill="#251d1c" d="M 360.5,287.5 C 360.08,289.094 359.414,290.594 358.5,292C 359.609,294.047 360.276,296.213 360.5,298.5C 359.356,296.9 358.189,295.233 357,293.5C 355.723,295.747 354.223,297.747 352.5,299.5C 354.178,294.803 356.844,290.803 360.5,287.5 Z"/></g>
<g><path style="opacity:1" fill="#a60000" d="M 453.5,292.5 C 454.659,296.151 456.326,299.485 458.5,302.5C 458.707,305.241 459.707,307.574 461.5,309.5C 462.931,310.78 463.598,312.447 463.5,314.5C 463.62,316.199 463.954,317.865 464.5,319.5C 462.505,322.344 460.672,325.344 459,328.5C 460.188,336.979 456.521,341.645 448,342.5C 445.432,342.049 443.098,341.049 441,339.5C 439.374,331.634 437.207,323.968 434.5,316.5C 437.507,308.322 441.007,300.322 445,292.5C 447.832,291.214 450.665,291.214 453.5,292.5 Z"/></g>
<g><path style="opacity:1" fill="#f8f8f8" d="M 242.5,308.5 C 244.326,306.853 245.66,304.853 246.5,302.5C 248.963,300.539 251.297,298.372 253.5,296C 254.483,295.409 255.15,295.743 255.5,297C 254.888,300.628 254.554,304.294 254.5,308C 254.973,315.88 255.473,323.713 256,331.5C 250.598,325.934 245.764,319.934 241.5,313.5C 242.309,311.929 242.643,310.262 242.5,308.5 Z"/></g>
<g><path style="opacity:1" fill="#261817" d="M 316.5,282.5 C 313.313,287.538 309.647,292.205 305.5,296.5C 308.204,291.099 311.871,286.432 316.5,282.5 Z"/></g>
<g><path style="opacity:1" fill="#281e1e" d="M 453.5,292.5 C 456.207,295.247 457.873,298.58 458.5,302.5C 456.326,299.485 454.659,296.151 453.5,292.5 Z"/></g>
<g><path style="opacity:1" fill="#24120f" d="M 590.5,290.5 C 589.54,295.086 587.54,299.086 584.5,302.5C 585.992,298.182 587.992,294.182 590.5,290.5 Z"/></g>
<g><path style="opacity:1" fill="#282424" d="M 558.5,291.5 C 560.082,294.876 560.749,298.542 560.5,302.5C 559.313,299.054 558.646,295.387 558.5,291.5 Z"/></g>
<g><path style="opacity:1" fill="#1b1312" d="M 542.5,288.5 C 544.786,293.461 545.953,298.794 546,304.5C 546.383,303.944 546.883,303.611 547.5,303.5C 547.585,304.995 546.919,305.995 545.5,306.5C 544.631,300.465 543.631,294.465 542.5,288.5 Z"/></g>
<g><path style="opacity:1" fill="#291716" d="M 360.5,298.5 C 364.341,304.849 367.675,311.516 370.5,318.5C 366.126,312.419 362.793,305.752 360.5,298.5 Z"/></g>
<g><path style="opacity:1" fill="#28120f" d="M 540.5,289.5 C 538.172,296.823 534.839,303.489 530.5,309.5C 533.325,302.516 536.659,295.849 540.5,289.5 Z"/></g>
<g><path style="opacity:1" fill="#271a19" d="M 305.5,296.5 C 304.241,300.025 302.241,303.025 299.5,305.5C 300.723,301.951 302.723,298.951 305.5,296.5 Z"/></g>
<g><path style="opacity:1" fill="#241a1a" d="M 458.5,302.5 C 460.293,304.426 461.293,306.759 461.5,309.5C 459.707,307.574 458.707,305.241 458.5,302.5 Z"/></g>
<g><path style="opacity:1" fill="#2a201f" d="M 246.5,302.5 C 245.66,304.853 244.326,306.853 242.5,308.5C 242.845,305.802 244.178,303.802 246.5,302.5 Z"/></g>
<g><path style="opacity:1" fill="#301511" d="M 352.5,299.5 C 351.226,303.727 349.226,307.394 346.5,310.5C 347.742,306.345 349.742,302.678 352.5,299.5 Z"/></g>
<g><path style="opacity:1" fill="#f7f7f7" d="M 635.5,306.5 C 636.167,307.833 637.167,308.833 638.5,309.5C 640.644,313.111 642.81,316.778 645,320.5C 645.667,321.833 645.667,323.167 645,324.5C 639.301,329.865 633.967,335.531 629,341.5C 629.138,334.856 629.305,328.189 629.5,321.5C 629.5,321.167 629.5,320.833 629.5,320.5C 630.451,319.081 630.784,317.415 630.5,315.5C 631.323,312.023 631.823,308.356 632,304.5C 632.816,305.823 633.983,306.489 635.5,306.5 Z"/></g>
<g><path style="opacity:1" fill="#fafafa" d="M 297.5,351.5 C 297.5,351.833 297.5,352.167 297.5,352.5C 297.321,357.066 297.821,361.4 299,365.5C 287.954,358.808 277.62,351.142 268,342.5C 267.333,340.833 267.333,339.167 268,337.5C 271.094,331.922 273.928,326.256 276.5,320.5C 278.25,319.341 279.25,317.674 279.5,315.5C 282.158,312.197 284.825,308.864 287.5,305.5C 288.474,311.202 289.64,316.869 291,322.5C 291.667,319.833 292.333,319.833 293,322.5C 293.672,332.44 295.172,342.107 297.5,351.5 Z"/></g>
<g><path style="opacity:1" fill="#291919" d="M 583.5,304.5 C 582.59,307.992 580.924,310.992 578.5,313.5C 579.41,310.008 581.076,307.008 583.5,304.5 Z"/></g>
<g><path style="opacity:1" fill="#838080" d="M 631.5,303.5 C 633.404,303.738 634.738,304.738 635.5,306.5C 633.983,306.489 632.816,305.823 632,304.5C 631.823,308.356 631.323,312.023 630.5,315.5C 630.183,311.298 630.517,307.298 631.5,303.5 Z"/></g>
<g><path style="opacity:1" fill="#211b1a" d="M 629.5,273.5 C 625.881,289.859 620.381,305.526 613,320.5C 612.552,311.492 612.052,302.492 611.5,293.5C 613.092,300.934 613.925,308.6 614,316.5C 619.696,302.237 624.863,287.904 629.5,273.5 Z"/></g>
<g><path style="opacity:1" fill="#221a1a" d="M 381.5,303.5 C 380.537,308.049 379.204,312.383 377.5,316.5C 377.654,311.711 378.987,307.378 381.5,303.5 Z"/></g>
<g><path style="opacity:1" fill="#fafafa" d="M 268.5,313.5 C 269.158,314.793 269.492,316.293 269.5,318C 268.917,323.492 268.417,328.992 268,334.5C 267.185,336.623 266.185,338.623 265,340.5C 259.836,336.711 257.502,331.711 258,325.5C 261.336,321.332 264.836,317.332 268.5,313.5 Z"/></g>
<g><path style="opacity:1" fill="#0e0606" d="M 631.5,303.5 C 630.517,307.298 630.183,311.298 630.5,315.5C 630.784,317.415 630.451,319.081 629.5,320.5C 629.171,314.463 629.504,308.463 630.5,302.5C 631.107,302.624 631.44,302.957 631.5,303.5 Z"/></g>
<g><path style="opacity:1" fill="#322321" d="M 560.5,302.5 C 563.147,312.529 564.647,322.863 565,333.5C 567.277,329.92 569.777,326.586 572.5,323.5C 569.979,328.866 566.812,333.866 563,338.5C 563.568,332.911 563.568,327.244 563,321.5C 561.421,315.264 560.588,308.93 560.5,302.5 Z"/></g>
<g><path style="opacity:1" fill="#0a0505" d="M 500.5,309.5 C 499.438,314.686 497.771,319.686 495.5,324.5C 496,325.5 496.5,326.5 497,327.5C 497.926,340.242 497.426,352.909 495.5,365.5C 503.482,364.354 511.482,363.354 519.5,362.5C 519.324,365.727 518.657,368.727 517.5,371.5C 517.5,369.167 517.5,366.833 517.5,364.5C 507.171,365.833 496.838,367.166 486.5,368.5C 486.5,369.5 486.5,370.5 486.5,371.5C 484.524,366.59 482.524,361.59 480.5,356.5C 479.059,357.865 477.726,359.365 476.5,361C 475.833,361.667 475.167,361.667 474.5,361C 475.694,356.657 475.194,352.491 473,348.5C 469.332,357.831 465.165,366.831 460.5,375.5C 460.631,374.761 460.464,374.094 460,373.5C 456.006,374.972 451.839,375.639 447.5,375.5C 440.122,374.822 432.788,373.822 425.5,372.5C 425.5,373.5 425.5,374.5 425.5,375.5C 423.167,371.487 421.334,367.154 420,362.5C 417.809,354.061 415.475,345.727 413,337.5C 409.071,348.344 406.238,359.344 404.5,370.5C 404.5,369.5 404.5,368.5 404.5,367.5C 397.229,366.066 389.896,365.066 382.5,364.5C 382.674,366.861 383.007,369.194 383.5,371.5C 380.432,365.58 378.432,359.247 377.5,352.5C 379.41,355.452 380.41,358.786 380.5,362.5C 387.207,363.241 393.873,364.241 400.5,365.5C 399.267,359.906 398.434,354.24 398,348.5C 394.852,335.466 398.019,324.466 407.5,315.5C 412.76,327.354 418.593,339.02 425,350.5C 427.089,338.956 429.922,327.623 433.5,316.5C 433.833,316.5 434.167,316.5 434.5,316.5C 437.207,323.968 439.374,331.634 441,339.5C 443.098,341.049 445.432,342.049 448,342.5C 456.521,341.645 460.188,336.979 459,328.5C 460.672,325.344 462.505,322.344 464.5,319.5C 463.954,317.865 463.62,316.199 463.5,314.5C 470.084,328.427 474.584,343.094 477,358.5C 486.468,342.898 494.302,326.565 500.5,309.5 Z"/></g>
<g><path style="opacity:1" fill="#2d1511" d="M 344.5,314.5 C 344.076,317.918 342.742,320.918 340.5,323.5C 341.042,320.088 342.375,317.088 344.5,314.5 Z"/></g>
<g><path style="opacity:1" fill="#241717" d="M 530.5,309.5 C 528.509,315.489 525.509,320.823 521.5,325.5C 523.997,319.835 526.997,314.502 530.5,309.5 Z"/></g>
<g><path style="opacity:1" fill="#271412" d="M 340.5,354.5 C 338.87,361.051 336.87,367.384 334.5,373.5C 334.342,370.455 335.009,367.621 336.5,365C 334.305,364.288 332.638,364.955 331.5,367C 332.233,368.766 332.567,370.599 332.5,372.5C 327.555,357.07 323.055,341.403 319,325.5C 318.764,323.881 317.931,322.881 316.5,322.5C 316.461,321.244 316.961,320.244 318,319.5C 322.734,334.372 327.068,349.372 331,364.5C 333.007,363.331 335.173,362.665 337.5,362.5C 337.733,359.458 338.733,356.792 340.5,354.5 Z"/></g>
<g><path style="opacity:1" fill="#f7f7f7" d="M 316.5,322.5 C 317.931,322.881 318.764,323.881 319,325.5C 323.055,341.403 327.555,357.07 332.5,372.5C 333.339,375.835 333.839,379.168 334,382.5C 324.039,378.404 314.373,373.738 305,368.5C 305.334,363.477 306.168,358.477 307.5,353.5C 310.304,343.089 313.304,332.756 316.5,322.5 Z"/></g>
<g><path style="opacity:1" fill="#2a0c09" d="M 377.5,316.5 C 377.666,320.846 377.499,325.179 377,329.5C 375.558,327.609 374.391,325.609 373.5,323.5C 374.458,323.953 375.292,324.619 376,325.5C 376.181,322.305 376.681,319.305 377.5,316.5 Z"/></g>
<g><path style="opacity:1" fill="#372827" d="M 286.5,286.5 C 288.563,296.632 290.23,306.965 291.5,317.5C 293.694,313.09 296.361,309.09 299.5,305.5C 298.261,308.589 296.761,311.589 295,314.5C 294.833,316.833 294.667,319.167 294.5,321.5C 295.689,331.487 296.689,341.487 297.5,351.5C 295.172,342.107 293.672,332.44 293,322.5C 292.333,319.833 291.667,319.833 291,322.5C 289.64,316.869 288.474,311.202 287.5,305.5C 284.825,308.864 282.158,312.197 279.5,315.5C 281.471,310.895 283.971,306.562 287,302.5C 287.022,297.182 286.855,291.849 286.5,286.5 Z"/></g>
<g><path style="opacity:1" fill="#261615" d="M 521.5,325.5 C 520.502,329.505 518.502,332.839 515.5,335.5C 517,331.827 519,328.494 521.5,325.5 Z"/></g>
<g><path style="opacity:1" fill="#f9f9f9" d="M 593.5,355.5 C 594.222,355.082 594.722,354.416 595,353.5C 595.722,345.838 596.388,338.171 597,330.5C 603.833,337.333 610.667,344.167 617.5,351C 609.316,357.41 600.65,362.744 591.5,367C 592.648,363.281 593.314,359.448 593.5,355.5 Z"/></g>
<g><path style="opacity:1" fill="#fafafa" d="M 555.5,334.5 C 556.433,337.37 558.1,339.704 560.5,341.5C 564.738,348.738 569.738,355.404 575.5,361.5C 577.016,364.533 579.016,367.2 581.5,369.5C 582.292,370.967 582.292,372.3 581.5,373.5C 571.703,378.097 561.703,382.097 551.5,385.5C 553.036,368.213 553.869,350.88 554,333.5C 554.383,334.056 554.883,334.389 555.5,334.5 Z"/></g>
<g><path style="opacity:1" fill="#271817" d="M 555.5,334.5 C 557.9,336.296 559.567,338.63 560.5,341.5C 558.1,339.704 556.433,337.37 555.5,334.5 Z"/></g>
<g><path style="opacity:1" fill="#f9f9f9" d="M 377.5,351.5 C 377.5,351.833 377.5,352.167 377.5,352.5C 378.432,359.247 380.432,365.58 383.5,371.5C 383.872,375.297 385.206,378.63 387.5,381.5C 389.265,387.035 391.598,392.368 394.5,397.5C 394,397.833 393.5,398.167 393,398.5C 381.173,395.751 369.339,393.085 357.5,390.5C 357.413,385.463 357.746,380.463 358.5,375.5C 360.334,369.987 362.001,364.32 363.5,358.5C 365.267,356.208 366.267,353.542 366.5,350.5C 368.973,346.229 371.473,341.896 374,337.5C 375.126,341.749 375.792,346.082 376,350.5C 376.383,351.056 376.883,351.389 377.5,351.5 Z"/></g>
<g><path style="opacity:1" fill="#f8f8f8" d="M 425.5,375.5 C 425.88,378.745 427.047,381.745 429,384.5C 431.315,388.638 434.148,392.305 437.5,395.5C 438.543,398.056 440.21,400.223 442.5,402C 429.113,402.765 415.78,402.265 402.5,400.5C 402.5,396.167 402.5,391.833 402.5,387.5C 402.5,387.167 402.5,386.833 402.5,386.5C 403.665,381.367 404.332,376.034 404.5,370.5C 406.238,359.344 409.071,348.344 413,337.5C 415.475,345.727 417.809,354.061 420,362.5C 421.334,367.154 423.167,371.487 425.5,375.5 Z"/></g>
<g><path style="opacity:1" fill="#44312e" d="M 377.5,351.5 C 376.883,351.389 376.383,351.056 376,350.5C 375.792,346.082 375.126,341.749 374,337.5C 371.473,341.896 368.973,346.229 366.5,350.5C 368.347,343.806 371.514,337.806 376,332.5C 376.406,338.849 376.906,345.183 377.5,351.5 Z"/></g>
<g><path style="opacity:1" fill="#f7f7f7" d="M 588.5,354.5 C 589.749,356.67 590.749,359.004 591.5,361.5C 591.876,366.626 589.709,369.959 585,371.5C 583.697,371.022 582.531,370.355 581.5,369.5C 580.676,366.236 580.342,362.902 580.5,359.5C 581.325,355.353 581.825,351.019 582,346.5C 583.946,349.42 586.113,352.087 588.5,354.5 Z"/></g>
<g><path style="opacity:1" fill="#fbfbfb" d="M 486.5,371.5 C 489.451,381.018 491.784,390.685 493.5,400.5C 478.528,402.345 463.528,402.678 448.5,401.5C 453.065,393.04 457.065,384.374 460.5,375.5C 465.165,366.831 469.332,357.831 473,348.5C 475.194,352.491 475.694,356.657 474.5,361C 475.167,361.667 475.833,361.667 476.5,361C 477.726,359.365 479.059,357.865 480.5,356.5C 482.524,361.59 484.524,366.59 486.5,371.5 Z"/></g>
<g><path style="opacity:1" fill="#231817" d="M 588.5,354.5 C 586.113,352.087 583.946,349.42 582,346.5C 581.825,351.019 581.325,355.353 580.5,359.5C 578.667,341.744 581.333,340.077 588.5,354.5 Z"/></g>
<g><path style="opacity:1" fill="#331a17" d="M 525.5,355.5 C 524.115,354.426 522.949,353.093 522,351.5C 521.082,355.28 520.249,358.946 519.5,362.5C 519.334,356.824 519.501,351.157 520,345.5C 522.112,348.727 523.945,352.06 525.5,355.5 Z"/></g>
<g><path style="opacity:1" fill="#f8f8f8" d="M 525.5,355.5 C 525.75,357.674 526.75,359.341 528.5,360.5C 528.75,362.674 529.75,364.341 531.5,365.5C 532.079,368.331 533.412,370.664 535.5,372.5C 537.326,377.484 539.659,382.151 542.5,386.5C 542.64,388.124 541.973,389.29 540.5,390C 531.3,392.8 521.967,394.967 512.5,396.5C 514.007,388.137 515.674,379.804 517.5,371.5C 518.657,368.727 519.324,365.727 519.5,362.5C 520.249,358.946 521.082,355.28 522,351.5C 522.949,353.093 524.115,354.426 525.5,355.5 Z"/></g>
<g><path style="opacity:1" fill="#211616" d="M 366.5,350.5 C 366.267,353.542 365.267,356.208 363.5,358.5C 363.733,355.458 364.733,352.792 366.5,350.5 Z"/></g>
<g><path style="opacity:1" fill="#f6f6f6" d="M 347.5,366.5 C 347.707,369.241 348.707,371.574 350.5,373.5C 351.428,377.362 352.928,381.029 355,384.5C 355.494,386.134 355.66,387.801 355.5,389.5C 349.314,388.105 343.314,386.105 337.5,383.5C 335.296,380.553 334.296,377.22 334.5,373.5C 336.87,367.384 338.87,361.051 340.5,354.5C 341.117,354.389 341.617,354.056 342,353.5C 343.334,358.154 345.167,362.487 347.5,366.5 Z"/></g>
<g><path style="opacity:1" fill="#381614" d="M 363.5,358.5 C 362.001,364.32 360.334,369.987 358.5,375.5C 358.639,371.111 359.639,366.944 361.5,363C 356.5,362.333 351.5,362.333 346.5,363C 347.337,364.011 347.67,365.178 347.5,366.5C 345.167,362.487 343.334,358.154 342,353.5C 341.617,354.056 341.117,354.389 340.5,354.5C 340.312,352.897 340.812,351.563 342,350.5C 343.313,353.395 344.48,356.395 345.5,359.5C 351.758,361.049 357.758,360.716 363.5,358.5 Z"/></g>
<g><path style="opacity:1" fill="#cb1616" d="M 358.5,375.5 C 357.113,377.877 356.279,380.543 356,383.5C 354.392,379.944 352.559,376.611 350.5,373.5C 350.293,370.759 349.293,368.426 347.5,366.5C 347.67,365.178 347.337,364.011 346.5,363C 351.5,362.333 356.5,362.333 361.5,363C 359.639,366.944 358.639,371.111 358.5,375.5 Z"/></g>
<g><path style="opacity:1" fill="#cb1616" d="M 542.5,386.5 C 541.207,381.247 538.874,376.581 535.5,372.5C 534.921,369.669 533.588,367.336 531.5,365.5C 531.586,364.504 531.252,363.671 530.5,363C 537.536,362.28 544.536,362.447 551.5,363.5C 551.686,370.881 551.186,378.214 550,385.5C 547.651,388.59 545.151,388.923 542.5,386.5 Z"/></g>
<g><path style="opacity:1" fill="#cd1616" d="M 404.5,370.5 C 402.922,375.583 402.255,380.916 402.5,386.5C 402.5,386.833 402.5,387.167 402.5,387.5C 401.517,391.298 401.183,395.298 401.5,399.5C 399.278,399.822 397.444,399.155 396,397.5C 393.392,391.947 390.559,386.613 387.5,381.5C 386.737,377.863 385.403,374.53 383.5,371.5C 383.007,369.194 382.674,366.861 382.5,364.5C 389.896,365.066 397.229,366.066 404.5,367.5C 404.5,368.5 404.5,369.5 404.5,370.5 Z"/></g>
<g><path style="opacity:1" fill="#cb1616" d="M 517.5,371.5 C 515.38,377.289 513.546,383.289 512,389.5C 509.301,384.744 506.134,380.411 502.5,376.5C 501.52,373.884 500.02,371.551 498,369.5C 496.747,374.773 495.913,380.106 495.5,385.5C 495.5,385.833 495.5,386.167 495.5,386.5C 494.442,387.6 493.608,388.934 493,390.5C 491.295,383.882 489.128,377.549 486.5,371.5C 486.5,370.5 486.5,369.5 486.5,368.5C 496.838,367.166 507.171,365.833 517.5,364.5C 517.5,366.833 517.5,369.167 517.5,371.5 Z"/></g>
<g><path style="opacity:1" fill="#c11515" d="M 334.5,373.5 C 333.833,373.167 333.167,372.833 332.5,372.5C 332.567,370.599 332.233,368.766 331.5,367C 332.638,364.955 334.305,364.288 336.5,365C 335.009,367.621 334.342,370.455 334.5,373.5 Z"/></g>
<g><path style="opacity:1" fill="#2b201f" d="M 531.5,365.5 C 533.588,367.336 534.921,369.669 535.5,372.5C 533.412,370.664 532.079,368.331 531.5,365.5 Z"/></g>
<g><path style="opacity:1" fill="#252120" d="M 580.5,359.5 C 580.342,362.902 580.676,366.236 581.5,369.5C 579.016,367.2 577.016,364.533 575.5,361.5C 576.794,362.29 577.961,363.29 579,364.5C 579.198,362.618 579.698,360.952 580.5,359.5 Z"/></g>
<g><path style="opacity:1" fill="#261615" d="M 347.5,366.5 C 349.293,368.426 350.293,370.759 350.5,373.5C 348.707,371.574 347.707,369.241 347.5,366.5 Z"/></g>
<g><path style="opacity:1" fill="#372928" d="M 502.5,376.5 C 500.827,375.657 499.66,374.324 499,372.5C 497.81,376.381 497.143,380.381 497,384.5C 496.617,385.056 496.117,385.389 495.5,385.5C 495.913,380.106 496.747,374.773 498,369.5C 500.02,371.551 501.52,373.884 502.5,376.5 Z"/></g>
<g><path style="opacity:1" fill="#ce1616" d="M 460.5,375.5 C 455.735,384.193 451.068,393.026 446.5,402C 445.833,402.667 445.167,402.667 444.5,402C 442.297,399.628 439.963,397.461 437.5,395.5C 433.497,388.825 429.497,382.159 425.5,375.5C 425.5,374.5 425.5,373.5 425.5,372.5C 432.788,373.822 440.122,374.822 447.5,375.5C 451.839,375.639 456.006,374.972 460,373.5C 460.464,374.094 460.631,374.761 460.5,375.5 Z"/></g>
<g><path style="opacity:1" fill="#f8f8f8" d="M 502.5,376.5 C 505.06,381.277 507.893,385.944 511,390.5C 511.334,392.847 511.167,395.181 510.5,397.5C 505.227,398.601 499.894,399.267 494.5,399.5C 494.586,395.143 494.92,390.81 495.5,386.5C 495.5,386.167 495.5,385.833 495.5,385.5C 496.117,385.389 496.617,385.056 497,384.5C 497.143,380.381 497.81,376.381 499,372.5C 499.66,374.324 500.827,375.657 502.5,376.5 Z"/></g>
<g><path style="opacity:1" fill="#2c1a18" d="M 535.5,372.5 C 538.874,376.581 541.207,381.247 542.5,386.5C 539.659,382.151 537.326,377.484 535.5,372.5 Z"/></g>
<g><path style="opacity:1" fill="#291816" d="M 383.5,371.5 C 385.403,374.53 386.737,377.863 387.5,381.5C 385.206,378.63 383.872,375.297 383.5,371.5 Z"/></g>
<g><path style="opacity:1" fill="#2d0f0b" d="M 404.5,370.5 C 404.332,376.034 403.665,381.367 402.5,386.5C 402.255,380.916 402.922,375.583 404.5,370.5 Z"/></g>
<g><path style="opacity:1" fill="#352625" d="M 425.5,375.5 C 429.497,382.159 433.497,388.825 437.5,395.5C 434.148,392.305 431.315,388.638 429,384.5C 427.047,381.745 425.88,378.745 425.5,375.5 Z"/></g>
<g><path style="opacity:0.912" fill="#aa0000" d="M 163.5,444.5 C 164.117,444.611 164.617,444.944 165,445.5C 167.791,454.2 169.957,463.033 171.5,472C 172.349,477.817 169.849,480.984 164,481.5C 158.498,480.668 155.998,477.501 156.5,472C 158.122,462.637 160.456,453.47 163.5,444.5 Z"/></g>
<g><path style="opacity:1" fill="#21201f" d="M 454.5,613.5 C 454.5,613.833 454.5,614.167 454.5,614.5C 453.391,614.557 452.391,614.89 451.5,615.5C 448.375,614.521 445.042,614.187 441.5,614.5C 441.5,613.833 441.833,613.5 442.5,613.5C 446.5,612.167 450.5,612.167 454.5,613.5 Z"/></g>
<g><path style="opacity:0.971" fill="#3d3528" d="M 396.5,614.5 C 396.5,616.833 396.5,619.167 396.5,621.5C 395.163,620.685 394.163,619.518 393.5,618C 390.183,617.502 386.85,617.335 383.5,617.5C 383.5,616.833 383.5,616.167 383.5,615.5C 387.898,615.706 392.232,615.373 396.5,614.5 Z"/></g>
<g><path style="opacity:1" fill="#1f941c" d="M 441.5,614.5 C 445.042,614.187 448.375,614.521 451.5,615.5C 447.952,625.323 449.285,634.323 455.5,642.5C 456.761,649.888 459.095,656.888 462.5,663.5C 460.471,669.756 462.805,673.423 469.5,674.5C 482.114,688.317 497.781,694.817 516.5,694C 521.223,692.957 523.056,690.124 522,685.5C 517.591,679.937 513.424,674.271 509.5,668.5C 522.033,669.311 534.367,671.311 546.5,674.5C 540.504,676.115 534.837,678.615 529.5,682C 524.157,691.174 518.657,700.34 513,709.5C 509.007,714.503 504.174,718.337 498.5,721C 493.889,722.007 489.555,721.34 485.5,719C 475.703,708.218 467.536,696.385 461,683.5C 457.117,679.95 452.951,676.783 448.5,674C 444.375,673.146 440.375,673.48 436.5,675C 430.964,680.443 426.131,686.276 422,692.5C 418.484,694.828 415.318,697.495 412.5,700.5C 410.713,701.447 409.047,702.613 407.5,704C 401.801,705.106 396.134,706.273 390.5,707.5C 384.131,707.653 377.797,707.32 371.5,706.5C 369.983,706.489 368.816,705.823 368,704.5C 360.811,694.13 354.644,683.13 349.5,671.5C 355.702,669.732 361.369,666.899 366.5,663C 371.092,658.578 375.425,654.078 379.5,649.5C 386.919,645.749 392.253,640.082 395.5,632.5C 397.189,652.157 390.689,668.823 376,682.5C 371.835,688.012 373.002,691.846 379.5,694C 403.443,694.779 421.61,684.946 434,664.5C 440.911,648.549 443.411,631.882 441.5,614.5 Z"/></g>
<g><path style="opacity:1" fill="#e3d11d" d="M 454.5,614.5 C 455.494,623.652 455.827,632.985 455.5,642.5C 449.285,634.323 447.952,625.323 451.5,615.5C 452.391,614.89 453.391,614.557 454.5,614.5 Z"/></g>
<g><path style="opacity:0.78" fill="#2a2520" d="M 500.5,614.5 C 504.434,615.36 508.434,615.693 512.5,615.5C 512.833,616.167 513.167,616.833 513.5,617.5C 511.833,617.5 510.167,617.5 508.5,617.5C 505.713,616.523 502.713,616.19 499.5,616.5C 499.833,615.833 500.167,615.167 500.5,614.5 Z"/></g>
<g><path style="opacity:1" fill="#e42165" d="M 383.5,617.5 C 386.85,617.335 390.183,617.502 393.5,618C 394.163,619.518 395.163,620.685 396.5,621.5C 396.677,625.234 396.344,628.901 395.5,632.5C 392.253,640.082 386.919,645.749 379.5,649.5C 378.957,649.44 378.624,649.107 378.5,648.5C 382.848,638.608 384.515,628.274 383.5,617.5 Z"/></g>
<g><path style="opacity:1" fill="#a19724" d="M 499.5,616.5 C 502.713,616.19 505.713,616.523 508.5,617.5C 505.833,617.5 503.167,617.5 500.5,617.5C 500.5,624.833 500.5,632.167 500.5,639.5C 499.508,632.018 499.175,624.352 499.5,616.5 Z"/></g>
<g><path style="opacity:1" fill="#fce802" d="M 508.5,617.5 C 510.167,617.5 511.833,617.5 513.5,617.5C 511.632,634.226 516.299,648.726 527.5,661C 544.476,673.328 563.476,678.328 584.5,676C 591.26,673.136 592.26,668.802 587.5,663C 570.525,656.865 560.192,645.032 556.5,627.5C 556.5,626.167 556.5,624.833 556.5,623.5C 594.764,628.981 631.097,640.481 665.5,658C 673.814,662.746 681.314,668.579 688,675.5C 688.483,676.448 688.649,677.448 688.5,678.5C 686.37,680.127 684.37,681.96 682.5,684C 680.801,684.958 678.967,685.458 677,685.5C 669.221,682.683 661.388,679.85 653.5,677C 641.219,674.284 634.053,679.117 632,691.5C 631.445,700.009 631.611,708.509 632.5,717C 633.523,737.473 624.189,745.139 604.5,740C 593.688,736.55 583.355,732.05 573.5,726.5C 566.343,729.452 562.01,734.785 560.5,742.5C 547.909,744.158 545.075,739.491 552,728.5C 561.409,719.086 571.409,710.42 582,702.5C 588.2,693.281 586.034,686.781 575.5,683C 565.935,679.693 556.268,676.86 546.5,674.5C 534.367,671.311 522.033,669.311 509.5,668.5C 503.584,659.864 500.584,650.197 500.5,639.5C 500.5,632.167 500.5,624.833 500.5,617.5C 503.167,617.5 505.833,617.5 508.5,617.5 Z"/></g>
<g><path style="opacity:0.631" fill="#272424" d="M 340.5,621.5 C 340.5,622.167 340.5,622.833 340.5,623.5C 303.274,628.187 267.94,639.02 234.5,656C 221.027,662.804 210.027,672.471 201.5,685C 202.056,685.383 202.389,685.883 202.5,686.5C 201.504,686.414 200.671,686.748 200,687.5C 194.302,701.111 195.969,713.777 205,725.5C 218.363,739.85 234.196,750.683 252.5,758C 270.041,765.347 288.041,771.18 306.5,775.5C 318.533,778.714 330.533,780.714 342.5,781.5C 349.925,783.891 357.591,785.391 365.5,786C 412.437,791.128 459.437,791.795 506.5,788C 507.373,786.955 508.373,786.122 509.5,785.5C 510.152,786.725 511.319,787.392 513,787.5C 559.83,783.893 604.997,773.393 648.5,756C 664.257,749.233 678.09,739.733 690,727.5C 698.298,717.643 701.298,706.31 699,693.5C 697.444,688.72 695.111,684.387 692,680.5C 691.184,679.177 690.017,678.511 688.5,678.5C 688.649,677.448 688.483,676.448 688,675.5C 681.314,668.579 673.814,662.746 665.5,658C 631.097,640.481 594.764,628.981 556.5,623.5C 556.5,624.833 556.5,626.167 556.5,627.5C 555.258,625.611 555.258,623.611 556.5,621.5C 592.784,626.737 627.451,637.237 660.5,653C 672.768,659.593 683.601,668.093 693,678.5C 706.544,699.963 703.71,719.13 684.5,736C 664.065,751.551 641.398,762.884 616.5,770C 567.295,783.719 517.295,791.219 466.5,792.5C 454.5,792.5 442.5,792.5 430.5,792.5C 381.846,791.249 333.846,784.416 286.5,772C 260.349,764.921 236.349,753.588 214.5,738C 186.923,711.904 188.256,687.237 218.5,664C 245.501,646.549 274.834,634.549 306.5,628C 317.758,625.382 329.092,623.215 340.5,621.5 Z"/></g>
<g><path style="opacity:1" fill="#8a82b4" d="M 202.5,686.5 C 211.126,690.147 219.46,694.313 227.5,699C 229.744,699.906 232.077,700.406 234.5,700.5C 244.844,698.441 254.844,695.274 264.5,691C 272.649,689.072 279.649,690.905 285.5,696.5C 279.101,704.276 273.934,712.943 270,722.5C 268.543,726.741 268.209,731.074 269,735.5C 270.5,738.333 272.667,740.5 275.5,742C 284.253,743.631 292.919,745.631 301.5,748C 307.256,750.254 310.59,754.42 311.5,760.5C 310.678,765.804 309.011,770.804 306.5,775.5C 288.041,771.18 270.041,765.347 252.5,758C 234.196,750.683 218.363,739.85 205,725.5C 195.969,713.777 194.302,701.111 200,687.5C 200.671,686.748 201.504,686.414 202.5,686.5 Z"/></g>
<g><path style="opacity:1" fill="#1cceeb" d="M 688.5,678.5 C 690.017,678.511 691.184,679.177 692,680.5C 695.111,684.387 697.444,688.72 699,693.5C 701.298,706.31 698.298,717.643 690,727.5C 678.09,739.733 664.257,749.233 648.5,756C 604.997,773.393 559.83,783.893 513,787.5C 511.319,787.392 510.152,786.725 509.5,785.5C 513.346,776.822 519.679,770.655 528.5,767C 532.001,766.664 535.501,766.831 539,767.5C 545.271,766.583 549.937,763.25 553,757.5C 555.527,752.447 558.027,747.447 560.5,742.5C 562.01,734.785 566.343,729.452 573.5,726.5C 583.355,732.05 593.688,736.55 604.5,740C 624.189,745.139 633.523,737.473 632.5,717C 631.611,708.509 631.445,700.009 632,691.5C 634.053,679.117 641.219,674.284 653.5,677C 661.388,679.85 669.221,682.683 677,685.5C 678.967,685.458 680.801,684.958 682.5,684C 684.37,681.96 686.37,680.127 688.5,678.5 Z"/></g>
<g><path style="opacity:1" fill="#deab38" d="M 546.5,674.5 C 556.268,676.86 565.935,679.693 575.5,683C 586.034,686.781 588.2,693.281 582,702.5C 571.409,710.42 561.409,719.086 552,728.5C 545.075,739.491 547.909,744.158 560.5,742.5C 558.027,747.447 555.527,752.447 553,757.5C 549.937,763.25 545.271,766.583 539,767.5C 535.501,766.831 532.001,766.664 528.5,767C 519.679,770.655 513.346,776.822 509.5,785.5C 508.373,786.122 507.373,786.955 506.5,788C 459.437,791.795 412.437,791.128 365.5,786C 357.591,785.391 349.925,783.891 342.5,781.5C 340.651,777.733 340.151,773.733 341,769.5C 343.207,765.75 344.873,761.75 346,757.5C 351.771,749.552 359.605,744.552 369.5,742.5C 380.752,740.388 392.086,738.222 403.5,736C 422.189,730.517 426.856,719.183 417.5,702C 415.846,701.392 414.179,700.892 412.5,700.5C 415.318,697.495 418.484,694.828 422,692.5C 426.131,686.276 430.964,680.443 436.5,675C 440.375,673.48 444.375,673.146 448.5,674C 452.951,676.783 457.117,679.95 461,683.5C 467.536,696.385 475.703,708.218 485.5,719C 489.555,721.34 493.889,722.007 498.5,721C 504.174,718.337 509.007,714.503 513,709.5C 518.657,700.34 524.157,691.174 529.5,682C 534.837,678.615 540.504,676.115 546.5,674.5 Z"/></g>
<g><path style="opacity:1" fill="#d8a5e0" d="M 349.5,671.5 C 354.644,683.13 360.811,694.13 368,704.5C 368.816,705.823 369.983,706.489 371.5,706.5C 374.865,708.039 378.531,708.706 382.5,708.5C 385.355,708.497 388.022,708.164 390.5,707.5C 396.134,706.273 401.801,705.106 407.5,704C 409.047,702.613 410.713,701.447 412.5,700.5C 414.179,700.892 415.846,701.392 417.5,702C 426.856,719.183 422.189,730.517 403.5,736C 392.086,738.222 380.752,740.388 369.5,742.5C 359.605,744.552 351.771,749.552 346,757.5C 344.873,761.75 343.207,765.75 341,769.5C 340.151,773.733 340.651,777.733 342.5,781.5C 330.533,780.714 318.533,778.714 306.5,775.5C 309.011,770.804 310.678,765.804 311.5,760.5C 310.59,754.42 307.256,750.254 301.5,748C 292.919,745.631 284.253,743.631 275.5,742C 272.667,740.5 270.5,738.333 269,735.5C 268.209,731.074 268.543,726.741 270,722.5C 273.934,712.943 279.101,704.276 285.5,696.5C 295.635,705.908 307.302,708.075 320.5,703C 332.153,697.158 338.487,687.658 339.5,674.5C 342.833,673.5 346.167,672.5 349.5,671.5 Z"/></g>
<g><path style="opacity:1" fill="#3b5638" d="M 371.5,706.5 C 377.797,707.32 384.131,707.653 390.5,707.5C 388.022,708.164 385.355,708.497 382.5,708.5C 378.531,708.706 374.865,708.039 371.5,706.5 Z"/></g>
<g><path style="opacity:1" fill="#eddb13" d="M 462.5,663.5 C 464.439,667.434 466.772,671.101 469.5,674.5C 462.805,673.423 460.471,669.756 462.5,663.5 Z"/></g>
<g><path style="opacity:1" fill="#e82066" d="M 340.5,623.5 C 339.419,633.663 335.586,642.663 329,650.5C 323.064,656.22 316.23,660.553 308.5,663.5C 304.031,668.517 304.697,672.684 310.5,676C 320.253,676.862 329.919,676.362 339.5,674.5C 338.487,687.658 332.153,697.158 320.5,703C 307.302,708.075 295.635,705.908 285.5,696.5C 279.649,690.905 272.649,689.072 264.5,691C 254.844,695.274 244.844,698.441 234.5,700.5C 232.077,700.406 229.744,699.906 227.5,699C 219.46,694.313 211.126,690.147 202.5,686.5C 202.389,685.883 202.056,685.383 201.5,685C 210.027,672.471 221.027,662.804 234.5,656C 267.94,639.02 303.274,628.187 340.5,623.5 Z"/></g>
</svg>
