<?xml version="1.0" encoding="UTF-8"?>
<!DOCTYPE svg PUBLIC "-//W3C//DTD SVG 1.1//EN" "http://www.w3.org/Graphics/SVG/1.1/DTD/svg11.dtd">
<svg xmlns="http://www.w3.org/2000/svg" version="1.1" width="897px" height="881px" style="shape-rendering:geometricPrecision; text-rendering:geometricPrecision; image-rendering:optimizeQuality; fill-rule:evenodd; clip-rule:evenodd" xmlns:xlink="http://www.w3.org/1999/xlink">
<g><path style="opacity:0.981" fill="#7735aa" d="M 504.5,62.5 C 502.795,65.2609 501.462,68.2609 500.5,71.5C 499.504,71.4142 498.671,71.7476 498,72.5C 490.75,84.7393 480.25,92.906 466.5,97C 459.951,99.1379 453.284,100.638 446.5,101.5C 446.5,102.833 446.5,104.167 446.5,105.5C 446.5,110.167 446.5,114.833 446.5,119.5C 442.833,119.5 439.167,119.5 435.5,119.5C 435.5,104.5 435.5,89.5 435.5,74.5C 436.347,72.1556 438.014,70.6556 440.5,70C 451.394,69.3602 461.727,66.6935 471.5,62C 472.381,61.2917 473.047,60.4584 473.5,59.5C 480.218,55.4028 483.885,49.4028 484.5,41.5C 485.123,31.2661 480.789,23.4328 471.5,18C 458.279,10.7187 444.612,9.71866 430.5,15C 428.04,16.4578 425.873,18.2911 424,20.5C 423.235,22.0657 423.402,23.3991 424.5,24.5C 424.953,25.4584 425.619,26.2917 426.5,27C 441.419,27.6879 446.919,35.1879 443,49.5C 440.876,53.313 437.709,55.813 433.5,57C 415.008,59.9276 405.008,52.0943 403.5,33.5C 403.743,22.1776 408.743,13.6776 418.5,8C 447.553,-5.52125 473.386,-1.02125 496,21.5C 505.268,33.7633 508.101,47.43 504.5,62.5 Z"/></g>
<g><path style="opacity:0.881" fill="#642c8f" d="M 484.5,41.5 C 481.008,29.1758 473.008,21.3425 460.5,18C 449.423,15.2429 438.756,16.2429 428.5,21C 427.295,22.3756 425.962,23.5423 424.5,24.5C 423.402,23.3991 423.235,22.0657 424,20.5C 425.873,18.2911 428.04,16.4578 430.5,15C 444.612,9.71866 458.279,10.7187 471.5,18C 480.789,23.4328 485.123,31.2661 484.5,41.5 Z"/></g>
<g><path style="opacity:0.992" fill="#388a20" d="M 473.5,59.5 C 473.047,60.4584 472.381,61.2917 471.5,62C 461.727,66.6935 451.394,69.3602 440.5,70C 438.014,70.6556 436.347,72.1556 435.5,74.5C 434.505,86.3217 434.172,98.3217 434.5,110.5C 383.218,110.627 332.884,117.46 283.5,131C 255.501,139.167 229.834,151.834 206.5,169C 200.603,174.729 194.936,180.562 189.5,186.5C 195.724,171.708 203.724,158.041 213.5,145.5C 229.11,126.549 247.444,110.883 268.5,98.5C 297.747,81.8486 329.08,71.0153 362.5,66C 399.273,60.1583 436.273,57.9917 473.5,59.5 Z"/></g>
<g><path style="opacity:0.986" fill="#286017" d="M 504.5,62.5 C 548.436,65.8144 589.77,77.8144 628.5,98.5C 649.513,111.686 668.18,127.686 684.5,146.5C 693.54,158.539 700.873,171.539 706.5,185.5C 690.835,168.024 672.168,154.524 650.5,145C 639.856,140.501 629.19,136.335 618.5,132.5C 617.055,119.786 611.388,108.953 601.5,100C 585.104,88.4133 567.104,80.0799 547.5,75C 533.301,71.3657 518.968,68.5324 504.5,66.5C 501.515,87.9618 489.849,102.462 469.5,110C 473.688,110.176 477.688,110.676 481.5,111.5C 470.176,110.913 458.843,110.58 447.5,110.5C 447.5,108.833 447.5,107.167 447.5,105.5C 464.513,103.575 479.347,96.908 492,85.5C 495.609,81.2769 498.443,76.6102 500.5,71.5C 501.462,68.2609 502.795,65.2609 504.5,62.5 Z"/></g>
<g><path style="opacity:1" fill="#388a21" d="M 618.5,132.5 C 617.833,132.5 617.167,132.5 616.5,132.5C 572.643,119.404 527.643,112.404 481.5,111.5C 477.688,110.676 473.688,110.176 469.5,110C 489.849,102.462 501.515,87.9618 504.5,66.5C 518.968,68.5324 533.301,71.3657 547.5,75C 567.104,80.0799 585.104,88.4133 601.5,100C 611.388,108.953 617.055,119.786 618.5,132.5 Z"/></g>
<g><path style="opacity:0.939" fill="#000100" d="M 268.5,98.5 C 247.444,110.883 229.11,126.549 213.5,145.5C 214.351,127.43 218.351,110.096 225.5,93.5C 240.358,90.7658 254.691,92.4324 268.5,98.5 Z"/></g>
<g><path style="opacity:0.94" fill="#000000" d="M 684.5,146.5 C 668.18,127.686 649.513,111.686 628.5,98.5C 642.309,92.4324 656.642,90.7658 671.5,93.5C 678.504,110.533 682.837,128.2 684.5,146.5 Z"/></g>
<g><path style="opacity:1" fill="#632e8d" d="M 500.5,71.5 C 498.443,76.6102 495.609,81.2769 492,85.5C 479.347,96.908 464.513,103.575 447.5,105.5C 447.167,105.5 446.833,105.5 446.5,105.5C 446.5,104.167 446.5,102.833 446.5,101.5C 453.284,100.638 459.951,99.1379 466.5,97C 480.25,92.906 490.75,84.7393 498,72.5C 498.671,71.7476 499.504,71.4142 500.5,71.5 Z"/></g>
<g><path style="opacity:0.999" fill="#211e1e" d="M 435.5,74.5 C 435.5,89.5 435.5,104.5 435.5,119.5C 439.167,119.5 442.833,119.5 446.5,119.5C 446.5,114.833 446.5,110.167 446.5,105.5C 446.833,105.5 447.167,105.5 447.5,105.5C 447.5,107.167 447.5,108.833 447.5,110.5C 458.843,110.58 470.176,110.913 481.5,111.5C 527.643,112.404 572.643,119.404 616.5,132.5C 616.583,140.591 616.416,148.925 616,157.5C 615.027,160.918 614.86,164.252 615.5,167.5C 593.496,161.109 571.163,156.109 548.5,152.5C 517.625,148.39 486.625,145.724 455.5,144.5C 455.204,142.597 454.537,140.93 453.5,139.5C 448.539,133.024 442.206,131.19 434.5,134C 431.921,135.076 430.254,136.909 429.5,139.5C 428.053,140.622 427.053,142.122 426.5,144C 429.817,144.498 433.15,144.665 436.5,144.5C 372.133,145.485 309.466,156.652 248.5,178C 236.333,182.945 224.333,188.278 212.5,194C 201.615,199.938 190.948,206.104 180.5,212.5C 182.412,203.366 185.412,194.7 189.5,186.5C 194.936,180.562 200.603,174.729 206.5,169C 229.834,151.834 255.501,139.167 283.5,131C 332.884,117.46 383.218,110.627 434.5,110.5C 434.172,98.3217 434.505,86.3217 435.5,74.5 Z"/></g>
<g><path style="opacity:0.995" fill="#000100" d="M 616.5,132.5 C 617.167,132.5 617.833,132.5 618.5,132.5C 629.19,136.335 639.856,140.501 650.5,145C 672.168,154.524 690.835,168.024 706.5,185.5C 710.676,193.691 713.676,202.357 715.5,211.5C 715.565,211.938 715.399,212.272 715,212.5C 684.184,192.391 651.018,177.391 615.5,167.5C 614.86,164.252 615.027,160.918 616,157.5C 616.416,148.925 616.583,140.591 616.5,132.5 Z"/></g>
<g><path style="opacity:1" fill="#7535a7" d="M 453.5,139.5 C 445.5,140.833 437.5,140.833 429.5,139.5C 430.254,136.909 431.921,135.076 434.5,134C 442.206,131.19 448.539,133.024 453.5,139.5 Z"/></g>
<g><path style="opacity:1" fill="#542479" d="M 429.5,139.5 C 437.5,140.833 445.5,140.833 453.5,139.5C 454.537,140.93 455.204,142.597 455.5,144.5C 449.167,144.5 442.833,144.5 436.5,144.5C 433.15,144.665 429.817,144.498 426.5,144C 427.053,142.122 428.053,140.622 429.5,139.5 Z"/></g>
<g><path style="opacity:0.998" fill="#388a20" d="M 436.5,144.5 C 442.833,144.5 449.167,144.5 455.5,144.5C 486.625,145.724 517.625,148.39 548.5,152.5C 548.617,179.107 537.617,199.607 515.5,214C 509.258,215.37 502.925,215.87 496.5,215.5C 426.177,209.792 357.177,216.626 289.5,236C 259.822,244.672 232.822,258.338 208.5,277C 196.313,287.512 186.813,300.012 180,314.5C 179.007,317.408 178.507,320.408 178.5,323.5C 180.439,346.885 182.772,370.219 185.5,393.5C 161.971,382.8 142.471,367.133 127,346.5C 118.812,331.858 116.145,316.192 119,299.5C 123.95,275.264 134.95,254.264 152,236.5C 160.812,227.508 170.312,219.508 180.5,212.5C 190.948,206.104 201.615,199.938 212.5,194C 224.333,188.278 236.333,182.945 248.5,178C 309.466,156.652 372.133,145.485 436.5,144.5 Z"/></g>
<g><path style="opacity:0.998" fill="#276016" d="M 548.5,152.5 C 571.163,156.109 593.496,161.109 615.5,167.5C 651.018,177.391 684.184,192.391 715,212.5C 715.399,212.272 715.565,211.938 715.5,211.5C 738.781,227.618 756.948,248.285 770,273.5C 775.37,286.312 778.204,299.646 778.5,313.5C 778.415,329.924 772.915,344.258 762,356.5C 747.224,371.796 730.39,384.129 711.5,393.5C 713.086,376.479 714.919,359.479 717,342.5C 717.667,333.833 717.667,325.167 717,316.5C 710.305,299.801 699.805,285.968 685.5,275C 661.51,257.506 635.177,244.506 606.5,236C 570.355,225.602 533.688,218.769 496.5,215.5C 502.925,215.87 509.258,215.37 515.5,214C 537.617,199.607 548.617,179.107 548.5,152.5 Z"/></g>
<g><path style="opacity:0.987" fill="#010000" d="M 496.5,215.5 C 533.688,218.769 570.355,225.602 606.5,236C 635.177,244.506 661.51,257.506 685.5,275C 699.805,285.968 710.305,299.801 717,316.5C 717.667,325.167 717.667,333.833 717,342.5C 714.919,359.479 713.086,376.479 711.5,393.5C 710.167,399.167 708.833,404.833 707.5,410.5C 771.006,407.992 834.006,412.326 896.5,423.5C 896.5,425.167 896.5,426.833 896.5,428.5C 832.964,416.981 768.964,412.981 704.5,416.5C 702.787,421.142 700.787,425.642 698.5,430C 765.557,432.461 831.557,441.961 896.5,458.5C 896.5,458.833 896.5,459.167 896.5,459.5C 895.566,460.568 895.232,461.901 895.5,463.5C 829.948,446.306 763.282,437.139 695.5,436C 679.623,463.878 657.289,484.878 628.5,499C 596.887,514.49 563.554,523.99 528.5,527.5C 527.833,527.5 527.167,527.5 526.5,527.5C 523.873,528.092 521.206,528.425 518.5,528.5C 516.167,528.5 513.833,528.5 511.5,528.5C 510.292,529.234 508.959,529.567 507.5,529.5C 505.833,529.5 504.167,529.5 502.5,529.5C 492.017,530.119 481.684,530.452 471.5,530.5C 463.773,533.356 455.773,535.023 447.5,535.5C 437.779,533.955 428.112,532.288 418.5,530.5C 418.167,530.5 417.833,530.5 417.5,530.5C 413.5,529.167 409.5,529.167 405.5,530.5C 401.291,535.439 396.624,535.772 391.5,531.5C 391.586,530.504 391.252,529.671 390.5,529C 382.841,528.321 375.174,527.821 367.5,527.5C 329.125,523.874 293.125,512.708 259.5,494C 252.123,489.65 245.123,484.817 238.5,479.5C 240.977,475.222 243.477,470.888 246,466.5C 247.136,463.904 247.969,461.237 248.5,458.5C 249.94,454.594 250.606,450.427 250.5,446C 250.497,443.31 250.164,440.81 249.5,438.5C 243.781,420.28 231.781,408.114 213.5,402C 204.409,400.37 195.409,399.203 186.5,398.5C 185.962,396.883 185.629,395.216 185.5,393.5C 182.772,370.219 180.439,346.885 178.5,323.5C 178.507,320.408 179.007,317.408 180,314.5C 186.813,300.012 196.313,287.512 208.5,277C 232.822,258.338 259.822,244.672 289.5,236C 357.177,216.626 426.177,209.792 496.5,215.5 Z"/></g>
<g><path style="opacity:1" fill="#f2c8af" d="M 331.5,296.5 C 371.182,297.322 410.849,298.655 450.5,300.5C 472.539,300.148 494.539,298.981 516.5,297C 537.572,295.876 558.572,296.543 579.5,299C 599.268,303.433 615.434,313.6 628,329.5C 650.027,357.642 655.693,388.975 645,423.5C 634.34,458.827 611.507,482.327 576.5,494C 545.329,503.874 513.329,508.874 480.5,509C 457.5,509.667 434.5,509.667 411.5,509C 378.226,508.478 345.893,502.811 314.5,492C 286.738,480.903 266.905,461.736 255,434.5C 237.062,388.105 246.228,348.272 282.5,315C 297.007,303.778 313.341,297.612 331.5,296.5 Z"/></g>
<g><path style="opacity:1" fill="#020201" d="M 528.5,460.5 C 503.542,444.847 476.542,434.514 447.5,429.5C 417.452,434.697 389.786,445.697 364.5,462.5C 353.96,468.202 343.793,474.535 334,481.5C 292.96,465.481 269.626,435.481 264,391.5C 260.797,376.32 263.797,362.653 273,350.5C 290.122,329.355 312.289,317.855 339.5,316C 396.644,367.643 459.31,375.309 527.5,339C 538.077,332.537 547.743,324.87 556.5,316C 593.131,317.9 618.631,335.734 633,369.5C 634.775,406.531 622.275,437.698 595.5,463C 586.41,470.213 576.41,475.88 565.5,480C 563.5,480.667 561.5,480.667 559.5,480C 549.531,472.854 539.198,466.354 528.5,460.5 Z"/></g>
<g><path style="opacity:1" fill="#f8f8f8" d="M 543.5,364.5 C 543.938,364.435 544.272,364.601 544.5,365C 542.859,366.129 541.859,367.629 541.5,369.5C 539.538,372.865 538.038,376.532 537,380.5C 533.623,398.689 538.123,414.522 550.5,428C 567.671,436.018 580.171,431.185 588,413.5C 591.38,402.418 592.38,391.085 591,379.5C 588.847,371.178 584.681,364.178 578.5,358.5C 577.016,356.926 575.349,355.593 573.5,354.5C 578.923,352.135 584.59,350.135 590.5,348.5C 592.383,348.876 593.883,349.876 595,351.5C 608.653,377.573 608.986,403.906 596,430.5C 586.838,446.831 573.004,453.665 554.5,451C 540.022,444.523 530.522,433.69 526,418.5C 520.849,403.027 520.182,387.361 524,371.5C 530.261,368.45 536.761,366.117 543.5,364.5 Z"/></g>
<g><path style="opacity:1" fill="#f9f8f8" d="M 329.5,354.5 C 328.167,355.833 326.833,357.167 325.5,358.5C 314.546,369.526 310.046,382.86 312,398.5C 313.28,413.584 320.446,424.751 333.5,432C 348.563,433.286 358.73,426.786 364,412.5C 367.338,402.426 368.338,392.092 367,381.5C 366.356,377.381 364.856,373.715 362.5,370.5C 362.025,368.216 361.025,366.216 359.5,364.5C 366.013,366.727 372.513,369.06 379,371.5C 384.258,395.208 380.258,417.208 367,437.5C 357.421,449.136 345.254,453.636 330.5,451C 320.945,447.309 313.445,441.143 308,432.5C 295.578,408.45 294.245,383.783 304,358.5C 305.794,354.553 308.294,351.219 311.5,348.5C 317.677,350.337 323.677,352.337 329.5,354.5 Z"/></g>
<g><path style="opacity:1" fill="#7b3930" d="M 329.5,354.5 C 339.697,357.395 349.697,360.728 359.5,364.5C 361.025,366.216 362.025,368.216 362.5,370.5C 362.565,370.938 362.399,371.272 362,371.5C 349.562,367.634 337.395,363.301 325.5,358.5C 326.833,357.167 328.167,355.833 329.5,354.5 Z"/></g>
<g><path style="opacity:1" fill="#7b3a31" d="M 573.5,354.5 C 575.349,355.593 577.016,356.926 578.5,358.5C 566.926,362.85 555.092,366.85 543,370.5C 542.235,370.43 541.735,370.097 541.5,369.5C 541.859,367.629 542.859,366.129 544.5,365C 544.272,364.601 543.938,364.435 543.5,364.5C 553.216,360.595 563.216,357.261 573.5,354.5 Z"/></g>
<g><path style="opacity:1" fill="#ac5c51" d="M 325.5,358.5 C 337.395,363.301 349.562,367.634 362,371.5C 362.399,371.272 362.565,370.938 362.5,370.5C 364.856,373.715 366.356,377.381 367,381.5C 368.338,392.092 367.338,402.426 364,412.5C 358.73,426.786 348.563,433.286 333.5,432C 320.446,424.751 313.28,413.584 312,398.5C 310.046,382.86 314.546,369.526 325.5,358.5 Z"/></g>
<g><path style="opacity:1" fill="#ac5c51" d="M 578.5,358.5 C 584.681,364.178 588.847,371.178 591,379.5C 592.38,391.085 591.38,402.418 588,413.5C 580.171,431.185 567.671,436.018 550.5,428C 538.123,414.522 533.623,398.689 537,380.5C 538.038,376.532 539.538,372.865 541.5,369.5C 541.735,370.097 542.235,370.43 543,370.5C 555.092,366.85 566.926,362.85 578.5,358.5 Z"/></g>
<g><path style="opacity:0.98" fill="#ead202" d="M 186.5,398.5 C 195.409,399.203 204.409,400.37 213.5,402C 231.781,408.114 243.781,420.28 249.5,438.5C 250.026,443.412 249.359,448.078 247.5,452.5C 248.348,454.409 248.682,456.409 248.5,458.5C 247.969,461.237 247.136,463.904 246,466.5C 243.477,470.888 240.977,475.222 238.5,479.5C 236.167,481.5 233.833,483.5 231.5,485.5C 231.44,484.957 231.107,484.624 230.5,484.5C 217.296,492.607 202.963,496.274 187.5,495.5C 187.5,496.833 187.5,498.167 187.5,499.5C 184.794,499.575 182.127,499.908 179.5,500.5C 179.334,491.494 179.5,482.494 180,473.5C 180.667,472.167 181.333,470.833 182,469.5C 190.121,467.807 198.287,465.974 206.5,464C 210.346,462.914 213.68,461.081 216.5,458.5C 226.894,453.568 231.394,445.235 230,433.5C 225.626,421.466 217.126,413.966 204.5,411C 196.5,409 188.5,409 180.5,411C 177.761,412.026 175.428,413.526 173.5,415.5C 168.043,419.391 168.209,423.058 174,426.5C 174.333,426.167 174.667,425.833 175,425.5C 179.624,425.589 183.458,427.256 186.5,430.5C 187.11,432.434 188.11,434.101 189.5,435.5C 189.5,436.167 189.5,436.833 189.5,437.5C 181.842,448.262 171.509,451.596 158.5,447.5C 154.669,445.484 152.002,442.484 150.5,438.5C 150.784,436.585 150.451,434.919 149.5,433.5C 149.335,429.818 149.501,426.152 150,422.5C 151.454,419.929 152.62,417.262 153.5,414.5C 155.749,413.92 157.415,412.587 158.5,410.5C 166.578,403.8 175.911,399.8 186.5,398.5 Z M 173.5,415.5 C 179.868,415.17 186.202,415.504 192.5,416.5C 194.213,421.142 196.213,425.642 198.5,430C 194.514,430.499 190.514,430.666 186.5,430.5C 183.458,427.256 179.624,425.589 175,425.5C 174.667,425.833 174.333,426.167 174,426.5C 168.209,423.058 168.043,419.391 173.5,415.5 Z"/></g>
<g><path style="opacity:0.713" fill="#000000" d="M 158.5,410.5 C 157.415,412.587 155.749,413.92 153.5,414.5C 102.119,415.138 51.1192,419.805 0.5,428.5C 0.5,426.833 0.5,425.167 0.5,423.5C 52.6942,413.676 105.361,409.343 158.5,410.5 Z"/></g>
<g><path style="opacity:0.946" fill="#040300" d="M 216.5,458.5 C 210.89,451.459 205.89,443.959 201.5,436C 197.514,435.501 193.514,435.334 189.5,435.5C 188.11,434.101 187.11,432.434 186.5,430.5C 190.514,430.666 194.514,430.499 198.5,430C 196.213,425.642 194.213,421.142 192.5,416.5C 186.202,415.504 179.868,415.17 173.5,415.5C 175.428,413.526 177.761,412.026 180.5,411C 188.5,409 196.5,409 204.5,411C 217.126,413.966 225.626,421.466 230,433.5C 231.394,445.235 226.894,453.568 216.5,458.5 Z"/></g>
<g><path style="opacity:1" fill="#f8f7f3" d="M 156.5,416.5 C 157.5,416.5 158.5,416.5 159.5,416.5C 159.766,420.605 159.266,424.605 158,428.5C 154.765,432.795 152.931,432.295 152.5,427C 152.762,423.04 154.096,419.54 156.5,416.5 Z"/></g>
<g><path style="opacity:0.691" fill="#000000" d="M 149.5,433.5 C 150.451,434.919 150.784,436.585 150.5,438.5C 100.108,442.621 50.4409,450.954 1.5,463.5C 1.71351,461.856 1.38017,460.356 0.5,459C 49.3097,445.532 98.9763,437.032 149.5,433.5 Z"/></g>
<g><path style="opacity:1" fill="#c2a18d" d="M 528.5,460.5 C 527.127,460.657 525.793,460.49 524.5,460C 502.328,447.442 478.662,438.942 453.5,434.5C 452.893,434.624 452.56,434.957 452.5,435.5C 449.946,434.612 447.279,434.279 444.5,434.5C 430.125,436.231 416.125,439.731 402.5,445C 389.962,451.102 377.295,456.936 364.5,462.5C 389.786,445.697 417.452,434.697 447.5,429.5C 476.542,434.514 503.542,444.847 528.5,460.5 Z"/></g>
<g><path style="opacity:1" fill="#ad5d52" d="M 444.5,434.5 C 447.279,434.279 449.946,434.612 452.5,435.5C 459.707,440.866 460.374,447.033 454.5,454C 443.213,457.373 437.713,453.207 438,441.5C 439.694,438.642 441.861,436.309 444.5,434.5 Z"/></g>
<g><path style="opacity:0.766" fill="#beab00" d="M 189.5,437.5 C 189.114,444.069 185.781,448.569 179.5,451C 171.737,453.659 164.737,452.493 158.5,447.5C 171.509,451.596 181.842,448.262 189.5,437.5 Z"/></g>
<g><path style="opacity:1" fill="#9d8d01" d="M 249.5,438.5 C 250.164,440.81 250.497,443.31 250.5,446C 250.606,450.427 249.94,454.594 248.5,458.5C 248.682,456.409 248.348,454.409 247.5,452.5C 249.359,448.078 250.026,443.412 249.5,438.5 Z"/></g>
<g><path style="opacity:1" fill="#ad5e52" d="M 424.5,467.5 C 426.199,467.34 427.866,467.506 429.5,468C 435.39,481.44 445.056,485.107 458.5,479C 462.357,476.151 465.023,472.485 466.5,468C 468.167,467.333 469.833,467.333 471.5,468C 472.531,471.293 472.031,474.46 470,477.5C 459.196,489.434 446.696,491.601 432.5,484C 426.684,479.776 424.018,474.276 424.5,467.5 Z"/></g>
<g><path style="opacity:1" fill="#f8f7f4" d="M 185.5,470.5 C 188.488,470.155 189.821,471.488 189.5,474.5C 189.694,477.136 188.528,478.803 186,479.5C 183.942,478.942 182.775,477.609 182.5,475.5C 183.092,473.577 184.092,471.911 185.5,470.5 Z"/></g>
<g><path style="opacity:0.953" fill="#bdaa08" d="M 231.5,485.5 C 221.889,492.699 211.223,497.366 199.5,499.5C 195.5,499.5 191.5,499.5 187.5,499.5C 187.5,498.167 187.5,496.833 187.5,495.5C 202.963,496.274 217.296,492.607 230.5,484.5C 231.107,484.624 231.44,484.957 231.5,485.5 Z"/></g>
<g><path style="opacity:0.982" fill="#7835ac" d="M 187.5,499.5 C 191.5,499.5 195.5,499.5 199.5,499.5C 200.167,499.5 200.833,499.5 201.5,499.5C 203.832,502.685 203.999,506.019 202,509.5C 193.114,519.027 182.614,526.193 170.5,531C 167.5,531.667 164.5,531.667 161.5,531C 159.595,529.579 157.595,528.412 155.5,527.5C 153.488,522.953 153.655,518.287 156,513.5C 162.094,506.075 169.928,501.742 179.5,500.5C 182.127,499.908 184.794,499.575 187.5,499.5 Z"/></g>
<g><path style="opacity:1" fill="#7635a7" d="M 201.5,518.5 C 205.336,520.584 209.003,522.917 212.5,525.5C 207.525,528.125 202.525,530.792 197.5,533.5C 200.226,528.934 201.559,523.934 201.5,518.5 Z"/></g>
<g><path style="opacity:0.968" fill="#612b8a" d="M 201.5,499.5 C 206.573,501.069 208.406,504.402 207,509.5C 205.334,511.996 203.5,514.329 201.5,516.5C 191.403,521.259 182.736,527.926 175.5,536.5C 175.5,536.833 175.5,537.167 175.5,537.5C 165.877,540.69 159.211,537.357 155.5,527.5C 157.595,528.412 159.595,529.579 161.5,531C 164.5,531.667 167.5,531.667 170.5,531C 182.614,526.193 193.114,519.027 202,509.5C 203.999,506.019 203.832,502.685 201.5,499.5 Z"/></g>
<g><path style="opacity:1" fill="#dfdfe1" d="M 212.5,525.5 C 213.492,525.328 214.158,525.662 214.5,526.5C 208.587,529.739 202.92,533.406 197.5,537.5C 197.5,536.167 197.5,534.833 197.5,533.5C 202.525,530.792 207.525,528.125 212.5,525.5 Z"/></g>
<g><path style="opacity:0.977" fill="#2d6d19" d="M 367.5,527.5 C 375.174,527.821 382.841,528.321 390.5,529C 391.252,529.671 391.586,530.504 391.5,531.5C 373.671,533.412 359.005,541.078 347.5,554.5C 351.892,543.78 358.559,534.78 367.5,527.5 Z"/></g>
<g><path style="opacity:1" fill="#22211e" d="M 526.5,527.5 C 530.765,537.264 527.431,541.931 516.5,541.5C 512,538.661 509,534.661 507.5,529.5C 508.959,529.567 510.292,529.234 511.5,528.5C 512.298,532.964 514.964,535.297 519.5,535.5C 519.326,533.139 518.993,530.806 518.5,528.5C 521.206,528.425 523.873,528.092 526.5,527.5 Z"/></g>
<g><path style="opacity:1" fill="#2e6a1b" d="M 396.5,530.5 C 398.364,529.207 400.364,529.207 402.5,530.5C 400.484,531.694 398.484,531.694 396.5,530.5 Z"/></g>
<g><path style="opacity:1" fill="#275e16" d="M 511.5,528.5 C 513.833,528.5 516.167,528.5 518.5,528.5C 518.993,530.806 519.326,533.139 519.5,535.5C 514.964,535.297 512.298,532.964 511.5,528.5 Z"/></g>
<g><path style="opacity:0.997" fill="#388921" d="M 214.5,526.5 C 218.664,526.143 221.831,527.81 224,531.5C 228.7,538.901 232.866,546.568 236.5,554.5C 222.815,548.094 216.648,552.428 218,567.5C 219.292,569.249 220.458,571.082 221.5,573C 227.74,576.061 230.906,574.228 231,567.5C 229.556,565.845 227.722,565.178 225.5,565.5C 225.5,567.167 225.5,568.833 225.5,570.5C 223.089,570.863 221.589,569.863 221,567.5C 220.071,563.756 220.571,560.256 222.5,557C 224.5,556.333 226.5,556.333 228.5,557C 230.968,559.488 233.301,561.988 235.5,564.5C 237.851,563.827 240.184,563.16 242.5,562.5C 262.002,583.889 286.002,591.889 314.5,586.5C 315.072,589.244 316.738,590.077 319.5,589C 321.141,587.871 322.141,586.371 322.5,584.5C 324.833,583.833 327.167,583.167 329.5,582.5C 328.006,584.85 326.673,587.35 325.5,590C 327,592.833 329.167,595 332,596.5C 333.582,595.705 333.749,594.538 332.5,593C 334.951,588.815 336.284,584.315 336.5,579.5C 337.496,579.586 338.329,579.252 339,578.5C 339.838,575.148 340.671,571.815 341.5,568.5C 347.222,565.723 348.888,561.39 346.5,555.5C 346.5,554.833 346.833,554.5 347.5,554.5C 359.005,541.078 373.671,533.412 391.5,531.5C 396.624,535.772 401.291,535.439 405.5,530.5C 406.873,530.343 408.207,530.51 409.5,531C 408.447,537.08 407.78,543.246 407.5,549.5C 419.604,547.716 420.938,549.882 411.5,556C 413.657,557.912 415.991,559.579 418.5,561C 417.263,561.232 416.263,561.732 415.5,562.5C 409.373,563.294 405.373,566.627 403.5,572.5C 405.36,579.107 408.86,580.107 414,575.5C 414.667,574.5 414.667,573.5 414,572.5C 406.732,572.269 405.899,570.102 411.5,566C 421.791,563.335 425.291,566.835 422,576.5C 419.704,578.057 417.538,579.724 415.5,581.5C 416.801,584.427 417.801,587.427 418.5,590.5C 419.5,590.5 420.5,590.5 421.5,590.5C 421.343,589.127 421.51,587.793 422,586.5C 429.037,582.021 431.37,575.687 429,567.5C 427.27,565.598 425.437,563.931 423.5,562.5C 420.882,560.548 418.548,558.215 416.5,555.5C 418.167,553.5 419.833,551.5 421.5,549.5C 418.167,548.5 414.834,547.5 411.5,546.5C 410.505,541.208 410.172,535.875 410.5,530.5C 412.833,530.5 415.167,530.5 417.5,530.5C 417.833,530.5 418.167,530.5 418.5,530.5C 425.685,542.216 433.351,553.549 441.5,564.5C 443.231,567.615 445.231,570.615 447.5,573.5C 449.859,570.149 452.192,566.815 454.5,563.5C 462.41,552.683 470.077,541.683 477.5,530.5C 479.288,530.215 480.955,530.548 482.5,531.5C 480.766,536.582 481.433,541.249 484.5,545.5C 480.651,546.95 476.651,548.283 472.5,549.5C 473.815,551.316 475.315,552.983 477,554.5C 477.667,555.167 477.667,555.833 477,556.5C 468.105,564.029 458.939,571.195 449.5,578C 450.167,578.667 450.833,578.667 451.5,578C 455.5,575 459.5,572 463.5,569C 473.384,568.399 483.217,568.899 493,570.5C 495.527,570.33 496.027,569.33 494.5,567.5C 495.025,566.808 495.692,566.308 496.5,566C 489.285,564.086 481.951,562.753 474.5,562C 477.167,560 479.833,558 482.5,556C 479.98,554.237 477.647,552.237 475.5,550C 479.917,549.772 484.25,549.272 488.5,548.5C 495.75,551.39 499.25,549.056 499,541.5C 496.464,538.687 494.297,538.854 492.5,542C 495.413,545.692 494.413,547.026 489.5,546C 485.681,543.526 484.181,540.026 485,535.5C 486.126,534.056 487.626,533.39 489.5,533.5C 492.079,533.86 494.579,534.526 497,535.5C 497.902,535.257 498.735,534.923 499.5,534.5C 505.443,536.256 511.109,538.589 516.5,541.5C 518.253,543.223 520.253,544.723 522.5,546C 525.447,548.436 527.78,551.269 529.5,554.5C 519.614,559.891 518.947,566.391 527.5,574C 532.69,576.653 537.023,575.82 540.5,571.5C 542.538,576.8 544.204,582.3 545.5,588C 545.272,588.399 544.938,588.565 544.5,588.5C 536.664,582.389 529.831,583.389 524,591.5C 522,597.167 522,602.833 524,608.5C 528,612.5 532,612.5 536,608.5C 537.33,603.502 535.496,601.336 530.5,602C 529.62,603.356 529.286,604.856 529.5,606.5C 526.093,605.826 524.76,603.659 525.5,600C 526.759,589.776 531.259,587.942 539,594.5C 540.316,597.688 540.816,601.022 540.5,604.5C 543.167,604.5 545.833,604.5 548.5,604.5C 550.015,614.769 550.682,625.102 550.5,635.5C 549.209,635.263 548.209,635.596 547.5,636.5C 544.437,638.46 543.771,641.127 545.5,644.5C 548.242,645.5 550.242,644.5 551.5,641.5C 553.962,644.22 554.129,647.22 552,650.5C 549.838,654.368 546.672,655.868 542.5,655C 542,654.5 541.5,654 541,653.5C 539.633,649.3 539.133,644.967 539.5,640.5C 536.624,640.073 533.791,639.406 531,638.5C 528.057,639.24 527.891,640.24 530.5,641.5C 530.02,649.289 533.02,655.122 539.5,659C 543.357,659.758 547.023,659.258 550.5,657.5C 551.494,667.987 551.828,678.654 551.5,689.5C 548.487,690.356 547.82,692.189 549.5,695C 553.483,695.23 554.149,696.563 551.5,699C 546.676,701.446 542.509,700.613 539,696.5C 538.805,690.19 541.971,686.857 548.5,686.5C 547.992,682.803 547.326,679.136 546.5,675.5C 545.5,675.5 544.5,675.5 543.5,675.5C 543.657,676.873 543.49,678.207 543,679.5C 534.675,683.116 532.008,689.116 535,697.5C 536.857,700.2 539.357,701.866 542.5,702.5C 544.292,703.309 546.292,703.809 548.5,704C 544.377,705.192 540.377,706.359 536.5,707.5C 530.491,707.666 524.491,707.499 518.5,707C 516.359,706.427 514.359,705.594 512.5,704.5C 512.167,704.5 511.833,704.5 511.5,704.5C 510.503,683.006 510.169,661.34 510.5,639.5C 512.827,639.753 514.827,639.086 516.5,637.5C 518.599,640.984 521.099,641.318 524,638.5C 524.956,634.075 523.123,632.408 518.5,633.5C 517.702,629.036 515.036,626.703 510.5,626.5C 510.782,616.239 508.782,606.573 504.5,597.5C 503.292,596.766 501.959,596.433 500.5,596.5C 501.144,602.774 499.311,603.108 495,597.5C 494.175,595.299 494.675,593.466 496.5,592C 499.711,591.202 502.711,591.702 505.5,593.5C 507.041,591.796 508.375,589.963 509.5,588C 509.167,587.5 508.833,587 508.5,586.5C 504.566,586.83 500.566,586.997 496.5,587C 491.049,592.56 491.382,597.894 497.5,603C 499.473,603.495 501.473,603.662 503.5,603.5C 502.934,616.892 502.267,630.225 501.5,643.5C 499.208,643.244 497.041,643.577 495,644.5C 495.226,673.278 494.06,701.944 491.5,730.5C 478.642,734.302 466.642,732.635 455.5,725.5C 455.217,724.711 454.717,724.044 454,723.5C 453.829,716.321 453.329,709.321 452.5,702.5C 452.525,683.492 452.192,664.492 451.5,645.5C 452.558,644.4 453.392,643.066 454,641.5C 454.725,640.941 455.558,640.608 456.5,640.5C 463.656,642.811 470.99,644.145 478.5,644.5C 478.143,667.191 478.643,689.857 480,712.5C 480.667,689.5 480.667,666.5 480,643.5C 470.144,642.49 460.644,640.157 451.5,636.5C 451.5,635.833 451.5,635.167 451.5,634.5C 454.675,630.53 453.842,627.863 449,626.5C 447.301,626.387 446.134,627.053 445.5,628.5C 444.778,628.918 444.278,629.584 444,630.5C 443.333,629.167 442.667,627.833 442,626.5C 441.333,612.167 441.333,597.833 442,583.5C 443.873,581.61 444.706,579.61 444.5,577.5C 443.243,579.679 441.743,581.679 440,583.5C 439.333,598.167 439.333,612.833 440,627.5C 440.883,630.102 442.383,632.269 444.5,634C 432.742,640.522 420.075,643.688 406.5,643.5C 404.382,638.053 400.382,635.387 394.5,635.5C 394.262,622.497 393.928,609.497 393.5,596.5C 392.779,591.049 394.112,586.215 397.5,582C 393.29,583.166 389.79,585.666 387,589.5C 383.762,593.309 381.596,597.642 380.5,602.5C 379.5,602.833 378.833,603.5 378.5,604.5C 377.475,607.974 376.808,611.64 376.5,615.5C 366.442,617.631 363.275,623.297 367,632.5C 368.758,634.765 370.925,636.432 373.5,637.5C 373.604,657.522 374.271,677.522 375.5,697.5C 347.542,698.83 347.542,699.496 375.5,699.5C 375.5,701.833 375.5,704.167 375.5,706.5C 371.702,707.483 367.702,707.817 363.5,707.5C 363.5,705.833 363.5,704.167 363.5,702.5C 361.833,702.5 360.167,702.5 358.5,702.5C 358.5,704.167 358.5,705.833 358.5,707.5C 352.373,707.823 346.373,707.157 340.5,705.5C 339.817,705.863 339.15,706.196 338.5,706.5C 338.013,705.527 337.513,704.527 337,703.5C 336.5,692.172 336.333,680.838 336.5,669.5C 338.582,669.528 340.416,668.861 342,667.5C 345.798,662.598 346.298,657.432 343.5,652C 341.323,650.798 338.989,650.298 336.5,650.5C 336.5,647.167 336.5,643.833 336.5,640.5C 338.086,637.06 339.253,633.393 340,629.5C 340.883,626.898 342.383,624.731 344.5,623C 337.959,624.975 331.292,626.975 324.5,629C 317.595,630.681 310.595,631.515 303.5,631.5C 303.81,628.287 303.477,625.287 302.5,622.5C 301.046,613.379 295.712,608.379 286.5,607.5C 278.045,609.285 272.378,614.285 269.5,622.5C 268.539,624.265 268.205,626.265 268.5,628.5C 251.745,625.568 237.412,618.068 225.5,606C 226.056,605.617 226.389,605.117 226.5,604.5C 227.657,602.862 228.824,601.196 230,599.5C 230.749,598.365 230.583,597.365 229.5,596.5C 224.928,596.786 220.261,596.786 215.5,596.5C 212.17,591.173 209.337,585.506 207,579.5C 203.97,574.985 200.803,570.651 197.5,566.5C 197.5,562.833 197.5,559.167 197.5,555.5C 206.363,564.551 213.53,574.884 219,586.5C 215.324,573.305 208.157,562.305 197.5,553.5C 197.5,548.167 197.5,542.833 197.5,537.5C 202.92,533.406 208.587,529.739 214.5,526.5 Z M 393.5,596.5 C 393.928,609.497 394.262,622.497 394.5,635.5C 394.5,636.167 394.5,636.833 394.5,637.5C 394.401,640.237 394.735,642.904 395.5,645.5C 395.5,665.167 395.5,684.833 395.5,704.5C 391.785,704.423 388.119,704.756 384.5,705.5C 384.5,705.167 384.5,704.833 384.5,704.5C 385.267,703.828 385.934,702.995 386.5,702C 386.49,693.499 386.156,684.999 385.5,676.5C 385.5,672.5 385.5,668.5 385.5,664.5C 385.5,662.5 385.5,660.5 385.5,658.5C 385.5,650.833 385.5,643.167 385.5,635.5C 385.5,632.833 385.5,630.167 385.5,627.5C 385.758,621.044 386.591,614.377 388,607.5C 389.337,603.493 391.17,599.827 393.5,596.5 Z M 504.5,597.5 C 508.782,606.573 510.782,616.239 510.5,626.5C 510.5,630.833 510.5,635.167 510.5,639.5C 510.169,661.34 510.503,683.006 511.5,704.5C 511.44,705.043 511.107,705.376 510.5,705.5C 507.36,704.911 504.36,704.244 501.5,703.5C 501.5,683.5 501.5,663.5 501.5,643.5C 502.267,630.225 502.934,616.892 503.5,603.5C 503.517,601.435 503.85,599.435 504.5,597.5 Z M 451.5,636.5 C 451.5,639.5 451.5,642.5 451.5,645.5C 452.192,664.492 452.525,683.492 452.5,702.5C 449.5,702.5 446.5,702.5 443.5,702.5C 444.038,680.504 444.372,658.504 444.5,636.5C 446.833,636.5 449.167,636.5 451.5,636.5 Z"/></g>
<g><path style="opacity:1" fill="#286117" d="M 502.5,529.5 C 504.167,529.5 505.833,529.5 507.5,529.5C 509,534.661 512,538.661 516.5,541.5C 511.109,538.589 505.443,536.256 499.5,534.5C 500.248,532.668 501.248,531.001 502.5,529.5 Z"/></g>
<g><path style="opacity:1" fill="#e2e2e3" d="M 418.5,530.5 C 428.112,532.288 437.779,533.955 447.5,535.5C 455.773,535.023 463.773,533.356 471.5,530.5C 473.5,530.5 475.5,530.5 477.5,530.5C 470.077,541.683 462.41,552.683 454.5,563.5C 454.442,557.925 453.775,552.425 452.5,547C 453.625,545.037 454.959,543.204 456.5,541.5C 453.398,536.96 449.065,535.46 443.5,537C 438.547,539.689 438.38,542.522 443,545.5C 443.167,546.5 443.333,547.5 443.5,548.5C 442.182,553.757 441.515,559.09 441.5,564.5C 433.351,553.549 425.685,542.216 418.5,530.5 Z"/></g>
<g><path style="opacity:0.95" fill="#ead200" d="M 175.5,536.5 C 179.486,538.881 183.82,539.881 188.5,539.5C 188.5,547.167 188.5,554.833 188.5,562.5C 183.969,562.85 179.636,562.183 175.5,560.5C 175.5,552.833 175.5,545.167 175.5,537.5C 175.5,537.167 175.5,536.833 175.5,536.5 Z"/></g>
<g><path style="opacity:0.969" fill="#bcaa03" d="M 201.5,516.5 C 201.5,517.167 201.5,517.833 201.5,518.5C 201.559,523.934 200.226,528.934 197.5,533.5C 197.5,534.833 197.5,536.167 197.5,537.5C 197.5,542.833 197.5,548.167 197.5,553.5C 197.5,554.167 197.5,554.833 197.5,555.5C 197.5,559.167 197.5,562.833 197.5,566.5C 197.773,634.507 197.439,702.507 196.5,770.5C 197.071,777.781 196.405,784.781 194.5,791.5C 192.621,792.341 190.621,792.675 188.5,792.5C 188.5,787.833 188.5,783.167 188.5,778.5C 185.07,778.893 181.904,778.227 179,776.5C 178.501,781.155 178.334,785.821 178.5,790.5C 178.167,790.5 177.833,790.5 177.5,790.5C 177.824,783.646 177.491,776.979 176.5,770.5C 176.5,768.833 176.5,767.167 176.5,765.5C 180.3,767.143 184.3,767.81 188.5,767.5C 188.5,702.5 188.5,637.5 188.5,572.5C 184.416,572.957 180.583,572.29 177,570.5C 176.617,571.056 176.117,571.389 175.5,571.5C 175.5,567.833 175.5,564.167 175.5,560.5C 179.636,562.183 183.969,562.85 188.5,562.5C 188.5,554.833 188.5,547.167 188.5,539.5C 183.82,539.881 179.486,538.881 175.5,536.5C 182.736,527.926 191.403,521.259 201.5,516.5 Z"/></g>
<g><path style="opacity:1" fill="#23211f" d="M 471.5,530.5 C 481.684,530.452 492.017,530.119 502.5,529.5C 501.248,531.001 500.248,532.668 499.5,534.5C 498.735,534.923 497.902,535.257 497,535.5C 494.579,534.526 492.079,533.86 489.5,533.5C 487.626,533.39 486.126,534.056 485,535.5C 484.181,540.026 485.681,543.526 489.5,546C 494.413,547.026 495.413,545.692 492.5,542C 494.297,538.854 496.464,538.687 499,541.5C 499.25,549.056 495.75,551.39 488.5,548.5C 487.205,547.512 485.872,546.512 484.5,545.5C 481.433,541.249 480.766,536.582 482.5,531.5C 480.955,530.548 479.288,530.215 477.5,530.5C 475.5,530.5 473.5,530.5 471.5,530.5 Z"/></g>
<g><path style="opacity:1" fill="#221e1f" d="M 380.5,540.5 C 384.35,540.701 385.35,542.534 383.5,546C 379.537,546.118 378.537,544.284 380.5,540.5 Z"/></g>
<g><path style="opacity:1" fill="#22221e" d="M 542.5,543.5 C 543.974,544.436 544.974,545.77 545.5,547.5C 544.391,551.029 542.558,551.362 540,548.5C 539.294,546.045 540.127,544.378 542.5,543.5 Z"/></g>
<g><path style="opacity:1" fill="#296418" d="M 405.5,530.5 C 409.5,529.167 413.5,529.167 417.5,530.5C 415.167,530.5 412.833,530.5 410.5,530.5C 410.172,535.875 410.505,541.208 411.5,546.5C 414.834,547.5 418.167,548.5 421.5,549.5C 419.833,551.5 418.167,553.5 416.5,555.5C 418.548,558.215 420.882,560.548 423.5,562.5C 420.833,562.5 418.167,562.5 415.5,562.5C 416.263,561.732 417.263,561.232 418.5,561C 415.991,559.579 413.657,557.912 411.5,556C 420.938,549.882 419.604,547.716 407.5,549.5C 407.78,543.246 408.447,537.08 409.5,531C 408.207,530.51 406.873,530.343 405.5,530.5 Z"/></g>
<g><path style="opacity:1" fill="#7536a5" d="M 454.5,563.5 C 452.192,566.815 449.859,570.149 447.5,573.5C 445.231,570.615 443.231,567.615 441.5,564.5C 441.515,559.09 442.182,553.757 443.5,548.5C 443.333,547.5 443.167,546.5 443,545.5C 438.38,542.522 438.547,539.689 443.5,537C 449.065,535.46 453.398,536.96 456.5,541.5C 454.959,543.204 453.625,545.037 452.5,547C 453.775,552.425 454.442,557.925 454.5,563.5 Z"/></g>
<g><path style="opacity:0.965" fill="#276017" d="M 526.5,527.5 C 527.167,527.5 527.833,527.5 528.5,527.5C 534.249,531.914 538.916,537.247 542.5,543.5C 540.127,544.378 539.294,546.045 540,548.5C 542.558,551.362 544.391,551.029 545.5,547.5C 553.383,561.006 557.883,575.673 559,591.5C 559.667,629.167 559.667,666.833 559,704.5C 558.283,705.044 557.783,705.711 557.5,706.5C 556.85,706.196 556.183,705.863 555.5,705.5C 549.244,706.751 542.91,707.417 536.5,707.5C 540.377,706.359 544.377,705.192 548.5,704C 546.292,703.809 544.292,703.309 542.5,702.5C 548.386,703.657 553.219,701.99 557,697.5C 558.822,692.171 556.989,689.504 551.5,689.5C 551.828,678.654 551.494,667.987 550.5,657.5C 556.204,651.858 557.537,645.358 554.5,638C 552.323,636.798 549.989,636.298 547.5,636.5C 548.209,635.596 549.209,635.263 550.5,635.5C 550.682,625.102 550.015,614.769 548.5,604.5C 550.167,604.5 551.833,604.5 553.5,604.5C 553.5,603.167 553.5,601.833 553.5,600.5C 552.167,600.5 550.833,600.5 549.5,600.5C 548.933,596.033 547.266,592.033 544.5,588.5C 544.938,588.565 545.272,588.399 545.5,588C 544.204,582.3 542.538,576.8 540.5,571.5C 540.349,567.686 538.349,566.019 534.5,566.5C 535.398,565.842 536.398,565.176 537.5,564.5C 537.137,563.817 536.804,563.15 536.5,562.5C 538.155,559.944 539.821,557.277 541.5,554.5C 537.897,555.09 533.897,555.09 529.5,554.5C 527.78,551.269 525.447,548.436 522.5,546C 520.253,544.723 518.253,543.223 516.5,541.5C 527.431,541.931 530.765,537.264 526.5,527.5 Z"/></g>
<g><path style="opacity:1" fill="#24231f" d="M 236.5,554.5 C 238.984,556.8 240.984,559.467 242.5,562.5C 240.184,563.16 237.851,563.827 235.5,564.5C 233.301,561.988 230.968,559.488 228.5,557C 226.5,556.333 224.5,556.333 222.5,557C 220.571,560.256 220.071,563.756 221,567.5C 221.589,569.863 223.089,570.863 225.5,570.5C 225.5,568.833 225.5,567.167 225.5,565.5C 227.722,565.178 229.556,565.845 231,567.5C 230.906,574.228 227.74,576.061 221.5,573C 220.458,571.082 219.292,569.249 218,567.5C 216.648,552.428 222.815,548.094 236.5,554.5 Z"/></g>
<g><path style="opacity:1" fill="#23211f" d="M 378.5,549.5 C 379.497,549.47 380.164,549.97 380.5,551C 379.391,553.047 378.724,555.213 378.5,557.5C 375.15,557.335 371.817,557.502 368.5,558C 365.552,561.927 366.218,565.261 370.5,568C 372.579,568.808 374.579,568.641 376.5,567.5C 374.914,565.827 374.247,563.827 374.5,561.5C 380.643,562.026 381.976,564.86 378.5,570C 368.327,571.847 363.16,567.681 363,557.5C 366.292,552.212 371.125,550.045 377.5,551C 378.056,550.617 378.389,550.117 378.5,549.5 Z"/></g>
<g><path style="opacity:1" fill="#388721" d="M 536.5,562.5 C 536.804,563.15 537.137,563.817 537.5,564.5C 536.398,565.176 535.398,565.842 534.5,566.5C 533.876,566.917 533.543,567.584 533.5,568.5C 536.447,572.4 535.447,573.9 530.5,573C 526.443,571.053 524.943,567.886 526,563.5C 529.269,561.238 532.769,560.905 536.5,562.5 Z"/></g>
<g><path style="opacity:1" fill="#24251f" d="M 346.5,555.5 C 348.888,561.39 347.222,565.723 341.5,568.5C 342.575,563.943 344.241,559.609 346.5,555.5 Z"/></g>
<g><path style="opacity:1" fill="#23211f" d="M 415.5,562.5 C 418.167,562.5 420.833,562.5 423.5,562.5C 425.437,563.931 427.27,565.598 429,567.5C 431.37,575.687 429.037,582.021 422,586.5C 421.51,587.793 421.343,589.127 421.5,590.5C 420.5,590.5 419.5,590.5 418.5,590.5C 417.801,587.427 416.801,584.427 415.5,581.5C 417.538,579.724 419.704,578.057 422,576.5C 425.291,566.835 421.791,563.335 411.5,566C 405.899,570.102 406.732,572.269 414,572.5C 414.667,573.5 414.667,574.5 414,575.5C 408.86,580.107 405.36,579.107 403.5,572.5C 405.373,566.627 409.373,563.294 415.5,562.5 Z"/></g>
<g><path style="opacity:1" fill="#296317" d="M 197.5,553.5 C 208.157,562.305 215.324,573.305 219,586.5C 213.53,574.884 206.363,564.551 197.5,555.5C 197.5,554.833 197.5,554.167 197.5,553.5 Z"/></g>
<g><path style="opacity:1" fill="#23221f" d="M 536.5,562.5 C 532.769,560.905 529.269,561.238 526,563.5C 524.943,567.886 526.443,571.053 530.5,573C 535.447,573.9 536.447,572.4 533.5,568.5C 533.543,567.584 533.876,566.917 534.5,566.5C 538.349,566.019 540.349,567.686 540.5,571.5C 537.023,575.82 532.69,576.653 527.5,574C 518.947,566.391 519.614,559.891 529.5,554.5C 533.897,555.09 537.897,555.09 541.5,554.5C 539.821,557.277 538.155,559.944 536.5,562.5 Z"/></g>
<g><path style="opacity:1" fill="#2b6818" d="M 484.5,545.5 C 485.872,546.512 487.205,547.512 488.5,548.5C 484.25,549.272 479.917,549.772 475.5,550C 477.647,552.237 479.98,554.237 482.5,556C 479.833,558 477.167,560 474.5,562C 481.951,562.753 489.285,564.086 496.5,566C 495.692,566.308 495.025,566.808 494.5,567.5C 496.027,569.33 495.527,570.33 493,570.5C 483.217,568.899 473.384,568.399 463.5,569C 459.5,572 455.5,575 451.5,578C 450.833,578.667 450.167,578.667 449.5,578C 458.939,571.195 468.105,564.029 477,556.5C 477.667,555.833 477.667,555.167 477,554.5C 475.315,552.983 473.815,551.316 472.5,549.5C 476.651,548.283 480.651,546.95 484.5,545.5 Z"/></g>
<g><path style="opacity:1" fill="#388920" d="M 469.5,564.5 C 474.179,564.334 478.845,564.501 483.5,565C 487.037,565.145 490.371,565.978 493.5,567.5C 492,567.833 490.5,568.167 489,568.5C 481.845,567.844 474.679,567.344 467.5,567C 468.381,566.292 469.047,565.458 469.5,564.5 Z"/></g>
<g><path style="opacity:0.949" fill="#ead300" d="M 176.5,765.5 C 176.207,700.833 175.873,636.166 175.5,571.5C 176.117,571.389 176.617,571.056 177,570.5C 180.583,572.29 184.416,572.957 188.5,572.5C 188.5,637.5 188.5,702.5 188.5,767.5C 184.3,767.81 180.3,767.143 176.5,765.5 Z"/></g>
<g><path style="opacity:0.958" fill="#23211f" d="M 336.5,579.5 C 336.284,584.315 334.951,588.815 332.5,593C 333.749,594.538 333.582,595.705 332,596.5C 329.167,595 327,592.833 325.5,590C 326.673,587.35 328.006,584.85 329.5,582.5C 331.751,581.305 334.085,580.305 336.5,579.5 Z"/></g>
<g><path style="opacity:1" fill="#221f1f" d="M 510.5,580.5 C 511.833,580.5 513.167,580.5 514.5,580.5C 514.884,582.665 514.217,584.332 512.5,585.5C 510.783,584.332 510.116,582.665 510.5,580.5 Z"/></g>
<g><path style="opacity:0.938" fill="#296318" d="M 393.5,596.5 C 391.17,599.827 389.337,603.493 388,607.5C 386.591,614.377 385.758,621.044 385.5,627.5C 383.287,626.395 381.12,626.395 379,627.5C 378.023,630.259 378.856,632.259 381.5,633.5C 377.317,636.169 373.484,635.503 370,631.5C 368.621,627.525 369.787,624.691 373.5,623C 376.146,622.503 378.813,622.336 381.5,622.5C 381.82,619.102 381.487,615.768 380.5,612.5C 379.614,613.325 379.281,614.325 379.5,615.5C 378.5,615.5 377.5,615.5 376.5,615.5C 376.808,611.64 377.475,607.974 378.5,604.5C 378.815,609.041 380.649,610.041 384,607.5C 385.238,604.074 384.071,602.408 380.5,602.5C 381.596,597.642 383.762,593.309 387,589.5C 389.79,585.666 393.29,583.166 397.5,582C 394.112,586.215 392.779,591.049 393.5,596.5 Z"/></g>
<g><path style="opacity:0.886" fill="#24271f" d="M 322.5,584.5 C 322.141,586.371 321.141,587.871 319.5,589C 316.738,590.077 315.072,589.244 314.5,586.5C 317.267,586.142 319.933,585.475 322.5,584.5 Z"/></g>
<g><path style="opacity:1" fill="#24271f" d="M 231.5,587.5 C 236.386,586.405 238.052,588.072 236.5,592.5C 231.134,594.468 229.467,592.801 231.5,587.5 Z"/></g>
<g><path style="opacity:1" fill="#22201f" d="M 504.5,597.5 C 503.85,599.435 503.517,601.435 503.5,603.5C 501.473,603.662 499.473,603.495 497.5,603C 491.382,597.894 491.049,592.56 496.5,587C 500.566,586.997 504.566,586.83 508.5,586.5C 508.833,587 509.167,587.5 509.5,588C 508.375,589.963 507.041,591.796 505.5,593.5C 502.711,591.702 499.711,591.202 496.5,592C 494.675,593.466 494.175,595.299 495,597.5C 499.311,603.108 501.144,602.774 500.5,596.5C 501.959,596.433 503.292,596.766 504.5,597.5 Z"/></g>
<g><path style="opacity:1" fill="#24261f" d="M 276.5,590.5 C 281.493,590.997 282.493,593.164 279.5,597C 274.382,596.824 273.382,594.658 276.5,590.5 Z"/></g>
<g><path style="opacity:1" fill="#22201f" d="M 255.5,595.5 C 260.346,595 264.846,596 269,598.5C 270.962,596.902 272.462,597.236 273.5,599.5C 271.167,601.5 268.833,603.5 266.5,605.5C 263.453,602.304 259.786,600.804 255.5,601C 251.588,605.505 251.921,609.838 256.5,614C 257.944,614.781 259.277,614.614 260.5,613.5C 259.691,611.929 259.357,610.262 259.5,608.5C 265.643,609.026 266.976,611.86 263.5,617C 252.929,616.745 248.429,611.245 250,600.5C 251.73,598.598 253.563,596.931 255.5,595.5 Z"/></g>
<g><path style="opacity:1" fill="#23221f" d="M 421.5,594.5 C 427.488,594.664 428.821,597.164 425.5,602C 420.632,601.711 419.299,599.211 421.5,594.5 Z"/></g>
<g><path style="opacity:0.989" fill="#221f1e" d="M 215.5,596.5 C 220.261,596.786 224.928,596.786 229.5,596.5C 230.583,597.365 230.749,598.365 230,599.5C 228.824,601.196 227.657,602.862 226.5,604.5C 224.236,603.781 221.903,603.448 219.5,603.5C 217.422,601.61 216.089,599.276 215.5,596.5 Z"/></g>
<g><path style="opacity:1" fill="#221f1f" d="M 454.5,590.5 C 466.827,588.314 474.494,593.148 477.5,605C 477.522,611.972 474.188,616.305 467.5,618C 463.5,618.333 459.5,618.667 455.5,619C 454.929,620.205 454.262,621.372 453.5,622.5C 452.28,622.113 451.613,621.28 451.5,620C 452.269,616.757 453.269,613.59 454.5,610.5C 458.433,610.17 462.433,610.003 466.5,610C 474.056,605.623 474.39,600.623 467.5,595C 464.312,593.684 460.978,593.184 457.5,593.5C 457.84,595.991 458.84,598.158 460.5,600C 460.333,600.833 460.167,601.667 460,602.5C 454.422,604.932 451.255,603.098 450.5,597C 451.205,594.458 452.539,592.292 454.5,590.5 Z"/></g>
<g><path style="opacity:1" fill="#22201f" d="M 335.5,598.5 C 340.328,598.385 341.661,600.552 339.5,605C 334.57,605.427 333.237,603.26 335.5,598.5 Z"/></g>
<g><path style="opacity:1" fill="#23221f" d="M 544.5,588.5 C 547.266,592.033 548.933,596.033 549.5,600.5C 550.833,600.5 552.167,600.5 553.5,600.5C 553.5,601.833 553.5,603.167 553.5,604.5C 551.833,604.5 550.167,604.5 548.5,604.5C 545.833,604.5 543.167,604.5 540.5,604.5C 540.816,601.022 540.316,597.688 539,594.5C 531.259,587.942 526.759,589.776 525.5,600C 524.76,603.659 526.093,605.826 529.5,606.5C 529.286,604.856 529.62,603.356 530.5,602C 535.496,601.336 537.33,603.502 536,608.5C 532,612.5 528,612.5 524,608.5C 522,602.833 522,597.167 524,591.5C 529.831,583.389 536.664,582.389 544.5,588.5 Z"/></g>
<g><path style="opacity:1" fill="#22201e" d="M 380.5,602.5 C 384.071,602.408 385.238,604.074 384,607.5C 380.649,610.041 378.815,609.041 378.5,604.5C 378.833,603.5 379.5,602.833 380.5,602.5 Z"/></g>
<g><path style="opacity:1" fill="#221f1f" d="M 302.5,622.5 C 302.5,625.833 302.5,629.167 302.5,632.5C 303.833,632.5 305.167,632.5 306.5,632.5C 306.5,634.167 306.5,635.833 306.5,637.5C 302.055,636.805 297.722,635.638 293.5,634C 292.244,633.583 291.577,632.75 291.5,631.5C 293.569,625.366 292.569,619.866 288.5,615C 278.789,612.674 273.456,616.674 272.5,627C 273.494,633.779 275.494,634.113 278.5,628C 280.167,627.333 281.833,627.333 283.5,628C 284.252,628.671 284.586,629.504 284.5,630.5C 284.834,638.322 281.167,641.156 273.5,639C 271.951,637.786 270.785,636.286 270,634.5C 269.501,630.514 269.334,626.514 269.5,622.5C 272.378,614.285 278.045,609.285 286.5,607.5C 295.712,608.379 301.046,613.379 302.5,622.5 Z"/></g>
<g><path style="opacity:1" fill="#378520" d="M 291.5,631.5 C 289.05,631.702 286.717,631.369 284.5,630.5C 284.586,629.504 284.252,628.671 283.5,628C 281.833,627.333 280.167,627.333 278.5,628C 275.494,634.113 273.494,633.779 272.5,627C 273.456,616.674 278.789,612.674 288.5,615C 292.569,619.866 293.569,625.366 291.5,631.5 Z"/></g>
<g><path style="opacity:1" fill="#23211f" d="M 385.5,627.5 C 385.5,630.167 385.5,632.833 385.5,635.5C 381.773,637.252 377.773,637.919 373.5,637.5C 370.925,636.432 368.758,634.765 367,632.5C 363.275,623.297 366.442,617.631 376.5,615.5C 377.5,615.5 378.5,615.5 379.5,615.5C 379.281,614.325 379.614,613.325 380.5,612.5C 381.487,615.768 381.82,619.102 381.5,622.5C 378.813,622.336 376.146,622.503 373.5,623C 369.787,624.691 368.621,627.525 370,631.5C 373.484,635.503 377.317,636.169 381.5,633.5C 378.856,632.259 378.023,630.259 379,627.5C 381.12,626.395 383.287,626.395 385.5,627.5 Z"/></g>
<g><path style="opacity:1" fill="#221d1f" d="M 451.5,634.5 C 447.833,634.167 445.833,632.167 445.5,628.5C 446.134,627.053 447.301,626.387 449,626.5C 453.842,627.863 454.675,630.53 451.5,634.5 Z"/></g>
<g><path style="opacity:0.97" fill="#22201f" d="M 510.5,626.5 C 515.036,626.703 517.702,629.036 518.5,633.5C 523.123,632.408 524.956,634.075 524,638.5C 521.099,641.318 518.599,640.984 516.5,637.5C 514.827,639.086 512.827,639.753 510.5,639.5C 510.5,635.167 510.5,630.833 510.5,626.5 Z"/></g>
<g><path style="opacity:0.954" fill="#1c4410" d="M 219.5,603.5 C 221.903,603.448 224.236,603.781 226.5,604.5C 226.389,605.117 226.056,605.617 225.5,606C 237.412,618.068 251.745,625.568 268.5,628.5C 268.205,626.265 268.539,624.265 269.5,622.5C 269.334,626.514 269.501,630.514 270,634.5C 270.785,636.286 271.951,637.786 273.5,639C 281.167,641.156 284.834,638.322 284.5,630.5C 286.717,631.369 289.05,631.702 291.5,631.5C 291.577,632.75 292.244,633.583 293.5,634C 297.722,635.638 302.055,636.805 306.5,637.5C 306.5,635.833 306.5,634.167 306.5,632.5C 305.167,632.5 303.833,632.5 302.5,632.5C 302.5,629.167 302.5,625.833 302.5,622.5C 303.477,625.287 303.81,628.287 303.5,631.5C 310.595,631.515 317.595,630.681 324.5,629C 331.292,626.975 337.959,624.975 344.5,623C 342.383,624.731 340.883,626.898 340,629.5C 339.253,633.393 338.086,637.06 336.5,640.5C 331.184,641.296 325.851,641.963 320.5,642.5C 323.757,637.883 322.59,634.883 317,633.5C 315.289,633.439 313.956,634.106 313,635.5C 312.398,638.221 312.565,640.887 313.5,643.5C 304.494,643.666 295.494,643.5 286.5,643C 280.172,642.307 274.172,640.807 268.5,638.5C 268.5,636.833 268.5,635.167 268.5,633.5C 266.801,633.34 265.134,633.506 263.5,634C 262.748,634.671 262.414,635.504 262.5,636.5C 244.39,630.387 230.057,619.387 219.5,603.5 Z"/></g>
<g><path style="opacity:0.899" fill="#296418" d="M 445.5,628.5 C 445.833,632.167 447.833,634.167 451.5,634.5C 451.5,635.167 451.5,635.833 451.5,636.5C 449.167,636.5 446.833,636.5 444.5,636.5C 444.372,658.504 444.038,680.504 443.5,702.5C 442.804,710.067 442.137,717.734 441.5,725.5C 438.878,727.644 435.878,728.977 432.5,729.5C 432.681,726.447 432.848,723.447 433,720.5C 431.933,721.191 430.766,721.691 429.5,722C 422.167,722.667 414.833,722.667 407.5,722C 403.462,721.101 399.795,719.434 396.5,717C 402.772,719.664 409.438,721.164 416.5,721.5C 422.529,720.964 428.529,720.297 434.5,719.5C 437.795,693.274 439.795,666.941 440.5,640.5C 432.928,642.309 425.261,643.642 417.5,644.5C 417.753,669.183 417.253,693.85 416,718.5C 415.5,693.836 415.333,669.169 415.5,644.5C 408.869,645.331 402.202,645.664 395.5,645.5C 394.735,642.904 394.401,640.237 394.5,637.5C 399.6,637.277 402.6,639.611 403.5,644.5C 404.791,644.737 405.791,644.404 406.5,643.5C 420.075,643.688 432.742,640.522 444.5,634C 442.383,632.269 440.883,630.102 440,627.5C 439.333,612.833 439.333,598.167 440,583.5C 441.743,581.679 443.243,579.679 444.5,577.5C 444.706,579.61 443.873,581.61 442,583.5C 441.333,597.833 441.333,612.167 442,626.5C 442.667,627.833 443.333,629.167 444,630.5C 444.278,629.584 444.778,628.918 445.5,628.5 Z"/></g>
<g><path style="opacity:0.967" fill="#22201f" d="M 268.5,638.5 C 266.297,638.396 264.297,637.73 262.5,636.5C 262.414,635.504 262.748,634.671 263.5,634C 265.134,633.506 266.801,633.34 268.5,633.5C 268.5,635.167 268.5,636.833 268.5,638.5 Z"/></g>
<g><path style="opacity:0.973" fill="#211e1e" d="M 320.5,642.5 C 318.283,643.369 315.95,643.702 313.5,643.5C 312.565,640.887 312.398,638.221 313,635.5C 313.956,634.106 315.289,633.439 317,633.5C 322.59,634.883 323.757,637.883 320.5,642.5 Z"/></g>
<g><path style="opacity:0.966" fill="#286017" d="M 385.5,635.5 C 385.5,643.167 385.5,650.833 385.5,658.5C 380.333,657.492 378.666,659.325 380.5,664C 382.134,664.494 383.801,664.66 385.5,664.5C 385.5,668.5 385.5,672.5 385.5,676.5C 378.768,682.316 376.268,689.649 378,698.5C 379.332,700.66 380.832,702.66 382.5,704.5C 380.562,706.163 378.228,706.829 375.5,706.5C 375.5,704.167 375.5,701.833 375.5,699.5C 347.542,699.496 347.542,698.83 375.5,697.5C 374.271,677.522 373.604,657.522 373.5,637.5C 377.773,637.919 381.773,637.252 385.5,635.5 Z"/></g>
<g><path style="opacity:1" fill="#221f1e" d="M 394.5,635.5 C 400.382,635.387 404.382,638.053 406.5,643.5C 405.791,644.404 404.791,644.737 403.5,644.5C 402.6,639.611 399.6,637.277 394.5,637.5C 394.5,636.833 394.5,636.167 394.5,635.5 Z"/></g>
<g><path style="opacity:1" fill="#22211f" d="M 547.5,636.5 C 549.989,636.298 552.323,636.798 554.5,638C 557.537,645.358 556.204,651.858 550.5,657.5C 547.023,659.258 543.357,659.758 539.5,659C 533.02,655.122 530.02,649.289 530.5,641.5C 527.891,640.24 528.057,639.24 531,638.5C 533.791,639.406 536.624,640.073 539.5,640.5C 539.133,644.967 539.633,649.3 541,653.5C 541.5,654 542,654.5 542.5,655C 546.672,655.868 549.838,654.368 552,650.5C 554.129,647.22 553.962,644.22 551.5,641.5C 550.242,644.5 548.242,645.5 545.5,644.5C 543.771,641.127 544.437,638.46 547.5,636.5 Z"/></g>
<g><path style="opacity:0.982" fill="#388a21" d="M 432.5,729.5 C 422.493,732.251 412.493,732.085 402.5,729C 400.308,728.074 398.308,726.907 396.5,725.5C 395.538,718.588 395.205,711.588 395.5,704.5C 395.5,684.833 395.5,665.167 395.5,645.5C 402.202,645.664 408.869,645.331 415.5,644.5C 415.333,669.169 415.5,693.836 416,718.5C 417.253,693.85 417.753,669.183 417.5,644.5C 425.261,643.642 432.928,642.309 440.5,640.5C 439.795,666.941 437.795,693.274 434.5,719.5C 428.529,720.297 422.529,720.964 416.5,721.5C 409.438,721.164 402.772,719.664 396.5,717C 399.795,719.434 403.462,721.101 407.5,722C 414.833,722.667 422.167,722.667 429.5,722C 430.766,721.691 431.933,721.191 433,720.5C 432.848,723.447 432.681,726.447 432.5,729.5 Z"/></g>
<g><path style="opacity:0.895" fill="#276016" d="M 501.5,643.5 C 501.5,663.5 501.5,683.5 501.5,703.5C 500.509,710.313 500.175,717.313 500.5,724.5C 498.07,727.248 495.07,729.248 491.5,730.5C 494.06,701.944 495.226,673.278 495,644.5C 497.041,643.577 499.208,643.244 501.5,643.5 Z"/></g>
<g><path style="opacity:1" fill="#388521" d="M 336.5,666.5 C 336.5,663.833 336.5,661.167 336.5,658.5C 338.729,657.945 340.395,656.611 341.5,654.5C 342.946,655.171 343.612,656.338 343.5,658C 343.123,662.652 340.79,665.485 336.5,666.5 Z"/></g>
<g><path style="opacity:0.829" fill="#22201e" d="M 385.5,658.5 C 385.5,660.5 385.5,662.5 385.5,664.5C 383.801,664.66 382.134,664.494 380.5,664C 378.666,659.325 380.333,657.492 385.5,658.5 Z"/></g>
<g><path style="opacity:1" fill="#23211f" d="M 336.5,650.5 C 338.989,650.298 341.323,650.798 343.5,652C 346.298,657.432 345.798,662.598 342,667.5C 340.416,668.861 338.582,669.528 336.5,669.5C 336.5,668.5 336.5,667.5 336.5,666.5C 340.79,665.485 343.123,662.652 343.5,658C 343.612,656.338 342.946,655.171 341.5,654.5C 340.395,656.611 338.729,657.945 336.5,658.5C 336.5,655.833 336.5,653.167 336.5,650.5 Z"/></g>
<g><path style="opacity:1" fill="#23231f" d="M 540.5,665.5 C 546.555,664.942 547.888,667.109 544.5,672C 539.791,672.082 538.458,669.915 540.5,665.5 Z"/></g>
<g><path style="opacity:1" fill="#2b6919" d="M 451.5,636.5 C 460.644,640.157 470.144,642.49 480,643.5C 480.667,666.5 480.667,689.5 480,712.5C 478.643,689.857 478.143,667.191 478.5,644.5C 470.99,644.145 463.656,642.811 456.5,640.5C 455.558,640.608 454.725,640.941 454,641.5C 453.392,643.066 452.558,644.4 451.5,645.5C 451.5,642.5 451.5,639.5 451.5,636.5 Z"/></g>
<g><path style="opacity:1" fill="#22201f" d="M 551.5,689.5 C 556.989,689.504 558.822,692.171 557,697.5C 553.219,701.99 548.386,703.657 542.5,702.5C 539.357,701.866 536.857,700.2 535,697.5C 532.008,689.116 534.675,683.116 543,679.5C 543.49,678.207 543.657,676.873 543.5,675.5C 544.5,675.5 545.5,675.5 546.5,675.5C 547.326,679.136 547.992,682.803 548.5,686.5C 541.971,686.857 538.805,690.19 539,696.5C 542.509,700.613 546.676,701.446 551.5,699C 554.149,696.563 553.483,695.23 549.5,695C 547.82,692.189 548.487,690.356 551.5,689.5 Z"/></g>
<g><path style="opacity:0.955" fill="#22211e" d="M 385.5,676.5 C 386.156,684.999 386.49,693.499 386.5,702C 385.934,702.995 385.267,703.828 384.5,704.5C 383.833,704.5 383.167,704.5 382.5,704.5C 380.832,702.66 379.332,700.66 378,698.5C 376.268,689.649 378.768,682.316 385.5,676.5 Z"/></g>
<g><path style="opacity:0.997" fill="#9bd9ef" d="M 443.5,702.5 C 446.5,702.5 449.5,702.5 452.5,702.5C 453.329,709.321 453.829,716.321 454,723.5C 454.717,724.044 455.217,724.711 455.5,725.5C 456.545,751.939 469.211,770.272 493.5,780.5C 471.42,790.777 458.587,808.11 455,832.5C 454.5,848.497 454.333,864.497 454.5,880.5C 450.167,880.5 445.833,880.5 441.5,880.5C 441.667,864.163 441.5,847.83 441,831.5C 437.719,807.562 425.219,790.562 403.5,780.5C 427.116,769.861 439.783,751.527 441.5,725.5C 442.137,717.734 442.804,710.067 443.5,702.5 Z"/></g>
<g><path style="opacity:1" fill="#23231f" d="M 523.5,700.5 C 525.252,700.418 526.252,701.251 526.5,703C 524.833,706.333 523.167,706.333 521.5,703C 522.056,701.989 522.722,701.156 523.5,700.5 Z"/></g>
<g><path style="opacity:1" fill="#221f1f" d="M 363.5,707.5 C 361.833,707.5 360.167,707.5 358.5,707.5C 358.5,705.833 358.5,704.167 358.5,702.5C 360.167,702.5 361.833,702.5 363.5,702.5C 363.5,704.167 363.5,705.833 363.5,707.5 Z"/></g>
<g><path style="opacity:0.999" fill="#9bd8ee" d="M 395.5,704.5 C 395.205,711.588 395.538,718.588 396.5,725.5C 395.499,744.833 387.999,761.167 374,774.5C 373.018,777.775 373.851,780.441 376.5,782.5C 376.657,783.873 376.49,785.207 376,786.5C 372.5,781.667 368.333,777.5 363.5,774C 355.75,770.163 348.083,766.663 340.5,763.5C 369.293,757.586 383.627,739.92 383.5,710.5C 384.301,708.958 384.634,707.292 384.5,705.5C 388.119,704.756 391.785,704.423 395.5,704.5 Z"/></g>
<g><path style="opacity:0.999" fill="#9bd8ed" d="M 501.5,703.5 C 504.36,704.244 507.36,704.911 510.5,705.5C 511.107,705.376 511.44,705.043 511.5,704.5C 511.833,704.5 512.167,704.5 512.5,704.5C 512.325,706.621 512.659,708.621 513.5,710.5C 511.639,734.291 521.639,750.791 543.5,760C 548.992,762.221 554.659,763.721 560.5,764.5C 544.515,766.077 531.348,773.077 521,785.5C 520.51,784.207 520.343,782.873 520.5,781.5C 521.117,781.389 521.617,781.056 522,780.5C 522.667,778.167 522.667,775.833 522,773.5C 507.733,760.297 500.566,743.964 500.5,724.5C 500.175,717.313 500.509,710.313 501.5,703.5 Z"/></g>
<g><path style="opacity:1" fill="#d7d6da" d="M 382.5,704.5 C 383.167,704.5 383.833,704.5 384.5,704.5C 384.5,704.833 384.5,705.167 384.5,705.5C 384.634,707.292 384.301,708.958 383.5,710.5C 370.21,712.546 356.877,712.879 343.5,711.5C 342.391,711.443 341.391,711.11 340.5,710.5C 340.167,710.5 339.833,710.5 339.5,710.5C 338.766,709.292 338.433,707.959 338.5,706.5C 339.15,706.196 339.817,705.863 340.5,705.5C 346.373,707.157 352.373,707.823 358.5,707.5C 360.167,707.5 361.833,707.5 363.5,707.5C 367.702,707.817 371.702,707.483 375.5,706.5C 378.228,706.829 380.562,706.163 382.5,704.5 Z"/></g>
<g><path style="opacity:1" fill="#d8d7db" d="M 512.5,704.5 C 514.359,705.594 516.359,706.427 518.5,707C 524.491,707.499 530.491,707.666 536.5,707.5C 542.91,707.417 549.244,706.751 555.5,705.5C 556.183,705.863 556.85,706.196 557.5,706.5C 557.567,707.959 557.234,709.292 556.5,710.5C 542.119,713.108 527.786,713.108 513.5,710.5C 512.659,708.621 512.325,706.621 512.5,704.5 Z"/></g>
<g><path style="opacity:0.995" fill="#9cd9ef" d="M 339.5,710.5 C 339.833,710.5 340.167,710.5 340.5,710.5C 339.549,725.237 333.215,737.071 321.5,746C 316.711,748.148 312.044,750.481 307.5,753C 306.748,753.671 306.414,754.504 306.5,755.5C 304.652,759.351 305.652,762.351 309.5,764.5C 306.194,770.43 307.528,775.264 313.5,779C 327.293,784.797 336.126,794.963 340,809.5C 340.5,830.497 340.667,851.497 340.5,872.5C 305.843,867.006 272.509,857.172 240.5,843C 225.147,835.649 212.147,825.316 201.5,812C 199.803,811.616 198.137,811.782 196.5,812.5C 196.666,805.825 196.5,799.158 196,792.5C 195.617,791.944 195.117,791.611 194.5,791.5C 196.405,784.781 197.071,777.781 196.5,770.5C 198.068,771.473 199.735,771.64 201.5,771C 215.825,754.029 233.491,741.696 254.5,734C 282.129,723.183 310.463,715.349 339.5,710.5 Z"/></g>
<g><path style="opacity:1" fill="#7836ab" d="M 340.5,710.5 C 341.391,711.11 342.391,711.443 343.5,711.5C 344.263,712.268 345.263,712.768 346.5,713C 355.215,713.195 363.881,713.695 372.5,714.5C 373.783,717.372 373.783,720.205 372.5,723C 363.127,723.552 353.793,723.552 344.5,723C 345.623,724.044 346.956,724.71 348.5,725C 356.5,725.333 364.5,725.667 372.5,726C 368.492,739.005 360.492,748.671 348.5,755C 336.831,760.857 324.498,763.191 311.5,762C 308.115,761.119 306.448,758.952 306.5,755.5C 306.414,754.504 306.748,753.671 307.5,753C 312.044,750.481 316.711,748.148 321.5,746C 333.215,737.071 339.549,725.237 340.5,710.5 Z"/></g>
<g><path style="opacity:1" fill="#622d8b" d="M 383.5,710.5 C 383.627,739.92 369.293,757.586 340.5,763.5C 330.167,765.484 319.834,765.817 309.5,764.5C 305.652,762.351 304.652,759.351 306.5,755.5C 306.448,758.952 308.115,761.119 311.5,762C 324.498,763.191 336.831,760.857 348.5,755C 360.492,748.671 368.492,739.005 372.5,726C 364.5,725.667 356.5,725.333 348.5,725C 346.956,724.71 345.623,724.044 344.5,723C 353.793,723.552 363.127,723.552 372.5,723C 373.783,720.205 373.783,717.372 372.5,714.5C 363.881,713.695 355.215,713.195 346.5,713C 345.263,712.768 344.263,712.268 343.5,711.5C 356.877,712.879 370.21,712.546 383.5,710.5 Z"/></g>
<g><path style="opacity:0.995" fill="#9cdaf0" d="M 556.5,711.5 C 594.434,716.483 630.434,727.649 664.5,745C 675.842,751.341 685.675,759.508 694,769.5C 704,784.167 704,798.833 694,813.5C 686.614,822.274 678.114,829.774 668.5,836C 650.419,846.14 631.419,854.14 611.5,860C 593.398,865.239 575.064,869.405 556.5,872.5C 556.333,850.831 556.5,829.164 557,807.5C 560.271,797.442 566.104,789.276 574.5,783C 578.91,780.868 583.077,778.368 587,775.5C 590.767,771.35 590.267,768.017 585.5,765.5C 591.377,763.608 592.877,759.942 590,754.5C 584.74,750.964 579.24,747.797 573.5,745C 562.892,736.284 557.226,725.117 556.5,711.5 Z"/></g>
<g><path style="opacity:1" fill="#7636a8" d="M 513.5,710.5 C 527.786,713.108 542.119,713.108 556.5,710.5C 556.5,710.833 556.5,711.167 556.5,711.5C 557.226,725.117 562.892,736.284 573.5,745C 579.24,747.797 584.74,750.964 590,754.5C 592.877,759.942 591.377,763.608 585.5,765.5C 577.082,765.802 568.748,765.469 560.5,764.5C 554.659,763.721 548.992,762.221 543.5,760C 521.639,750.791 511.639,734.291 513.5,710.5 Z"/></g>
<g><path style="opacity:1" fill="#010202" d="M 396.5,725.5 C 398.308,726.907 400.308,728.074 402.5,729C 412.493,732.085 422.493,732.251 432.5,729.5C 435.878,728.977 438.878,727.644 441.5,725.5C 439.783,751.527 427.116,769.861 403.5,780.5C 394.662,783.467 385.662,784.134 376.5,782.5C 373.851,780.441 373.018,777.775 374,774.5C 387.999,761.167 395.499,744.833 396.5,725.5 Z"/></g>
<g><path style="opacity:1" fill="#020303" d="M 500.5,724.5 C 500.566,743.964 507.733,760.297 522,773.5C 522.667,775.833 522.667,778.167 522,780.5C 521.617,781.056 521.117,781.389 520.5,781.5C 511.42,784.339 502.42,784.006 493.5,780.5C 469.211,770.272 456.545,751.939 455.5,725.5C 466.642,732.635 478.642,734.302 491.5,730.5C 495.07,729.248 498.07,727.248 500.5,724.5 Z"/></g>
<g><path style="opacity:0.997" fill="#7cb9e5" d="M 340.5,763.5 C 348.083,766.663 355.75,770.163 363.5,774C 368.333,777.5 372.5,781.667 376,786.5C 376.49,785.207 376.657,783.873 376.5,782.5C 385.662,784.134 394.662,783.467 403.5,780.5C 425.219,790.562 437.719,807.562 441,831.5C 441.5,847.83 441.667,864.163 441.5,880.5C 431.833,880.5 422.167,880.5 412.5,880.5C 407.268,879.79 401.935,879.123 396.5,878.5C 396.667,861.497 396.5,844.497 396,827.5C 394.07,815.019 389.07,804.019 381,794.5C 381.419,797.455 382.086,800.455 383,803.5C 383.5,828.164 383.667,852.831 383.5,877.5C 369.115,876.244 354.782,874.577 340.5,872.5C 340.667,851.497 340.5,830.497 340,809.5C 336.126,794.963 327.293,784.797 313.5,779C 307.528,775.264 306.194,770.43 309.5,764.5C 319.834,765.817 330.167,765.484 340.5,763.5 Z"/></g>
<g><path style="opacity:0.997" fill="#7cbae5" d="M 560.5,764.5 C 568.748,765.469 577.082,765.802 585.5,765.5C 590.267,768.017 590.767,771.35 587,775.5C 583.077,778.368 578.91,780.868 574.5,783C 566.104,789.276 560.271,797.442 557,807.5C 556.5,829.164 556.333,850.831 556.5,872.5C 542.204,874.447 527.87,876.114 513.5,877.5C 513.333,852.164 513.5,826.831 514,801.5C 515.523,799.17 516.023,796.836 515.5,794.5C 506.553,805.154 501.386,817.488 500,831.5C 499.5,847.163 499.333,862.83 499.5,878.5C 494.065,879.123 488.732,879.79 483.5,880.5C 473.833,880.5 464.167,880.5 454.5,880.5C 454.333,864.497 454.5,848.497 455,832.5C 458.587,808.11 471.42,790.777 493.5,780.5C 502.42,784.006 511.42,784.339 520.5,781.5C 520.343,782.873 520.51,784.207 521,785.5C 531.348,773.077 544.515,766.077 560.5,764.5 Z"/></g>
<g><path style="opacity:0.982" fill="#9cdaef" d="M 176.5,770.5 C 177.491,776.979 177.824,783.646 177.5,790.5C 177.5,797.5 177.5,804.5 177.5,811.5C 164.559,812.01 152.226,809.51 140.5,804C 125.833,795.667 125.833,787.333 140.5,779C 152.28,774.682 164.28,771.848 176.5,770.5 Z"/></g>
<g><path style="opacity:1" fill="#ebd302" d="M 188.5,792.5 C 185.813,792.664 183.146,792.497 180.5,792C 179.584,791.722 178.918,791.222 178.5,790.5C 178.334,785.821 178.501,781.155 179,776.5C 181.904,778.227 185.07,778.893 188.5,778.5C 188.5,783.167 188.5,787.833 188.5,792.5 Z"/></g>
<g><path style="opacity:0.99" fill="#7ebbe5" d="M 177.5,790.5 C 177.833,790.5 178.167,790.5 178.5,790.5C 178.918,791.222 179.584,791.722 180.5,792C 183.146,792.497 185.813,792.664 188.5,792.5C 190.621,792.675 192.621,792.341 194.5,791.5C 195.117,791.611 195.617,791.944 196,792.5C 196.5,799.158 196.666,805.825 196.5,812.5C 189.978,812.823 183.645,812.49 177.5,811.5C 177.5,804.5 177.5,797.5 177.5,790.5 Z"/></g>
<g><path style="opacity:0.994" fill="#9bd9ef" d="M 396.5,878.5 C 392.119,878.628 387.785,878.295 383.5,877.5C 383.667,852.831 383.5,828.164 383,803.5C 382.086,800.455 381.419,797.455 381,794.5C 389.07,804.019 394.07,815.019 396,827.5C 396.5,844.497 396.667,861.497 396.5,878.5 Z"/></g>
<g><path style="opacity:0.997" fill="#9ad8ef" d="M 513.5,877.5 C 508.881,878.314 504.214,878.647 499.5,878.5C 499.333,862.83 499.5,847.163 500,831.5C 501.386,817.488 506.553,805.154 515.5,794.5C 516.023,796.836 515.523,799.17 514,801.5C 513.5,826.831 513.333,852.164 513.5,877.5 Z"/></g>
</svg>
