<?xml version="1.0" encoding="UTF-8"?>
<!DOCTYPE svg PUBLIC "-//W3C//DTD SVG 1.1//EN" "http://www.w3.org/Graphics/SVG/1.1/DTD/svg11.dtd">
<svg xmlns="http://www.w3.org/2000/svg" version="1.1" width="897px" height="789px" style="shape-rendering:geometricPrecision; text-rendering:geometricPrecision; image-rendering:optimizeQuality; fill-rule:evenodd; clip-rule:evenodd" xmlns:xlink="http://www.w3.org/1999/xlink">
<g><path style="opacity:1" fill="#fefefe" d="M 399.5,36.5 C 404.731,36.5557 409.731,35.889 414.5,34.5C 460.532,31.3368 505.866,35.5034 550.5,47C 548.812,48.6884 547.145,50.3551 545.5,52C 545.833,52.5 546.167,53 546.5,53.5C 576.785,28.6917 611.119,11.8583 649.5,3C 655.585,2.13921 661.585,2.47254 667.5,4C 683.231,39.9768 684.564,76.4768 671.5,113.5C 708.932,155.857 723.098,205.19 714,261.5C 712.217,280.958 708.384,299.958 702.5,318.5C 701.957,318.56 701.624,318.893 701.5,319.5C 705.647,320.167 709.647,320.834 713.5,321.5C 709.167,321.5 704.833,321.5 700.5,321.5C 690.696,349.574 673.696,372.407 649.5,390C 629.788,403.522 608.455,413.855 585.5,421C 537.77,433.823 489.103,438.99 439.5,436.5C 396.318,438.721 353.984,433.887 312.5,422C 275.523,411.606 244.023,392.439 218,364.5C 207.553,351.608 199.72,337.275 194.5,321.5C 190.167,321.5 185.833,321.5 181.5,321.5C 185.353,320.834 189.353,320.167 193.5,319.5C 193.376,318.893 193.043,318.56 192.5,318.5C 181.417,282.013 177.25,244.679 180,206.5C 184.831,170.844 199.331,139.844 223.5,113.5C 210.682,76.7988 211.849,40.4655 227,4.5C 227.5,4 228,3.5 228.5,3C 247.988,2.89827 266.654,6.89827 284.5,15C 307.784,25.3008 329.451,38.1341 349.5,53.5C 350.521,52.9984 350.688,52.3317 350,51.5C 348.5,50 347,48.5 345.5,47C 363.065,41.6064 381.065,38.1064 399.5,36.5 Z"/></g>
<g><path style="opacity:1" fill="#252222" d="M 330.5,202.5 C 343.837,202.333 357.171,202.5 370.5,203C 394.958,205.119 419.458,206.619 444,207.5C 469.88,206.868 495.713,205.368 521.5,203C 540.964,201.715 560.298,202.715 579.5,206C 601.368,211.534 618.534,223.701 631,242.5C 646.423,264.479 651.757,288.813 647,315.5C 642.146,363 616.98,393.5 571.5,407C 552.171,412.152 532.504,415.152 512.5,416C 477.185,417.573 441.852,417.907 406.5,417C 380.09,415.45 354.09,411.45 328.5,405C 269.06,386.015 241.56,345.181 246,282.5C 251.996,253.178 267.496,230.345 292.5,214C 304.632,207.973 317.299,204.14 330.5,202.5 Z"/></g>
<g><path style="opacity:1" fill="#f3cab1" d="M 328.5,205.5 C 344.17,205.333 359.837,205.5 375.5,206C 421.168,210.628 466.835,210.628 512.5,206C 530.5,205.333 548.5,205.333 566.5,206C 587.778,208.056 605.611,216.889 620,232.5C 642.379,257.331 650.379,286.331 644,319.5C 638.592,362.897 615.092,391.064 573.5,404C 559.702,407.693 545.702,410.36 531.5,412C 482.194,416.25 432.86,416.583 383.5,413C 362.121,410.329 341.121,405.996 320.5,400C 287.801,389.3 265.634,367.8 254,335.5C 239.674,291.966 249.174,254.799 282.5,224C 295.984,213.087 311.317,206.92 328.5,205.5 Z"/></g>
<g><path style="opacity:0.747" fill="#95843d" d="M 138.5,317.5 C 138.328,318.492 138.662,319.158 139.5,319.5C 139.328,320.492 139.662,321.158 140.5,321.5C 140.833,322.167 141.167,322.833 141.5,323.5C 144.692,328.55 147.358,333.883 149.5,339.5C 149.427,341.027 150.094,342.027 151.5,342.5C 151.5,342.833 151.5,343.167 151.5,343.5C 151.427,345.027 152.094,346.027 153.5,346.5C 158.915,357.664 164.582,368.664 170.5,379.5C 171.063,381.91 171.563,384.243 172,386.5C 162.672,393.329 152.339,397.996 141,400.5C 139.699,398.845 138.199,397.511 136.5,396.5C 130.103,380.601 122.77,365.268 114.5,350.5C 114.5,349.833 114.5,349.167 114.5,348.5C 114.167,347.833 113.833,347.167 113.5,346.5C 113.167,345.5 112.5,344.833 111.5,344.5C 108.771,338.041 105.771,331.708 102.5,325.5C 102.443,324.391 102.11,323.391 101.5,322.5C 101.5,321.833 101.167,321.5 100.5,321.5C 100.5,320.5 100.5,319.5 100.5,318.5C 100.472,316.418 101.139,314.584 102.5,313C 98.9098,312.812 96.0764,311.312 94,308.5C 68.8502,256.577 44.5169,206.91 21,159.5C 21.1486,150.28 22.4819,141.28 25,132.5C 33.6234,134.24 41.9567,136.906 50,140.5C 79.7203,199.941 109.22,258.941 138.5,317.5 Z"/></g>
<g><path style="opacity:1" fill="#f3f249" d="M 25.5,141.5 C 26.3764,141.369 27.0431,141.702 27.5,142.5C 36.4222,159.344 45.0888,176.344 53.5,193.5C 52.8333,194.167 52.1667,194.833 51.5,195.5C 53.1073,199.462 52.4406,200.129 49.5,197.5C 48.6919,197.808 48.0253,198.308 47.5,199C 49.0614,199.941 50.3947,201.108 51.5,202.5C 50.8333,204.167 50.1667,205.833 49.5,207.5C 50.2739,208.711 51.1072,208.711 52,207.5C 52.1968,205.139 53.3635,203.472 55.5,202.5C 54.3554,201.109 54.3554,199.776 55.5,198.5C 89.0109,262.854 122.011,327.521 154.5,392.5C 150.919,394.923 146.919,396.59 142.5,397.5C 136.872,388.414 131.872,378.914 127.5,369C 128.361,365.863 129.027,362.697 129.5,359.5C 131.949,360.057 134.282,360.057 136.5,359.5C 135.009,357.988 133.176,356.988 131,356.5C 130.814,354.1 130.314,351.766 129.5,349.5C 128.534,351.396 128.201,353.396 128.5,355.5C 126.396,355.201 124.396,355.534 122.5,356.5C 123.689,357.429 125.022,357.762 126.5,357.5C 126.808,359.924 126.474,362.257 125.5,364.5C 118.364,350.229 111.198,335.896 104,321.5C 103.253,318.147 103.753,314.98 105.5,312C 102.829,310.257 99.9961,308.757 97,307.5C 77.279,267.225 57.4457,227.059 37.5,187C 39.5,185 41.5,183 43.5,181C 41.7444,180.798 40.0777,180.298 38.5,179.5C 38.7093,178.914 39.0426,178.414 39.5,178C 37.0995,177.814 34.7662,177.314 32.5,176.5C 29.9397,170.379 27.1064,164.379 24,158.5C 23.9781,152.811 24.4781,147.144 25.5,141.5 Z"/></g>
<g><path style="opacity:1" fill="#dac159" d="M 27.5,137.5 C 27.56,136.957 27.8933,136.624 28.5,136.5C 35.8119,138.032 42.6452,140.699 49,144.5C 50.3061,148.446 52.1394,152.112 54.5,155.5C 52.9239,157.979 51.9239,160.646 51.5,163.5C 53.924,163.192 56.2573,163.526 58.5,164.5C 62.0272,170.221 65.0272,176.221 67.5,182.5C 64.8877,186.932 64.221,191.599 65.5,196.5C 66.8231,192.599 67.8231,188.599 68.5,184.5C 82.589,211.678 96.4223,239.011 110,266.5C 109.427,270.091 108.927,273.758 108.5,277.5C 111.321,277.539 113.988,278.205 116.5,279.5C 120.874,285.893 123.207,292.893 123.5,300.5C 122.167,300.5 120.833,300.5 119.5,300.5C 119.817,297.428 119.484,294.428 118.5,291.5C 117.52,294.086 117.187,296.753 117.5,299.5C 116.07,299.579 114.736,299.246 113.5,298.5C 112.614,299.325 112.281,300.325 112.5,301.5C 113.833,301.5 115.167,301.5 116.5,301.5C 116.886,309.398 117.886,309.398 119.5,301.5C 120.736,302.246 122.07,302.579 123.5,302.5C 123.238,303.978 123.571,305.311 124.5,306.5C 125.386,305.675 125.719,304.675 125.5,303.5C 126.822,303.33 127.989,303.663 129,304.5C 142.372,331.411 155.872,358.244 169.5,385C 165.633,387.698 161.633,390.198 157.5,392.5C 114.381,307.261 71.048,222.261 27.5,137.5 Z"/></g>
<g><path style="opacity:1" fill="#98873f" d="M 53.5,174.5 C 55.3792,175.341 57.3792,175.675 59.5,175.5C 60.2796,178.101 61.9463,180.101 64.5,181.5C 63.2243,182.645 61.891,182.645 60.5,181.5C 59.5713,182.689 59.238,184.022 59.5,185.5C 62.5476,185.494 63.0476,186.494 61,188.5C 57.5407,187.869 54.7074,186.203 52.5,183.5C 53.3914,182.41 54.3914,182.41 55.5,183.5C 57.2791,179.904 56.2791,177.404 52.5,176C 53.056,175.617 53.3893,175.117 53.5,174.5 Z"/></g>
<g><path style="opacity:0.933" fill="#201c1d" d="M 896.5,331.5 C 896.5,332.833 896.5,334.167 896.5,335.5C 895.107,336.26 893.607,336.926 892,337.5C 829.328,326.039 766.162,321.706 702.5,324.5C 701.524,328.927 699.857,333.093 697.5,337C 764.599,339.086 830.599,348.586 895.5,365.5C 895.448,368.726 893.948,371.06 891,372.5C 826.347,354.668 760.514,345.668 693.5,345.5C 675.631,374.861 650.964,396.694 619.5,411C 597.414,421.084 574.414,428.251 550.5,432.5C 551.051,441.528 550.051,450.362 547.5,459C 549.263,462.356 550.596,465.856 551.5,469.5C 552.221,472.817 552.388,476.151 552,479.5C 549.872,482.63 547.372,485.463 544.5,488C 533.6,495.951 521.6,501.451 508.5,504.5C 508.5,505.5 508.5,506.5 508.5,507.5C 506.692,508.907 504.692,510.074 502.5,511C 504.118,532.75 504.618,554.583 504,576.5C 502.955,577.373 502.122,578.373 501.5,579.5C 489.326,582.255 476.992,583.088 464.5,582C 461.148,580.83 457.814,579.664 454.5,578.5C 453.21,577.942 452.377,576.942 452,575.5C 451.5,568.174 451.334,560.841 451.5,553.5C 450.167,553.5 448.833,553.5 447.5,553.5C 447.666,561.174 447.5,568.841 447,576.5C 445.961,577.71 444.794,578.71 443.5,579.5C 428.033,583.826 412.7,583.492 397.5,578.5C 396.21,577.942 395.377,576.942 395,575.5C 395.28,552.824 395.614,530.157 396,507.5C 394.259,506.242 392.426,505.242 390.5,504.5C 373.249,499.709 358.249,491.042 345.5,478.5C 347.424,468.985 350.757,459.985 355.5,451.5C 354.922,445.831 354.255,440.164 353.5,434.5C 319.913,429.138 288.247,418.305 258.5,402C 234.358,388.358 215.358,369.525 201.5,345.5C 197.833,345.167 194.167,344.833 190.5,344.5C 178.16,345.125 165.827,345.792 153.5,346.5C 152.094,346.027 151.427,345.027 151.5,343.5C 167.525,343.158 183.525,342.324 199.5,341C 183.462,340.399 167.462,340.899 151.5,342.5C 150.094,342.027 149.427,341.027 149.5,339.5C 165.508,338.882 181.508,338.049 197.5,337C 195.143,333.093 193.476,328.927 192.5,324.5C 175.507,323.864 158.507,323.531 141.5,323.5C 141.167,322.833 140.833,322.167 140.5,321.5C 154.167,321.5 167.833,321.5 181.5,321.5C 185.833,321.5 190.167,321.5 194.5,321.5C 199.72,337.275 207.553,351.608 218,364.5C 244.023,392.439 275.523,411.606 312.5,422C 353.984,433.887 396.318,438.721 439.5,436.5C 489.103,438.99 537.77,433.823 585.5,421C 608.455,413.855 629.788,403.522 649.5,390C 673.696,372.407 690.696,349.574 700.5,321.5C 704.833,321.5 709.167,321.5 713.5,321.5C 772.632,319.82 831.299,324.153 889.5,334.5C 890.167,334.167 890.833,333.833 891.5,333.5C 864.778,327.79 837.778,323.956 810.5,322C 774.356,320.275 738.356,319.108 702.5,318.5C 708.384,299.958 712.217,280.958 714,261.5C 723.098,205.19 708.932,155.857 671.5,113.5C 684.564,76.4768 683.231,39.9768 667.5,4C 661.585,2.47254 655.585,2.13921 649.5,3C 611.119,11.8583 576.785,28.6917 546.5,53.5C 546.167,53 545.833,52.5 545.5,52C 547.145,50.3551 548.812,48.6884 550.5,47C 505.866,35.5034 460.532,31.3368 414.5,34.5C 409.269,34.4443 404.269,35.111 399.5,36.5C 381.065,38.1064 363.065,41.6064 345.5,47C 347,48.5 348.5,50 350,51.5C 350.688,52.3317 350.521,52.9984 349.5,53.5C 329.451,38.1341 307.784,25.3008 284.5,15C 266.654,6.89827 247.988,2.89827 228.5,3C 228,3.5 227.5,4 227,4.5C 211.849,40.4655 210.682,76.7988 223.5,113.5C 199.331,139.844 184.831,170.844 180,206.5C 177.25,244.679 181.417,282.013 192.5,318.5C 175.008,319.497 157.341,319.83 139.5,319.5C 138.662,319.158 138.328,318.492 138.5,317.5C 155.435,316.652 172.435,316.486 189.5,317C 182.269,295.456 178.103,273.289 177,250.5C 171.507,198.328 185.674,152.495 219.5,113C 207.626,74.9391 209.626,37.6058 225.5,1C 233.167,0.333333 240.833,0.333333 248.5,1C 271.577,5.70661 293.244,14.0399 313.5,26C 323.586,31.7914 333.419,37.958 343,44.5C 403.61,28.4383 464.777,26.2716 526.5,38C 535.194,39.537 543.694,41.7037 552,44.5C 578.761,24.8715 608.261,10.7049 640.5,2C 650.364,0.323266 660.197,0.156599 670,1.5C 685.415,38.0439 687.248,75.2105 675.5,113C 711.786,156.279 725.619,206.112 717,262.5C 715.577,281.215 711.744,299.382 705.5,317C 757.704,315.544 809.704,318.211 861.5,325C 873.324,326.568 884.991,328.735 896.5,331.5 Z"/></g>
<g><path style="opacity:1" fill="#221e1f" d="M 557.5,289.5 C 568.077,287.676 573.243,292.01 573,302.5C 570.426,309.148 565.593,311.648 558.5,310C 552.892,307.182 550.725,302.682 552,296.5C 552.967,293.379 554.8,291.046 557.5,289.5 Z"/></g>
<g><path style="opacity:1" fill="#221e1f" d="M 334.5,289.5 C 344.84,288.023 350.007,292.356 350,302.5C 347.386,309.157 342.553,311.657 335.5,310C 329.397,306.96 327.231,302.126 329,295.5C 330.36,292.977 332.193,290.977 334.5,289.5 Z"/></g>
<g><path style="opacity:1" fill="#a1a0a0" d="M 414.5,34.5 C 409.731,35.889 404.731,36.5557 399.5,36.5C 404.269,35.111 409.269,34.4443 414.5,34.5 Z"/></g>
<g><path style="opacity:1" fill="#a4a2a3" d="M 702.5,318.5 C 738.356,319.108 774.356,320.275 810.5,322C 837.778,323.956 864.778,327.79 891.5,333.5C 890.833,333.833 890.167,334.167 889.5,334.5C 831.299,324.153 772.632,319.82 713.5,321.5C 709.647,320.834 705.647,320.167 701.5,319.5C 701.624,318.893 701.957,318.56 702.5,318.5 Z"/></g>
<g><path style="opacity:1" fill="#969595" d="M 192.5,318.5 C 193.043,318.56 193.376,318.893 193.5,319.5C 189.353,320.167 185.353,320.834 181.5,321.5C 167.833,321.5 154.167,321.5 140.5,321.5C 139.662,321.158 139.328,320.492 139.5,319.5C 157.341,319.83 175.008,319.497 192.5,318.5 Z"/></g>
<g><path style="opacity:1" fill="#a5a3a4" d="M 100.5,321.5 C 101.167,321.5 101.5,321.833 101.5,322.5C 69.1196,324.387 36.9529,328.387 5,334.5C 4.5,334.167 4,333.833 3.5,333.5C 35.4308,326.467 67.7641,322.467 100.5,321.5 Z"/></g>
<g><path style="opacity:0.475" fill="#1f1b1c" d="M 100.5,318.5 C 100.5,319.5 100.5,320.5 100.5,321.5C 67.7641,322.467 35.4308,326.467 3.5,333.5C 4,333.833 4.5,334.167 5,334.5C 36.9529,328.387 69.1196,324.387 101.5,322.5C 102.11,323.391 102.443,324.391 102.5,325.5C 68.2436,327.365 34.2436,331.365 0.5,337.5C 0.5,335.167 0.5,332.833 0.5,330.5C 33.5678,324.367 66.9012,320.367 100.5,318.5 Z"/></g>
<g><path style="opacity:1" fill="#b1afb0" d="M 151.5,343.5 C 151.5,343.167 151.5,342.833 151.5,342.5C 167.462,340.899 183.462,340.399 199.5,341C 183.525,342.324 167.525,343.158 151.5,343.5 Z"/></g>
<g><path style="opacity:1" fill="#aaa8a8" d="M 695.5,341.5 C 744.453,341.511 793.12,346.344 841.5,356C 857.755,359.064 873.755,363.064 889.5,368C 825.8,352.62 761.134,343.787 695.5,341.5 Z"/></g>
<g><path style="opacity:1" fill="#241f1f" d="M 423.5,332.5 C 443.973,331.637 464.306,332.804 484.5,336C 493.425,337.74 500.925,341.907 507,348.5C 506.169,357.171 502.836,364.837 497,371.5C 479.387,391.26 457.554,398.426 431.5,393C 410.438,386.104 396.105,372.271 388.5,351.5C 390.606,346.226 394.273,342.393 399.5,340C 407.382,336.757 415.382,334.257 423.5,332.5 Z"/></g>
<g><path style="opacity:1" fill="#2e2626" d="M 476.5,344.5 C 474.405,345.412 472.405,346.579 470.5,348C 467.961,348.796 465.628,348.629 463.5,347.5C 469.843,348.245 474.01,345.578 476,339.5C 476.494,341.134 476.66,342.801 476.5,344.5 Z"/></g>
<g><path style="opacity:1" fill="#f4f5f5" d="M 480.5,350.5 C 479.154,348.463 477.82,346.463 476.5,344.5C 476.66,342.801 476.494,341.134 476,339.5C 474.01,345.578 469.843,348.245 463.5,347.5C 459.345,344.18 457.678,339.846 458.5,334.5C 464.172,334.867 469.839,335.367 475.5,336C 476.421,337.756 477.588,337.923 479,336.5C 484.137,337.987 489.303,339.321 494.5,340.5C 494.009,349.656 489.342,352.99 480.5,350.5 Z"/></g>
<g><path style="opacity:1" fill="#ac5b50" d="M 463.5,347.5 C 465.628,348.629 467.961,348.796 470.5,348C 472.405,346.579 474.405,345.412 476.5,344.5C 477.82,346.463 479.154,348.463 480.5,350.5C 485.356,353.495 489.856,352.828 494,348.5C 495.009,346.975 495.509,345.308 495.5,343.5C 504.836,345.721 507.003,351.054 502,359.5C 499.984,363.542 497.484,367.209 494.5,370.5C 469.382,364.597 444.049,363.43 418.5,367C 413.062,368.203 407.729,369.703 402.5,371.5C 396.569,365.305 393.069,357.971 392,349.5C 396.613,343.612 402.446,340.612 409.5,340.5C 410.89,341.899 411.89,343.566 412.5,345.5C 412.953,346.458 413.619,347.292 414.5,348C 424.143,349.53 429.143,345.364 429.5,335.5C 438.46,334.585 447.46,334.252 456.5,334.5C 456,340.508 458.333,344.841 463.5,347.5 Z"/></g>
<g><path style="opacity:1" fill="#f5f5f5" d="M 412.5,345.5 C 411.89,343.566 410.89,341.899 409.5,340.5C 409.5,339.5 409.5,338.5 409.5,337.5C 415.42,336.183 421.42,335.517 427.5,335.5C 427.202,346.14 422.202,349.473 412.5,345.5 Z"/></g>
<g><path style="opacity:1" fill="#a5a4a4" d="M 113.5,346.5 C 113.833,347.167 114.167,347.833 114.5,348.5C 96.7324,350.19 79.0657,352.69 61.5,356C 42.758,360.022 24.0914,364.022 5.5,368C 40.8082,357.705 76.8082,350.538 113.5,346.5 Z"/></g>
<g><path style="opacity:0.684" fill="#1f1b1c" d="M 111.5,344.5 C 112.5,344.833 113.167,345.5 113.5,346.5C 76.8082,350.538 40.8082,357.705 5.5,368C 24.0914,364.022 42.758,360.022 61.5,356C 79.0657,352.69 96.7324,350.19 114.5,348.5C 114.5,349.167 114.5,349.833 114.5,350.5C 76.6605,355.251 39.3271,362.584 2.5,372.5C 2.32588,370.139 1.99255,367.806 1.5,365.5C 37.5862,355.486 74.2529,348.486 111.5,344.5 Z"/></g>
<g><path style="opacity:1" fill="#4a312f" d="M 494.5,370.5 C 493.833,371.167 493.167,371.833 492.5,372.5C 467.459,365.988 442.126,364.822 416.5,369C 413.107,369.798 409.774,370.798 406.5,372C 405.244,372.417 404.577,373.25 404.5,374.5C 403.599,373.71 402.932,372.71 402.5,371.5C 407.729,369.703 413.062,368.203 418.5,367C 444.049,363.43 469.382,364.597 494.5,370.5 Z"/></g>
<g><path style="opacity:1" fill="#ec7c71" d="M 492.5,372.5 C 472.961,392.842 449.961,398.009 423.5,388C 416.454,384.446 410.12,379.946 404.5,374.5C 404.577,373.25 405.244,372.417 406.5,372C 409.774,370.798 413.107,369.798 416.5,369C 442.126,364.822 467.459,365.988 492.5,372.5 Z"/></g>
<g><path style="opacity:1" fill="#373e63" d="M 176.5,410.5 C 169.062,413.385 162.062,417.052 155.5,421.5C 147.74,425.043 139.74,428.043 131.5,430.5C 129.617,430.124 128.117,429.124 127,427.5C 123.584,423.169 121.084,418.336 119.5,413C 123.857,406.154 129.524,400.654 136.5,396.5C 138.199,397.511 139.699,398.845 141,400.5C 152.339,397.996 162.672,393.329 172,386.5C 171.563,384.243 171.063,381.91 170.5,379.5C 177.594,377.602 184.761,375.935 192,374.5C 192.833,374.833 193.667,375.167 194.5,375.5C 198.088,381.675 201.422,388.009 204.5,394.5C 195.763,400.869 186.43,406.202 176.5,410.5 Z"/></g>
<g><path style="opacity:1" fill="#010103" d="M 192.5,380.5 C 195.868,384.202 198.535,388.536 200.5,393.5C 181.014,405.577 160.68,416.077 139.5,425C 138.365,425.749 137.365,425.583 136.5,424.5C 137.833,423.833 139.167,423.167 140.5,422.5C 139.5,421.833 138.5,421.167 137.5,420.5C 138.776,419.355 140.109,419.355 141.5,420.5C 142.386,419.675 142.719,418.675 142.5,417.5C 141.167,417.5 139.833,417.5 138.5,417.5C 138.785,415.712 138.452,414.045 137.5,412.5C 136.614,413.325 136.281,414.325 136.5,415.5C 135.5,415.5 134.5,415.5 133.5,415.5C 133.67,414.178 133.337,413.011 132.5,412C 151.747,404.042 170.414,395.042 188.5,385C 190.041,383.629 191.375,382.129 192.5,380.5 Z"/></g>
<g><path style="opacity:0.978" fill="#010100" d="M 179.5,416.5 C 200.253,420.122 216.753,430.456 229,447.5C 255.26,494.795 293.427,507.462 343.5,485.5C 344.635,483.293 345.301,480.96 345.5,478.5C 358.249,491.042 373.249,499.709 390.5,504.5C 386.944,513.667 384.944,523.167 384.5,533C 385.495,559.426 385.828,585.926 385.5,612.5C 384.596,613.209 384.263,614.209 384.5,615.5C 386.197,633.949 379.863,648.783 365.5,660C 357.814,664.278 349.814,667.444 341.5,669.5C 332.512,671.52 323.512,671.853 314.5,670.5C 307.967,665.882 307.967,661.048 314.5,656C 325.683,651.316 333.683,643.482 338.5,632.5C 339.338,632.158 339.672,631.492 339.5,630.5C 342.547,621.563 343.214,612.563 341.5,603.5C 341.667,583.831 341.5,564.164 341,544.5C 314.257,551.838 287.757,551.005 261.5,542C 241.567,534.066 226.734,520.566 217,501.5C 214.824,494.446 211.99,487.78 208.5,481.5C 214.04,474.408 214.873,466.742 211,458.5C 208.914,455.906 206.414,453.906 203.5,452.5C 199.262,450.099 195.762,446.766 193,442.5C 190.959,438.916 188.792,435.416 186.5,432C 187.416,431.722 188.082,431.222 188.5,430.5C 192.392,429.258 193.392,426.758 191.5,423C 190.255,422.209 188.922,421.709 187.5,421.5C 185.369,420.686 183.036,420.186 180.5,420C 179.663,418.989 179.33,417.822 179.5,416.5 Z"/></g>
<g><path style="opacity:1" fill="#0b0c13" d="M 129.5,421.5 C 133.527,421.26 134.861,422.926 133.5,426.5C 129.322,427.314 127.989,425.647 129.5,421.5 Z"/></g>
<g><path style="opacity:1" fill="#c1e1d6" d="M 187.5,421.5 C 188.922,421.709 190.255,422.209 191.5,423C 193.392,426.758 192.392,429.258 188.5,430.5C 186.983,430.489 185.816,429.823 185,428.5C 184.086,426.336 182.919,424.336 181.5,422.5C 183.396,421.534 185.396,421.201 187.5,421.5 Z"/></g>
<g><path style="opacity:1" fill="#c3e3d8" d="M 201.5,432.5 C 204.978,432.184 208.312,432.684 211.5,434C 213.354,437.726 212.354,440.392 208.5,442C 203.245,443.808 199.911,442.141 198.5,437C 198.557,434.791 199.557,433.291 201.5,432.5 Z"/></g>
<g><path style="opacity:1" fill="#9ed09c" d="M 547.5,442.5 C 545.529,444.808 543.529,447.142 541.5,449.5C 537.629,444.444 533.296,439.777 528.5,435.5C 534.794,434.22 541.127,433.22 547.5,432.5C 547.5,435.833 547.5,439.167 547.5,442.5 Z"/></g>
<g><path style="opacity:1" fill="#97cd93" d="M 357.5,434.5 C 361.95,434.421 366.283,435.088 370.5,436.5C 365.792,440.207 361.792,444.54 358.5,449.5C 357.506,444.544 357.173,439.544 357.5,434.5 Z"/></g>
<g><path style="opacity:1" fill="#01799f" d="M 541.5,486.5 C 537.936,472.035 530.77,459.702 520,449.5C 519.817,452.365 519.317,455.031 518.5,457.5C 518.5,450.5 518.5,443.5 518.5,436.5C 521.649,436.211 524.649,436.711 527.5,438C 540.243,448.706 547.743,462.206 550,478.5C 547.953,482.048 545.12,484.715 541.5,486.5 Z"/></g>
<g><path style="opacity:1" fill="#9fd29d" d="M 389.5,465.5 C 387.394,468.36 384.728,469.026 381.5,467.5C 380.195,457.533 379.195,447.533 378.5,437.5C 381.167,437.5 383.833,437.5 386.5,437.5C 387.992,446.774 388.992,456.107 389.5,465.5 Z"/></g>
<g><path style="opacity:1" fill="#0397c6" d="M 389.5,438.5 C 428.167,438.5 466.833,438.5 505.5,438.5C 505.533,455.655 504.033,472.655 501,489.5C 500.085,498.147 499.418,506.814 499,515.5C 496.205,517.646 493.039,518.813 489.5,519C 465.191,521.736 440.858,522.07 416.5,520C 410.934,519.787 405.601,518.621 400.5,516.5C 399.668,508.521 399.168,500.521 399,492.5C 396.23,485.089 394.23,477.422 393,469.5C 391.803,459.163 390.636,448.829 389.5,438.5 Z"/></g>
<g><path style="opacity:1" fill="#9bcc99" d="M 515.5,469.5 C 515.66,467.801 515.494,466.134 515,464.5C 512.257,465.917 509.757,465.584 507.5,463.5C 507.5,454.833 507.5,446.167 507.5,437.5C 510.5,437.5 513.5,437.5 516.5,437.5C 516.828,448.346 516.494,459.013 515.5,469.5 Z"/></g>
<g><path style="opacity:1" fill="#0296c5" d="M 373.5,436.5 C 374.5,436.5 375.5,436.5 376.5,436.5C 377.801,451.179 379.301,465.846 381,480.5C 382.657,485.819 384.323,491.153 386,496.5C 387.5,498 389,499.5 390.5,501C 385.929,501.259 381.596,500.259 377.5,498C 370.243,494.4 363.243,490.4 356.5,486C 353.238,483.246 350.571,480.079 348.5,476.5C 352.811,460.521 361.145,447.188 373.5,436.5 Z"/></g>
<g><path style="opacity:1" fill="#f4b03e" d="M 481.5,448.5 C 477.149,447.533 474.815,449.2 474.5,453.5C 472.446,453.635 470.779,452.968 469.5,451.5C 469.5,450.833 469.167,450.5 468.5,450.5C 468.5,449.833 468.167,449.5 467.5,449.5C 466.5,448.833 465.5,448.167 464.5,447.5C 469.416,446.389 474.416,446.222 479.5,447C 480.416,447.278 481.082,447.778 481.5,448.5 Z"/></g>
<g><path style="opacity:1" fill="#c1e0d5" d="M 214.5,446.5 C 220.704,445.247 224.204,447.581 225,453.5C 221.662,456.318 217.829,457.151 213.5,456C 209.379,452.329 209.712,449.163 214.5,446.5 Z"/></g>
<g><path style="opacity:1" fill="#60b34e" d="M 547.5,442.5 C 547.732,447.046 546.899,451.379 545,455.5C 543.606,453.612 542.44,451.612 541.5,449.5C 543.529,447.142 545.529,444.808 547.5,442.5 Z"/></g>
<g><path style="opacity:1" fill="#0198c7" d="M 541.5,486.5 C 531.759,494.542 520.759,499.542 508.5,501.5C 508.167,500.833 507.833,500.167 507.5,499.5C 510.868,498.298 513.034,495.965 514,492.5C 516.389,480.942 517.889,469.275 518.5,457.5C 519.317,455.031 519.817,452.365 520,449.5C 530.77,459.702 537.936,472.035 541.5,486.5 Z"/></g>
<g><path style="opacity:1" fill="#201c1e" d="M 176.5,410.5 C 177.5,412.5 178.5,414.5 179.5,416.5C 179.33,417.822 179.663,418.989 180.5,420C 183.036,420.186 185.369,420.686 187.5,421.5C 185.396,421.201 183.396,421.534 181.5,422.5C 182.919,424.336 184.086,426.336 185,428.5C 185.816,429.823 186.983,430.489 188.5,430.5C 188.082,431.222 187.416,431.722 186.5,432C 188.792,435.416 190.959,438.916 193,442.5C 195.762,446.766 199.262,450.099 203.5,452.5C 202.624,452.369 201.957,452.702 201.5,453.5C 212.138,459.548 214.305,467.881 208,478.5C 197.374,486.473 188.707,484.806 182,473.5C 182.083,469.689 181.25,466.355 179.5,463.5C 171.5,449.5 163.5,435.5 155.5,421.5C 162.062,417.052 169.062,413.385 176.5,410.5 Z"/></g>
<g><path style="opacity:1" fill="#7e8083" d="M 188.5,446.5 C 192.478,445.966 195.478,447.466 197.5,451C 191.785,454.096 185.785,456.096 179.5,457C 177.968,454.966 176.635,452.799 175.5,450.5C 179.978,449.268 184.312,447.935 188.5,446.5 Z"/></g>
<g><path style="opacity:1" fill="#7f8184" d="M 181.5,432.5 C 183.544,433.031 185.211,434.198 186.5,436C 183.167,438.667 179.833,441.333 176.5,444C 173.062,446.367 171.562,445.534 172,441.5C 175.667,438.999 178.834,435.999 181.5,432.5 Z"/></g>
<g><path style="opacity:1" fill="#7d7f82" d="M 171.5,423.5 C 177.792,421.984 180.958,424.317 181,430.5C 179.745,431.211 178.579,432.044 177.5,433C 173.514,433.499 169.514,433.666 165.5,433.5C 165.343,432.127 165.51,430.793 166,429.5C 168.04,427.63 169.873,425.63 171.5,423.5 Z"/></g>
<g><path style="opacity:1" fill="#818386" d="M 172.5,414.5 C 175.246,414.928 176.913,416.594 177.5,419.5C 171.709,421.933 165.709,422.766 159.5,422C 163.896,419.473 168.229,416.973 172.5,414.5 Z"/></g>
<g><path style="opacity:1" fill="#b18033" d="M 464.5,447.5 C 465.5,448.167 466.5,448.833 467.5,449.5C 464.433,449.016 462.433,450.182 461.5,453C 461.639,454.301 462.305,455.134 463.5,455.5C 467.207,457.163 469.207,455.829 469.5,451.5C 470.779,452.968 472.446,453.635 474.5,453.5C 475.5,453.833 476.167,454.5 476.5,455.5C 478.139,457.942 480.139,458.109 482.5,456C 484.863,453.916 484.863,452.083 482.5,450.5C 482.167,449.833 481.833,449.167 481.5,448.5C 483.411,449.075 485.078,450.075 486.5,451.5C 486.354,453.78 486.687,456.113 487.5,458.5C 477.167,458.5 466.833,458.5 456.5,458.5C 456.5,457.5 456.5,456.5 456.5,455.5C 458.485,455.141 459.151,454.308 458.5,453C 460.189,450.747 462.189,448.914 464.5,447.5 Z"/></g>
<g><path style="opacity:1" fill="#0e0f1b" d="M 470.5,455.5 C 471.978,455.238 473.311,455.571 474.5,456.5C 472.926,457.631 471.259,457.798 469.5,457C 470.056,456.617 470.389,456.117 470.5,455.5 Z"/></g>
<g><path style="opacity:1" fill="#26252a" d="M 468.5,450.5 C 469.167,450.5 469.5,450.833 469.5,451.5C 469.207,455.829 467.207,457.163 463.5,455.5C 466.833,455.5 468.5,453.833 468.5,450.5 Z"/></g>
<g><path style="opacity:1" fill="#4e3f35" d="M 482.5,450.5 C 484.863,452.083 484.863,453.916 482.5,456C 480.139,458.109 478.139,457.942 476.5,455.5C 480.938,456.575 482.938,454.908 482.5,450.5 Z"/></g>
<g><path style="opacity:1" fill="#f2f0ed" d="M 481.5,448.5 C 481.833,449.167 482.167,449.833 482.5,450.5C 482.938,454.908 480.938,456.575 476.5,455.5C 476.167,454.5 475.5,453.833 474.5,453.5C 474.815,449.2 477.149,447.533 481.5,448.5 Z"/></g>
<g><path style="opacity:1" fill="#e9ebef" d="M 467.5,449.5 C 468.167,449.5 468.5,449.833 468.5,450.5C 468.5,453.833 466.833,455.5 463.5,455.5C 462.305,455.134 461.639,454.301 461.5,453C 462.433,450.182 464.433,449.016 467.5,449.5 Z"/></g>
<g><path style="opacity:1" fill="#195a71" d="M 486.5,451.5 C 487.999,452.678 488.999,454.345 489.5,456.5C 490.609,455.41 491.609,455.41 492.5,456.5C 493.748,459.494 493.748,462.494 492.5,465.5C 491.304,465.154 491.304,464.654 492.5,464C 483.263,463.463 483.263,462.63 492.5,461.5C 492.475,457.716 490.808,456.716 487.5,458.5C 486.687,456.113 486.354,453.78 486.5,451.5 Z"/></g>
<g><path style="opacity:1" fill="#135e77" d="M 456.5,455.5 C 456.5,456.5 456.5,457.5 456.5,458.5C 455.849,457.909 455.182,457.243 454.5,456.5C 453.369,458.074 453.202,459.741 454,461.5C 455.388,460.446 456.888,460.28 458.5,461C 456.699,461.317 456.366,461.984 457.5,463C 468.348,465.918 479.348,466.918 490.5,466C 479.213,468.216 468.046,467.716 457,464.5C 456.127,464.735 455.293,465.069 454.5,465.5C 452.817,462.398 452.151,459.064 452.5,455.5C 453.833,455.5 455.167,455.5 456.5,455.5 Z"/></g>
<g><path style="opacity:1" fill="#beddd3" d="M 224.5,463.5 C 228.839,462.846 232.673,463.846 236,466.5C 237.042,469.804 235.875,471.971 232.5,473C 229.833,473.667 227.167,473.667 224.5,473C 220.581,469.84 220.581,466.673 224.5,463.5 Z"/></g>
<g><path style="opacity:1" fill="#60b24e" d="M 507.5,463.5 C 509.757,465.584 512.257,465.917 515,464.5C 515.494,466.134 515.66,467.801 515.5,469.5C 515.126,477.282 513.96,484.948 512,492.5C 510.68,496.182 508.18,497.682 504.5,497C 503.371,492.921 503.204,488.755 504,484.5C 505.26,477.376 506.427,470.376 507.5,463.5 Z"/></g>
<g><path style="opacity:1" fill="#60b44e" d="M 389.5,465.5 C 391.623,474.918 393.956,484.418 396.5,494C 395.036,500.699 392.203,501.199 388,495.5C 384.367,486.499 382.2,477.166 381.5,467.5C 384.728,469.026 387.394,468.36 389.5,465.5 Z"/></g>
<g><path style="opacity:1" fill="#1d1847" d="M 191.5,460.5 C 201.789,458.367 205.955,462.367 204,472.5C 201.72,476.768 198.22,478.268 193.5,477C 186.356,472.3 185.689,466.8 191.5,460.5 Z"/></g>
<g><path style="opacity:1" fill="#bf1e2c" d="M 193.5,462.5 C 202.818,462.655 204.818,466.488 199.5,474C 190.096,474.141 188.096,470.308 193.5,462.5 Z"/></g>
<g><path style="opacity:0.977" fill="#000100" d="M 551.5,469.5 C 554.136,481.555 555.97,493.889 557,506.5C 557.826,543.571 557.66,580.571 556.5,617.5C 556.5,618.5 556.5,619.5 556.5,620.5C 559.367,637.523 568.7,649.357 584.5,656C 587.981,658.766 589.481,662.266 589,666.5C 587.961,667.71 586.794,668.71 585.5,669.5C 581.891,671.044 578.057,671.71 574,671.5C 568.393,671.515 562.893,670.848 557.5,669.5C 527.3,663.63 512.633,645.297 513.5,614.5C 513.5,613.833 513.5,613.167 513.5,612.5C 513.667,583.165 513.5,553.831 513,524.5C 512.568,518.433 511.068,512.767 508.5,507.5C 508.5,506.5 508.5,505.5 508.5,504.5C 521.6,501.451 533.6,495.951 544.5,488C 547.372,485.463 549.872,482.63 552,479.5C 552.388,476.151 552.221,472.817 551.5,469.5 Z"/></g>
<g><path style="opacity:0.809" fill="#191948" d="M 203.5,452.5 C 206.414,453.906 208.914,455.906 211,458.5C 214.873,466.742 214.04,474.408 208.5,481.5C 201.33,487.547 193.663,488.047 185.5,483C 179.121,477.706 177.121,471.206 179.5,463.5C 181.25,466.355 182.083,469.689 182,473.5C 188.707,484.806 197.374,486.473 208,478.5C 214.305,467.881 212.138,459.548 201.5,453.5C 201.957,452.702 202.624,452.369 203.5,452.5 Z"/></g>
<g><path style="opacity:1" fill="#c0dfd4" d="M 236.5,479.5 C 239.518,479.335 242.518,479.502 245.5,480C 249.701,483.523 249.368,486.523 244.5,489C 239.226,490.734 235.559,489.067 233.5,484C 234.315,482.357 235.315,480.857 236.5,479.5 Z"/></g>
<g><path style="opacity:1" fill="#bfded3" d="M 254.5,492.5 C 258.516,491.9 262.016,492.9 265,495.5C 266.042,498.804 264.875,500.971 261.5,502C 258.833,502.667 256.167,502.667 253.5,502C 249.379,498.329 249.712,495.163 254.5,492.5 Z"/></g>
<g><path style="opacity:1" fill="#c2e3d7" d="M 324.5,497.5 C 328.516,496.9 332.016,497.9 335,500.5C 335.501,505.17 333.334,507.503 328.5,507.5C 320.33,506.519 318.996,503.185 324.5,497.5 Z"/></g>
<g><path style="opacity:1" fill="#5dac4c" d="M 393.5,500.5 C 394.5,500.5 395.5,500.5 396.5,500.5C 395.754,504.31 394.754,504.31 393.5,500.5 Z"/></g>
<g><path style="opacity:1" fill="#5eaf4d" d="M 502.5,498.5 C 505.068,499.574 506.735,501.574 507.5,504.5C 506.086,505.624 504.586,506.624 503,507.5C 502.502,504.518 502.335,501.518 502.5,498.5 Z"/></g>
<g><path style="opacity:1" fill="#c4e4d9" d="M 277.5,501.5 C 281.603,500.769 285.103,501.769 288,504.5C 289.042,507.804 287.875,509.971 284.5,511C 279.245,512.808 275.911,511.141 274.5,506C 274.557,503.791 275.557,502.291 277.5,501.5 Z"/></g>
<g><path style="opacity:1" fill="#c2e2d7" d="M 300.5,501.5 C 303.978,501.184 307.312,501.684 310.5,503C 312.124,506.206 311.458,508.872 308.5,511C 305.833,511.667 303.167,511.667 300.5,511C 296.581,507.84 296.581,504.673 300.5,501.5 Z"/></g>
<g><path style="opacity:1" fill="#0066bc" d="M 495.5,520.5 C 494.68,538.093 494.18,555.76 494,573.5C 485.428,578.1 476.262,580.1 466.5,579.5C 462.356,579.223 458.689,577.89 455.5,575.5C 455.5,567.167 455.5,558.833 455.5,550.5C 451.445,550.824 447.445,550.491 443.5,549.5C 443.192,548.692 442.692,548.025 442,547.5C 441.667,555.5 441.333,563.5 441,571.5C 436.942,574.3 432.442,576.134 427.5,577C 420.88,578.137 414.214,578.637 407.5,578.5C 404.253,578.585 401.419,577.585 399,575.5C 398.5,556.503 398.333,537.503 398.5,518.5C 413.987,522.461 429.82,524.128 446,523.5C 462.561,523.434 479.061,522.434 495.5,520.5 Z"/></g>
<g><path style="opacity:1" fill="#025092" d="M 466.5,579.5 C 476.262,580.1 485.428,578.1 494,573.5C 494.18,555.76 494.68,538.093 495.5,520.5C 496.78,519.069 498.447,518.402 500.5,518.5C 501.525,537.489 501.691,556.489 501,575.5C 496.357,578.601 491.191,580.101 485.5,580C 478.986,580.82 472.653,580.653 466.5,579.5 Z"/></g>
<g><path style="opacity:1" fill="#055090" d="M 455.5,575.5 C 454.508,567.684 454.174,559.684 454.5,551.5C 451.167,551.5 447.833,551.5 444.5,551.5C 444.816,559.752 444.482,567.919 443.5,576C 440.754,577.75 437.754,578.75 434.5,579C 425.324,579.824 416.324,579.657 407.5,578.5C 414.214,578.637 420.88,578.137 427.5,577C 432.442,576.134 436.942,574.3 441,571.5C 441.333,563.5 441.667,555.5 442,547.5C 442.692,548.025 443.192,548.692 443.5,549.5C 447.445,550.491 451.445,550.824 455.5,550.5C 455.5,558.833 455.5,567.167 455.5,575.5 Z"/></g>
<g><path style="opacity:0.987" fill="#020201" d="M 397.5,578.5 C 412.7,583.492 428.033,583.826 443.5,579.5C 443.5,589.5 443.5,599.5 443.5,609.5C 442.596,610.209 442.263,611.209 442.5,612.5C 442.169,619.863 442.503,627.197 443.5,634.5C 447.17,636.474 448.337,639.474 447,643.5C 444.87,646.23 442.203,648.23 439,649.5C 432.712,667.286 420.878,679.619 403.5,686.5C 396.635,688.406 389.635,689.406 382.5,689.5C 380.248,689.084 378.748,687.751 378,685.5C 377.119,678.258 379.785,672.592 386,668.5C 390.54,661.755 393.706,654.421 395.5,646.5C 391.459,643.424 389.959,639.424 391,634.5C 392.509,632.081 394.675,631.081 397.5,631.5C 398.732,624.976 398.732,618.309 397.5,611.5C 397.5,600.5 397.5,589.5 397.5,578.5 Z"/></g>
<g><path style="opacity:0.979" fill="#020302" d="M 454.5,578.5 C 457.814,579.664 461.148,580.83 464.5,582C 476.992,583.088 489.326,582.255 501.5,579.5C 501.5,589.833 501.5,600.167 501.5,610.5C 500.566,611.568 500.232,612.901 500.5,614.5C 500.5,620.167 500.5,625.833 500.5,631.5C 506.82,631.32 509.32,634.32 508,640.5C 507.047,642.455 505.713,644.122 504,645.5C 505.092,657.017 509.925,666.684 518.5,674.5C 519.456,676.075 520.123,677.742 520.5,679.5C 521.186,683.287 520.186,686.454 517.5,689C 509.882,690.101 502.548,689.268 495.5,686.5C 478.04,679.541 466.207,667.207 460,649.5C 450.231,645.544 449.064,639.877 456.5,632.5C 455.576,625.872 455.243,619.206 455.5,612.5C 455.5,611.5 455.5,610.5 455.5,609.5C 454.867,599.179 454.534,588.845 454.5,578.5 Z"/></g>
<g><path style="opacity:1" fill="#e7d9a1" d="M 320.5,618.5 C 321.978,621.366 323.311,624.366 324.5,627.5C 320.488,628.698 316.488,628.698 312.5,627.5C 312.5,626.833 312.167,626.5 311.5,626.5C 309.887,621.993 309.221,617.327 309.5,612.5C 305.197,612.037 303.364,609.704 304,605.5C 304.437,608.772 306.27,610.439 309.5,610.5C 309.328,605.003 311.328,600.503 315.5,597C 316.833,596.333 318.167,596.333 319.5,597C 320.137,599.243 320.47,601.576 320.5,604C 319.745,608.85 318.912,613.684 318,618.5C 316.672,607.833 316.005,607.833 316,618.5C 317.432,620.931 318.932,620.931 320.5,618.5 Z"/></g>
<g><path style="opacity:1" fill="#aa6862" d="M 341.5,603.5 C 343.214,612.563 342.547,621.563 339.5,630.5C 335.833,630.5 332.167,630.5 328.5,630.5C 322.942,630.999 317.608,630.333 312.5,628.5C 312.5,628.167 312.5,627.833 312.5,627.5C 316.488,628.698 320.488,628.698 324.5,627.5C 323.311,624.366 321.978,621.366 320.5,618.5C 320.547,615.031 321.213,611.698 322.5,608.5C 323.977,606.193 325.977,604.36 328.5,603C 332.92,602.232 337.253,602.398 341.5,603.5 Z"/></g>
<g><path style="opacity:1" fill="#004a0a" d="M 443.5,609.5 C 447.5,609.5 451.5,609.5 455.5,609.5C 455.5,610.5 455.5,611.5 455.5,612.5C 451.167,612.5 446.833,612.5 442.5,612.5C 442.263,611.209 442.596,610.209 443.5,609.5 Z"/></g>
<g><path style="opacity:1" fill="#014a09" d="M 501.5,610.5 C 505.336,611.378 509.336,612.044 513.5,612.5C 513.5,613.167 513.5,613.833 513.5,614.5C 509.167,614.5 504.833,614.5 500.5,614.5C 500.232,612.901 500.566,611.568 501.5,610.5 Z"/></g>
<g><path style="opacity:1" fill="#154f11" d="M 397.5,611.5 C 398.732,618.309 398.732,624.976 397.5,631.5C 397.5,626.167 397.5,620.833 397.5,615.5C 393.167,615.5 388.833,615.5 384.5,615.5C 384.263,614.209 384.596,613.209 385.5,612.5C 389.566,612.693 393.566,612.36 397.5,611.5 Z"/></g>
<g><path style="opacity:0.242" fill="#4d4840" d="M 322.5,608.5 C 321.213,611.698 320.547,615.031 320.5,618.5C 318.932,620.931 317.432,620.931 316,618.5C 316.005,607.833 316.672,607.833 318,618.5C 318.912,613.684 319.745,608.85 320.5,604C 320.47,601.576 320.137,599.243 319.5,597C 318.167,596.333 316.833,596.333 315.5,597C 311.328,600.503 309.328,605.003 309.5,610.5C 306.27,610.439 304.437,608.772 304,605.5C 303.364,609.704 305.197,612.037 309.5,612.5C 309.221,617.327 309.887,621.993 311.5,626.5C 310.833,626.167 310.167,625.833 309.5,625.5C 308.177,621.623 307.177,617.623 306.5,613.5C 302.347,611.861 300.847,608.861 302,604.5C 303.049,603.483 304.216,603.316 305.5,604C 306.09,605.509 306.756,607.009 307.5,608.5C 308.336,603.457 310.502,599.123 314,595.5C 313.988,592.349 314.988,589.682 317,587.5C 318.897,589.016 321.064,589.683 323.5,589.5C 323.534,592.199 322.867,594.699 321.5,597C 322.46,600.73 322.793,604.563 322.5,608.5 Z M 318.5,590.5 C 319.844,592.185 319.677,593.852 318,595.5C 318.019,593.893 318.185,592.226 318.5,590.5 Z"/></g>
<g><path style="opacity:1" fill="#8ee556" d="M 500.5,614.5 C 504.833,614.5 509.167,614.5 513.5,614.5C 512.633,645.297 527.3,663.63 557.5,669.5C 549.5,671.488 541.834,674.655 534.5,679C 530.65,681.854 527.15,685.021 524,688.5C 522.209,685.65 521.042,682.65 520.5,679.5C 520.123,677.742 519.456,676.075 518.5,674.5C 509.925,666.684 505.092,657.017 504,645.5C 505.713,644.122 507.047,642.455 508,640.5C 509.32,634.32 506.82,631.32 500.5,631.5C 500.5,625.833 500.5,620.167 500.5,614.5 Z"/></g>
<g><path style="opacity:1" fill="#8ee556" d="M 384.5,615.5 C 388.833,615.5 393.167,615.5 397.5,615.5C 397.5,620.833 397.5,626.167 397.5,631.5C 394.675,631.081 392.509,632.081 391,634.5C 389.959,639.424 391.459,643.424 395.5,646.5C 393.706,654.421 390.54,661.755 386,668.5C 379.785,672.592 377.119,678.258 378,685.5C 378.748,687.751 380.248,689.084 382.5,689.5C 384.969,690.317 387.635,690.817 390.5,691C 385.848,692.193 381.681,691.36 378,688.5C 378.263,689.951 378.096,691.284 377.5,692.5C 373.65,686.484 368.65,681.65 362.5,678C 355.509,674.844 348.509,672.01 341.5,669.5C 349.814,667.444 357.814,664.278 365.5,660C 379.863,648.783 386.197,633.949 384.5,615.5 Z"/></g>
<g><path style="opacity:1" fill="#8ee556" d="M 556.5,620.5 C 595.382,626.073 632.382,637.573 667.5,655C 682,662.833 693.167,674 701,688.5C 704.278,702.055 701.278,714.055 692,724.5C 675.978,739.602 657.478,750.769 636.5,758C 610.599,767.642 583.932,774.142 556.5,777.5C 556.062,777.565 555.728,777.399 555.5,777C 556.039,755.189 556.872,733.356 558,711.5C 562.742,697.757 571.909,688.257 585.5,683C 587.476,680.853 588.809,678.353 589.5,675.5C 588.568,673.235 587.235,671.235 585.5,669.5C 586.794,668.71 587.961,667.71 589,666.5C 589.481,662.266 587.981,658.766 584.5,656C 568.7,649.357 559.367,637.523 556.5,620.5 Z"/></g>
<g><path style="opacity:1" fill="#8ee556" d="M 442.5,612.5 C 446.833,612.5 451.167,612.5 455.5,612.5C 455.243,619.206 455.576,625.872 456.5,632.5C 449.064,639.877 450.231,645.544 460,649.5C 466.207,667.207 478.04,679.541 495.5,686.5C 471.739,695.932 458.572,713.599 456,739.5C 455.5,754.496 455.333,769.496 455.5,784.5C 463.352,784.175 471.018,784.508 478.5,785.5C 461.159,786.764 443.826,786.764 426.5,785.5C 431.64,784.512 436.974,784.179 442.5,784.5C 442.667,768.163 442.5,751.83 442,735.5C 438.575,711.595 425.742,695.262 403.5,686.5C 420.878,679.619 432.712,667.286 439,649.5C 442.203,648.23 444.87,646.23 447,643.5C 448.337,639.474 447.17,636.474 443.5,634.5C 442.503,627.197 442.169,619.863 442.5,612.5 Z"/></g>
<g><path style="opacity:0.638" fill="#044d0b" d="M 556.5,617.5 C 589.634,622.283 621.634,631.117 652.5,644C 670.867,651.709 686.367,663.209 699,678.5C 708.387,694.522 707.387,709.855 696,724.5C 678.654,741.934 658.154,754.434 634.5,762C 587.904,777.319 540.238,786.153 491.5,788.5C 465.5,788.5 439.5,788.5 413.5,788.5C 368.036,785.977 323.369,778.144 279.5,765C 256.323,757.914 235.323,746.914 216.5,732C 193.735,709.698 194.068,687.698 217.5,666C 238.824,649.839 262.491,638.172 288.5,631C 295.39,628.694 302.39,626.861 309.5,625.5C 310.167,625.833 310.833,626.167 311.5,626.5C 312.167,626.5 312.5,626.833 312.5,627.5C 312.5,627.833 312.5,628.167 312.5,628.5C 280.612,634.181 251.279,646.014 224.5,664C 216.551,670.617 210.051,678.45 205,687.5C 201.559,699.825 203.559,711.158 211,721.5C 226.383,737.452 244.55,749.285 265.5,757C 289.559,765.845 314.226,772.345 339.5,776.5C 354.19,779.802 369.19,781.802 384.5,782.5C 388.064,783.423 391.731,783.756 395.5,783.5C 405.624,785.07 415.958,785.736 426.5,785.5C 443.826,786.764 461.159,786.764 478.5,785.5C 483.032,785.818 487.366,785.485 491.5,784.5C 498.186,784.473 504.852,784.139 511.5,783.5C 526.804,782.608 541.804,780.608 556.5,777.5C 583.932,774.142 610.599,767.642 636.5,758C 657.478,750.769 675.978,739.602 692,724.5C 701.278,714.055 704.278,702.055 701,688.5C 693.167,674 682,662.833 667.5,655C 632.382,637.573 595.382,626.073 556.5,620.5C 556.5,619.5 556.5,618.5 556.5,617.5 Z"/></g>
<g><path style="opacity:1" fill="#064c0c" d="M 618.5,720.5 C 620.636,721.719 622.969,722.552 625.5,723C 626.554,724.388 626.72,725.888 626,727.5C 618.675,730.68 616.175,728.347 618.5,720.5 Z"/></g>
<g><path style="opacity:1" fill="#8ee556" d="M 395.5,783.5 C 391.731,783.756 388.064,783.423 384.5,782.5C 384.667,757.831 384.5,733.164 384,708.5C 379.939,697.293 381.272,696.626 388,706.5C 392.998,714.826 395.998,723.826 397,733.5C 397.5,749.83 397.667,766.163 397.5,782.5C 399.199,782.34 400.866,782.506 402.5,783C 400.19,783.497 397.857,783.663 395.5,783.5 Z"/></g>
<g><path style="opacity:1" fill="#8fe657" d="M 511.5,783.5 C 504.852,784.139 498.186,784.473 491.5,784.5C 488.813,784.664 486.146,784.497 483.5,784C 489.157,783.501 494.824,783.334 500.5,783.5C 500.084,765.458 500.584,747.458 502,729.5C 503.904,718.026 508.738,708.026 516.5,699.5C 516.833,699.833 517.167,700.167 517.5,700.5C 515.412,704.178 514.245,708.178 514,712.5C 514.142,736.393 513.309,760.06 511.5,783.5 Z"/></g>
<g><path style="opacity:1" fill="#074e0d" d="M 438.5,700.5 C 442.362,700.475 445.362,701.975 447.5,705C 446.114,707.783 444.614,707.95 443,705.5C 441.333,708.167 439.667,708.167 438,705.5C 437.36,703.735 437.527,702.068 438.5,700.5 Z"/></g>
<g><path style="opacity:1" fill="#80d04d" d="M 557.5,669.5 C 562.893,670.848 568.393,671.515 574,671.5C 578.057,671.71 581.891,671.044 585.5,669.5C 587.235,671.235 588.568,673.235 589.5,675.5C 588.809,678.353 587.476,680.853 585.5,683C 571.909,688.257 562.742,697.757 558,711.5C 556.872,733.356 556.039,755.189 555.5,777C 555.728,777.399 556.062,777.565 556.5,777.5C 541.804,780.608 526.804,782.608 511.5,783.5C 513.309,760.06 514.142,736.393 514,712.5C 514.245,708.178 515.412,704.178 517.5,700.5C 517.167,700.167 516.833,699.833 516.5,699.5C 508.738,708.026 503.904,718.026 502,729.5C 500.584,747.458 500.084,765.458 500.5,783.5C 494.824,783.334 489.157,783.501 483.5,784C 486.146,784.497 488.813,784.664 491.5,784.5C 487.366,785.485 483.032,785.818 478.5,785.5C 471.018,784.508 463.352,784.175 455.5,784.5C 455.333,769.496 455.5,754.496 456,739.5C 458.572,713.599 471.739,695.932 495.5,686.5C 502.548,689.268 509.882,690.101 517.5,689C 520.186,686.454 521.186,683.287 520.5,679.5C 521.042,682.65 522.209,685.65 524,688.5C 527.15,685.021 530.65,681.854 534.5,679C 541.834,674.655 549.5,671.488 557.5,669.5 Z"/></g>
<g><path style="opacity:1" fill="#054d0b" d="M 473.5,758.5 C 475.388,759.275 477.388,759.275 479.5,758.5C 480.786,764.885 478.453,766.885 472.5,764.5C 471.15,762.217 471.483,760.217 473.5,758.5 Z"/></g>
<g><path style="opacity:1" fill="#034c0b" d="M 539.5,705.5 C 542.014,705.754 544.348,706.587 546.5,708C 548,710.167 547.5,711.667 545,712.5C 542.589,711.873 540.089,711.873 537.5,712.5C 537.4,709.892 538.067,707.558 539.5,705.5 Z"/></g>
<g><path style="opacity:1" fill="#80cf4c" d="M 341.5,669.5 C 348.509,672.01 355.509,674.844 362.5,678C 368.65,681.65 373.65,686.484 377.5,692.5C 378.096,691.284 378.263,689.951 378,688.5C 381.681,691.36 385.848,692.193 390.5,691C 387.635,690.817 384.969,690.317 382.5,689.5C 389.635,689.406 396.635,688.406 403.5,686.5C 425.742,695.262 438.575,711.595 442,735.5C 442.5,751.83 442.667,768.163 442.5,784.5C 436.974,784.179 431.64,784.512 426.5,785.5C 415.958,785.736 405.624,785.07 395.5,783.5C 397.857,783.663 400.19,783.497 402.5,783C 400.866,782.506 399.199,782.34 397.5,782.5C 397.667,766.163 397.5,749.83 397,733.5C 395.998,723.826 392.998,714.826 388,706.5C 381.272,696.626 379.939,697.293 384,708.5C 384.5,733.164 384.667,757.831 384.5,782.5C 369.19,781.802 354.19,779.802 339.5,776.5C 340.873,776.657 342.207,776.49 343.5,776C 342.673,756.24 342.173,736.406 342,716.5C 339.83,707.825 335.83,700.158 330,693.5C 323.667,689.167 317.333,684.833 311,680.5C 308.268,675.556 309.435,672.222 314.5,670.5C 323.512,671.853 332.512,671.52 341.5,669.5 Z"/></g>
<g><path style="opacity:1" fill="#034b0a" d="M 363.5,714.5 C 365.506,715.839 367.173,717.506 368.5,719.5C 368.272,721.397 367.272,722.73 365.5,723.5C 363.465,722.959 361.465,722.292 359.5,721.5C 361.605,719.626 362.938,717.293 363.5,714.5 Z"/></g>
<g><path style="opacity:1" fill="#034b0b" d="M 619.5,646.5 C 621.638,646.703 623.305,647.703 624.5,649.5C 625.275,647.525 626.609,646.691 628.5,647C 629.61,649.737 629.777,652.571 629,655.5C 626.381,656.283 623.548,656.283 620.5,655.5C 619.593,652.579 619.26,649.579 619.5,646.5 Z"/></g>
<g><path style="opacity:1" fill="#cfcece" d="M 433.5,647.5 C 433.575,644.794 433.908,642.127 434.5,639.5C 441.167,639.167 441.167,638.833 434.5,638.5C 434.5,638.167 434.5,637.833 434.5,637.5C 437.525,637.123 440.525,636.956 443.5,637C 445.013,639.916 444.68,642.582 442.5,645C 439.568,646.145 436.568,646.978 433.5,647.5 Z"/></g>
<g><path style="opacity:1" fill="#f2f2f2" d="M 480.5,638.5 C 482.833,638.5 485.167,638.5 487.5,638.5C 487.279,641.279 487.612,643.946 488.5,646.5C 478.151,649.297 467.817,649.13 457.5,646C 453.809,642.793 453.642,639.626 457,636.5C 464.7,638.336 472.533,639.003 480.5,638.5 Z"/></g>
<g><path style="opacity:1" fill="#2a2728" d="M 434.5,637.5 C 434.5,637.833 434.5,638.167 434.5,638.5C 422.533,639.146 410.867,638.146 399.5,635.5C 401.646,635.122 403.813,634.788 406,634.5C 415.479,635.757 424.979,636.757 434.5,637.5 Z"/></g>
<g><path style="opacity:1" fill="#d0cfcf" d="M 488.5,646.5 C 487.612,643.946 487.279,641.279 487.5,638.5C 485.167,638.5 482.833,638.5 480.5,638.5C 488.781,637.389 497.114,636.222 505.5,635C 506.894,638.093 506.227,640.759 503.5,643C 498.698,645.103 493.698,646.269 488.5,646.5 Z"/></g>
<g><path style="opacity:1" fill="#f1f1f1" d="M 399.5,635.5 C 410.867,638.146 422.533,639.146 434.5,638.5C 441.167,638.833 441.167,639.167 434.5,639.5C 433.908,642.127 433.575,644.794 433.5,647.5C 420.505,649.617 407.838,648.117 395.5,643C 392.542,640.872 391.876,638.206 393.5,635C 395.545,634.51 397.545,634.677 399.5,635.5 Z"/></g>
<g><path style="opacity:1" fill="#7e9349" d="M 328.5,630.5 C 332.167,630.5 335.833,630.5 339.5,630.5C 339.672,631.492 339.338,632.158 338.5,632.5C 335.167,631.833 331.833,631.167 328.5,630.5 Z"/></g>
<g><path style="opacity:1" fill="#0c520f" d="M 565.5,627.5 C 567.331,628.052 568.997,628.052 570.5,627.5C 572.912,629.359 574.079,631.692 574,634.5C 573.163,636.007 571.996,636.507 570.5,636C 568.772,634.027 566.939,632.194 565,630.5C 564.53,629.423 564.697,628.423 565.5,627.5 Z"/></g>
<g><path style="opacity:1" fill="#8ee556" d="M 312.5,628.5 C 317.608,630.333 322.942,630.999 328.5,630.5C 331.833,631.167 335.167,631.833 338.5,632.5C 333.683,643.482 325.683,651.316 314.5,656C 307.967,661.048 307.967,665.882 314.5,670.5C 309.435,672.222 308.268,675.556 311,680.5C 317.333,684.833 323.667,689.167 330,693.5C 335.83,700.158 339.83,707.825 342,716.5C 342.173,736.406 342.673,756.24 343.5,776C 342.207,776.49 340.873,776.657 339.5,776.5C 314.226,772.345 289.559,765.845 265.5,757C 244.55,749.285 226.383,737.452 211,721.5C 203.559,711.158 201.559,699.825 205,687.5C 210.051,678.45 216.551,670.617 224.5,664C 251.279,646.014 280.612,634.181 312.5,628.5 Z"/></g>
<g><path style="opacity:1" fill="#074f0c" d="M 261.5,696.5 C 263.372,697.511 265.372,698.345 267.5,699C 268.517,700.049 268.684,701.216 268,702.5C 264.636,703.739 261.136,704.406 257.5,704.5C 257.5,703.167 257.5,701.833 257.5,700.5C 258.5,700.5 259.5,700.5 260.5,700.5C 260.433,699.041 260.766,697.708 261.5,696.5 Z"/></g>
<g><path style="opacity:1" fill="#084f0d" d="M 318.5,634.5 C 321.786,635.242 323.12,637.075 322.5,640C 320.26,640.977 317.927,641.477 315.5,641.5C 315.681,638.805 316.681,636.472 318.5,634.5 Z"/></g>
</svg>
