<svg aria-hidden="true" style="position:absolute;width:0;height:0" xmlns="http://www.w3.org/2000/svg" overflow="hidden">
<defs>
<symbol id="close" viewBox="0 0 32 32"><path d="M26.667 7.303l-1.97-1.97-7.808 7.808-7.808-7.808-1.97 1.97 7.808 7.808-7.808 7.808 1.97 1.97 7.808-7.808 7.808 7.808 1.97-1.97-7.808-7.808 7.808-7.808z"/></symbol>
<symbol id="logo" viewBox="0 0 32 32"><path fill="none" stroke="var(--color1, #818181)" stroke-linejoin="round" stroke-linecap="round" stroke-width="2.667" d="M26.427 2.667H5.574a2.907 2.907 0 0 0-2.907 2.907v20.853a2.907 2.907 0 0 0 2.907 2.907h20.853a2.907 2.907 0 0 0 2.907-2.907V5.574a2.907 2.907 0 0 0-2.907-2.907zM9.333 2.667v26.667M22.667 2.667v26.667M2.667 16h26.667M2.667 9.333h6.667M2.667 22.667h6.667M22.667 22.667h6.667M22.667 9.333h6.667"/></symbol>
<symbol id="loupe" viewBox="0 0 32 32"><path fill="none" stroke="var(--color2, #fff)" stroke-linejoin="round" stroke-linecap="round" stroke-width="2.667" d="M14.667 25.333c5.891 0 10.667-4.776 10.667-10.667S20.558 3.999 14.667 3.999 4 8.775 4 14.666s4.776 10.667 10.667 10.667zM28 28.001l-5.8-5.8"/></symbol>
<symbol id="rocket" viewBox="0 0 32 32"><path fill="var(--color3, #000)" d="M5.543 22.602c-2.045 2.045-2.155 5.773-2.155 5.773s3.725-.11 5.772-2.155 2.895-4.512 1.895-5.51c-1-1-3.467-.152-5.513 1.892z"/><path fill="var(--color4, #424242)" opacity=".2" d="M9.887 20.79c.357 0 .63.093.813.273.688.688.078 2.83-1.895 4.805-1.425 1.425-3.797 1.845-4.872 1.965.12-1.075.54-3.448 1.962-4.872 1.317-1.32 2.885-2.17 3.992-2.17zm0-.5c-1.203 0-2.883.85-4.345 2.315-2.045 2.045-2.155 5.773-2.155 5.773s3.725-.11 5.773-2.155 2.895-4.512 1.895-5.51c-.285-.29-.688-.422-1.168-.422z"/><path fill="var(--color3, #000)" d="M6.162 23.323c-1.287 1.288-1.357 3.633-1.357 3.633s2.345-.07 3.633-1.357c1.287-1.288 1.822-2.843 1.192-3.47s-2.178-.095-3.467 1.195z"/><path fill="var(--color5, #546e7a)" d="M8.803 23.345c1.225 1.308 2.832 1.17 2.965.955l1.12-1.82c.068-.11.005-.285-.043-.33l-3.023-3.023c-.047-.047-.215-.102-.325-.035l-1.82 1.12c-.213.133-.452 1.445 1.125 3.133z"/><path fill="var(--color6, #0288d1)" d="M17.032 26.67c-.25.203-.585.157-.628-.142-.117-.83-.04-2.497-1.085-3.543-1.02-1.02-2.678-1.17-2.678-1.17l6.24-3.075s1.175 1.813.527 4.393c-.54 2.133-1.462 2.79-2.378 3.538z"/><path fill="var(--color4, #424242)" opacity=".2" d="M18.53 19.747c.045.122.093.262.135.418.17.62.313 1.608.015 2.782-.378 1.505-.942 2.15-1.605 2.715-.085-.955-.27-2.255-1.227-3.21a4.37 4.37 0 0 0-1.162-.813l3.845-1.893zm.35-1.007-6.24 3.075s1.66.152 2.678 1.17c1.045 1.045.968 2.712 1.085 3.543a.295.295 0 0 0 .308.267c.105 0 .22-.043.32-.125.915-.747 1.837-1.405 2.375-3.538.652-2.582-.525-4.393-.525-4.393z"/><path fill="var(--color6, #0288d1)" d="M5.168 15.162c-.245.21-.157.585.143.627.83.117 2.498.04 3.543 1.085 1.02 1.02 1.232 2.465 1.232 2.465l3.015-6.383s-1.595-.748-3.915-.145c-1.6.418-3.188 1.635-4.018 2.35z"/><path fill="var(--color4, #424242)" opacity=".2" d="M10.985 13.328c.418 0 .777.045 1.063.1l-1.875 3.975a4.717 4.717 0 0 0-.79-1.055c-.887-.887-2.067-1.11-2.998-1.205.808-.615 1.905-1.32 2.985-1.603a6.305 6.305 0 0 1 1.615-.213zm0-.75c-.527 0-1.135.063-1.8.235-1.6.418-3.185 1.635-4.015 2.35-.245.21-.157.585.143.627.83.117 2.497.04 3.542 1.085 1.02 1.02 1.232 2.465 1.232 2.465l3.012-6.383s-.81-.38-2.115-.38z"/><path fill="var(--color4, #424242)" opacity=".2" d="m9.568 19.933 2.48 2.48-.783 1.273c-.025.003-.053.003-.082.003-.242 0-1.088-.063-1.832-.858-.943-1.008-1.09-1.795-1.078-2.102l1.295-.795zm.052-.873a.263.263 0 0 0-.123.03l-1.82 1.12c-.215.133-.455 1.445 1.123 3.133.803.858 1.77 1.095 2.38 1.095.32 0 .54-.065.585-.14l1.12-1.82c.068-.11.005-.285-.043-.33l-3.02-3.02a.327.327 0 0 0-.203-.067z"/><path fill="var(--color3, #000)" d="M21.017 4.622a12.806 12.806 0 0 1 3.68 2.567 12.829 12.829 0 0 1 2.594 3.787c-.657 1.727-1.898 3.738-3.11 4.95-4.953 4.953-10.422 7.78-13.252 5.777-.165-.117-.328-.225-.475-.358-2.428-2.183.352-8.43 5.402-13.48 1.268-1.268 3.38-2.563 5.16-3.245z"/><path fill="var(--color7, #455a64)" d="M21.273 10.222a2.225 2.225 0 1 1-3.147 3.147 2.225 2.225 0 0 1 3.147-3.147z"/><path fill="var(--color4, #424242)" opacity=".2" d="M19.7 10.07c.46 0 .895.18 1.22.505s.505.76.505 1.22-.18.895-.505 1.22c-.325.325-.76.505-1.22.505s-.895-.18-1.22-.505a1.729 1.729 0 0 1 0-2.44 1.714 1.714 0 0 1 1.22-.505zm0-.5a2.225 2.225 0 1 0 0 4.452 2.225 2.225 0 1 0 0-4.452z"/><path fill="var(--color7, #455a64)" d="M16.249 15.53a1.61 1.61 0 1 1-2.276 2.277 1.61 1.61 0 0 1 2.276-2.277z"/><path fill="var(--color8, #e53935)" d="M21.017 4.622c-.462 2.282 3.567 6.753 6.275 6.355.843-2.178 1.188-3.655 1.418-6.197.117-1.288-.26-1.655-1.453-1.515-3.163.37-4.412.61-6.24 1.357z"/><path fill="var(--color4, #424242)" opacity=".2" d="M27.685 3.987c.15 0 .225.018.253.027.02.045.07.22.027.697-.223 2.462-.543 3.862-1.37 5.997-.635 1.662-1.845 3.59-2.942 4.688-3.828 3.827-7.848 6.207-10.492 6.207-.713 0-1.317-.172-1.797-.512l-.082-.058a3.3 3.3 0 0 1-.325-.245c-.405-.365-.62-.922-.64-1.657-.07-2.675 2.425-7.09 6.07-10.735 1.143-1.143 3.157-2.408 4.898-3.072l.015-.008c1.768-.723 2.997-.95 6.043-1.308a3.11 3.11 0 0 1 .345-.022zm0-.75c-.13 0-.27.01-.427.027-3.163.37-4.413.61-6.24 1.357-1.78.68-3.892 1.975-5.16 3.243-5.05 5.05-7.83 11.298-5.402 13.48.145.13.307.24.475.358.625.442 1.38.65 2.23.65 2.995 0 7.165-2.567 11.025-6.425 1.212-1.213 2.453-3.223 3.11-4.95.843-2.178 1.188-3.655 1.418-6.197.098-1.117-.172-1.542-1.027-1.542z"/><path fill="var(--color4, #424242)" opacity=".2" d="M15.11 15.557c.297 0 .575.115.785.325s.325.487.325.785c0 .297-.115.575-.325.785s-.488.325-.785.325c-.297 0-.575-.115-.785-.325S14 16.964 14 16.667a1.11 1.11 0 0 1 1.11-1.11zm0-.5a1.61 1.61 0 0 0 0 3.221 1.61 1.61 0 0 0 0-3.221z"/></symbol>
<symbol id="icon-popcorn" viewBox="0 0 32 32">
<path fill="#f2f2f2" style="fill: var(--color1, #f2f2f2)" d="M23.55 9.519l-1.762 21.873h-3.614l0.22-7.275c1.193-0.781 1.981-2.129 1.981-3.662 0-1.438-0.693-2.713-1.764-3.51l0.001-0.001 0.224-7.426h4.714z"></path>
<path fill="#f2f2f2" style="fill: var(--color1, #f2f2f2)" d="M13.606 24.118l0.22 7.274h-3.615l-1.761-21.873h4.715l0.224 7.425 0.001 0.001c-1.071 0.797-1.765 2.073-1.765 3.511 0 1.533 0.788 2.882 1.982 3.663z"></path>
<path fill="#f7b239" style="fill: var(--color2, #f7b239)" d="M18.61 16.945c1.071 0.797 1.764 2.072 1.764 3.51 0 1.533-0.787 2.881-1.981 3.662-0.688 0.451-1.511 0.713-2.395 0.713s-1.706-0.262-2.393-0.712c-1.193-0.781-1.982-2.13-1.982-3.663 0-1.438 0.694-2.714 1.765-3.511 0.728-0.543 1.632-0.864 2.609-0.864s1.882 0.322 2.611 0.864z"></path>
<path fill="#f7b239" style="fill: var(--color2, #f7b239)" d="M6.169 5.043c-0.097-0.237-0.151-0.497-0.151-0.77 0-1.12 0.907-2.028 2.028-2.028 0.561 0 1.069 0.228 1.437 0.597 0.361-1.052 1.359-1.808 2.533-1.808 0.796 0 1.512 0.348 2.002 0.9 0.286-0.774 1.030-1.327 1.904-1.327 0.924 0 1.702 0.618 1.948 1.462 0.49-0.629 1.255-1.035 2.114-1.035 1.175 0 2.173 0.757 2.534 1.808 0.367-0.369 0.875-0.597 1.437-0.597 1.12 0 2.028 0.908 2.028 2.028 0 0.272-0.054 0.532-0.151 0.77 1.368 0.12 2.442 1.268 2.442 2.668 0 0.697-0.267 1.332-0.703 1.808h-23.14c-0.436-0.476-0.702-1.111-0.702-1.808 0-1.4 1.073-2.548 2.441-2.668z"></path>
<path fill="#e09b2d" style="fill: var(--color3, #e09b2d)" d="M12.001 5.043c-0.097-0.237-0.151-0.497-0.151-0.77 0-1.12 0.907-2.028 2.028-2.028 0.561 0 1.069 0.228 1.437 0.597 0.298-0.867 1.028-1.532 1.933-1.739-0.356-0.308-0.819-0.496-1.326-0.496-0.873 0-1.618 0.552-1.904 1.327-0.49-0.552-1.205-0.9-2.002-0.9-1.175 0-2.172 0.757-2.533 1.808-0.368-0.369-0.876-0.597-1.437-0.597-1.12 0-2.028 0.908-2.028 2.028 0 0.272 0.053 0.532 0.151 0.77-1.368 0.12-2.441 1.268-2.441 2.668 0 0.697 0.267 1.332 0.702 1.808h5.833c-0.436-0.476-0.702-1.111-0.702-1.808 0-1.4 1.073-2.548 2.441-2.668z"></path>
<path fill="#e09b2d" style="fill: var(--color3, #e09b2d)" d="M19.85 1.935c0.124-0.337 0.336-0.631 0.606-0.857-0.154-0.027-0.311-0.043-0.473-0.043-0.38 0-0.741 0.079-1.068 0.222 0.359 0.156 0.678 0.389 0.935 0.678z"></path>
<path fill="#e54728" style="fill: var(--color4, #e54728)" d="M8.45 9.519l1.761 21.873h-3.101l-2.706-21.873h0.026z"></path>
<path fill="#f95428" style="fill: var(--color5, #f95428)" d="M18.394 24.117l-0.22 7.275h-4.348l-0.22-7.274c0.687 0.45 1.51 0.712 2.393 0.712s1.707-0.262 2.395-0.713z"></path>
<path fill="#f95428" style="fill: var(--color5, #f95428)" d="M18.836 9.519l-0.224 7.426-0.001 0.001c-0.729-0.543-1.633-0.864-2.611-0.864s-1.881 0.321-2.609 0.864l-0.001-0.001-0.224-7.425h5.671z"></path>
<path fill="#f95428" style="fill: var(--color5, #f95428)" d="M27.596 9.519l-2.706 21.873h-3.102l1.762-21.873h4.020z"></path>
<path fill="#fff" style="fill: var(--color6, #fff)" d="M23.687 26.551c-0.025 0-0.050-0.002-0.075-0.005-0.333-0.041-0.57-0.345-0.528-0.678l1.517-12.266c0.041-0.333 0.345-0.57 0.678-0.528s0.57 0.345 0.528 0.678l-1.517 12.266c-0.038 0.308-0.3 0.533-0.602 0.533z"></path>
<path fill="#fff" style="fill: var(--color6, #fff)" d="M26.086 11.364c0 0.336-0.272 0.608-0.608 0.608s-0.608-0.272-0.608-0.608c0-0.336 0.272-0.608 0.608-0.608s0.608 0.272 0.608 0.608z"></path>
<path fill="#333" style="fill: var(--color7, #333)" d="M28.88 7.711c0-1.476-0.953-2.724-2.307-3.139 0.011-0.099 0.017-0.198 0.017-0.298 0-1.453-1.182-2.635-2.635-2.635-0.428 0-0.84 0.101-1.21 0.292-0.596-0.922-1.628-1.504-2.762-1.504-0.713 0-1.39 0.226-1.948 0.638-0.489-0.654-1.269-1.065-2.114-1.065-0.813 0-1.569 0.379-2.061 0.994-0.539-0.366-1.181-0.567-1.845-0.567-1.133 0-2.165 0.581-2.761 1.504-0.37-0.191-0.782-0.293-1.209-0.293-1.453 0-2.635 1.182-2.635 2.635 0 0.1 0.005 0.2 0.017 0.298-1.354 0.415-2.307 1.663-2.307 3.139 0 0.739 0.247 1.448 0.699 2.025l2.688 21.731c0.038 0.304 0.296 0.533 0.603 0.533h17.78c0.307 0 0.565-0.229 0.603-0.533l2.688-21.731c0.452-0.577 0.7-1.286 0.7-2.025zM5.847 5.716c0.321 0.459 0.896 0.943 1.741 0.943 0.088 0 0.179-0.005 0.274-0.016 0.318-0.038 0.573-0.302 0.564-0.622-0.011-0.367-0.334-0.634-0.688-0.587-0.682 0.091-0.954-0.489-1.002-0.609-0.001-0.002-0.002-0.004-0.003-0.006s-0.001-0.004-0.002-0.005c-0.049-0.119-0.081-0.243-0.096-0.37-0.093-0.797 0.509-1.531 1.31-1.586 0.414-0.028 0.808 0.119 1.1 0.408 0.114 0.112 0.266 0.183 0.425 0.185 0.27 0.004 0.502-0.166 0.586-0.41 0.287-0.836 1.074-1.398 1.959-1.398 0.59 0 1.152 0.252 1.544 0.692 0.108 0.121 0.261 0.199 0.423 0.207 0.273 0.014 0.514-0.151 0.605-0.396 0.205-0.556 0.741-0.93 1.334-0.93 0.622 0 1.178 0.413 1.359 1.007 0.053 0.173 0.168 0.324 0.333 0.399 0.265 0.121 0.565 0.040 0.735-0.178 0.396-0.509 0.992-0.801 1.635-0.801 0.782 0 1.488 0.44 1.84 1.12-0.112 0.178-0.235 0.418-0.315 0.705-0.229 0.831 0.021 1.666 0.705 2.349 0.119 0.119 0.274 0.178 0.43 0.178 0.153 0 0.306-0.057 0.423-0.172 0.244-0.237 0.224-0.642-0.014-0.886-0.351-0.36-0.476-0.725-0.381-1.113 0.010-0.042 0.023-0.083 0.036-0.121 0.116-0.327 0.365-0.596 0.684-0.734 0.22-0.095 0.465-0.134 0.716-0.108 0.715 0.074 1.268 0.695 1.267 1.414-0 0.184-0.036 0.364-0.105 0.535-0.055 0.134-0.062 0.285-0.016 0.422 0.078 0.236 0.286 0.395 0.525 0.416 1.058 0.093 1.887 0.999 1.887 2.063 0 0.434-0.137 0.852-0.386 1.201h-22.558c-0.249-0.349-0.386-0.767-0.386-1.201 0-0.952 0.628-1.753 1.512-1.995zM16 24.223c-2.077 0-3.767-1.69-3.767-3.767s1.69-3.767 3.767-3.767c2.077 0 3.767 1.69 3.767 3.767s-1.69 3.767-3.767 3.767zM16 15.473c-0.724 0-1.413 0.157-2.034 0.436l-0.175-5.783h4.419l-0.175 5.783c-0.622-0.279-1.31-0.436-2.035-0.436zM12.575 10.127l0.198 6.537c-1.073 0.915-1.755 2.275-1.755 3.792 0 1.625 0.783 3.071 1.991 3.981l0.192 6.348h-2.427l-1.664-20.658h3.467zM14.244 25.118c0.546 0.206 1.138 0.32 1.756 0.32s1.21-0.114 1.756-0.32l-0.172 5.667h-3.169l-0.171-5.667zM18.992 24.437c1.208-0.91 1.99-2.356 1.99-3.981 0-1.517-0.682-2.877-1.755-3.791l0.198-6.538h3.466l-1.664 20.658h-2.428l0.192-6.348zM5.092 10.127h2.798l1.664 20.658h-1.906l-2.555-20.658zM24.353 30.785h-1.906l1.664-20.658h2.798l-2.555 20.658z"></path>
<path fill="#333" style="fill: var(--color7, #333)" d="M13.542 8.144c0.336 0 0.608-0.272 0.608-0.608s-0.272-0.608-0.608-0.608c-0.558 0-1.013-0.454-1.013-1.013s0.454-1.013 1.013-1.013c0.361 0 0.687 0.187 0.872 0.5 0.096 0.163 0.264 0.272 0.452 0.294s0.376-0.045 0.508-0.181c0.253-0.261 0.592-0.405 0.955-0.405 0.733 0 1.329 0.596 1.329 1.329 0 0.336 0.272 0.608 0.608 0.608s0.608-0.272 0.608-0.608c0-1.403-1.141-2.544-2.544-2.544-0.468 0-0.915 0.125-1.305 0.359-0.403-0.359-0.93-0.567-1.481-0.567-1.228 0-2.228 0.999-2.228 2.228s0.999 2.228 2.228 2.228z"></path>
</symbol>
</defs>
</svg>