<svg
  aria-hidden="true"
  style="position: absolute; width: 0; height: 0"
  xmlns="http://www.w3.org/2000/svg"
  overflow="hidden"
>
  <defs>
    <symbol id="close" viewBox="0 0 32 32">
      <path
        d="M26.667 7.303l-1.97-1.97-7.808 7.808-7.808-7.808-1.97 1.97 7.808 7.808-7.808 7.808 1.97 1.97 7.808-7.808 7.808 7.808 1.97-1.97-7.808-7.808 7.808-7.808z"
      />
    </symbol>
    <symbol id="logo" viewBox="0 0 32 32">
      <path
        fill="none"
        stroke="var(--color1, #818181)"
        stroke-linejoin="round"
        stroke-linecap="round"
        stroke-width="2.667"
        d="M26.427 2.667H5.574a2.907 2.907 0 0 0-2.907 2.907v20.853a2.907 2.907 0 0 0 2.907 2.907h20.853a2.907 2.907 0 0 0 2.907-2.907V5.574a2.907 2.907 0 0 0-2.907-2.907zM9.333 2.667v26.667M22.667 2.667v26.667M2.667 16h26.667M2.667 9.333h6.667M2.667 22.667h6.667M22.667 22.667h6.667M22.667 9.333h6.667"
      />
    </symbol>
    <symbol id="loupe" viewBox="0 0 32 32">
      <path
        fill="none"
        stroke="var(--color2, #fff)"
        stroke-linejoin="round"
        stroke-linecap="round"
        stroke-width="2.667"
        d="M14.667 25.333c5.891 0 10.667-4.776 10.667-10.667S20.558 3.999 14.667 3.999 4 8.775 4 14.666s4.776 10.667 10.667 10.667zM28 28.001l-5.8-5.8"
      />
    </symbol>
    <symbol id="rocket" viewBox="0 0 32 32">
      <path
        fill="var(--color3, #000)"
        d="M5.543 22.602c-2.045 2.045-2.155 5.773-2.155 5.773s3.725-.11 5.772-2.155 2.895-4.512 1.895-5.51c-1-1-3.467-.152-5.513 1.892z"
      />
      <path
        fill="var(--color4, #424242)"
        opacity=".2"
        d="M9.887 20.79c.357 0 .63.093.813.273.688.688.078 2.83-1.895 4.805-1.425 1.425-3.797 1.845-4.872 1.965.12-1.075.54-3.448 1.962-4.872 1.317-1.32 2.885-2.17 3.992-2.17zm0-.5c-1.203 0-2.883.85-4.345 2.315-2.045 2.045-2.155 5.773-2.155 5.773s3.725-.11 5.773-2.155 2.895-4.512 1.895-5.51c-.285-.29-.688-.422-1.168-.422z"
      />
      <path
        fill="var(--color3, #000)"
        d="M6.162 23.323c-1.287 1.288-1.357 3.633-1.357 3.633s2.345-.07 3.633-1.357c1.287-1.288 1.822-2.843 1.192-3.47s-2.178-.095-3.467 1.195z"
      />
      <path
        fill="var(--color5, #546e7a)"
        d="M8.803 23.345c1.225 1.308 2.832 1.17 2.965.955l1.12-1.82c.068-.11.005-.285-.043-.33l-3.023-3.023c-.047-.047-.215-.102-.325-.035l-1.82 1.12c-.213.133-.452 1.445 1.125 3.133z"
      />
      <path
        fill="var(--color6, #0288d1)"
        d="M17.032 26.67c-.25.203-.585.157-.628-.142-.117-.83-.04-2.497-1.085-3.543-1.02-1.02-2.678-1.17-2.678-1.17l6.24-3.075s1.175 1.813.527 4.393c-.54 2.133-1.462 2.79-2.378 3.538z"
      />
      <path
        fill="var(--color4, #424242)"
        opacity=".2"
        d="M18.53 19.747c.045.122.093.262.135.418.17.62.313 1.608.015 2.782-.378 1.505-.942 2.15-1.605 2.715-.085-.955-.27-2.255-1.227-3.21a4.37 4.37 0 0 0-1.162-.813l3.845-1.893zm.35-1.007-6.24 3.075s1.66.152 2.678 1.17c1.045 1.045.968 2.712 1.085 3.543a.295.295 0 0 0 .308.267c.105 0 .22-.043.32-.125.915-.747 1.837-1.405 2.375-3.538.652-2.582-.525-4.393-.525-4.393z"
      />
      <path
        fill="var(--color6, #0288d1)"
        d="M5.168 15.162c-.245.21-.157.585.143.627.83.117 2.498.04 3.543 1.085 1.02 1.02 1.232 2.465 1.232 2.465l3.015-6.383s-1.595-.748-3.915-.145c-1.6.418-3.188 1.635-4.018 2.35z"
      />
      <path
        fill="var(--color4, #424242)"
        opacity=".2"
        d="M10.985 13.328c.418 0 .777.045 1.063.1l-1.875 3.975a4.717 4.717 0 0 0-.79-1.055c-.887-.887-2.067-1.11-2.998-1.205.808-.615 1.905-1.32 2.985-1.603a6.305 6.305 0 0 1 1.615-.213zm0-.75c-.527 0-1.135.063-1.8.235-1.6.418-3.185 1.635-4.015 2.35-.245.21-.157.585.143.627.83.117 2.497.04 3.542 1.085 1.02 1.02 1.232 2.465 1.232 2.465l3.012-6.383s-.81-.38-2.115-.38z"
      />
      <path
        fill="var(--color4, #424242)"
        opacity=".2"
        d="m9.568 19.933 2.48 2.48-.783 1.273c-.025.003-.053.003-.082.003-.242 0-1.088-.063-1.832-.858-.943-1.008-1.09-1.795-1.078-2.102l1.295-.795zm.052-.873a.263.263 0 0 0-.123.03l-1.82 1.12c-.215.133-.455 1.445 1.123 3.133.803.858 1.77 1.095 2.38 1.095.32 0 .54-.065.585-.14l1.12-1.82c.068-.11.005-.285-.043-.33l-3.02-3.02a.327.327 0 0 0-.203-.067z"
      />
      <path
        fill="var(--color3, #000)"
        d="M21.017 4.622a12.806 12.806 0 0 1 3.68 2.567 12.829 12.829 0 0 1 2.594 3.787c-.657 1.727-1.898 3.738-3.11 4.95-4.953 4.953-10.422 7.78-13.252 5.777-.165-.117-.328-.225-.475-.358-2.428-2.183.352-8.43 5.402-13.48 1.268-1.268 3.38-2.563 5.16-3.245z"
      />
      <path
        fill="var(--color7, #455a64)"
        d="M21.273 10.222a2.225 2.225 0 1 1-3.147 3.147 2.225 2.225 0 0 1 3.147-3.147z"
      />
      <path
        fill="var(--color4, #424242)"
        opacity=".2"
        d="M19.7 10.07c.46 0 .895.18 1.22.505s.505.76.505 1.22-.18.895-.505 1.22c-.325.325-.76.505-1.22.505s-.895-.18-1.22-.505a1.729 1.729 0 0 1 0-2.44 1.714 1.714 0 0 1 1.22-.505zm0-.5a2.225 2.225 0 1 0 0 4.452 2.225 2.225 0 1 0 0-4.452z"
      />
      <path
        fill="var(--color7, #455a64)"
        d="M16.249 15.53a1.61 1.61 0 1 1-2.276 2.277 1.61 1.61 0 0 1 2.276-2.277z"
      />
      <path
        fill="var(--color8, #e53935)"
        d="M21.017 4.622c-.462 2.282 3.567 6.753 6.275 6.355.843-2.178 1.188-3.655 1.418-6.197.117-1.288-.26-1.655-1.453-1.515-3.163.37-4.412.61-6.24 1.357z"
      />
      <path
        fill="var(--color4, #424242)"
        opacity=".2"
        d="M27.685 3.987c.15 0 .225.018.253.027.02.045.07.22.027.697-.223 2.462-.543 3.862-1.37 5.997-.635 1.662-1.845 3.59-2.942 4.688-3.828 3.827-7.848 6.207-10.492 6.207-.713 0-1.317-.172-1.797-.512l-.082-.058a3.3 3.3 0 0 1-.325-.245c-.405-.365-.62-.922-.64-1.657-.07-2.675 2.425-7.09 6.07-10.735 1.143-1.143 3.157-2.408 4.898-3.072l.015-.008c1.768-.723 2.997-.95 6.043-1.308a3.11 3.11 0 0 1 .345-.022zm0-.75c-.13 0-.27.01-.427.027-3.163.37-4.413.61-6.24 1.357-1.78.68-3.892 1.975-5.16 3.243-5.05 5.05-7.83 11.298-5.402 13.48.145.13.307.24.475.358.625.442 1.38.65 2.23.65 2.995 0 7.165-2.567 11.025-6.425 1.212-1.213 2.453-3.223 3.11-4.95.843-2.178 1.188-3.655 1.418-6.197.098-1.117-.172-1.542-1.027-1.542z"
      />
      <path
        fill="var(--color4, #424242)"
        opacity=".2"
        d="M15.11 15.557c.297 0 .575.115.785.325s.325.487.325.785c0 .297-.115.575-.325.785s-.488.325-.785.325c-.297 0-.575-.115-.785-.325S14 16.964 14 16.667a1.11 1.11 0 0 1 1.11-1.11zm0-.5a1.61 1.61 0 0 0 0 3.221 1.61 1.61 0 0 0 0-3.221z"
      />
    </symbol>
    <symbol id="icon-popcorn" viewBox="0 0 32 32">
      <path
        fill="#f2f2f2"
        style="fill: var(--color1, #f2f2f2)"
        d="M23.55 9.519l-1.762 21.873h-3.614l0.22-7.275c1.193-0.781 1.981-2.129 1.981-3.662 0-1.438-0.693-2.713-1.764-3.51l0.001-0.001 0.224-7.426h4.714z"
      ></path>
      <path
        fill="#f2f2f2"
        style="fill: var(--color1, #f2f2f2)"
        d="M13.606 24.118l0.22 7.274h-3.615l-1.761-21.873h4.715l0.224 7.425 0.001 0.001c-1.071 0.797-1.765 2.073-1.765 3.511 0 1.533 0.788 2.882 1.982 3.663z"
      ></path>
      <path
        fill="#f7b239"
        style="fill: var(--color2, #f7b239)"
        d="M18.61 16.945c1.071 0.797 1.764 2.072 1.764 3.51 0 1.533-0.787 2.881-1.981 3.662-0.688 0.451-1.511 0.713-2.395 0.713s-1.706-0.262-2.393-0.712c-1.193-0.781-1.982-2.13-1.982-3.663 0-1.438 0.694-2.714 1.765-3.511 0.728-0.543 1.632-0.864 2.609-0.864s1.882 0.322 2.611 0.864z"
      ></path>
      <path
        fill="#f7b239"
        style="fill: var(--color2, #f7b239)"
        d="M6.169 5.043c-0.097-0.237-0.151-0.497-0.151-0.77 0-1.12 0.907-2.028 2.028-2.028 0.561 0 1.069 0.228 1.437 0.597 0.361-1.052 1.359-1.808 2.533-1.808 0.796 0 1.512 0.348 2.002 0.9 0.286-0.774 1.030-1.327 1.904-1.327 0.924 0 1.702 0.618 1.948 1.462 0.49-0.629 1.255-1.035 2.114-1.035 1.175 0 2.173 0.757 2.534 1.808 0.367-0.369 0.875-0.597 1.437-0.597 1.12 0 2.028 0.908 2.028 2.028 0 0.272-0.054 0.532-0.151 0.77 1.368 0.12 2.442 1.268 2.442 2.668 0 0.697-0.267 1.332-0.703 1.808h-23.14c-0.436-0.476-0.702-1.111-0.702-1.808 0-1.4 1.073-2.548 2.441-2.668z"
      ></path>
      <path
        fill="#e09b2d"
        style="fill: var(--color3, #e09b2d)"
        d="M12.001 5.043c-0.097-0.237-0.151-0.497-0.151-0.77 0-1.12 0.907-2.028 2.028-2.028 0.561 0 1.069 0.228 1.437 0.597 0.298-0.867 1.028-1.532 1.933-1.739-0.356-0.308-0.819-0.496-1.326-0.496-0.873 0-1.618 0.552-1.904 1.327-0.49-0.552-1.205-0.9-2.002-0.9-1.175 0-2.172 0.757-2.533 1.808-0.368-0.369-0.876-0.597-1.437-0.597-1.12 0-2.028 0.908-2.028 2.028 0 0.272 0.053 0.532 0.151 0.77-1.368 0.12-2.441 1.268-2.441 2.668 0 0.697 0.267 1.332 0.702 1.808h5.833c-0.436-0.476-0.702-1.111-0.702-1.808 0-1.4 1.073-2.548 2.441-2.668z"
      ></path>
      <path
        fill="#e09b2d"
        style="fill: var(--color3, #e09b2d)"
        d="M19.85 1.935c0.124-0.337 0.336-0.631 0.606-0.857-0.154-0.027-0.311-0.043-0.473-0.043-0.38 0-0.741 0.079-1.068 0.222 0.359 0.156 0.678 0.389 0.935 0.678z"
      ></path>
      <path
        fill="#e54728"
        style="fill: var(--color4, #e54728)"
        d="M8.45 9.519l1.761 21.873h-3.101l-2.706-21.873h0.026z"
      ></path>
      <path
        fill="#f95428"
        style="fill: var(--color5, #f95428)"
        d="M18.394 24.117l-0.22 7.275h-4.348l-0.22-7.274c0.687 0.45 1.51 0.712 2.393 0.712s1.707-0.262 2.395-0.713z"
      ></path>
      <path
        fill="#f95428"
        style="fill: var(--color5, #f95428)"
        d="M18.836 9.519l-0.224 7.426-0.001 0.001c-0.729-0.543-1.633-0.864-2.611-0.864s-1.881 0.321-2.609 0.864l-0.001-0.001-0.224-7.425h5.671z"
      ></path>
      <path
        fill="#f95428"
        style="fill: var(--color5, #f95428)"
        d="M27.596 9.519l-2.706 21.873h-3.102l1.762-21.873h4.020z"
      ></path>
      <path
        fill="#fff"
        style="fill: var(--color6, #fff)"
        d="M23.687 26.551c-0.025 0-0.050-0.002-0.075-0.005-0.333-0.041-0.57-0.345-0.528-0.678l1.517-12.266c0.041-0.333 0.345-0.57 0.678-0.528s0.57 0.345 0.528 0.678l-1.517 12.266c-0.038 0.308-0.3 0.533-0.602 0.533z"
      ></path>
      <path
        fill="#fff"
        style="fill: var(--color6, #fff)"
        d="M26.086 11.364c0 0.336-0.272 0.608-0.608 0.608s-0.608-0.272-0.608-0.608c0-0.336 0.272-0.608 0.608-0.608s0.608 0.272 0.608 0.608z"
      ></path>
      <path
        fill="#333"
        style="fill: var(--color7, #333)"
        d="M28.88 7.711c0-1.476-0.953-2.724-2.307-3.139 0.011-0.099 0.017-0.198 0.017-0.298 0-1.453-1.182-2.635-2.635-2.635-0.428 0-0.84 0.101-1.21 0.292-0.596-0.922-1.628-1.504-2.762-1.504-0.713 0-1.39 0.226-1.948 0.638-0.489-0.654-1.269-1.065-2.114-1.065-0.813 0-1.569 0.379-2.061 0.994-0.539-0.366-1.181-0.567-1.845-0.567-1.133 0-2.165 0.581-2.761 1.504-0.37-0.191-0.782-0.293-1.209-0.293-1.453 0-2.635 1.182-2.635 2.635 0 0.1 0.005 0.2 0.017 0.298-1.354 0.415-2.307 1.663-2.307 3.139 0 0.739 0.247 1.448 0.699 2.025l2.688 21.731c0.038 0.304 0.296 0.533 0.603 0.533h17.78c0.307 0 0.565-0.229 0.603-0.533l2.688-21.731c0.452-0.577 0.7-1.286 0.7-2.025zM5.847 5.716c0.321 0.459 0.896 0.943 1.741 0.943 0.088 0 0.179-0.005 0.274-0.016 0.318-0.038 0.573-0.302 0.564-0.622-0.011-0.367-0.334-0.634-0.688-0.587-0.682 0.091-0.954-0.489-1.002-0.609-0.001-0.002-0.002-0.004-0.003-0.006s-0.001-0.004-0.002-0.005c-0.049-0.119-0.081-0.243-0.096-0.37-0.093-0.797 0.509-1.531 1.31-1.586 0.414-0.028 0.808 0.119 1.1 0.408 0.114 0.112 0.266 0.183 0.425 0.185 0.27 0.004 0.502-0.166 0.586-0.41 0.287-0.836 1.074-1.398 1.959-1.398 0.59 0 1.152 0.252 1.544 0.692 0.108 0.121 0.261 0.199 0.423 0.207 0.273 0.014 0.514-0.151 0.605-0.396 0.205-0.556 0.741-0.93 1.334-0.93 0.622 0 1.178 0.413 1.359 1.007 0.053 0.173 0.168 0.324 0.333 0.399 0.265 0.121 0.565 0.040 0.735-0.178 0.396-0.509 0.992-0.801 1.635-0.801 0.782 0 1.488 0.44 1.84 1.12-0.112 0.178-0.235 0.418-0.315 0.705-0.229 0.831 0.021 1.666 0.705 2.349 0.119 0.119 0.274 0.178 0.43 0.178 0.153 0 0.306-0.057 0.423-0.172 0.244-0.237 0.224-0.642-0.014-0.886-0.351-0.36-0.476-0.725-0.381-1.113 0.010-0.042 0.023-0.083 0.036-0.121 0.116-0.327 0.365-0.596 0.684-0.734 0.22-0.095 0.465-0.134 0.716-0.108 0.715 0.074 1.268 0.695 1.267 1.414-0 0.184-0.036 0.364-0.105 0.535-0.055 0.134-0.062 0.285-0.016 0.422 0.078 0.236 0.286 0.395 0.525 0.416 1.058 0.093 1.887 0.999 1.887 2.063 0 0.434-0.137 0.852-0.386 1.201h-22.558c-0.249-0.349-0.386-0.767-0.386-1.201 0-0.952 0.628-1.753 1.512-1.995zM16 24.223c-2.077 0-3.767-1.69-3.767-3.767s1.69-3.767 3.767-3.767c2.077 0 3.767 1.69 3.767 3.767s-1.69 3.767-3.767 3.767zM16 15.473c-0.724 0-1.413 0.157-2.034 0.436l-0.175-5.783h4.419l-0.175 5.783c-0.622-0.279-1.31-0.436-2.035-0.436zM12.575 10.127l0.198 6.537c-1.073 0.915-1.755 2.275-1.755 3.792 0 1.625 0.783 3.071 1.991 3.981l0.192 6.348h-2.427l-1.664-20.658h3.467zM14.244 25.118c0.546 0.206 1.138 0.32 1.756 0.32s1.21-0.114 1.756-0.32l-0.172 5.667h-3.169l-0.171-5.667zM18.992 24.437c1.208-0.91 1.99-2.356 1.99-3.981 0-1.517-0.682-2.877-1.755-3.791l0.198-6.538h3.466l-1.664 20.658h-2.428l0.192-6.348zM5.092 10.127h2.798l1.664 20.658h-1.906l-2.555-20.658zM24.353 30.785h-1.906l1.664-20.658h2.798l-2.555 20.658z"
      ></path>
      <path
        fill="#333"
        style="fill: var(--color7, #333)"
        d="M13.542 8.144c0.336 0 0.608-0.272 0.608-0.608s-0.272-0.608-0.608-0.608c-0.558 0-1.013-0.454-1.013-1.013s0.454-1.013 1.013-1.013c0.361 0 0.687 0.187 0.872 0.5 0.096 0.163 0.264 0.272 0.452 0.294s0.376-0.045 0.508-0.181c0.253-0.261 0.592-0.405 0.955-0.405 0.733 0 1.329 0.596 1.329 1.329 0 0.336 0.272 0.608 0.608 0.608s0.608-0.272 0.608-0.608c0-1.403-1.141-2.544-2.544-2.544-0.468 0-0.915 0.125-1.305 0.359-0.403-0.359-0.93-0.567-1.481-0.567-1.228 0-2.228 0.999-2.228 2.228s0.999 2.228 2.228 2.228z"
      ></path>
    </symbol>
    <symbol id="moon" viewBox="0 0 32 32">
      <path
        fill="#ffd960"
        style="fill: var(--color1, #ffd960)"
        d="M26.951 9.926c-0.028-0.086-0.102-0.148-0.191-0.161l-2.102-0.305-0.94-1.905c-0.040-0.081-0.122-0.132-0.212-0.132s-0.172 0.051-0.212 0.132l-0.94 1.905-2.102 0.305c-0.089 0.013-0.163 0.075-0.191 0.161s-0.005 0.18 0.060 0.243l1.521 1.482-0.359 2.093c-0.015 0.089 0.021 0.179 0.094 0.232s0.169 0.060 0.249 0.018l1.88-0.988 1.88 0.988c0.035 0.018 0.073 0.027 0.11 0.027 0.049 0 0.098-0.015 0.139-0.045 0.073-0.053 0.109-0.143 0.094-0.232l-0.359-2.093 1.521-1.482c0.064-0.063 0.088-0.157 0.060-0.243z"
      ></path>
      <path
        fill="#231f20"
        style="fill: var(--color2, #231f20)"
        opacity="0.2"
        d="M23.284 11.246l-1.521-1.482c-0.056-0.055-0.081-0.133-0.068-0.209l-1.443 0.21c-0.089 0.013-0.163 0.075-0.191 0.161s-0.005 0.18 0.060 0.243l1.521 1.482-0.359 2.093c-0.015 0.089 0.021 0.179 0.094 0.232s0.169 0.060 0.249 0.018l1.305-0.686 0.354-2.062z"
      ></path>
      <path
        fill="#231f20"
        style="fill: var(--color2, #231f20)"
        d="M21.515 14.528c-0.158 0-0.309-0.049-0.437-0.142-0.23-0.167-0.344-0.446-0.295-0.727l0.314-1.831-1.33-1.297c-0.204-0.199-0.276-0.491-0.188-0.762s0.318-0.465 0.6-0.506l1.838-0.267 0.822-1.666c0.126-0.255 0.381-0.414 0.666-0.414s0.54 0.159 0.666 0.414l0.822 1.666 1.838 0.267c0.282 0.041 0.512 0.235 0.6 0.506s0.016 0.562-0.188 0.761l-1.33 1.297 0.314 1.831c0.048 0.28-0.065 0.559-0.296 0.727-0.128 0.093-0.279 0.142-0.437 0.142-0.12 0-0.24-0.030-0.346-0.086l-1.644-0.864-1.644 0.864c-0.106 0.056-0.226 0.085-0.346 0.085zM23.506 12.5c0.081 0 0.162 0.019 0.236 0.058l1.397 0.734-0.267-1.555c-0.028-0.164 0.026-0.332 0.146-0.448l1.13-1.101-1.561-0.227c-0.165-0.024-0.308-0.127-0.381-0.277l-0.698-1.415-0.698 1.415c-0.074 0.149-0.216 0.253-0.381 0.277l-1.561 0.227 1.13 1.101c0.119 0.116 0.174 0.284 0.146 0.448l-0.267 1.555 1.396-0.734c0.074-0.039 0.155-0.058 0.236-0.058z"
      ></path>
      <path
        fill="#3a5d74"
        style="fill: var(--color3, #3a5d74)"
        d="M15.599 22.819c-2.499-2.642-4.032-6.208-4.032-10.133 0-5.052 2.541-9.51 6.414-12.168-0.201-0.008-0.403-0.013-0.606-0.013-8.557-0-15.494 6.937-15.494 15.494s6.937 15.494 15.494 15.494c4.075 0 7.783-1.574 10.549-4.147-0.529 0.057-1.065 0.088-1.609 0.088-3.652 0-6.994-1.328-9.57-3.526z"
      ></path>
      <path
        fill="#231f20"
        style="fill: var(--color2, #231f20)"
        opacity="0.2"
        d="M18.769 30.791c-8.557 0-15.494-6.937-15.494-15.494 0-5.774 3.159-10.811 7.843-13.476-5.441 2.404-9.238 7.847-9.238 14.178 0 8.557 6.937 15.494 15.494 15.494 2.782 0 5.393-0.734 7.649-2.018-1.913 0.846-4.029 1.316-6.255 1.316z"
      ></path>
      <path
        fill="#231f20"
        style="fill: var(--color2, #231f20)"
        d="M17.374 32c-4.274 0-8.292-1.664-11.314-4.686s-4.686-7.040-4.686-11.314 1.664-8.292 4.686-11.314c3.022-3.022 7.040-4.686 11.314-4.686 0.19 0 0.394 0.004 0.626 0.013 0.218 0.008 0.406 0.156 0.467 0.365s-0.020 0.435-0.2 0.558c-3.878 2.662-6.194 7.054-6.194 11.75 0 3.655 1.383 7.13 3.894 9.785 0.192 0.203 0.183 0.523-0.020 0.716s-0.524 0.183-0.716-0.020c-2.689-2.843-4.17-6.565-4.17-10.48 0-4.512 1.995-8.762 5.404-11.647-7.843 0.471-14.078 7.001-14.078 14.96 0 8.264 6.723 14.988 14.988 14.988 3.297 0 6.462-1.073 9.059-3.047-0.040 0-0.079 0-0.119 0-3.628 0-7.143-1.295-9.899-3.648-0.213-0.181-0.238-0.501-0.056-0.714s0.501-0.238 0.714-0.056c2.572 2.196 5.854 3.405 9.241 3.405 0.513 0 1.036-0.029 1.554-0.085 0.217-0.023 0.424 0.095 0.515 0.293s0.044 0.433-0.116 0.581c-2.969 2.762-6.838 4.283-10.893 4.283z"
      ></path>
      <path
        fill="#ffd960"
        style="fill: var(--color1, #ffd960)"
        d="M24.072 20.328c0 0.856-0.694 1.55-1.55 1.55s-1.55-0.694-1.55-1.55c0-0.856 0.694-1.55 1.55-1.55s1.55 0.694 1.55 1.55z"
      ></path>
      <path
        fill="#231f20"
        style="fill: var(--color2, #231f20)"
        opacity="0.2"
        d="M22.522 20.328c0-0.573 0.312-1.074 0.775-1.342-0.228-0.132-0.492-0.208-0.775-0.208-0.856 0-1.55 0.694-1.55 1.55s0.694 1.55 1.55 1.55c0.282 0 0.547-0.076 0.775-0.208-0.463-0.268-0.775-0.768-0.775-1.342z"
      ></path>
      <path
        fill="#231f20"
        style="fill: var(--color2, #231f20)"
        d="M22.523 22.383c-1.134 0-2.056-0.922-2.056-2.056s0.922-2.056 2.056-2.056c1.134 0 2.056 0.922 2.056 2.056s-0.922 2.056-2.056 2.056zM22.523 19.284c-0.575 0-1.043 0.468-1.043 1.043s0.468 1.043 1.043 1.043 1.043-0.468 1.043-1.043c0-0.575-0.468-1.043-1.043-1.043z"
      ></path>
      <path
        fill="#231f20"
        style="fill: var(--color2, #231f20)"
        d="M30.626 17.082c0 0.598-0.484 1.082-1.082 1.082s-1.082-0.485-1.082-1.082c0-0.598 0.485-1.082 1.082-1.082s1.082 0.484 1.082 1.082z"
      ></path>
    </symbol>
    <symbol id="sun" viewBox="0 0 32 32">
      <path
        fill="#f5c525"
        style="fill: var(--color4, #f5c525)"
        d="M32 16l-3.37 2.884 1.788 4.060-4.29 1.131-0.151 4.434-4.357-0.836-2.060 3.929-3.56-2.65-3.56 2.65-2.060-3.929-4.357 0.836-0.151-4.434-4.29-1.131 1.788-4.060-3.37-2.884 3.37-2.884-1.788-4.060 4.29-1.131 0.151-4.434 4.357 0.836 2.060-3.929 3.56 2.65 3.56-2.65 2.060 3.929 4.357-0.836 0.151 4.434 4.29 1.131-1.788 4.060z"
      ></path>
      <path
        fill="#f8a805"
        style="fill: var(--color5, #f8a805)"
        d="M26.667 16c0 5.891-4.776 10.667-10.667 10.667s-10.667-4.776-10.667-10.667c0-5.891 4.776-10.667 10.667-10.667s10.667 4.776 10.667 10.667z"
      ></path>
    </symbol>
    <symbol id="sun1" viewBox="0 0 32 32">
      <path
        d="M20.004 1.232c-4.516 0.911-1.203 4.481-4.646 6.801 0.303-0.031 0.609-0.044 0.916-0.039 1.018 0.016 2.049 0.232 3.037 0.67 0.31 0.137 0.608 0.292 0.891 0.463 0.757-2.967-2.319-6.024-0.197-7.894zM8.547 2.779c-2.547 3.835 2.312 4.021 1.525 8.088 1.088-1.328 2.573-2.244 4.197-2.645-1.563-2.634-5.9-2.62-5.723-5.443zM27.129 7.492c-2.034 0.054-2.842 2.895-6.037 2.264 1.334 1.089 2.252 2.578 2.654 4.207 2.644-1.557 2.628-5.904 5.455-5.726-0.839-0.558-1.504-0.759-2.072-0.744zM16.006 9.158c-1.479 0.029-2.908 0.551-4.057 1.477l1.166 2.26-2.49-0.822c-0.223 0.329-0.421 0.682-0.588 1.059-0.545 1.232-0.688 2.537-0.486 3.771l2.799 0.133-2.125 1.895c0.675 1.289 1.776 2.366 3.213 3.002 0.192 0.085 0.387 0.161 0.582 0.227l1.533-2.391 0.568 2.738c1.706 0.005 3.359-0.649 4.6-1.824l-1.199-2.32 2.4 0.791c0.114-0.199 0.22-0.407 0.314-0.621 0.609-1.376 0.716-2.844 0.402-4.201l-2.352-0.109 1.73-1.545c-0.677-1.262-1.765-2.317-3.18-2.943-0.086-0.038-0.172-0.073-0.258-0.107l-1.617 2.52-0.619-2.984c-0.031-0.001-0.063-0.001-0.094-0.002-0.081-0.001-0.163-0.002-0.244 0zM8.338 11.656c-2.603 0.045-5.155 2.178-6.795 0.318 0.911 4.515 4.479 1.206 6.799 4.645-0.135-1.311 0.058-2.672 0.629-3.961 0.136-0.307 0.29-0.6 0.459-0.881-0.364-0.092-0.728-0.127-1.092-0.121zM23.932 15.029c0.138 1.315-0.054 2.683-0.627 3.976l-0.012 0.023c-0.134 0.3-0.286 0.587-0.451 0.861 2.97 0.765 6.032-2.321 7.904-0.197-0.913-4.524-4.495-1.19-6.814-4.664zM8.533 17.713c-2.633 1.563-2.62 5.898-5.443 5.721 3.839 2.55 4.020-2.32 8.1-1.521-1.334-1.087-2.252-2.573-2.656-4.199zM22.225 20.769c-1.088 1.341-2.577 2.265-4.209 2.67 1.559 2.641 5.906 2.625 5.729 5.451 2.554-3.845-2.338-4.022-1.52-8.121zM12.088 22.545c-0.753 2.966 2.318 6.021 0.197 7.891 4.519-0.912 1.2-4.487 4.654-6.807-1.315 0.138-2.681-0.056-3.975-0.629-0.305-0.135-0.598-0.287-0.877-0.455z"
      ></path>
    </symbol>
    <symbol id="sun2" viewBox="0 0 32 32">
      <path
        fill="#000"
        style="fill: var(--color1, #000)"
        d="M32 16c0 8.837-7.163 16-16 16s-16-7.163-16-16c0-8.837 7.163-16 16-16s16 7.163 16 16z"
      ></path>
      <path
        fill="#fff99a"
        style="fill: var(--color2, #fff99a)"
        d="M23.703 16c0 4.254-3.449 7.703-7.703 7.703s-7.703-3.449-7.703-7.703c0-4.254 3.449-7.703 7.703-7.703s7.703 3.449 7.703 7.703z"
      ></path>
      <path
        fill="#ffd800"
        style="fill: var(--color3, #ffd800)"
        d="M27.636 16c0-0.803-1.93-1.334-2.061-1.97s1.441-1.864 1.146-2.559c-0.294-0.696-2.265-0.416-2.617-0.936s0.649-2.237 0.123-2.763c-0.527-0.526-2.243 0.474-2.763 0.123s-0.24-2.322-0.936-2.617-1.923 1.276-2.559 1.146c-0.636-0.13-1.167-2.060-1.97-2.060s-1.334 1.93-1.97 2.060c-0.636 0.13-1.863-1.44-2.56-1.146s-0.416 2.265-0.935 2.617-2.237-0.649-2.763-0.123c-0.527 0.527 0.474 2.243 0.123 2.763s-2.322 0.239-2.617 0.936c-0.294 0.696 1.276 1.923 1.146 2.559s-2.061 1.166-2.061 1.97c0 0.803 1.93 1.333 2.061 1.97s-1.441 1.863-1.146 2.559 2.265 0.416 2.617 0.935c0.351 0.52-0.649 2.237-0.123 2.763s2.243-0.474 2.763-0.123c0.52 0.351 0.24 2.322 0.935 2.617s1.923-1.276 2.56-1.146c0.636 0.13 1.167 2.060 1.97 2.060s1.334-1.93 1.97-2.060c0.636-0.13 1.863 1.441 2.559 1.146s0.416-2.265 0.936-2.617c0.52-0.351 2.237 0.65 2.763 0.123s-0.474-2.243-0.123-2.763c0.351-0.52 2.322-0.239 2.617-0.935s-1.276-1.923-1.146-2.559c0.13-0.637 2.061-1.167 2.061-1.97zM16 24.735c-4.824 0-8.735-3.911-8.735-8.735s3.911-8.735 8.735-8.735 8.735 3.911 8.735 8.735c0 4.824-3.911 8.735-8.735 8.735z"
      ></path>
    </symbol>
    <symbol id="sun3" viewBox="0 0 32 32">
      <path
        d="M16 7.885c-4.474 0-8.115 3.64-8.115 8.115s3.64 8.115 8.115 8.115 8.115-3.64 8.115-8.115c0-4.474-3.64-8.115-8.115-8.115z"
      ></path>
      <path
        d="M28.089 16l2.972-3.993c0.203-0.273 0.261-0.627 0.156-0.951s-0.361-0.576-0.685-0.678l-4.751-1.484 0.057-4.977c0.004-0.34-0.157-0.661-0.433-0.861s-0.63-0.254-0.953-0.145l-4.716 1.592-2.88-4.060c-0.197-0.278-0.516-0.442-0.856-0.442s-0.659 0.165-0.856 0.442l-2.88 4.060-4.716-1.592c-0.322-0.109-0.677-0.055-0.953 0.145s-0.436 0.521-0.433 0.861l0.057 4.977-4.751 1.484c-0.325 0.101-0.58 0.354-0.685 0.678s-0.047 0.678 0.156 0.951l2.972 3.993-2.972 3.993c-0.203 0.273-0.261 0.627-0.156 0.951s0.361 0.576 0.685 0.678l4.751 1.484-0.057 4.977c-0.004 0.34 0.157 0.661 0.433 0.861s0.63 0.254 0.953 0.145l4.716-1.592 2.88 4.060c0.197 0.277 0.516 0.442 0.856 0.442s0.659-0.165 0.856-0.442l2.88-4.060 4.716 1.592c0.322 0.109 0.677 0.055 0.953-0.145s0.436-0.521 0.433-0.861l-0.057-4.977 4.751-1.484c0.325-0.101 0.58-0.354 0.685-0.678s0.047-0.678-0.156-0.951l-2.972-3.993zM16 26.214c-5.632 0-10.214-4.582-10.214-10.214s4.582-10.214 10.214-10.214 10.214 4.582 10.214 10.214-4.582 10.214-10.214 10.214z"
      ></path>
    </symbol>
    <symbol id="sun4" viewBox="0 0 32 32">
      <path
        d="M16 6.991c-4.967 0-9.008 4.041-9.008 9.008s4.041 9.009 9.008 9.009 9.008-4.041 9.008-9.008-4.041-9.009-9.008-9.009zM16 22.482c-3.574 0-6.482-2.908-6.482-6.482s2.908-6.482 6.482-6.482 6.482 2.908 6.482 6.482-2.908 6.482-6.482 6.482z"
      ></path>
      <path
        d="M19.198 3.219l-2.215-2.749c-0.506-0.628-1.463-0.626-1.967 0l-2.215 2.749c-0.438 0.543-0.352 1.338 0.191 1.776s1.338 0.352 1.776-0.191l1.231-1.528 1.231 1.528c0.438 0.543 1.233 0.629 1.776 0.191s0.629-1.233 0.191-1.776z"
      ></path>
      <path
        d="M19.007 27.005c-0.544-0.438-1.338-0.352-1.776 0.191l-1.231 1.528-1.231-1.528c-0.438-0.543-1.233-0.629-1.776-0.191s-0.629 1.233-0.191 1.776l2.214 2.749c0.506 0.628 1.462 0.626 1.967 0l2.215-2.749c0.438-0.543 0.352-1.338-0.191-1.776z"
      ></path>
      <path
        d="M9.224 4.701l-3.509-0.378c-0.8-0.086-1.477 0.59-1.391 1.391l0.378 3.509c0.075 0.693 0.697 1.195 1.391 1.121s1.195-0.697 1.121-1.391l-0.21-1.951 1.951 0.21c0.693 0.075 1.316-0.427 1.391-1.121s-0.427-1.316-1.121-1.391z"
      ></path>
      <path
        d="M27.677 26.285l-0.378-3.509c-0.075-0.694-0.697-1.195-1.391-1.121s-1.195 0.697-1.121 1.391l0.21 1.951-1.951-0.21c-0.694-0.075-1.316 0.427-1.391 1.121s0.427 1.316 1.121 1.391l3.509 0.378c0.803 0.086 1.477-0.592 1.391-1.391z"
      ></path>
      <path
        d="M4.804 17.231l-1.528-1.231 1.528-1.231c0.543-0.438 0.629-1.233 0.191-1.776s-1.233-0.629-1.776-0.191l-2.749 2.214c-0.628 0.506-0.626 1.463 0 1.967l2.749 2.215c0.544 0.438 1.339 0.352 1.776-0.191s0.352-1.338-0.191-1.776z"
      ></path>
      <path
        d="M31.53 15.016l-2.749-2.214c-0.544-0.438-1.338-0.352-1.776 0.191s-0.352 1.338 0.191 1.776l1.528 1.231-1.528 1.231c-0.543 0.438-0.629 1.233-0.191 1.776s1.233 0.629 1.776 0.191l2.749-2.215c0.628-0.506 0.626-1.462 0-1.967z"
      ></path>
      <path
        d="M10.345 25.908c-0.075-0.694-0.696-1.195-1.391-1.121l-1.951 0.21 0.21-1.951c0.075-0.694-0.427-1.316-1.121-1.391s-1.316 0.427-1.391 1.121l-0.378 3.509c-0.086 0.802 0.591 1.477 1.391 1.391l3.509-0.378c0.694-0.075 1.195-0.697 1.121-1.391z"
      ></path>
      <path
        d="M26.285 4.323l-3.509 0.378c-0.694 0.075-1.195 0.697-1.121 1.391s0.697 1.195 1.391 1.121l1.951-0.21-0.21 1.951c-0.080 0.745 0.503 1.398 1.257 1.398 0.637 0 1.184-0.48 1.254-1.128l0.378-3.509c0.086-0.803-0.593-1.477-1.391-1.391z"
      ></path>
    </symbol>
    <symbol id="sun5" viewBox="0 0 32 32">
      <path
        d="M16 8.617c-4.071 0-7.383 3.312-7.383 7.383s3.312 7.383 7.383 7.383c4.071 0 7.382-3.312 7.382-7.383s-3.312-7.383-7.382-7.383zM15.209 16.894h-0.039c-0.080 0-0.145-0.065-0.145-0.145s0.065-0.145 0.145-0.145h0.039c0.237 0 0.43-0.192 0.43-0.43v-1.908c0.119 0.025 0.24 0.038 0.361 0.038s0.242-0.013 0.361-0.038v1.909c0 0.237 0.192 0.43 0.43 0.43h0.039c0.080 0 0.145 0.065 0.145 0.145s-0.065 0.145-0.145 0.145h-0.039c-0.237 0-0.43 0.192-0.43 0.43v0.188c0 0.199-0.162 0.361-0.361 0.361s-0.361-0.162-0.361-0.361v-0.188c0-0.237-0.192-0.43-0.43-0.43zM10.565 12.398c0.274-0.043 0.541-0.124 0.796-0.243 1.168-0.543 2.546-0.419 3.599 0.322 0.003 0.002 0.006 0.004 0.009 0.007 0.309 0.219 0.67 0.328 1.031 0.328s0.723-0.11 1.031-0.329c0.614-0.435 1.336-0.664 2.088-0.664 0.529 0 1.041 0.113 1.519 0.335 0.254 0.119 0.522 0.2 0.797 0.243 0.142 0.214 0.272 0.436 0.389 0.667-0.284-0.012-0.566-0.078-0.823-0.198-1.45-0.674-3.162-0.518-4.467 0.407-0.32 0.227-0.749 0.227-1.069 0-0.001-0.001-0.002-0.001-0.002-0.002-1.305-0.924-3.015-1.079-4.465-0.406-0.261 0.121-0.537 0.188-0.822 0.198 0.117-0.231 0.247-0.453 0.389-0.667zM11.36 13.646c0.333-0.155 0.683-0.255 1.037-0.303-0.113 0.127-0.183 0.295-0.183 0.479 0 0.259 0.137 0.485 0.341 0.612-0.524-0.027-1.045-0.206-1.495-0.546l-0.114-0.086c0.14-0.042 0.279-0.093 0.414-0.156zM13.658 13.822c0-0.174-0.062-0.333-0.164-0.458 0.363 0.062 0.717 0.18 1.049 0.352-0.32 0.296-0.697 0.504-1.098 0.618 0.132-0.131 0.213-0.312 0.213-0.512zM18.506 13.365c-0.102 0.125-0.164 0.284-0.164 0.458 0 0.2 0.082 0.381 0.213 0.512-0.401-0.114-0.778-0.321-1.098-0.618 0.332-0.172 0.686-0.289 1.049-0.352zM19.785 13.822c0-0.184-0.069-0.351-0.183-0.479 0.354 0.048 0.704 0.148 1.037 0.302 0.134 0.062 0.273 0.114 0.415 0.155l-0.115 0.087c-0.45 0.34-0.971 0.518-1.495 0.546 0.204-0.127 0.341-0.353 0.341-0.612zM20.331 11.127c-0.392-0.111-0.798-0.167-1.212-0.167-0.931 0-1.825 0.284-2.585 0.823-0.317 0.225-0.742 0.227-1.060 0.006-0.003-0.002-0.006-0.004-0.008-0.006-1.109-0.786-2.511-1.016-3.798-0.654 1.153-1.027 2.671-1.652 4.333-1.652s3.178 0.624 4.331 1.65zM16 22.523c-3.597 0-6.523-2.926-6.523-6.523 0-0.695 0.11-1.366 0.312-1.995l0.754 0.569c1.277 0.964 2.993 0.948 4.236 0.057v0.145c-0.931 1.108-2.562 1.294-3.718 0.42-0.189-0.143-0.459-0.105-0.602 0.084s-0.105 0.459 0.084 0.602c0.646 0.487 1.403 0.724 2.155 0.724 0.559 0 1.114-0.132 1.618-0.388-0.096 0.154-0.152 0.335-0.152 0.529 0 0.42 0.259 0.78 0.626 0.93 0.082 0.594 0.593 1.053 1.209 1.053s1.127-0.459 1.209-1.053c0.367-0.15 0.626-0.51 0.626-0.93 0-0.194-0.056-0.375-0.152-0.529 0.504 0.256 1.060 0.388 1.618 0.388 0.752 0 1.51-0.237 2.155-0.724 0.189-0.143 0.227-0.413 0.084-0.602s-0.413-0.227-0.602-0.084c-1.157 0.873-2.787 0.688-3.718-0.42v-0.145c1.244 0.891 2.959 0.907 4.236-0.057l0.754-0.569c0.202 0.629 0.312 1.299 0.312 1.994-0 3.597-2.926 6.523-6.523 6.523z"
      ></path>
      <path
        d="M31.695 15.589l-6.628-2.018 4.731-5.062c0.129-0.138 0.153-0.345 0.058-0.508s-0.285-0.247-0.469-0.204l-6.749 1.566 1.566-6.749c0.043-0.184-0.040-0.375-0.204-0.469s-0.37-0.071-0.508 0.058l-5.062 4.731-2.019-6.628c-0.055-0.181-0.222-0.305-0.411-0.305s-0.356 0.124-0.411 0.305l-2.019 6.628-5.062-4.731c-0.138-0.129-0.344-0.153-0.508-0.058s-0.247 0.285-0.204 0.469l1.566 6.749-6.749-1.566c-0.184-0.043-0.375 0.040-0.469 0.204s-0.071 0.37 0.058 0.508l4.731 5.062-6.628 2.018c-0.181 0.055-0.305 0.222-0.305 0.411s0.124 0.356 0.305 0.411l6.628 2.018-4.731 5.062c-0.129 0.138-0.153 0.345-0.058 0.508s0.285 0.247 0.469 0.204l6.749-1.566-1.566 6.749c-0.043 0.184 0.040 0.375 0.204 0.469s0.37 0.071 0.508-0.058l5.062-4.731 2.019 6.628c0.055 0.181 0.222 0.305 0.411 0.305s0.356-0.124 0.411-0.305l2.018-6.628 5.062 4.731c0.138 0.129 0.344 0.153 0.508 0.058s0.247-0.285 0.204-0.469l-1.566-6.749 6.749 1.566c0.184 0.043 0.375-0.040 0.469-0.204s0.071-0.37-0.058-0.508l-4.731-5.062 6.628-2.018c0.181-0.055 0.305-0.222 0.305-0.411s-0.124-0.356-0.305-0.411zM28.207 8.952l-4.111 4.399c-0.14-0.426-0.312-0.838-0.514-1.232l1.996-1.152c0.206-0.119 0.276-0.382 0.157-0.587s-0.381-0.276-0.587-0.157l-1.997 1.153c-0.243-0.375-0.516-0.73-0.813-1.062l5.87-1.362zM16 23.658c-4.223 0-7.658-3.435-7.658-7.658s3.435-7.658 7.658-7.658 7.658 3.435 7.658 7.658c0 4.223-3.435 7.658-7.658 7.658zM21.685 9.664c-0.331-0.298-0.686-0.57-1.061-0.813l1.153-1.997c0.119-0.206 0.048-0.468-0.157-0.587s-0.468-0.048-0.587 0.157l-1.152 1.995c-0.394-0.203-0.806-0.375-1.232-0.515l4.399-4.111-1.362 5.87zM16 1.905l1.754 5.76c-0.43-0.090-0.873-0.149-1.324-0.171v-2.303c0-0.237-0.192-0.43-0.43-0.43s-0.43 0.192-0.43 0.43v2.303c-0.452 0.023-0.894 0.081-1.324 0.171l1.754-5.76zM8.952 3.793l4.399 4.111c-0.426 0.14-0.838 0.312-1.232 0.514l-1.152-1.995c-0.119-0.206-0.382-0.276-0.587-0.157s-0.276 0.381-0.157 0.587l1.153 1.997c-0.375 0.243-0.73 0.516-1.062 0.813l-1.362-5.87zM3.793 8.952l5.87 1.362c-0.298 0.331-0.57 0.686-0.813 1.061l-1.997-1.153c-0.205-0.119-0.468-0.048-0.587 0.157s-0.048 0.468 0.157 0.587l1.995 1.152c-0.202 0.394-0.375 0.806-0.514 1.232l-4.111-4.399zM1.905 16l5.759-1.754c-0.091 0.431-0.149 0.873-0.171 1.324h-2.303c-0.237 0-0.43 0.192-0.43 0.43s0.192 0.43 0.43 0.43h2.303c0.023 0.452 0.081 0.894 0.171 1.324l-5.76-1.754zM3.793 23.047l4.111-4.399c0.14 0.426 0.312 0.838 0.515 1.232l-1.995 1.152c-0.206 0.119-0.276 0.381-0.157 0.587 0.080 0.138 0.224 0.215 0.373 0.215 0.073 0 0.147-0.019 0.215-0.058l1.997-1.153c0.243 0.375 0.516 0.73 0.813 1.061l-5.87 1.362zM10.314 22.336c0.332 0.298 0.686 0.57 1.062 0.813l-1.153 1.997c-0.119 0.206-0.048 0.468 0.157 0.587 0.068 0.039 0.142 0.058 0.214 0.058 0.149 0 0.293-0.077 0.373-0.215l1.152-1.995c0.394 0.202 0.806 0.375 1.232 0.514l-4.399 4.111 1.362-5.87zM16 30.095l-1.754-5.76c0.431 0.091 0.873 0.149 1.324 0.171v2.303c0 0.237 0.192 0.43 0.43 0.43s0.43-0.192 0.43-0.43v-2.303c0.451-0.023 0.894-0.081 1.324-0.171l-1.754 5.76zM23.047 28.207l-4.399-4.111c0.426-0.14 0.838-0.312 1.232-0.515l1.152 1.996c0.080 0.138 0.224 0.215 0.373 0.215 0.073 0 0.147-0.019 0.215-0.058 0.206-0.119 0.276-0.381 0.157-0.587l-1.153-1.997c0.375-0.243 0.73-0.516 1.061-0.813l1.362 5.87zM28.207 23.047l-5.87-1.362c0.298-0.331 0.57-0.686 0.813-1.061l1.997 1.153c0.068 0.039 0.142 0.058 0.215 0.058 0.148 0 0.293-0.077 0.373-0.215 0.119-0.206 0.048-0.468-0.157-0.587l-1.996-1.152c0.202-0.394 0.375-0.806 0.514-1.232l4.111 4.399zM24.335 17.754c0.090-0.43 0.149-0.873 0.171-1.324h2.303c0.237 0 0.43-0.192 0.43-0.43s-0.192-0.43-0.43-0.43h-2.303c-0.023-0.452-0.081-0.894-0.171-1.324l5.76 1.754-5.76 1.754z"
      ></path>
      <path
        d="M17.015 19.843l-0.446-0.132c-0.080-0.024-0.165-0.024-0.244 0l-0.324 0.096-0.324-0.096c-0.080-0.024-0.164-0.024-0.244 0l-0.447 0.132c-0.228 0.067-0.357 0.307-0.29 0.534 0.055 0.187 0.226 0.308 0.412 0.308 0.040 0 0.081-0.006 0.122-0.018l0.325-0.096 0.325 0.096c0.080 0.024 0.164 0.024 0.244 0l0.324-0.096 0.324 0.096c0.228 0.067 0.467-0.062 0.534-0.29s-0.062-0.467-0.29-0.534z"
      ></path>
      <path
        d="M16.324 20.756l-0.324 0.096-0.324-0.096c-0.228-0.067-0.467 0.062-0.534 0.29s0.062 0.467 0.29 0.534l0.446 0.132c0.040 0.012 0.081 0.018 0.122 0.018s0.082-0.006 0.122-0.018l0.446-0.132c0.228-0.067 0.357-0.307 0.29-0.534s-0.307-0.357-0.534-0.29z"
      ></path>
      <path
        d="M15.203 19.545c0.223 0.080 0.47-0.037 0.549-0.26s-0.037-0.469-0.26-0.549c-0.901-0.322-1.896 0.084-2.316 0.944-0.019 0.039-0.052 0.053-0.076 0.058s-0.059 0.004-0.091-0.026c-0.175-0.16-0.447-0.149-0.607 0.026s-0.149 0.447 0.026 0.607c0.181 0.166 0.41 0.254 0.649 0.254 0.061 0 0.122-0.006 0.183-0.017 0.302-0.057 0.553-0.249 0.688-0.525 0.227-0.466 0.767-0.685 1.254-0.511z"
      ></path>
      <path
        d="M18.991 19.711c-0.032 0.030-0.067 0.030-0.091 0.026s-0.056-0.018-0.076-0.058c-0.419-0.86-1.415-1.265-2.316-0.944-0.223 0.080-0.34 0.326-0.26 0.549s0.326 0.34 0.549 0.26c0.487-0.174 1.027 0.045 1.254 0.511 0.135 0.276 0.386 0.468 0.688 0.525 0.061 0.012 0.123 0.017 0.183 0.017 0.239 0 0.468-0.088 0.649-0.254 0.175-0.16 0.187-0.432 0.026-0.607s-0.432-0.187-0.607-0.026z"
      ></path>
    </symbol>
    <symbol id="sun7" viewBox="0 0 32 32">
      <path
        fill="#fcb641"
        style="fill: var(--color1, #fcb641)"
        d="M31.471 15.996l-3.595 3.169 1.51 4.548-4.703 0.925-0.967 4.695-4.539-1.541-3.177 3.588-3.177-3.588-4.539 1.541-0.967-4.695-4.703-0.925 1.511-4.548-3.595-3.168 3.595-3.168-1.511-4.548 4.704-0.925 0.967-4.695 4.539 1.541 3.177-3.588 3.177 3.588 4.539-1.541 0.967 4.695 4.704 0.925-1.511 4.548z"
      ></path>
      <path
        fill="#4d4d4d"
        style="fill: var(--color2, #4d4d4d)"
        d="M16 31.909c-0.151 0-0.296-0.065-0.397-0.178l-2.944-3.324-4.206 1.427c-0.143 0.048-0.302 0.034-0.433-0.042s-0.224-0.204-0.255-0.353l-0.896-4.35-4.358-0.858c-0.149-0.029-0.279-0.121-0.355-0.253s-0.093-0.289-0.045-0.434l1.4-4.215-3.331-2.936c-0.114-0.1-0.179-0.245-0.179-0.397s0.066-0.297 0.179-0.397l3.331-2.937-1.4-4.216c-0.048-0.144-0.031-0.302 0.045-0.434s0.206-0.223 0.355-0.253l4.358-0.858 0.896-4.349c0.031-0.149 0.123-0.277 0.255-0.353s0.29-0.091 0.433-0.042l4.205 1.427 2.944-3.324c0.201-0.227 0.592-0.227 0.793 0l2.944 3.324 4.206-1.427c0.144-0.049 0.301-0.033 0.433 0.042s0.225 0.204 0.255 0.353l0.896 4.35 4.357 0.858c0.149 0.029 0.278 0.121 0.355 0.253s0.093 0.289 0.045 0.434l-1.4 4.216 3.332 2.936c0.116 0.1 0.182 0.245 0.182 0.397s-0.065 0.297-0.18 0.397l-3.332 2.936 1.4 4.216c0.048 0.144 0.032 0.302-0.045 0.434s-0.206 0.223-0.355 0.253l-4.358 0.858-0.896 4.349c-0.031 0.149-0.123 0.277-0.255 0.353s-0.29 0.091-0.433 0.042l-4.205-1.427-2.944 3.324c-0.102 0.113-0.246 0.178-0.398 0.178zM12.823 27.262c0.149 0 0.294 0.063 0.397 0.178l2.781 3.14 2.781-3.14c0.142-0.159 0.365-0.219 0.567-0.15l3.97 1.348 0.847-4.107c0.043-0.209 0.208-0.372 0.416-0.412l4.114-0.81-1.321-3.977c-0.067-0.201-0.007-0.424 0.152-0.564l3.144-2.771-3.144-2.771c-0.159-0.14-0.219-0.363-0.152-0.564l1.321-3.977-4.114-0.81c-0.209-0.041-0.373-0.204-0.416-0.412l-0.847-4.108-3.971 1.348c-0.202 0.069-0.426 0.010-0.567-0.15l-2.781-3.141-2.781 3.14c-0.141 0.16-0.365 0.22-0.567 0.15l-3.971-1.348-0.847 4.107c-0.043 0.209-0.207 0.372-0.417 0.412l-4.114 0.81 1.321 3.977c0.067 0.201 0.007 0.424-0.152 0.564l-3.144 2.771 3.144 2.771c0.159 0.14 0.22 0.363 0.152 0.564l-1.321 3.977 4.114 0.81c0.21 0.041 0.373 0.204 0.417 0.412l0.847 4.108 3.971-1.348c0.056-0.017 0.113-0.026 0.171-0.026z"
      ></path>
      <path
        fill="#fdc567"
        style="fill: var(--color3, #fdc567)"
        d="M24.844 16.171c0 4.885-3.96 8.845-8.845 8.845s-8.845-3.96-8.845-8.845c0-4.885 3.96-8.845 8.845-8.845s8.845 3.96 8.845 8.845z"
      ></path>
      <path
        fill="#4d4d4d"
        style="fill: var(--color2, #4d4d4d)"
        d="M16 25.545c-5.169 0-9.374-4.205-9.374-9.374s4.205-9.374 9.374-9.374 9.374 4.205 9.374 9.374c0 5.169-4.205 9.374-9.374 9.374zM16 7.856c-4.585 0-8.315 3.73-8.315 8.315s3.731 8.315 8.315 8.315c4.585 0 8.315-3.73 8.315-8.315s-3.73-8.315-8.315-8.315z"
      ></path>
    </symbol>
    <symbol id="moon1" viewBox="0 0 32 32">
      <path
        fill="#344e5d"
        style="fill: var(--color1, #344e5d)"
        d="M32 16c0 8.837-7.163 16-16 16s-16-7.163-16-16c0-8.837 7.163-16 16-16s16 7.163 16 16z"
      ></path>
      <path
        fill="#f1eb75"
        style="fill: var(--color2, #f1eb75)"
        d="M16.775 16.386c0-3.533 1.925-6.613 4.783-8.257-1.064-0.446-2.232-0.693-3.458-0.693-4.943 0-8.95 4.007-8.95 8.95s4.007 8.95 8.95 8.95c1.226 0 2.394-0.247 3.458-0.693-2.857-1.643-4.783-4.724-4.783-8.256z"
      ></path>
    </symbol>
    <symbol id="moon2" viewBox="0 0 32 32">
      <path
        fill="#334d5c"
        style="fill: var(--color3, #334d5c)"
        d="M16 0c-8.837 0-16 7.163-16 16 0 8.836 7.164 15.999 16 15.999s16-7.163 16-15.999c0-8.837-7.164-16-16-16z"
      ></path>
      <path
        fill="#f2c900"
        style="fill: var(--color4, #f2c900)"
        d="M20.792 5.21c0.651 1.464 1.014 3.086 1.014 4.792 0 6.519-5.285 11.804-11.804 11.804-1.706 0-3.327-0.363-4.792-1.014 1.837 4.131 5.977 7.012 10.79 7.012 6.519 0 11.804-5.285 11.804-11.804 0-4.813-2.881-8.953-7.012-10.79z"
      ></path>
      <path
        fill="#dbbb00"
        style="fill: var(--color5, #dbbb00)"
        d="M10.002 21.806c-1.706 0-3.327-0.363-4.792-1.014 1.837 4.131 5.977 7.012 10.79 7.012 6.519 0 11.804-5.285 11.804-11.804 0 0-11.283 5.806-17.802 5.806z"
      ></path>
      <path
        fill="#dbbb00"
        style="fill: var(--color5, #dbbb00)"
        d="M15.262 12.168l-1.738-0.061-0.546-1.598-0.546 1.598-1.738 0.061 1.4 0.977-0.528 1.707 1.411-1.066 1.411 1.066-0.528-1.707z"
      ></path>
      <path
        fill="#f2c900"
        style="fill: var(--color4, #f2c900)"
        d="M13.533 12.561l0.299-1.136-0.946 0.696-1.027-0.634 0.409 1.113-0.96 0.782 1.224-0.046 0.408 1.155 0.374-1.18 1.186-0.030z"
      ></path>
      <path
        fill="#dbbb00"
        style="fill: var(--color5, #dbbb00)"
        d="M6.548 14.815l-1.25-0.044-0.393-1.15-0.393 1.15-1.25 0.044 1.008 0.703-0.38 1.229 1.016-0.767 1.016 0.767-0.38-1.229z"
      ></path>
      <path
        fill="#f2c900"
        style="fill: var(--color4, #f2c900)"
        d="M5.303 15.097l0.215-0.817-0.681 0.501-0.739-0.457 0.294 0.801-0.691 0.562 0.881-0.033 0.293 0.831 0.269-0.849 0.853-0.021z"
      ></path>
      <path
        fill="#dbbb00"
        style="fill: var(--color5, #dbbb00)"
        d="M17.971 4.424l-1.501-0.053-0.471-1.38-0.472 1.38-1.501 0.053 1.209 0.844-0.456 1.475 1.219-0.92 1.219 0.92-0.456-1.475z"
      ></path>
      <path
        fill="#f2c900"
        style="fill: var(--color4, #f2c900)"
        d="M16.477 4.763l0.259-0.981-0.817 0.601-0.887-0.548 0.353 0.962-0.829 0.675 1.058-0.040 0.352 0.998 0.323-1.019 1.024-0.026z"
      ></path>
    </symbol>
    <symbol id="mic" viewBox="0 0 32 32">
      <path
        d="M15 22c2.761 0 5-2.239 5-5v-12c0-2.761-2.239-5-5-5s-5 2.239-5 5v12c0 2.761 2.239 5 5 5zM22 14v3c0 3.866-3.134 7-7 7s-7-3.134-7-7v-3h-2v3c0 4.632 3.5 8.447 8 8.944v4.056h-4v2h10v-2h-4v-4.056c4.5-0.497 8-4.312 8-8.944v-3h-2z"
      ></path>
    </symbol>
  </defs>
</svg>
