<svg aria-hidden="true" style="position:absolute;width:0;height:0" xmlns="http://www.w3.org/2000/svg" overflow="hidden">
<defs>
<symbol id="close" viewBox="0 0 32 32"><path d="M26.667 7.303l-1.97-1.97-7.808 7.808-7.808-7.808-1.97 1.97 7.808 7.808-7.808 7.808 1.97 1.97 7.808-7.808 7.808 7.808 1.97-1.97-7.808-7.808 7.808-7.808z"/></symbol>
<symbol id="logo" viewBox="0 0 32 32"><path fill="none" stroke="var(--color1, #818181)" stroke-linejoin="round" stroke-linecap="round" stroke-width="2.667" d="M26.427 2.667H5.574a2.907 2.907 0 0 0-2.907 2.907v20.853a2.907 2.907 0 0 0 2.907 2.907h20.853a2.907 2.907 0 0 0 2.907-2.907V5.574a2.907 2.907 0 0 0-2.907-2.907zM9.333 2.667v26.667M22.667 2.667v26.667M2.667 16h26.667M2.667 9.333h6.667M2.667 22.667h6.667M22.667 22.667h6.667M22.667 9.333h6.667"/></symbol>
<symbol id="loupe" viewBox="0 0 32 32"><path fill="none" stroke="var(--color2, #fff)" stroke-linejoin="round" stroke-linecap="round" stroke-width="2.667" d="M14.667 25.333c5.891 0 10.667-4.776 10.667-10.667S20.558 3.999 14.667 3.999 4 8.775 4 14.666s4.776 10.667 10.667 10.667zM28 28.001l-5.8-5.8"/></symbol>
<symbol id="rocket" viewBox="0 0 32 32"><path fill="var(--color3, #000)" d="M5.543 22.602c-2.045 2.045-2.155 5.773-2.155 5.773s3.725-.11 5.772-2.155 2.895-4.512 1.895-5.51c-1-1-3.467-.152-5.513 1.892z"/><path fill="var(--color4, #424242)" opacity=".2" d="M9.887 20.79c.357 0 .63.093.813.273.688.688.078 2.83-1.895 4.805-1.425 1.425-3.797 1.845-4.872 1.965.12-1.075.54-3.448 1.962-4.872 1.317-1.32 2.885-2.17 3.992-2.17zm0-.5c-1.203 0-2.883.85-4.345 2.315-2.045 2.045-2.155 5.773-2.155 5.773s3.725-.11 5.773-2.155 2.895-4.512 1.895-5.51c-.285-.29-.688-.422-1.168-.422z"/><path fill="var(--color3, #000)" d="M6.162 23.323c-1.287 1.288-1.357 3.633-1.357 3.633s2.345-.07 3.633-1.357c1.287-1.288 1.822-2.843 1.192-3.47s-2.178-.095-3.467 1.195z"/><path fill="var(--color5, #546e7a)" d="M8.803 23.345c1.225 1.308 2.832 1.17 2.965.955l1.12-1.82c.068-.11.005-.285-.043-.33l-3.023-3.023c-.047-.047-.215-.102-.325-.035l-1.82 1.12c-.213.133-.452 1.445 1.125 3.133z"/><path fill="var(--color6, #0288d1)" d="M17.032 26.67c-.25.203-.585.157-.628-.142-.117-.83-.04-2.497-1.085-3.543-1.02-1.02-2.678-1.17-2.678-1.17l6.24-3.075s1.175 1.813.527 4.393c-.54 2.133-1.462 2.79-2.378 3.538z"/><path fill="var(--color4, #424242)" opacity=".2" d="M18.53 19.747c.045.122.093.262.135.418.17.62.313 1.608.015 2.782-.378 1.505-.942 2.15-1.605 2.715-.085-.955-.27-2.255-1.227-3.21a4.37 4.37 0 0 0-1.162-.813l3.845-1.893zm.35-1.007-6.24 3.075s1.66.152 2.678 1.17c1.045 1.045.968 2.712 1.085 3.543a.295.295 0 0 0 .308.267c.105 0 .22-.043.32-.125.915-.747 1.837-1.405 2.375-3.538.652-2.582-.525-4.393-.525-4.393z"/><path fill="var(--color6, #0288d1)" d="M5.168 15.162c-.245.21-.157.585.143.627.83.117 2.498.04 3.543 1.085 1.02 1.02 1.232 2.465 1.232 2.465l3.015-6.383s-1.595-.748-3.915-.145c-1.6.418-3.188 1.635-4.018 2.35z"/><path fill="var(--color4, #424242)" opacity=".2" d="M10.985 13.328c.418 0 .777.045 1.063.1l-1.875 3.975a4.717 4.717 0 0 0-.79-1.055c-.887-.887-2.067-1.11-2.998-1.205.808-.615 1.905-1.32 2.985-1.603a6.305 6.305 0 0 1 1.615-.213zm0-.75c-.527 0-1.135.063-1.8.235-1.6.418-3.185 1.635-4.015 2.35-.245.21-.157.585.143.627.83.117 2.497.04 3.542 1.085 1.02 1.02 1.232 2.465 1.232 2.465l3.012-6.383s-.81-.38-2.115-.38z"/><path fill="var(--color4, #424242)" opacity=".2" d="m9.568 19.933 2.48 2.48-.783 1.273c-.025.003-.053.003-.082.003-.242 0-1.088-.063-1.832-.858-.943-1.008-1.09-1.795-1.078-2.102l1.295-.795zm.052-.873a.263.263 0 0 0-.123.03l-1.82 1.12c-.215.133-.455 1.445 1.123 3.133.803.858 1.77 1.095 2.38 1.095.32 0 .54-.065.585-.14l1.12-1.82c.068-.11.005-.285-.043-.33l-3.02-3.02a.327.327 0 0 0-.203-.067z"/><path fill="var(--color3, #000)" d="M21.017 4.622a12.806 12.806 0 0 1 3.68 2.567 12.829 12.829 0 0 1 2.594 3.787c-.657 1.727-1.898 3.738-3.11 4.95-4.953 4.953-10.422 7.78-13.252 5.777-.165-.117-.328-.225-.475-.358-2.428-2.183.352-8.43 5.402-13.48 1.268-1.268 3.38-2.563 5.16-3.245z"/><path fill="var(--color7, #455a64)" d="M21.273 10.222a2.225 2.225 0 1 1-3.147 3.147 2.225 2.225 0 0 1 3.147-3.147z"/><path fill="var(--color4, #424242)" opacity=".2" d="M19.7 10.07c.46 0 .895.18 1.22.505s.505.76.505 1.22-.18.895-.505 1.22c-.325.325-.76.505-1.22.505s-.895-.18-1.22-.505a1.729 1.729 0 0 1 0-2.44 1.714 1.714 0 0 1 1.22-.505zm0-.5a2.225 2.225 0 1 0 0 4.452 2.225 2.225 0 1 0 0-4.452z"/><path fill="var(--color7, #455a64)" d="M16.249 15.53a1.61 1.61 0 1 1-2.276 2.277 1.61 1.61 0 0 1 2.276-2.277z"/><path fill="var(--color8, #e53935)" d="M21.017 4.622c-.462 2.282 3.567 6.753 6.275 6.355.843-2.178 1.188-3.655 1.418-6.197.117-1.288-.26-1.655-1.453-1.515-3.163.37-4.412.61-6.24 1.357z"/><path fill="var(--color4, #424242)" opacity=".2" d="M27.685 3.987c.15 0 .225.018.253.027.02.045.07.22.027.697-.223 2.462-.543 3.862-1.37 5.997-.635 1.662-1.845 3.59-2.942 4.688-3.828 3.827-7.848 6.207-10.492 6.207-.713 0-1.317-.172-1.797-.512l-.082-.058a3.3 3.3 0 0 1-.325-.245c-.405-.365-.62-.922-.64-1.657-.07-2.675 2.425-7.09 6.07-10.735 1.143-1.143 3.157-2.408 4.898-3.072l.015-.008c1.768-.723 2.997-.95 6.043-1.308a3.11 3.11 0 0 1 .345-.022zm0-.75c-.13 0-.27.01-.427.027-3.163.37-4.413.61-6.24 1.357-1.78.68-3.892 1.975-5.16 3.243-5.05 5.05-7.83 11.298-5.402 13.48.145.13.307.24.475.358.625.442 1.38.65 2.23.65 2.995 0 7.165-2.567 11.025-6.425 1.212-1.213 2.453-3.223 3.11-4.95.843-2.178 1.188-3.655 1.418-6.197.098-1.117-.172-1.542-1.027-1.542z"/><path fill="var(--color4, #424242)" opacity=".2" d="M15.11 15.557c.297 0 .575.115.785.325s.325.487.325.785c0 .297-.115.575-.325.785s-.488.325-.785.325c-.297 0-.575-.115-.785-.325S14 16.964 14 16.667a1.11 1.11 0 0 1 1.11-1.11zm0-.5a1.61 1.61 0 0 0 0 3.221 1.61 1.61 0 0 0 0-3.221z"/></symbol>
</defs>
</svg>