<?xml version="1.0" encoding="UTF-8"?>
<!DOCTYPE svg PUBLIC "-//W3C//DTD SVG 1.1//EN" "http://www.w3.org/Graphics/SVG/1.1/DTD/svg11.dtd">
<svg xmlns="http://www.w3.org/2000/svg" version="1.1" width="897px" height="790px" style="shape-rendering:geometricPrecision; text-rendering:geometricPrecision; image-rendering:optimizeQuality; fill-rule:evenodd; clip-rule:evenodd" xmlns:xlink="http://www.w3.org/1999/xlink">
<g><path style="opacity:0.862" fill="#080704" d="M 896.5,331.5 C 896.5,332.167 896.5,332.833 896.5,333.5C 895.448,334.53 894.114,335.197 892.5,335.5C 829.323,324.268 765.656,319.934 701.5,322.5C 700.438,327.686 698.771,332.686 696.5,337.5C 762.496,339.708 827.496,348.874 891.5,365C 895.754,365.662 896.42,367.495 893.5,370.5C 828.322,352.975 761.988,343.808 694.5,343C 679.344,376.487 654.678,400.154 620.5,414C 591.891,425.523 562.224,432.856 531.5,436C 537.166,437.221 542.499,439.221 547.5,442C 545.413,445.508 543.08,448.842 540.5,452C 548.845,463.866 554.012,477.033 556,491.5C 557.45,534.475 557.95,577.475 557.5,620.5C 560.03,637.738 569.363,649.571 585.5,656C 591.4,662.197 590.733,667.364 583.5,671.5C 576.833,671.5 570.167,671.5 563.5,671.5C 529.057,668.399 511.723,649.732 511.5,615.5C 511.667,602.163 511.5,588.829 511,575.5C 509.039,578.463 506.706,581.129 504,583.5C 503.5,593.828 503.334,604.161 503.5,614.5C 502.343,622.656 502.177,630.99 503,639.5C 515.245,652.046 523.578,666.713 528,683.5C 522.975,689.596 516.475,692.93 508.5,693.5C 505.833,693.5 503.167,693.5 500.5,693.5C 484.008,688.519 470.675,679.019 460.5,665C 456.614,662.89 452.614,661.057 448.5,659.5C 444.386,661.057 440.386,662.89 436.5,665C 426.606,678.122 413.94,687.622 398.5,693.5C 394.5,693.5 390.5,693.5 386.5,693.5C 381.29,693.062 376.623,691.229 372.5,688C 370.129,686.257 368.795,683.923 368.5,681C 374.342,665.473 382.842,651.64 394,639.5C 394.823,631.323 394.656,623.323 393.5,615.5C 393.166,604.482 392.499,593.482 391.5,582.5C 389.142,580.976 387.309,578.976 386,576.5C 385.5,589.496 385.333,602.496 385.5,615.5C 384.396,649.609 366.729,668.276 332.5,671.5C 326.167,671.5 319.833,671.5 313.5,671.5C 305.843,666.719 305.509,661.219 312.5,655C 327.791,648.925 336.791,637.759 339.5,621.5C 339.5,596.5 339.5,571.5 339.5,546.5C 315.778,551.912 292.112,551.746 268.5,546C 260.238,543.452 252.405,539.952 245,535.5C 226.681,545.994 208.181,546.161 189.5,536C 186.244,534.413 184.077,531.913 183,528.5C 182.667,515.833 182.333,503.167 182,490.5C 166.021,478.554 162.354,463.554 171,445.5C 173.333,441.833 176.333,438.833 180,436.5C 180.829,432.839 182.329,429.505 184.5,426.5C 181.39,421.103 182.057,416.27 186.5,412C 190.981,410.046 195.648,408.713 200.5,408C 213.254,405.754 225.921,406.087 238.5,409C 242.538,409.899 246.205,411.566 249.5,414C 254.199,418.063 254.532,422.396 250.5,427C 252.726,428.227 254.226,430.061 255,432.5C 255.333,448.5 255.667,464.5 256,480.5C 272.134,492.732 290.301,497.232 310.5,494C 321.302,492.344 331.635,489.177 341.5,484.5C 344.397,473.207 349.063,462.707 355.5,453C 352.236,449.301 349.903,445.134 348.5,440.5C 353.441,438.91 358.441,437.41 363.5,436C 333.151,431.746 303.818,423.746 275.5,412C 242.237,397.707 216.903,374.707 199.5,343C 147.369,344.274 95.7025,349.94 44.5,360C 30.7046,363.032 17.0379,366.532 3.5,370.5C 2.1124,369.409 1.6124,368.076 2,366.5C 19.7848,360.608 37.9514,356.108 56.5,353C 102.896,345.394 149.562,340.227 196.5,337.5C 194.305,332.915 192.305,328.249 190.5,323.5C 126.691,320.201 63.3578,324.201 0.5,335.5C 0.5,334.167 0.5,332.833 0.5,331.5C 29.9078,325.782 59.5744,321.949 89.5,320C 122.504,317.992 155.504,317.159 188.5,317.5C 177.813,282.974 173.647,247.64 176,211.5C 176.821,199.895 178.988,188.562 182.5,177.5C 181.675,176.614 180.675,176.281 179.5,176.5C 184.153,160.038 189.32,143.705 195,127.5C 195.718,126.549 196.551,126.383 197.5,127C 198.786,129.022 199.786,131.189 200.5,133.5C 201.002,134.521 201.668,134.688 202.5,134C 207.464,126.705 212.797,119.705 218.5,113C 207.173,75.23 209.006,38.0634 224,1.5C 235.206,-0.0561961 246.373,0.443804 257.5,3C 288.195,11.9317 316.362,25.765 342,44.5C 355.325,40.7008 368.825,37.5341 382.5,35C 395.109,14.8509 413.442,4.18422 437.5,3C 444.833,2.33333 452.167,2.33333 459.5,3C 470.276,5.25914 480.942,7.92581 491.5,11C 505.481,16.3104 516.481,25.3104 524.5,38C 530.028,39.0389 535.528,40.2056 541,41.5C 559.966,29.5977 579.799,19.0977 600.5,10C 618.095,2.34677 636.429,-0.653225 655.5,1C 670.148,35.1258 672.815,70.1258 663.5,106C 670.08,112.075 676.08,118.575 681.5,125.5C 683.724,120.637 686.224,115.97 689,111.5C 695.598,128.129 701.098,145.129 705.5,162.5C 704.178,162.67 703.011,162.337 702,161.5C 697.918,147.588 693.252,133.921 688,120.5C 686.882,123.855 685.382,127.022 683.5,130C 700.323,154.13 709.823,180.964 712,210.5C 713.975,246.912 711.141,282.912 703.5,318.5C 768.337,315.608 832.671,319.941 896.5,331.5 Z M 443.5,5.5 C 449.861,5.60266 456.194,6.10266 462.5,7C 444.831,7.16561 428.498,11.8323 413.5,21C 409.465,24.7002 405.798,28.7002 402.5,33C 397.5,33.7792 392.5,34.1125 387.5,34C 395.996,20.742 407.996,12.4086 423.5,9C 430.257,7.50173 436.923,6.33506 443.5,5.5 Z M 456.5,10.5 C 477.257,8.21181 492.924,16.0451 503.5,34C 471.898,30.3656 440.232,29.699 408.5,32C 413.307,25.867 419.307,21.2003 426.5,18C 436.311,14.2138 446.311,11.7138 456.5,10.5 Z M 493.5,16.5 C 503.96,20.1102 512.293,26.6102 518.5,36C 515.134,36.3301 511.801,35.9967 508.5,35C 504.394,28.0652 499.394,21.8985 493.5,16.5 Z M 189.5,156.5 C 191.308,148.908 193.808,141.575 197,134.5C 198.373,136.695 198.706,139.029 198,141.5C 195.139,146.563 192.306,151.563 189.5,156.5 Z M 511.5,615.5 C 508.946,614.612 506.279,614.279 503.5,614.5C 503.334,604.161 503.5,593.828 504,583.5C 506.706,581.129 509.039,578.463 511,575.5C 511.5,588.829 511.667,602.163 511.5,615.5 Z M 393.5,615.5 C 390.833,615.5 388.167,615.5 385.5,615.5C 385.333,602.496 385.5,589.496 386,576.5C 387.309,578.976 389.142,580.976 391.5,582.5C 392.499,593.482 393.166,604.482 393.5,615.5 Z"/></g>
<g><path style="opacity:1" fill="#fec600" d="M 660.5,122.5 C 660.44,121.957 660.107,121.624 659.5,121.5C 658.516,124.428 658.183,127.428 658.5,130.5C 657.417,147.161 656.417,163.827 655.5,180.5C 656.5,180.5 657.5,180.5 658.5,180.5C 658.585,165.803 659.252,151.136 660.5,136.5C 661.167,133.833 661.833,131.167 662.5,128.5C 667.913,134.097 672.413,140.43 676,147.5C 678,142.833 680,138.167 682,133.5C 697.306,155.411 706.306,179.744 709,206.5C 710.356,238.673 708.689,270.673 704,302.5C 694.835,354.652 666.002,391.152 617.5,412C 577.56,426.88 536.227,434.88 493.5,436C 486.578,438.131 479.911,440.798 473.5,444C 467.198,445.659 460.865,447.159 454.5,448.5C 451.833,452.5 449.167,456.5 446.5,460.5C 443.868,456.069 440.868,451.902 437.5,448C 426.958,446.264 416.958,442.931 407.5,438C 402.9,436.683 398.234,435.683 393.5,435C 346.551,433.68 302.218,422.346 260.5,401C 219.957,377.082 194.79,341.915 185,295.5C 179.434,266.423 177.434,237.09 179,207.5C 181.361,184.082 188.695,162.415 201,142.5C 203.862,148.752 206.528,155.085 209,161.5C 213.018,154.786 217.518,148.453 222.5,142.5C 223.167,144.833 223.833,147.167 224.5,149.5C 225.208,164.498 225.875,179.498 226.5,194.5C 227.5,194.5 228.5,194.5 229.5,194.5C 228.445,177.508 227.445,160.508 226.5,143.5C 226.813,140.753 226.48,138.086 225.5,135.5C 224.893,135.624 224.56,135.957 224.5,136.5C 219.143,142.527 214.143,148.86 209.5,155.5C 206.878,150.469 204.545,145.302 202.5,140C 208.554,130.736 215.22,121.903 222.5,113.5C 211.531,83.1665 210.698,52.4999 220,21.5C 221.667,16.5 223.333,11.5 225,6.5C 225.5,4.66667 226.667,3.5 228.5,3C 246.899,2.90492 264.565,6.57158 281.5,14C 302.598,23.3781 322.598,34.5447 341.5,47.5C 400.543,31.6645 460.21,29.1645 520.5,40C 521.333,40.8333 522.167,41.6667 523,42.5C 524.838,46.842 526.672,51.1753 528.5,55.5C 528.833,54.8333 529.167,54.1667 529.5,53.5C 528.448,49.7301 527.115,46.0634 525.5,42.5C 529.574,41.6743 533.574,42.1743 537.5,44C 539.833,44.6667 542.167,44.6667 544.5,44C 572.454,23.525 603.454,9.85836 637.5,3C 643.195,2.3742 648.862,2.54086 654.5,3.5C 663.747,27.6521 667.581,52.6521 666,78.5C 665.326,87.9043 663.493,97.0709 660.5,106C 667.547,114.045 674.213,122.378 680.5,131C 678.965,134.569 677.298,138.069 675.5,141.5C 670.857,134.86 665.857,128.527 660.5,122.5 Z M 443.5,5.5 C 436.923,6.33506 430.257,7.50173 423.5,9C 407.996,12.4086 395.996,20.742 387.5,34C 392.5,34.1125 397.5,33.7792 402.5,33C 405.798,28.7002 409.465,24.7002 413.5,21C 428.498,11.8323 444.831,7.16561 462.5,7C 456.194,6.10266 449.861,5.60266 443.5,5.5 Z M 456.5,10.5 C 446.311,11.7138 436.311,14.2138 426.5,18C 419.307,21.2003 413.307,25.867 408.5,32C 440.232,29.699 471.898,30.3656 503.5,34C 492.924,16.0451 477.257,8.21181 456.5,10.5 Z M 493.5,16.5 C 499.394,21.8985 504.394,28.0652 508.5,35C 511.801,35.9967 515.134,36.3301 518.5,36C 512.293,26.6102 503.96,20.1102 493.5,16.5 Z"/></g>
<g><path style="opacity:1" fill="#5f4b02" d="M 660.5,122.5 C 659.833,125.167 659.167,127.833 658.5,130.5C 658.183,127.428 658.516,124.428 659.5,121.5C 660.107,121.624 660.44,121.957 660.5,122.5 Z"/></g>
<g><path style="opacity:1" fill="#8d6e00" d="M 662.5,128.5 C 661.833,131.167 661.167,133.833 660.5,136.5C 660.183,133.428 660.516,130.428 661.5,127.5C 662.107,127.624 662.44,127.957 662.5,128.5 Z"/></g>
<g><path style="opacity:1" fill="#644e01" d="M 224.5,136.5 C 224.56,135.957 224.893,135.624 225.5,135.5C 226.48,138.086 226.813,140.753 226.5,143.5C 225.833,141.167 225.167,138.833 224.5,136.5 Z"/></g>
<g><path style="opacity:1" fill="#886a00" d="M 222.5,142.5 C 222.56,141.957 222.893,141.624 223.5,141.5C 224.48,144.086 224.813,146.753 224.5,149.5C 223.833,147.167 223.167,144.833 222.5,142.5 Z"/></g>
<g><path style="opacity:1" fill="#1b1710" d="M 362.5,210.5 C 396.929,208.119 418.763,223.453 428,256.5C 429.894,288.912 415.394,309.745 384.5,319C 352.042,322.858 330.542,309.358 320,278.5C 315.218,243.816 329.385,221.15 362.5,210.5 Z"/></g>
<g><path style="opacity:1" fill="#1a160f" d="M 507.5,210.5 C 540.74,208.687 561.906,223.687 571,255.5C 573.86,283.596 562.693,303.762 537.5,316C 507.961,325.71 484.794,317.543 468,291.5C 455.171,262.345 461.337,238.178 486.5,219C 493.171,214.986 500.171,212.152 507.5,210.5 Z"/></g>
<g><path style="opacity:1" fill="#fdfdfd" d="M 365.5,212.5 C 396.325,211.186 416.159,225.186 425,254.5C 428.094,287.719 413.594,308.552 381.5,317C 357.696,319.514 339.529,310.68 327,290.5C 314.598,262.711 320.431,239.544 344.5,221C 351.187,217.057 358.187,214.224 365.5,212.5 Z"/></g>
<g><path style="opacity:1" fill="#fdfdfd" d="M 508.5,212.5 C 538.801,211.217 558.635,224.884 568,253.5C 572.025,284.288 559.525,305.121 530.5,316C 507.598,321.034 488.765,314.534 474,296.5C 459.74,274.901 460.074,253.568 475,232.5C 484.022,222.079 495.188,215.412 508.5,212.5 Z"/></g>
<g><path style="opacity:1" fill="#0d0d0d" d="M 351.5,288.5 C 359.665,287.175 363.498,290.509 363,298.5C 361.976,302.68 359.31,304.68 355,304.5C 348.231,303.9 345.565,300.234 347,293.5C 348.025,291.313 349.525,289.646 351.5,288.5 Z"/></g>
<g><path style="opacity:1" fill="#0b0b0b" d="M 531.5,288.5 C 539.204,287.58 543.037,290.913 543,298.5C 539.228,305.232 534.228,306.232 528,301.5C 525.325,296.011 526.492,291.678 531.5,288.5 Z"/></g>
<g><path style="opacity:1" fill="#1e1704" d="M 441.5,297.5 C 451.63,296.801 456.797,301.468 457,311.5C 454.121,319.191 448.621,322.024 440.5,320C 430.964,312.144 431.298,304.644 441.5,297.5 Z"/></g>
<g><path style="opacity:1" fill="#f8c100" d="M 441.5,300.5 C 451.158,298.993 455.325,302.993 454,312.5C 451.647,317.426 447.814,319.26 442.5,318C 437.268,315.367 435.435,311.201 437,305.5C 438.025,303.313 439.525,301.646 441.5,300.5 Z"/></g>
<g><path style="opacity:1" fill="#cf9537" d="M 384.5,325.5 C 404.205,325.26 423.872,325.927 443.5,327.5C 465.152,326.106 486.818,325.606 508.5,326C 526.48,329.64 538.647,340.14 545,357.5C 551.8,398.789 534.634,422.289 493.5,428C 463.125,430.321 432.791,429.987 402.5,427C 360.396,419.579 343.563,395.079 352,353.5C 358.431,338.892 369.264,329.559 384.5,325.5 Z"/></g>
<g><path style="opacity:1" fill="#181206" d="M 438.5,366.5 C 440.167,366.5 441.833,366.5 443.5,366.5C 443.5,367.5 443.5,368.5 443.5,369.5C 435.521,369.628 429.688,373.295 426,380.5C 425.5,380 425,379.5 424.5,379C 428.094,373.57 432.76,369.403 438.5,366.5 Z"/></g>
<g><path style="opacity:1" fill="#0a0602" d="M 442.5,379.5 C 453.812,379.299 456.812,384.132 451.5,394C 447.085,396.345 443.085,395.845 439.5,392.5C 436.309,387.112 437.309,382.779 442.5,379.5 Z"/></g>
<g><path style="opacity:1" fill="#100b04" d="M 461.5,396.5 C 463.028,396.517 463.528,397.184 463,398.5C 457.566,405.27 451.066,406.937 443.5,403.5C 447.484,403.96 451.484,403.46 455.5,402C 457.996,400.669 459.996,398.836 461.5,396.5 Z"/></g>
<g><path style="opacity:1" fill="#728080" d="M 207.5,409.5 C 220.649,408.287 233.316,410.12 245.5,415C 250.293,417.384 251.293,420.718 248.5,425C 237.834,429.564 226.667,431.398 215,430.5C 208.437,430.579 201.937,430.079 195.5,429C 188.063,427.914 184.897,423.747 186,416.5C 188.469,414.348 191.302,412.848 194.5,412C 198.965,411.126 203.298,410.293 207.5,409.5 Z"/></g>
<g><path style="opacity:1" fill="#111212" d="M 217.5,413.5 C 221.179,413.363 224.679,414.029 228,415.5C 228.92,418.308 228.087,420.475 225.5,422C 229.848,422.238 234.181,421.905 238.5,421C 236.655,419.872 234.655,419.372 232.5,419.5C 232.5,418.5 232.5,417.5 232.5,416.5C 236.07,417.246 239.404,418.579 242.5,420.5C 243.308,420.192 243.975,419.692 244.5,419C 243.483,417.951 243.316,416.784 244,415.5C 247.665,419.354 246.832,421.854 241.5,423C 228.619,425.463 215.619,426.13 202.5,425C 198.388,424.378 194.388,423.378 190.5,422C 189.167,420 189.167,418 190.5,416C 191.332,415.312 191.998,415.479 192.5,416.5C 191.41,417.609 191.41,418.609 192.5,419.5C 199.788,416.206 207.454,414.706 215.5,415C 216.416,414.722 217.082,414.222 217.5,413.5 Z"/></g>
<g><path style="opacity:1" fill="#6e7a7a" d="M 216.5,416.5 C 219.5,416.5 222.5,416.5 225.5,416.5C 225.539,418.359 224.706,419.692 223,420.5C 219.038,418.804 215.538,419.47 212.5,422.5C 211.479,421.998 211.312,421.332 212,420.5C 213.397,418.93 214.897,417.596 216.5,416.5 Z"/></g>
<g><path style="opacity:1" fill="#6b7878" d="M 204.5,417.5 C 206.857,417.337 209.19,417.503 211.5,418C 207.057,422.821 201.724,423.821 195.5,421C 198.571,419.704 201.571,418.538 204.5,417.5 Z"/></g>
<g><path style="opacity:1" fill="#758383" d="M 186.5,428.5 C 195.906,432.345 205.739,434.012 216,433.5C 226.497,433.7 236.663,432.033 246.5,428.5C 252.123,430.665 253.956,434.665 252,440.5C 236.158,447.716 219.658,449.882 202.5,447C 202.336,444.301 202.17,441.468 202,438.5C 201.097,437.299 199.931,436.465 198.5,436C 193.463,435.337 188.463,435.504 183.5,436.5C 183.539,433.465 184.539,430.798 186.5,428.5 Z"/></g>
<g><path style="opacity:1" fill="#fbfbfb" d="M 372.5,436.5 C 381.541,436.283 390.541,436.783 399.5,438C 404.153,439.16 408.487,440.993 412.5,443.5C 411.087,446.661 409.42,449.661 407.5,452.5C 408.167,453.167 408.833,453.833 409.5,454.5C 401.63,465.579 397.13,477.913 396,491.5C 394.981,492.687 393.814,493.687 392.5,494.5C 385.645,488.445 379.478,481.778 374,474.5C 366.833,464.167 359.667,453.833 352.5,443.5C 353.665,442.416 354.998,441.583 356.5,441C 361.956,439.473 367.289,437.973 372.5,436.5 Z"/></g>
<g><path style="opacity:1" fill="#fbfbfb" d="M 500.5,436.5 C 515.261,434.797 529.261,437.131 542.5,443.5C 531.268,461.946 518.101,478.946 503,494.5C 500.333,491.833 497.667,489.167 495,486.5C 492.449,476.014 488.615,466.014 483.5,456.5C 484.167,455.833 484.833,455.167 485.5,454.5C 482.902,450.907 481.902,447.074 482.5,443C 488.294,439.905 494.294,437.739 500.5,436.5 Z"/></g>
<g><path style="opacity:1" fill="#f6c000" d="M 186.5,437.5 C 190.182,437.335 193.848,437.501 197.5,438C 199.41,438.408 200.41,439.575 200.5,441.5C 199.611,444.279 198.444,446.945 197,449.5C 192.967,453.868 188.634,457.868 184,461.5C 183.333,462.833 182.667,464.167 182,465.5C 183.406,472.693 183.74,480.026 183,487.5C 167.859,474.824 165.526,460.158 176,443.5C 178.975,440.311 182.475,438.311 186.5,437.5 Z"/></g>
<g><path style="opacity:1" fill="#958040" d="M 250.5,443.5 C 252.028,443.517 252.528,444.184 252,445.5C 243.451,455.713 232.951,463.213 220.5,468C 218.833,468.667 217.167,468.667 215.5,468C 208.292,464.57 201.626,460.403 195.5,455.5C 196.711,453.578 198.044,451.745 199.5,450C 213.643,451.31 227.643,450.31 241.5,447C 244.718,446.1 247.718,444.933 250.5,443.5 Z"/></g>
<g><path style="opacity:1" fill="#f6f6f6" d="M 414.5,444.5 C 421.12,446.428 427.786,448.261 434.5,450C 433.446,452.382 432.779,454.882 432.5,457.5C 424.827,457.218 417.827,455.052 411.5,451C 412.377,448.747 413.377,446.581 414.5,444.5 Z"/></g>
<g><path style="opacity:1" fill="#f0f0f0" d="M 474.5,445.5 C 475.873,445.343 477.207,445.51 478.5,446C 479.833,448.333 481.167,450.667 482.5,453C 475.655,455.967 468.655,457.467 461.5,457.5C 460.305,455.249 459.305,452.915 458.5,450.5C 463.927,448.824 469.261,447.158 474.5,445.5 Z"/></g>
<g><path style="opacity:1" fill="#dc3100" d="M 247.5,483.5 C 248.812,478.985 248.812,474.318 247.5,469.5C 246.824,468.398 246.158,467.398 245.5,466.5C 241.614,462.255 238.447,462.922 236,468.5C 234.56,466.954 232.727,466.121 230.5,466C 238.521,461.649 245.688,456.149 252,449.5C 252.848,472.854 252.514,496.187 251,519.5C 233.903,528.923 216.07,530.757 197.5,525C 193.423,523.213 189.59,521.046 186,518.5C 185.433,500.492 185.1,482.492 185,464.5C 186.695,461.305 189.195,458.972 192.5,457.5C 200.276,462.806 208.442,467.473 217,471.5C 220.617,470.461 224.117,469.128 227.5,467.5C 227.807,468.887 227.807,470.554 227.5,472.5C 220.492,472.666 213.492,472.5 206.5,472C 203.249,468.078 199.416,464.912 195,462.5C 194.503,465.146 194.336,467.813 194.5,470.5C 193.07,470.579 191.736,470.246 190.5,469.5C 189.167,481.167 189.167,492.833 190.5,504.5C 191.736,505.246 193.07,505.579 194.5,505.5C 194.192,507.924 194.526,510.257 195.5,512.5C 198.167,510.833 200.833,509.167 203.5,507.5C 211.624,508.536 219.624,509.869 227.5,511.5C 229.912,511.594 231.745,510.594 233,508.5C 235.153,510.444 237.653,510.944 240.5,510C 241.893,508.829 242.727,507.329 243,505.5C 244.085,504.707 245.252,504.04 246.5,503.5C 247.497,496.866 247.83,490.2 247.5,483.5 Z"/></g>
<g><path style="opacity:1" fill="#fdfdfd" d="M 436.5,450.5 C 440.681,455.522 443.848,461.188 446,467.5C 448.935,461.573 452.268,455.906 456,450.5C 457.265,453.461 458.431,456.461 459.5,459.5C 466.103,459.884 472.603,458.884 479,456.5C 479.772,456.645 480.439,456.978 481,457.5C 486.264,467.366 490.431,477.699 493.5,488.5C 500.376,494.568 505.542,501.902 509,510.5C 514.983,524.28 518.817,538.613 520.5,553.5C 485.342,565.682 449.342,568.849 412.5,563C 399.669,560.792 387.002,557.958 374.5,554.5C 373.735,528.452 382.735,506.452 401.5,488.5C 399.655,486.464 399.155,484.13 400,481.5C 401.888,471.432 406.222,462.766 413,455.5C 419.945,458.195 427.111,459.861 434.5,460.5C 434.851,457.097 435.518,453.763 436.5,450.5 Z"/></g>
<g><path style="opacity:1" fill="#191007" d="M 215.5,452.5 C 223.103,452.91 225.603,456.577 223,463.5C 217.019,468.215 213.186,466.881 211.5,459.5C 211.577,456.335 212.91,454.001 215.5,452.5 Z"/></g>
<g><path style="opacity:1" fill="#d33a00" d="M 215.5,455.5 C 221.313,455.062 222.98,457.562 220.5,463C 213.745,463.756 212.078,461.256 215.5,455.5 Z"/></g>
<g><path style="opacity:1" fill="#fdc500" d="M 537.5,455.5 C 539.624,456.031 541.124,457.365 542,459.5C 548.607,470.987 552.607,483.32 554,496.5C 554.027,539.871 554.693,583.205 556,626.5C 559.846,641.012 568.68,651.179 582.5,657C 588.616,660.725 588.949,664.725 583.5,669C 566.955,671.357 551.289,668.69 536.5,661C 524.785,654.08 517.618,643.913 515,630.5C 514.333,609.167 514.333,587.833 515,566.5C 515.911,563.689 516.744,560.856 517.5,558C 519.739,556.388 521.739,554.555 523.5,552.5C 520.346,532.703 514.012,514.036 504.5,496.5C 516.698,483.756 527.698,470.09 537.5,455.5 Z"/></g>
<g><path style="opacity:1" fill="#fcc500" d="M 357.5,455.5 C 367.368,470.039 378.368,483.706 390.5,496.5C 377.238,513.953 371.238,533.62 372.5,555.5C 374.729,556.577 377.063,557.244 379.5,557.5C 379.605,561.319 380.438,564.986 382,568.5C 382.667,588.833 382.667,609.167 382,629.5C 377.661,649.507 365.495,662.007 345.5,667C 334.935,669.205 324.268,669.872 313.5,669C 309.896,667.666 308.729,665.166 310,661.5C 314.403,656.915 319.57,653.415 325.5,651C 334.216,643.406 339.716,633.906 342,622.5C 342.06,578.147 342.727,533.814 344,489.5C 346.068,477.115 350.568,465.782 357.5,455.5 Z"/></g>
<g><path style="opacity:1" fill="#e2e2e2" d="M 191.5,472.5 C 192.5,472.5 193.5,472.5 194.5,472.5C 194.666,482.839 194.5,493.172 194,503.5C 193.586,503.043 193.086,502.709 192.5,502.5C 191.501,492.522 191.168,482.522 191.5,472.5 Z"/></g>
<g><path style="opacity:1" fill="#e1e1e1" d="M 242.5,472.5 C 243.5,472.5 244.5,472.5 245.5,472.5C 245.5,475.833 245.5,479.167 245.5,482.5C 244.5,482.5 243.5,482.5 242.5,482.5C 242.5,479.167 242.5,475.833 242.5,472.5 Z"/></g>
<g><path style="opacity:1" fill="#f2f2f2" d="M 200.5,473.5 C 204.631,476.779 206.297,481.113 205.5,486.5C 206.373,491.439 204.873,495.439 201,498.5C 200.5,490.173 200.334,481.84 200.5,473.5 Z"/></g>
<g><path style="opacity:1" fill="#4b4b4b" d="M 226.5,481.5 C 226.5,479.5 226.5,477.5 226.5,475.5C 220.642,475.178 214.975,475.511 209.5,476.5C 208.957,476.44 208.624,476.107 208.5,475.5C 214.798,474.504 221.132,474.17 227.5,474.5C 227.802,477.059 227.468,479.393 226.5,481.5 Z"/></g>
<g><path style="opacity:1" fill="#ededed" d="M 226.5,481.5 C 226.74,485.969 226.073,490.302 224.5,494.5C 225.478,496.777 226.145,499.11 226.5,501.5C 223.09,501.384 221.756,503.05 222.5,506.5C 216.794,506.829 211.128,506.495 205.5,505.5C 211.784,496.555 213.117,486.888 209.5,476.5C 214.975,475.511 220.642,475.178 226.5,475.5C 226.5,477.5 226.5,479.5 226.5,481.5 Z"/></g>
<g><path style="opacity:1" fill="#eaeaea" d="M 232.5,474.5 C 233.833,474.5 235.167,474.5 236.5,474.5C 236.823,478.226 236.489,481.893 235.5,485.5C 234.833,485.833 234.167,486.167 233.5,486.5C 232.509,482.555 232.176,478.555 232.5,474.5 Z"/></g>
<g><path style="opacity:1" fill="#982202" d="M 245.5,466.5 C 246.158,467.398 246.824,468.398 247.5,469.5C 248.812,474.318 248.812,478.985 247.5,483.5C 247.734,477.692 247.067,472.026 245.5,466.5 Z"/></g>
<g><path style="opacity:1" fill="#141414" d="M 217.5,482.5 C 222.159,482.015 223.492,483.848 221.5,488C 216.728,488.81 215.395,486.977 217.5,482.5 Z"/></g>
<g><path style="opacity:1" fill="#fac302" d="M 254.5,503.5 C 257.602,503.846 260.435,503.179 263,501.5C 263.706,495.396 260.873,492.729 254.5,493.5C 254.183,490.428 254.516,487.428 255.5,484.5C 275.184,497.298 296.517,500.798 319.5,495C 326.952,493.126 334.285,490.959 341.5,488.5C 340.728,506.823 340.395,525.156 340.5,543.5C 323.007,547.066 305.34,548.232 287.5,547C 273.374,545.57 260.374,541.07 248.5,533.5C 250.718,532.076 252.218,530.076 253,527.5C 254.275,519.553 254.775,511.553 254.5,503.5 Z"/></g>
<g><path style="opacity:1" fill="#101010" d="M 216.5,489.5 C 218.5,489.5 220.5,489.5 222.5,489.5C 222.879,494.297 222.379,498.964 221,503.5C 217.706,506.311 214.706,505.978 212,502.5C 210.287,497.801 211.787,495.468 216.5,495.5C 216.5,493.5 216.5,491.5 216.5,489.5 Z"/></g>
<g><path style="opacity:1" fill="#f7f7f7" d="M 234.5,493.5 C 235.765,494.514 236.431,496.014 236.5,498C 236.333,499.5 236.167,501 236,502.5C 233.292,499.922 232.792,496.922 234.5,493.5 Z"/></g>
<g><path style="opacity:1" fill="#4398b8" d="M 254.5,493.5 C 260.873,492.729 263.706,495.396 263,501.5C 260.435,503.179 257.602,503.846 254.5,503.5C 254.5,500.167 254.5,496.833 254.5,493.5 Z"/></g>
<g><path style="opacity:1" fill="#b0b0b0" d="M 244.5,488.5 C 245.647,492.646 245.814,496.98 245,501.5C 244.586,501.957 244.086,502.291 243.5,502.5C 241.988,497.562 242.321,492.896 244.5,488.5 Z"/></g>
<g><path style="opacity:1" fill="#4598b7" d="M 324.5,498.5 C 328.192,497.971 331.358,498.971 334,501.5C 334.473,506.362 332.14,508.695 327,508.5C 321.687,508.86 319.687,506.527 321,501.5C 322.145,500.364 323.312,499.364 324.5,498.5 Z"/></g>
<g><path style="opacity:1" fill="#4698b6" d="M 276.5,502.5 C 280.459,502.071 283.959,503.071 287,505.5C 288.042,508.804 286.875,510.971 283.5,512C 274.076,513.377 271.743,510.21 276.5,502.5 Z"/></g>
<g><path style="opacity:1" fill="#4097b9" d="M 300.5,502.5 C 304.192,501.971 307.358,502.971 310,505.5C 310.551,510.122 308.384,512.456 303.5,512.5C 295.605,510.908 294.605,507.575 300.5,502.5 Z"/></g>
<g><path style="opacity:1" fill="#1c0800" d="M 199.5,514.5 C 207.296,513.405 209.63,516.572 206.5,524C 204.19,524.497 201.857,524.663 199.5,524.5C 199.5,521.167 199.5,517.833 199.5,514.5 Z"/></g>
<g><path style="opacity:1" fill="#0e0300" d="M 210.5,515.5 C 213.247,515.187 215.914,515.52 218.5,516.5C 216.955,517.452 215.288,517.785 213.5,517.5C 213.5,518.5 213.5,519.5 213.5,520.5C 217.311,520.596 217.311,521.262 213.5,522.5C 214.833,523.167 216.167,523.833 217.5,524.5C 215.257,525.474 212.924,525.808 210.5,525.5C 210.5,522.167 210.5,518.833 210.5,515.5 Z"/></g>
<g><path style="opacity:1" fill="#140300" d="M 220.5,515.5 C 223.247,515.187 225.914,515.52 228.5,516.5C 222.72,517.681 222.386,519.181 227.5,521C 222.27,521.909 222.27,523.075 227.5,524.5C 225.257,525.474 222.924,525.808 220.5,525.5C 220.5,522.167 220.5,518.833 220.5,515.5 Z"/></g>
<g><path style="opacity:1" fill="#230b00" d="M 230.5,514.5 C 233.167,514.5 235.833,514.5 238.5,514.5C 238.055,517.28 238.055,519.947 238.5,522.5C 238.167,522.833 237.833,523.167 237.5,523.5C 235.099,520.587 233.766,520.921 233.5,524.5C 232.5,524.5 231.5,524.5 230.5,524.5C 230.5,521.167 230.5,517.833 230.5,514.5 Z"/></g>
<g><path style="opacity:1" fill="#951d04" d="M 201.5,517.5 C 205.588,517.218 206.088,517.885 203,519.5C 201.97,519.164 201.47,518.497 201.5,517.5 Z"/></g>
<g><path style="opacity:1" fill="#981d02" d="M 201.5,520.5 C 202.675,520.281 203.675,520.614 204.5,521.5C 202.948,522.798 201.948,522.465 201.5,520.5 Z"/></g>
<g><path style="opacity:1" fill="#748181" d="M 185.5,521.5 C 199.378,530.213 214.378,532.713 230.5,529C 237.4,527.533 244.067,525.367 250.5,522.5C 251.372,524.466 251.205,526.466 250,528.5C 231.181,542.644 211.348,544.144 190.5,533C 186.093,530.468 184.426,526.635 185.5,521.5 Z"/></g>
<g><path style="opacity:1" fill="#3a95ba" d="M 381.5,558.5 C 425.831,570.485 470.164,570.485 514.5,558.5C 513.064,568.05 508.564,575.716 501,581.5C 500.915,598.099 500.082,614.599 498.5,631C 482.783,638.326 466.783,639.16 450.5,633.5C 449.501,620.183 449.167,606.85 449.5,593.5C 453.062,593.035 456.395,591.868 459.5,590C 460.517,588.951 460.684,587.784 460,586.5C 451.667,593.167 443.333,593.167 435,586.5C 433.176,587.749 433.343,588.915 435.5,590C 439.089,592.631 443.089,593.797 447.5,593.5C 447.823,606.746 447.489,619.913 446.5,633C 429.945,639.241 413.612,638.575 397.5,631C 396.513,614.569 395.68,598.069 395,581.5C 387.405,575.643 382.905,567.976 381.5,558.5 Z"/></g>
<g><path style="opacity:0.997" fill="#97d3e9" d="M 503.5,614.5 C 506.279,614.279 508.946,614.612 511.5,615.5C 511.723,649.732 529.057,668.399 563.5,671.5C 550.795,673.683 539.129,678.517 528.5,686C 525.462,688.703 522.795,691.703 520.5,695C 516.273,695.458 512.273,694.958 508.5,693.5C 516.475,692.93 522.975,689.596 528,683.5C 523.578,666.713 515.245,652.046 503,639.5C 502.177,630.99 502.343,622.656 503.5,614.5 Z"/></g>
<g><path style="opacity:0.999" fill="#96d2e7" d="M 385.5,615.5 C 388.167,615.5 390.833,615.5 393.5,615.5C 394.656,623.323 394.823,631.323 394,639.5C 382.842,651.64 374.342,665.473 368.5,681C 368.795,683.923 370.129,686.257 372.5,688C 376.623,691.229 381.29,693.062 386.5,693.5C 384.082,694.866 381.416,695.866 378.5,696.5C 371.56,687.846 362.893,681.346 352.5,677C 345.789,674.839 339.122,673.006 332.5,671.5C 366.729,668.276 384.396,649.609 385.5,615.5 Z"/></g>
<g><path style="opacity:0.995" fill="#9bd9ef" d="M 557.5,620.5 C 587.668,625.209 617.001,633.042 645.5,644C 664.073,650.926 680.239,661.426 694,675.5C 706.941,693.06 706.608,710.393 693,727.5C 677.01,742.589 658.51,753.755 637.5,761C 590.727,776.739 542.727,785.906 493.5,788.5C 496.684,786.586 500.351,785.92 504.5,786.5C 504.333,774.495 504.5,762.495 505,750.5C 507.333,748.167 509.667,745.833 512,743.5C 512.5,757.496 512.667,771.496 512.5,785.5C 527.478,784.337 542.311,782.337 557,779.5C 557.333,759.833 557.667,740.167 558,720.5C 561.41,705.425 570.243,694.925 584.5,689C 592.833,682.37 592.499,676.537 583.5,671.5C 590.733,667.364 591.4,662.197 585.5,656C 569.363,649.571 560.03,637.738 557.5,620.5 Z"/></g>
<g><path style="opacity:0.995" fill="#9bd9ef" d="M 339.5,621.5 C 336.791,637.759 327.791,648.925 312.5,655C 305.509,661.219 305.843,666.719 313.5,671.5C 305.358,675.509 304.358,681.009 310.5,688C 324.467,693.302 333.633,703.135 338,717.5C 339.286,737.782 339.953,758.116 340,778.5C 341.948,779.109 343.782,779.776 345.5,780.5C 309.186,775.922 274.519,765.755 241.5,750C 229.871,743.707 219.371,735.874 210,726.5C 196,709.5 196,692.5 210,675.5C 223.761,661.426 239.927,650.926 258.5,644C 284.787,633.846 311.787,626.346 339.5,621.5 Z"/></g>
<g><path style="opacity:1" fill="#3890b4" d="M 396.5,633.5 C 402.661,635.792 408.994,637.625 415.5,639C 426.153,640.397 436.487,639.231 446.5,635.5C 448.618,639.982 447.284,642.815 442.5,644C 427.06,646.92 412.06,645.42 397.5,639.5C 396.534,637.604 396.201,635.604 396.5,633.5 Z"/></g>
<g><path style="opacity:1" fill="#388fb4" d="M 497.5,633.5 C 498.693,633.97 499.36,634.97 499.5,636.5C 499.167,637.5 498.833,638.5 498.5,639.5C 485.94,644.512 472.94,646.346 459.5,645C 456.363,644.399 453.363,643.399 450.5,642C 449.409,639.936 449.242,637.769 450,635.5C 452.93,637.255 456.097,638.422 459.5,639C 472.848,640.94 485.515,639.107 497.5,633.5 Z"/></g>
<g><path style="opacity:1" fill="#9bd8ee" d="M 500.5,693.5 C 484.328,699.599 470.995,709.599 460.5,723.5C 456.952,725.441 453.286,727.107 449.5,728.5C 446.04,726.867 442.706,725.034 439.5,723C 428.902,708.719 415.236,698.886 398.5,693.5C 413.94,687.622 426.606,678.122 436.5,665C 440.386,662.89 444.386,661.057 448.5,659.5C 452.614,661.057 456.614,662.89 460.5,665C 470.675,679.019 484.008,688.519 500.5,693.5 Z"/></g>
<g><path style="opacity:1" fill="#7cbae6" d="M 313.5,671.5 C 319.833,671.5 326.167,671.5 332.5,671.5C 339.122,673.006 345.789,674.839 352.5,677C 362.893,681.346 371.56,687.846 378.5,696.5C 381.416,695.866 384.082,694.866 386.5,693.5C 390.5,693.5 394.5,693.5 398.5,693.5C 415.236,698.886 428.902,708.719 439.5,723C 442.706,725.034 446.04,726.867 449.5,728.5C 453.286,727.107 456.952,725.441 460.5,723.5C 470.995,709.599 484.328,699.599 500.5,693.5C 503.167,693.5 505.833,693.5 508.5,693.5C 512.273,694.958 516.273,695.458 520.5,695C 522.795,691.703 525.462,688.703 528.5,686C 539.129,678.517 550.795,673.683 563.5,671.5C 570.167,671.5 576.833,671.5 583.5,671.5C 592.499,676.537 592.833,682.37 584.5,689C 570.243,694.925 561.41,705.425 558,720.5C 557.667,740.167 557.333,759.833 557,779.5C 542.311,782.337 527.478,784.337 512.5,785.5C 512.667,771.496 512.5,757.496 512,743.5C 509.667,745.833 507.333,748.167 505,750.5C 504.5,762.495 504.333,774.495 504.5,786.5C 500.351,785.92 496.684,786.586 493.5,788.5C 493.167,788.5 492.833,788.5 492.5,788.5C 460.332,787.65 427.999,786.983 395.5,786.5C 395.667,774.495 395.5,762.495 395,750.5C 391.19,746.869 387.857,742.869 385,738.5C 384.5,753.83 384.333,769.163 384.5,784.5C 381.167,784.5 377.833,784.5 374.5,784.5C 364.575,784.082 354.909,782.748 345.5,780.5C 343.782,779.776 341.948,779.109 340,778.5C 339.953,758.116 339.286,737.782 338,717.5C 333.633,703.135 324.467,693.302 310.5,688C 304.358,681.009 305.358,675.509 313.5,671.5 Z"/></g>
<g><path style="opacity:0.991" fill="#9bd9ef" d="M 395.5,786.5 C 388.279,786.65 381.279,785.983 374.5,784.5C 377.833,784.5 381.167,784.5 384.5,784.5C 384.333,769.163 384.5,753.83 385,738.5C 387.857,742.869 391.19,746.869 395,750.5C 395.5,762.495 395.667,774.495 395.5,786.5 Z"/></g>
<g><path style="opacity:1" fill="#96d4ee" d="M 395.5,786.5 C 427.999,786.983 460.332,787.65 492.5,788.5C 484.648,788.175 476.982,788.508 469.5,789.5C 457.833,789.5 446.167,789.5 434.5,789.5C 421.481,788.792 408.481,787.792 395.5,786.5 Z"/></g>
</svg>
