<?xml version="1.0" standalone="no"?>
<!DOCTYPE svg PUBLIC "-//W3C//DTD SVG 20010904//EN"
 "http://www.w3.org/TR/2001/REC-SVG-20010904/DTD/svg10.dtd">
<svg version="1.0" xmlns="http://www.w3.org/2000/svg"
 width="700.000000pt" height="700.000000pt" viewBox="0 0 700.000000 700.000000"
 preserveAspectRatio="xMidYMid meet">
<metadata>
Created by potrace 1.14, written by Peter Selinger 2001-2017
</metadata>
<g transform="translate(0.000000,700.000000) scale(0.100000,-0.100000)"
fill="#000000" stroke="none">
<path d="M3375 6990 c-109 -23 -211 -77 -296 -156 l-49 -47 -69 37 c-144 75
-351 101 -501 63 -117 -31 -242 -100 -324 -180 -40 -40 -81 -84 -92 -99 l-19
-28 -70 27 c-62 24 -84 27 -190 28 -100 0 -131 -4 -187 -23 -227 -78 -387
-296 -392 -531 l-1 -76 -95 -47 c-238 -117 -380 -324 -405 -593 -14 -138 32
-316 113 -441 l38 -59 293 -2375 c205 -1661 298 -2385 310 -2410 9 -19 31 -45
50 -57 l34 -23 1977 0 1977 0 34 23 c19 12 41 38 50 57 12 24 105 756 309
2410 l293 2375 34 53 c82 126 116 243 116 397 0 131 -17 205 -74 322 -70 142
-177 247 -329 321 l-95 47 -1 76 c-5 235 -165 453 -392 531 -56 19 -87 23
-187 23 -106 -1 -128 -4 -190 -28 l-70 -27 -19 28 c-11 15 -52 59 -92 99 -82
80 -207 149 -324 180 -176 45 -419 3 -563 -99 l-28 -20 -52 52 c-111 113 -238
171 -392 176 -49 2 -108 -1 -130 -6z m237 -288 c65 -29 124 -92 159 -170 37
-81 51 -98 96 -113 60 -19 95 -5 173 72 84 84 165 126 271 141 166 23 336 -52
430 -189 l30 -43 -22 -41 c-100 -197 -79 -403 60 -577 52 -65 94 -92 144 -92
57 0 96 25 118 76 25 56 14 104 -38 166 -51 61 -73 114 -73 178 0 187 202 311
393 240 140 -52 225 -220 183 -362 -41 -141 -3 -209 127 -229 94 -14 195 -68
260 -139 133 -143 162 -334 77 -506 l-31 -64 -2464 0 -2464 0 -21 30 c-12 17
-30 54 -40 83 -57 164 -22 329 97 457 50 54 154 120 189 120 7 0 35 -24 63
-52 91 -97 208 -148 336 -148 88 1 140 27 166 85 23 52 19 92 -12 137 -24 33
-98 63 -134 54 -35 -9 -103 10 -142 40 -17 13 -44 49 -59 80 -71 145 -8 326
140 401 108 55 230 39 340 -43 69 -52 95 -60 145 -45 49 14 74 43 116 130 85
177 277 281 466 252 94 -15 163 -48 242 -115 101 -85 136 -93 205 -49 22 15
46 40 53 55 57 137 172 213 309 204 36 -2 86 -13 112 -24z m-858 -2049 c3 -71
13 -390 23 -711 l16 -582 -69 -73 c-137 -141 -231 -308 -281 -494 -23 -87 -26
-116 -26 -268 0 -152 2 -180 26 -270 54 -199 171 -392 326 -537 l78 -73 17
-620 c9 -341 19 -650 22 -687 l5 -68 -265 0 -266 0 -4 23 c-3 12 -84 1012
-180 2222 -97 1210 -178 2215 -180 2233 l-5 32 378 0 378 0 7 -127z m2250 95
c-2 -18 -83 -1023 -180 -2233 -96 -1210 -177 -2210 -180 -2222 l-4 -23 -266 0
-266 0 6 72 c3 40 13 350 22 688 l17 615 77 72 c246 230 372 532 357 858 -13
268 -114 503 -304 706 l-76 80 17 587 c9 323 19 642 22 710 l7 122 378 0 378
0 -5 -32z m626 -113 c61 -31 94 -108 70 -164 -42 -103 -184 -120 -240 -29 -68
112 55 253 170 193z m-45 -515 c18 -11 41 -36 50 -56 17 -35 14 -56 -100 -983
-224 -1815 -222 -1801 -240 -1827 -74 -113 -245 -62 -245 72 0 86 330 2709
345 2742 31 67 125 92 190 52z m-1985 -781 c410 -50 720 -401 720 -814 0 -544
-526 -940 -1049 -788 -234 67 -434 247 -529 474 -88 212 -80 473 19 672 140
279 411 453 724 466 17 0 69 -4 115 -10z"/>
<path d="M2891 6189 c-141 -18 -303 -133 -364 -260 -44 -89 -62 -198 -48 -289
13 -86 61 -193 116 -257 110 -128 342 -203 441 -143 46 29 71 96 55 150 -15
52 -59 87 -119 95 -80 10 -122 27 -162 66 -139 135 -43 369 152 369 76 0 109
-17 183 -95 88 -93 140 -98 234 -21 124 102 288 98 396 -9 47 -48 72 -103 84
-188 11 -79 23 -102 64 -127 64 -40 158 -15 192 49 32 63 9 207 -52 324 -101
192 -321 312 -537 294 -69 -6 -156 -30 -211 -60 -27 -14 -31 -12 -84 25 -91
63 -218 92 -340 77z"/>
</g>
</svg>
